G04 DipTrace 3.2.0.1*
G04 twiigs_panel.GTS*
%MOIN*%
G04 #@! TF.FileFunction,Soldermask,Top*
G04 #@! TF.Part,Single*
%ADD12C,0.001*%
%ADD21C,0.127*%
%ADD22C,0.2*%
%ADD27O,0.307213X0.185165*%
%ADD29C,0.342646*%
%ADD32C,0.00772*%
%FSLAX26Y26*%
G04*
G70*
G90*
G75*
G01*
G04 TopMask*
%LPD*%
D21*
X564000Y4944000D3*
X1814000D3*
D22*
X1382750Y4644000D3*
X614000D3*
X995250D3*
X1764000D3*
D29*
X1389000Y1508000D3*
X989000Y1031000D3*
X595000D3*
Y1508000D3*
X989000D3*
X1389000Y1031000D3*
X1783000Y1508000D3*
X989000Y1969000D3*
X595000D3*
D27*
X1689000Y512058D3*
X689000D3*
D29*
X1783000Y1031000D3*
D27*
X689000Y5334892D3*
X1689000D3*
D29*
X595000Y2444000D3*
X989000D3*
X1783000D3*
Y1969000D3*
X1389000Y2444000D3*
Y1969000D3*
X1269883Y5405948D2*
D12*
X1281883D1*
X955883Y5404948D2*
X1029883D1*
X1040883D2*
X1051883D1*
X1110883D2*
X1121883D1*
X1159883D2*
X1170883D1*
X1266157D2*
X1291234D1*
X1350883D2*
X1375883D1*
X955883Y5403948D2*
X1029883D1*
X1041229D2*
X1052229D1*
X1110384D2*
X1121729D1*
X1159541D2*
X1170541D1*
X1263001D2*
X1299192D1*
X1348084D2*
X1384078D1*
X955883Y5402948D2*
X1029883D1*
X1041562D2*
X1052562D1*
X1109968D2*
X1121477D1*
X1159240D2*
X1170240D1*
X1260415D2*
X1305028D1*
X1345538D2*
X1391293D1*
X955883Y5401948D2*
X1029883D1*
X1041879D2*
X1052879D1*
X1109583D2*
X1121183D1*
X1159015D2*
X1170015D1*
X1258290D2*
X1309276D1*
X1343369D2*
X1397883D1*
X955883Y5400948D2*
X1029883D1*
X1042220D2*
X1053220D1*
X1109258D2*
X1120880D1*
X1158790D2*
X1169790D1*
X1256573D2*
X1310876D1*
X1341613D2*
X1397883D1*
X955883Y5399948D2*
X1029883D1*
X1042556D2*
X1053556D1*
X1109023D2*
X1120548D1*
X1158502D2*
X1169502D1*
X1255188D2*
X1311522D1*
X1340205D2*
X1397883D1*
X955883Y5398948D2*
X1029883D1*
X1042876D2*
X1053880D1*
X1108793D2*
X1120245D1*
X1158192D2*
X1169192D1*
X1183883D2*
X1194883D1*
X1212883D2*
X1223883D1*
X1254007D2*
X1311722D1*
X1339018D2*
X1397883D1*
X955883Y5397948D2*
X1029883D1*
X1043219D2*
X1054254D1*
X1108503D2*
X1120018D1*
X1157884D2*
X1168884D1*
X1183422D2*
X1195345D1*
X1212422D2*
X1224345D1*
X1252934D2*
X1311820D1*
X1337972D2*
X1397883D1*
X955883Y5396948D2*
X1029883D1*
X1043555D2*
X1054683D1*
X1108193D2*
X1119791D1*
X1157545D2*
X1168545D1*
X1183134D2*
X1195632D1*
X1212134D2*
X1224632D1*
X1251939D2*
X1311860D1*
X1337072D2*
X1397883D1*
X955883Y5395948D2*
X1029883D1*
X1043876D2*
X1055119D1*
X1107884D2*
X1119503D1*
X1157210D2*
X1168210D1*
X1182989D2*
X1195777D1*
X1211989D2*
X1224777D1*
X1251060D2*
X1311875D1*
X1336338D2*
X1397883D1*
X955883Y5394948D2*
X1029883D1*
X1044219D2*
X1055510D1*
X1107545D2*
X1119193D1*
X1156891D2*
X1167891D1*
X1182925D2*
X1195842D1*
X1211925D2*
X1224842D1*
X1250330D2*
X1270160D1*
X1289883D2*
X1311881D1*
X1335753D2*
X1355481D1*
X1363883D2*
X1397883D1*
X986883Y5393948D2*
X996883D1*
X1044555D2*
X1055857D1*
X1107210D2*
X1118884D1*
X1156548D2*
X1167548D1*
X1182899D2*
X1195868D1*
X1211899D2*
X1224868D1*
X1249717D2*
X1266874D1*
X1307883D2*
X1311883D1*
X1335297D2*
X1351800D1*
X1388883D2*
X1397883D1*
X986883Y5392948D2*
X996883D1*
X1044879D2*
X1056212D1*
X1106891D2*
X1118549D1*
X1156211D2*
X1167211D1*
X1182889D2*
X1195878D1*
X1211889D2*
X1224878D1*
X1249165D2*
X1264224D1*
X1334924D2*
X1349090D1*
X986883Y5391948D2*
X996883D1*
X1045254D2*
X1056553D1*
X1106551D2*
X1118245D1*
X1155891D2*
X1166891D1*
X1182885D2*
X1195881D1*
X1211885D2*
X1224881D1*
X1248646D2*
X1262151D1*
X1334564D2*
X1347252D1*
X986883Y5390948D2*
X996883D1*
X1045683D2*
X1056875D1*
X1106246D2*
X1118018D1*
X1155552D2*
X1166548D1*
X1182884D2*
X1195883D1*
X1211884D2*
X1224883D1*
X1248137D2*
X1260533D1*
X1334251D2*
X1345999D1*
X986883Y5389948D2*
X996883D1*
X1046119D2*
X1057218D1*
X1106018D2*
X1117791D1*
X1155246D2*
X1166211D1*
X1182883D2*
X1195879D1*
X1211883D2*
X1224879D1*
X1247635D2*
X1259318D1*
X1334020D2*
X1345089D1*
X986883Y5388948D2*
X996883D1*
X1046510D2*
X1057555D1*
X1105791D2*
X1117503D1*
X1155018D2*
X1165891D1*
X1182891D2*
X1195840D1*
X1211891D2*
X1224840D1*
X1247137D2*
X1258402D1*
X1333792D2*
X1344450D1*
X986883Y5387948D2*
X996883D1*
X1046857D2*
X1057876D1*
X1105503D2*
X1117193D1*
X1154791D2*
X1165552D1*
X1182967D2*
X1195674D1*
X1211967D2*
X1224674D1*
X1246669D2*
X1257630D1*
X1333507D2*
X1343988D1*
X986883Y5386948D2*
X996883D1*
X1047212D2*
X1058219D1*
X1105193D2*
X1116884D1*
X1154503D2*
X1165246D1*
X1183149D2*
X1195272D1*
X1212149D2*
X1224272D1*
X1246264D2*
X1256941D1*
X1333232D2*
X1343589D1*
X986883Y5385948D2*
X996883D1*
X1047553D2*
X1058555D1*
X1104884D2*
X1116545D1*
X1154193D2*
X1165018D1*
X1183928D2*
X1194632D1*
X1212928D2*
X1223632D1*
X1245912D2*
X1256394D1*
X1333050D2*
X1343264D1*
X986883Y5384948D2*
X996883D1*
X1047875D2*
X1058876D1*
X1104545D2*
X1116210D1*
X1153884D2*
X1164791D1*
X1184883D2*
X1193883D1*
X1213883D2*
X1222883D1*
X1245556D2*
X1255968D1*
X1332955D2*
X1343062D1*
X986883Y5383948D2*
X996883D1*
X1048218D2*
X1059219D1*
X1104210D2*
X1115891D1*
X1153545D2*
X1164503D1*
X1245214D2*
X1255578D1*
X1332912D2*
X1342959D1*
X986883Y5382948D2*
X996883D1*
X1048555D2*
X1059555D1*
X1103891D2*
X1115551D1*
X1153210D2*
X1164193D1*
X1244892D2*
X1255222D1*
X1332894D2*
X1342913D1*
X986883Y5381948D2*
X996883D1*
X1048876D2*
X1059879D1*
X1103551D2*
X1115246D1*
X1152891D2*
X1163884D1*
X1244552D2*
X1254895D1*
X1332887D2*
X1342894D1*
X986883Y5380948D2*
X996883D1*
X1049219D2*
X1060254D1*
X1103246D2*
X1115018D1*
X1152548D2*
X1163545D1*
X1244246D2*
X1254549D1*
X1332885D2*
X1342887D1*
X986883Y5379948D2*
X996883D1*
X1049555D2*
X1060683D1*
X1103018D2*
X1114791D1*
X1152211D2*
X1163210D1*
X1244018D2*
X1254212D1*
X1332884D2*
X1342885D1*
X986883Y5378948D2*
X996883D1*
X1049876D2*
X1061119D1*
X1102791D2*
X1114503D1*
X1151891D2*
X1162891D1*
X1243791D2*
X1253891D1*
X1332883D2*
X1342884D1*
X986883Y5377948D2*
X996883D1*
X1050219D2*
X1061510D1*
X1102503D2*
X1114193D1*
X1151552D2*
X1162548D1*
X1243507D2*
X1253552D1*
X1332883D2*
X1342883D1*
X986883Y5376948D2*
X996883D1*
X1050555D2*
X1061857D1*
X1102193D2*
X1113884D1*
X1151246D2*
X1162211D1*
X1243232D2*
X1253250D1*
X1332883D2*
X1342883D1*
X986883Y5375948D2*
X996883D1*
X1050876D2*
X1062212D1*
X1101884D2*
X1113549D1*
X1151018D2*
X1161891D1*
X1243050D2*
X1253057D1*
X1332883D2*
X1342883D1*
X986883Y5374948D2*
X996883D1*
X1051219D2*
X1062553D1*
X1101545D2*
X1113245D1*
X1150791D2*
X1161548D1*
X1183883D2*
X1193883D1*
X1212883D2*
X1222883D1*
X1242951D2*
X1252954D1*
X1332883D2*
X1342883D1*
X986883Y5373948D2*
X996883D1*
X1051555D2*
X1062875D1*
X1101210D2*
X1113018D1*
X1150503D2*
X1161211D1*
X1183883D2*
X1193883D1*
X1212883D2*
X1222883D1*
X1242873D2*
X1252874D1*
X1332883D2*
X1342883D1*
X986883Y5372948D2*
X996883D1*
X1051879D2*
X1063218D1*
X1100891D2*
X1112795D1*
X1150193D2*
X1160891D1*
X1183883D2*
X1193883D1*
X1212883D2*
X1222883D1*
X1242727D2*
X1252728D1*
X1332883D2*
X1342883D1*
X986883Y5371948D2*
X996883D1*
X1052254D2*
X1063555D1*
X1100551D2*
X1112546D1*
X1149884D2*
X1160552D1*
X1183883D2*
X1193883D1*
X1212883D2*
X1222883D1*
X1242481D2*
X1252481D1*
X1332883D2*
X1342883D1*
X986883Y5370948D2*
X996883D1*
X1052683D2*
X1063876D1*
X1100246D2*
X1112402D1*
X1149545D2*
X1160246D1*
X1183883D2*
X1193883D1*
X1212883D2*
X1222883D1*
X1242222D2*
X1252222D1*
X1332883D2*
X1342883D1*
X986883Y5369948D2*
X996883D1*
X1053119D2*
X1064219D1*
X1100018D2*
X1112495D1*
X1149210D2*
X1160018D1*
X1183883D2*
X1193883D1*
X1212883D2*
X1222883D1*
X1242047D2*
X1252047D1*
X1332883D2*
X1342883D1*
X986883Y5368948D2*
X996883D1*
X1053510D2*
X1064555D1*
X1099791D2*
X1112784D1*
X1148891D2*
X1159791D1*
X1183883D2*
X1193883D1*
X1212883D2*
X1222883D1*
X1241954D2*
X1251954D1*
X1332883D2*
X1342883D1*
X986883Y5367948D2*
X996883D1*
X1053857D2*
X1064876D1*
X1099503D2*
X1113158D1*
X1148548D2*
X1159503D1*
X1183883D2*
X1193883D1*
X1212883D2*
X1222883D1*
X1241911D2*
X1251911D1*
X1332883D2*
X1342883D1*
X986883Y5366948D2*
X996883D1*
X1054212D2*
X1065219D1*
X1099193D2*
X1113525D1*
X1148211D2*
X1159193D1*
X1183883D2*
X1193883D1*
X1212883D2*
X1222883D1*
X1241894D2*
X1251894D1*
X1332883D2*
X1342887D1*
X986883Y5365948D2*
X996883D1*
X1054553D2*
X1065555D1*
X1098884D2*
X1113862D1*
X1147891D2*
X1158884D1*
X1183883D2*
X1193883D1*
X1212883D2*
X1222883D1*
X1241887D2*
X1251887D1*
X1332883D2*
X1342922D1*
X986883Y5364948D2*
X996883D1*
X1054875D2*
X1065879D1*
X1098545D2*
X1114213D1*
X1147552D2*
X1158545D1*
X1183883D2*
X1193883D1*
X1212883D2*
X1222883D1*
X1241884D2*
X1251884D1*
X1332887D2*
X1343050D1*
X986883Y5363948D2*
X996883D1*
X1055218D2*
X1066254D1*
X1098210D2*
X1114553D1*
X1147246D2*
X1158210D1*
X1183883D2*
X1193883D1*
X1212883D2*
X1222883D1*
X1241880D2*
X1251884D1*
X1332922D2*
X1343293D1*
X986883Y5362948D2*
X996883D1*
X1055555D2*
X1066683D1*
X1097891D2*
X1114875D1*
X1147018D2*
X1157891D1*
X1183883D2*
X1193883D1*
X1212883D2*
X1222883D1*
X1241844D2*
X1251883D1*
X1333050D2*
X1343589D1*
X986883Y5361948D2*
X996883D1*
X1055876D2*
X1067119D1*
X1097551D2*
X1115219D1*
X1146791D2*
X1157548D1*
X1183883D2*
X1193883D1*
X1212883D2*
X1222883D1*
X1241717D2*
X1251879D1*
X1333293D2*
X1343929D1*
X986883Y5360948D2*
X996883D1*
X1056219D2*
X1067510D1*
X1097246D2*
X1115555D1*
X1146503D2*
X1157211D1*
X1183883D2*
X1193883D1*
X1212883D2*
X1222883D1*
X1241477D2*
X1251844D1*
X1333585D2*
X1344432D1*
X986883Y5359948D2*
X996883D1*
X1056555D2*
X1067857D1*
X1097018D2*
X1115876D1*
X1146193D2*
X1156891D1*
X1183883D2*
X1193883D1*
X1212883D2*
X1222883D1*
X1241221D2*
X1251717D1*
X1333887D2*
X1345184D1*
X986883Y5358948D2*
X996883D1*
X1056876D2*
X1068212D1*
X1096791D2*
X1116219D1*
X1145884D2*
X1156548D1*
X1183883D2*
X1193883D1*
X1212883D2*
X1222883D1*
X1241046D2*
X1251477D1*
X1334223D2*
X1346283D1*
X986883Y5357948D2*
X996883D1*
X1057219D2*
X1068553D1*
X1096503D2*
X1116555D1*
X1145545D2*
X1156211D1*
X1183883D2*
X1193883D1*
X1212883D2*
X1222883D1*
X1240954D2*
X1251221D1*
X1334557D2*
X1347958D1*
X986883Y5356948D2*
X996883D1*
X1057555D2*
X1068875D1*
X1096193D2*
X1116876D1*
X1145210D2*
X1155891D1*
X1183883D2*
X1193883D1*
X1212883D2*
X1222883D1*
X1240911D2*
X1251046D1*
X1334880D2*
X1350398D1*
X986883Y5355948D2*
X996883D1*
X1057879D2*
X1069218D1*
X1095884D2*
X1117219D1*
X1144891D2*
X1155552D1*
X1183883D2*
X1193883D1*
X1212883D2*
X1222883D1*
X1240894D2*
X1250954D1*
X1335258D2*
X1353496D1*
X986883Y5354948D2*
X996883D1*
X1058254D2*
X1069555D1*
X1095545D2*
X1117555D1*
X1144548D2*
X1155246D1*
X1183883D2*
X1193883D1*
X1212883D2*
X1222883D1*
X1240887D2*
X1250911D1*
X1335726D2*
X1385883D1*
X986883Y5353948D2*
X996883D1*
X1058683D2*
X1069876D1*
X1095210D2*
X1117879D1*
X1144211D2*
X1155018D1*
X1183883D2*
X1193883D1*
X1212883D2*
X1222883D1*
X1240884D2*
X1250894D1*
X1293883D2*
X1314883D1*
X1336325D2*
X1388303D1*
X986883Y5352948D2*
X996883D1*
X1059119D2*
X1070219D1*
X1094891D2*
X1118254D1*
X1143891D2*
X1154791D1*
X1183883D2*
X1193883D1*
X1212883D2*
X1222883D1*
X1240884D2*
X1250887D1*
X1289128D2*
X1314883D1*
X1337087D2*
X1390423D1*
X986883Y5351948D2*
X996883D1*
X1059510D2*
X1070555D1*
X1094551D2*
X1118683D1*
X1143552D2*
X1154503D1*
X1183883D2*
X1193883D1*
X1212883D2*
X1222883D1*
X1240883D2*
X1250884D1*
X1285222D2*
X1314883D1*
X1337972D2*
X1392162D1*
X986883Y5350948D2*
X996883D1*
X1059857D2*
X1070876D1*
X1094246D2*
X1105729D1*
X1108038D2*
X1119119D1*
X1143246D2*
X1154193D1*
X1183883D2*
X1193883D1*
X1212883D2*
X1222883D1*
X1240883D2*
X1250884D1*
X1282116D2*
X1314883D1*
X1338959D2*
X1393564D1*
X986883Y5349948D2*
X996883D1*
X1060212D2*
X1071219D1*
X1094018D2*
X1105477D1*
X1108290D2*
X1119510D1*
X1143018D2*
X1153884D1*
X1183883D2*
X1193883D1*
X1212883D2*
X1222883D1*
X1240883D2*
X1250883D1*
X1280772D2*
X1314883D1*
X1340109D2*
X1394749D1*
X986883Y5348948D2*
X996883D1*
X1060553D2*
X1071555D1*
X1093791D2*
X1105183D1*
X1108584D2*
X1119857D1*
X1142791D2*
X1153545D1*
X1183883D2*
X1193883D1*
X1212883D2*
X1222883D1*
X1240883D2*
X1250883D1*
X1280296D2*
X1314883D1*
X1341558D2*
X1395795D1*
X986883Y5347948D2*
X996883D1*
X1060875D2*
X1071879D1*
X1093503D2*
X1104880D1*
X1108886D2*
X1120212D1*
X1142503D2*
X1153210D1*
X1183883D2*
X1193883D1*
X1212883D2*
X1222883D1*
X1240883D2*
X1250887D1*
X1280052D2*
X1314883D1*
X1343498D2*
X1396695D1*
X986883Y5346948D2*
X996883D1*
X1061218D2*
X1072254D1*
X1093193D2*
X1104544D1*
X1109223D2*
X1120553D1*
X1142193D2*
X1152891D1*
X1183883D2*
X1193883D1*
X1212883D2*
X1222883D1*
X1240883D2*
X1250922D1*
X1279947D2*
X1314883D1*
X1346199D2*
X1397432D1*
X986883Y5345948D2*
X996883D1*
X1061555D2*
X1072683D1*
X1092884D2*
X1104210D1*
X1109557D2*
X1120875D1*
X1141884D2*
X1152548D1*
X1183883D2*
X1193883D1*
X1212883D2*
X1222883D1*
X1240887D2*
X1251050D1*
X1279906D2*
X1314883D1*
X1349791D2*
X1398048D1*
X986883Y5344948D2*
X996883D1*
X1061876D2*
X1073119D1*
X1092545D2*
X1103890D1*
X1109880D2*
X1121218D1*
X1141545D2*
X1152211D1*
X1183883D2*
X1193883D1*
X1212883D2*
X1222883D1*
X1240922D2*
X1251289D1*
X1279891D2*
X1314883D1*
X1353883D2*
X1398597D1*
X986883Y5343948D2*
X996883D1*
X1062219D2*
X1073510D1*
X1092210D2*
X1103548D1*
X1110254D2*
X1121555D1*
X1141210D2*
X1151891D1*
X1183883D2*
X1193883D1*
X1212883D2*
X1222883D1*
X1241050D2*
X1251546D1*
X1279883D2*
X1314883D1*
X1384687D2*
X1399085D1*
X986883Y5342948D2*
X996883D1*
X1062555D2*
X1073857D1*
X1091891D2*
X1103211D1*
X1110683D2*
X1121876D1*
X1140891D2*
X1151548D1*
X1183883D2*
X1193883D1*
X1212883D2*
X1222883D1*
X1241289D2*
X1251720D1*
X1304883D2*
X1314883D1*
X1386268D2*
X1399498D1*
X986883Y5341948D2*
X996883D1*
X1062876D2*
X1074212D1*
X1091551D2*
X1102891D1*
X1111119D2*
X1122219D1*
X1140548D2*
X1151211D1*
X1183883D2*
X1193883D1*
X1212883D2*
X1222883D1*
X1241546D2*
X1251813D1*
X1304883D2*
X1314883D1*
X1387567D2*
X1399853D1*
X986883Y5340948D2*
X996883D1*
X1063219D2*
X1074553D1*
X1091246D2*
X1102548D1*
X1111510D2*
X1122555D1*
X1140211D2*
X1150891D1*
X1183883D2*
X1193883D1*
X1212883D2*
X1222883D1*
X1241720D2*
X1251855D1*
X1304883D2*
X1314883D1*
X1388598D2*
X1400206D1*
X986883Y5339948D2*
X996883D1*
X1063555D2*
X1074875D1*
X1091018D2*
X1102211D1*
X1111857D2*
X1122879D1*
X1139891D2*
X1150552D1*
X1183883D2*
X1193883D1*
X1212883D2*
X1222883D1*
X1241813D2*
X1251873D1*
X1304883D2*
X1314883D1*
X1389390D2*
X1400513D1*
X986883Y5338948D2*
X996883D1*
X1063876D2*
X1075218D1*
X1090791D2*
X1101891D1*
X1112212D2*
X1123254D1*
X1139552D2*
X1150246D1*
X1183883D2*
X1193883D1*
X1212883D2*
X1222883D1*
X1241855D2*
X1251879D1*
X1304883D2*
X1314883D1*
X1389995D2*
X1400708D1*
X986883Y5337948D2*
X996883D1*
X1064219D2*
X1075555D1*
X1090503D2*
X1101548D1*
X1112553D2*
X1123683D1*
X1139246D2*
X1150018D1*
X1183883D2*
X1193883D1*
X1212883D2*
X1222883D1*
X1241873D2*
X1251882D1*
X1304883D2*
X1314883D1*
X1390425D2*
X1400812D1*
X986883Y5336948D2*
X996883D1*
X1064555D2*
X1075876D1*
X1090193D2*
X1101211D1*
X1112875D2*
X1124119D1*
X1139018D2*
X1149791D1*
X1183883D2*
X1193883D1*
X1212883D2*
X1222883D1*
X1241879D2*
X1251883D1*
X1304883D2*
X1314883D1*
X1390678D2*
X1400893D1*
X986883Y5335948D2*
X996883D1*
X1064879D2*
X1076219D1*
X1089884D2*
X1100891D1*
X1113218D2*
X1124510D1*
X1138791D2*
X1149503D1*
X1183883D2*
X1193883D1*
X1212883D2*
X1222883D1*
X1241882D2*
X1251887D1*
X1304883D2*
X1314883D1*
X1390835D2*
X1401039D1*
X986883Y5334948D2*
X996883D1*
X1065254D2*
X1076555D1*
X1089545D2*
X1100552D1*
X1113555D2*
X1124857D1*
X1138503D2*
X1149193D1*
X1183883D2*
X1193883D1*
X1212883D2*
X1222883D1*
X1241883D2*
X1251922D1*
X1304883D2*
X1314883D1*
X1391016D2*
X1401285D1*
X986883Y5333948D2*
X996883D1*
X1065683D2*
X1076876D1*
X1089210D2*
X1100246D1*
X1113879D2*
X1125212D1*
X1138193D2*
X1148884D1*
X1183883D2*
X1193883D1*
X1212883D2*
X1222883D1*
X1241883D2*
X1252050D1*
X1304883D2*
X1314883D1*
X1391277D2*
X1401544D1*
X986883Y5332948D2*
X996883D1*
X1066119D2*
X1077219D1*
X1088891D2*
X1100018D1*
X1114254D2*
X1125553D1*
X1137884D2*
X1148545D1*
X1183883D2*
X1193883D1*
X1212883D2*
X1222883D1*
X1241887D2*
X1252289D1*
X1304883D2*
X1314883D1*
X1391541D2*
X1401720D1*
X986883Y5331948D2*
X996883D1*
X1066510D2*
X1077555D1*
X1088551D2*
X1099791D1*
X1114683D2*
X1125875D1*
X1137545D2*
X1148210D1*
X1183883D2*
X1193883D1*
X1212883D2*
X1222883D1*
X1241922D2*
X1252546D1*
X1304883D2*
X1314883D1*
X1391719D2*
X1401813D1*
X986883Y5330948D2*
X996883D1*
X1066857D2*
X1077879D1*
X1088246D2*
X1099503D1*
X1115119D2*
X1126218D1*
X1137210D2*
X1147891D1*
X1183883D2*
X1193883D1*
X1212883D2*
X1222883D1*
X1242050D2*
X1252720D1*
X1304883D2*
X1314883D1*
X1391812D2*
X1401855D1*
X986883Y5329948D2*
X996883D1*
X1067212D2*
X1078254D1*
X1088018D2*
X1099193D1*
X1115510D2*
X1126555D1*
X1136891D2*
X1147548D1*
X1183883D2*
X1193883D1*
X1212883D2*
X1222883D1*
X1242289D2*
X1252817D1*
X1304883D2*
X1314883D1*
X1391855D2*
X1401873D1*
X986883Y5328948D2*
X996883D1*
X1067553D2*
X1078683D1*
X1087791D2*
X1098884D1*
X1115857D2*
X1126876D1*
X1136548D2*
X1147211D1*
X1183883D2*
X1193883D1*
X1212883D2*
X1222883D1*
X1242546D2*
X1252894D1*
X1304883D2*
X1314883D1*
X1391873D2*
X1401879D1*
X986883Y5327948D2*
X996883D1*
X1067875D2*
X1079119D1*
X1087503D2*
X1098545D1*
X1116212D2*
X1127219D1*
X1136211D2*
X1146891D1*
X1183883D2*
X1193883D1*
X1212883D2*
X1222883D1*
X1242724D2*
X1253039D1*
X1304883D2*
X1314883D1*
X1391879D2*
X1401882D1*
X986883Y5326948D2*
X996883D1*
X1068218D2*
X1079510D1*
X1087193D2*
X1098210D1*
X1116553D2*
X1127555D1*
X1135891D2*
X1146548D1*
X1183883D2*
X1193883D1*
X1212883D2*
X1222883D1*
X1242852D2*
X1253285D1*
X1304883D2*
X1314883D1*
X1391882D2*
X1401883D1*
X986883Y5325948D2*
X996883D1*
X1068555D2*
X1079857D1*
X1086884D2*
X1097891D1*
X1116875D2*
X1127876D1*
X1135552D2*
X1146211D1*
X1183883D2*
X1193883D1*
X1212883D2*
X1222883D1*
X1243022D2*
X1253548D1*
X1304883D2*
X1314883D1*
X1391883D2*
X1401883D1*
X986883Y5324948D2*
X996883D1*
X1068876D2*
X1080212D1*
X1086545D2*
X1097548D1*
X1117218D2*
X1128219D1*
X1135246D2*
X1145891D1*
X1183883D2*
X1193883D1*
X1212883D2*
X1222883D1*
X1243279D2*
X1253759D1*
X1304883D2*
X1314883D1*
X1391883D2*
X1401883D1*
X986883Y5323948D2*
X996883D1*
X1069219D2*
X1080553D1*
X1086210D2*
X1097211D1*
X1117555D2*
X1128555D1*
X1135018D2*
X1145552D1*
X1183883D2*
X1193883D1*
X1212883D2*
X1222883D1*
X1243546D2*
X1253979D1*
X1304883D2*
X1314883D1*
X1391883D2*
X1401883D1*
X986883Y5322948D2*
X996883D1*
X1069555D2*
X1080875D1*
X1085891D2*
X1096891D1*
X1117879D2*
X1128879D1*
X1134791D2*
X1145246D1*
X1183883D2*
X1193883D1*
X1212883D2*
X1222883D1*
X1243758D2*
X1254265D1*
X1304883D2*
X1314883D1*
X1391883D2*
X1401883D1*
X986883Y5321948D2*
X996883D1*
X1069876D2*
X1081218D1*
X1085551D2*
X1096548D1*
X1118254D2*
X1129254D1*
X1134503D2*
X1145018D1*
X1183883D2*
X1193883D1*
X1212883D2*
X1222883D1*
X1243979D2*
X1254574D1*
X1304883D2*
X1314883D1*
X1391879D2*
X1401883D1*
X986883Y5320948D2*
X996883D1*
X1070219D2*
X1081563D1*
X1085246D2*
X1096211D1*
X1118683D2*
X1129683D1*
X1134193D2*
X1144791D1*
X1183883D2*
X1193883D1*
X1212883D2*
X1222883D1*
X1244265D2*
X1254887D1*
X1304883D2*
X1314883D1*
X1391844D2*
X1401883D1*
X986883Y5319948D2*
X996883D1*
X1070555D2*
X1081960D1*
X1085015D2*
X1095891D1*
X1119119D2*
X1130119D1*
X1133880D2*
X1144503D1*
X1183883D2*
X1193883D1*
X1212883D2*
X1222883D1*
X1244574D2*
X1255257D1*
X1304883D2*
X1314883D1*
X1391717D2*
X1401879D1*
X986883Y5318948D2*
X996883D1*
X1070876D2*
X1082484D1*
X1084761D2*
X1095548D1*
X1119510D2*
X1130513D1*
X1133507D2*
X1144193D1*
X1183883D2*
X1193883D1*
X1212883D2*
X1222883D1*
X1244883D2*
X1255688D1*
X1304883D2*
X1314883D1*
X1391477D2*
X1401844D1*
X986883Y5317948D2*
X996883D1*
X1071219D2*
X1083612D1*
X1084372D2*
X1095211D1*
X1119857D2*
X1130888D1*
X1133050D2*
X1143884D1*
X1183883D2*
X1193883D1*
X1212883D2*
X1222883D1*
X1245221D2*
X1256158D1*
X1304879D2*
X1314883D1*
X1391217D2*
X1401717D1*
X986883Y5316948D2*
X996883D1*
X1071555D2*
X1094891D1*
X1120212D2*
X1131347D1*
X1132500D2*
X1143545D1*
X1183883D2*
X1193883D1*
X1212883D2*
X1222883D1*
X1245556D2*
X1256681D1*
X1304832D2*
X1314883D1*
X1391003D2*
X1401477D1*
X986883Y5315948D2*
X996883D1*
X1071879D2*
X1094548D1*
X1120553D2*
X1143210D1*
X1183883D2*
X1193883D1*
X1212883D2*
X1222883D1*
X1245880D2*
X1257306D1*
X1304715D2*
X1314883D1*
X1390748D2*
X1401221D1*
X986883Y5314948D2*
X996883D1*
X1072254D2*
X1094211D1*
X1120879D2*
X1142891D1*
X1183883D2*
X1193883D1*
X1212883D2*
X1222883D1*
X1246254D2*
X1258080D1*
X1304088D2*
X1314883D1*
X1390335D2*
X1401042D1*
X986883Y5313948D2*
X996883D1*
X1072683D2*
X1093891D1*
X1121254D2*
X1142548D1*
X1183883D2*
X1193883D1*
X1212883D2*
X1222883D1*
X1246687D2*
X1258970D1*
X1302430D2*
X1314883D1*
X1389778D2*
X1400915D1*
X986883Y5312948D2*
X996883D1*
X1073119D2*
X1093548D1*
X1121683D2*
X1142211D1*
X1183883D2*
X1193883D1*
X1212883D2*
X1222883D1*
X1247154D2*
X1259959D1*
X1300185D2*
X1314883D1*
X1389135D2*
X1400745D1*
X986883Y5311948D2*
X996883D1*
X1073510D2*
X1093211D1*
X1122119D2*
X1141891D1*
X1183883D2*
X1193883D1*
X1212883D2*
X1222883D1*
X1247642D2*
X1261112D1*
X1297400D2*
X1314883D1*
X1388289D2*
X1400484D1*
X986883Y5310948D2*
X996883D1*
X1073857D2*
X1092891D1*
X1122510D2*
X1141548D1*
X1183883D2*
X1193883D1*
X1212883D2*
X1222883D1*
X1248140D2*
X1262632D1*
X1294078D2*
X1314883D1*
X1387046D2*
X1400185D1*
X986883Y5309948D2*
X996883D1*
X1074212D2*
X1092548D1*
X1122857D2*
X1141211D1*
X1183883D2*
X1193883D1*
X1212883D2*
X1222883D1*
X1248674D2*
X1265043D1*
X1289896D2*
X1314883D1*
X1385320D2*
X1399877D1*
X986883Y5308948D2*
X996883D1*
X1074553D2*
X1092211D1*
X1123212D2*
X1140891D1*
X1183883D2*
X1193883D1*
X1212883D2*
X1222883D1*
X1249304D2*
X1269383D1*
X1283982D2*
X1314883D1*
X1383127D2*
X1399505D1*
X986883Y5307948D2*
X996883D1*
X1074875D2*
X1091891D1*
X1123553D2*
X1140552D1*
X1183883D2*
X1193883D1*
X1212883D2*
X1222883D1*
X1250079D2*
X1276349D1*
X1275664D2*
X1314883D1*
X1335883D2*
X1344883D1*
X1380580D2*
X1399043D1*
X986883Y5306948D2*
X996883D1*
X1075218D2*
X1091548D1*
X1123875D2*
X1140246D1*
X1183883D2*
X1193883D1*
X1212883D2*
X1222883D1*
X1250966D2*
X1314883D1*
X1335883D2*
X1398481D1*
X986883Y5305948D2*
X996883D1*
X1075555D2*
X1091211D1*
X1124218D2*
X1140018D1*
X1183883D2*
X1193883D1*
X1212883D2*
X1222883D1*
X1251915D2*
X1314883D1*
X1335883D2*
X1397842D1*
X986883Y5304948D2*
X996883D1*
X1075876D2*
X1090891D1*
X1124555D2*
X1139791D1*
X1183883D2*
X1193883D1*
X1212883D2*
X1222883D1*
X1252899D2*
X1314883D1*
X1335883D2*
X1397165D1*
X986883Y5303948D2*
X996883D1*
X1076219D2*
X1090548D1*
X1124879D2*
X1139503D1*
X1183883D2*
X1193883D1*
X1212883D2*
X1222883D1*
X1253930D2*
X1302845D1*
X1305038D2*
X1314883D1*
X1335883D2*
X1396342D1*
X986883Y5302948D2*
X996883D1*
X1076555D2*
X1090211D1*
X1125254D2*
X1139193D1*
X1183883D2*
X1193883D1*
X1212883D2*
X1222883D1*
X1255094D2*
X1300713D1*
X1305290D2*
X1314883D1*
X1335883D2*
X1395259D1*
X986883Y5301948D2*
X996883D1*
X1076876D2*
X1089891D1*
X1125683D2*
X1138884D1*
X1183883D2*
X1193883D1*
X1212883D2*
X1222883D1*
X1256503D2*
X1298430D1*
X1305584D2*
X1314883D1*
X1335883D2*
X1393933D1*
X986883Y5300948D2*
X996883D1*
X1077215D2*
X1089551D1*
X1126115D2*
X1138549D1*
X1183883D2*
X1193883D1*
X1212883D2*
X1222883D1*
X1258216D2*
X1295957D1*
X1305887D2*
X1314883D1*
X1335883D2*
X1392355D1*
X986883Y5299948D2*
X996883D1*
X1077519D2*
X1089247D1*
X1126474D2*
X1138247D1*
X1183883D2*
X1193883D1*
X1212883D2*
X1222883D1*
X1260333D2*
X1293096D1*
X1306228D2*
X1314883D1*
X1335883D2*
X1390414D1*
X986883Y5298948D2*
X996883D1*
X1077728D2*
X1089039D1*
X1126710D2*
X1138039D1*
X1183883D2*
X1193883D1*
X1212883D2*
X1222883D1*
X1263129D2*
X1289475D1*
X1306570D2*
X1314883D1*
X1343671D2*
X1387985D1*
X986883Y5297948D2*
X996883D1*
X1077883D2*
X1088883D1*
X1126883D2*
X1137883D1*
X1183883D2*
X1193883D1*
X1212883D2*
X1222883D1*
X1266765D2*
X1284937D1*
X1306883D2*
X1314883D1*
X1352095D2*
X1385061D1*
X1270883Y5296948D2*
X1279883D1*
X1360883D2*
X1381883D1*
X1042841Y568948D2*
X1050841D1*
X1198841D2*
X1206841D1*
X1042841Y567948D2*
X1050841D1*
X1198841D2*
X1206841D1*
X1042841Y566948D2*
X1050841D1*
X1198841D2*
X1206841D1*
X1042841Y565948D2*
X1050841D1*
X1198841D2*
X1206841D1*
X1042841Y564948D2*
X1050841D1*
X1198841D2*
X1206841D1*
X1042841Y563948D2*
X1050841D1*
X1198841D2*
X1206841D1*
X959841Y562948D2*
X966841D1*
X1042841D2*
X1050841D1*
X1130841D2*
X1168841D1*
X1198841D2*
X1206841D1*
X959841Y561948D2*
X966841D1*
X1042841D2*
X1050841D1*
X1130841D2*
X1172184D1*
X1198841D2*
X1206841D1*
X959841Y560948D2*
X966841D1*
X1042841D2*
X1050841D1*
X1130841D2*
X1174878D1*
X1198841D2*
X1206841D1*
X959841Y559948D2*
X966841D1*
X1042841D2*
X1050841D1*
X1130841D2*
X1176908D1*
X1198841D2*
X1206841D1*
X959841Y558948D2*
X966841D1*
X1042841D2*
X1050841D1*
X1130841D2*
X1178435D1*
X1198841D2*
X1206841D1*
X959841Y557948D2*
X966841D1*
X1042841D2*
X1050841D1*
X1130841D2*
X1179642D1*
X1198841D2*
X1206841D1*
X959841Y556948D2*
X966841D1*
X1042841D2*
X1050841D1*
X1130841D2*
X1180610D1*
X1198841D2*
X1206841D1*
X959841Y555948D2*
X966841D1*
X1042841D2*
X1050841D1*
X1130841D2*
X1181374D1*
X1198841D2*
X1206841D1*
X959841Y554948D2*
X966841D1*
X1042841D2*
X1050841D1*
X1130841D2*
X1182001D1*
X1198841D2*
X1206841D1*
X959841Y553948D2*
X966841D1*
X1042841D2*
X1050841D1*
X1130841D2*
X1138841D1*
X1169799D2*
X1182557D1*
X1198841D2*
X1206841D1*
X959841Y552948D2*
X966841D1*
X1042841D2*
X1050841D1*
X1130841D2*
X1138841D1*
X1171628D2*
X1183078D1*
X1198841D2*
X1206841D1*
X959841Y551948D2*
X966841D1*
X1042841D2*
X1050841D1*
X1130841D2*
X1138841D1*
X1173187D2*
X1183583D1*
X1198841D2*
X1206841D1*
X959841Y550948D2*
X966841D1*
X1042841D2*
X1050841D1*
X1130841D2*
X1138841D1*
X1174393D2*
X1184050D1*
X1198841D2*
X1206841D1*
X959841Y549948D2*
X966841D1*
X1042841D2*
X1050841D1*
X1130841D2*
X1138841D1*
X1175278D2*
X1184425D1*
X1198841D2*
X1206841D1*
X959841Y548948D2*
X966841D1*
X1042841D2*
X1050841D1*
X1130841D2*
X1138841D1*
X1175925D2*
X1184685D1*
X1198841D2*
X1206841D1*
X959841Y547948D2*
X966841D1*
X1042841D2*
X1050841D1*
X1130841D2*
X1138841D1*
X1176377D2*
X1184925D1*
X1198841D2*
X1206841D1*
X959841Y546948D2*
X966841D1*
X1042841D2*
X1050841D1*
X1130841D2*
X1138841D1*
X1176667D2*
X1185215D1*
X1198841D2*
X1206841D1*
X959841Y545948D2*
X966841D1*
X1042841D2*
X1050841D1*
X1130841D2*
X1138841D1*
X1176919D2*
X1185492D1*
X1198841D2*
X1206841D1*
X959841Y544948D2*
X966841D1*
X1042841D2*
X1050841D1*
X1130841D2*
X1138841D1*
X1177213D2*
X1185674D1*
X1198841D2*
X1206841D1*
X959841Y543948D2*
X966841D1*
X1042841D2*
X1050841D1*
X1130841D2*
X1138841D1*
X1177491D2*
X1185769D1*
X1198841D2*
X1206841D1*
X959841Y542948D2*
X966841D1*
X1042841D2*
X1050841D1*
X1130841D2*
X1138841D1*
X1177674D2*
X1185813D1*
X1198841D2*
X1206841D1*
X959841Y541948D2*
X966841D1*
X1042841D2*
X1050841D1*
X1130841D2*
X1138841D1*
X1177769D2*
X1185831D1*
X1198841D2*
X1206841D1*
X959841Y540948D2*
X966841D1*
X1042841D2*
X1050841D1*
X1130841D2*
X1138841D1*
X1177813D2*
X1185837D1*
X1198841D2*
X1206841D1*
X959841Y539948D2*
X966841D1*
X996841D2*
X1017841D1*
X1042841D2*
X1050841D1*
X1130841D2*
X1138841D1*
X1177831D2*
X1185840D1*
X1198841D2*
X1206841D1*
X959841Y538948D2*
X966841D1*
X991437D2*
X1019799D1*
X1042841D2*
X1050841D1*
X1079841D2*
X1090841D1*
X1130841D2*
X1138841D1*
X1177837D2*
X1185841D1*
X1198841D2*
X1206841D1*
X1232841D2*
X1240841D1*
X1274841D2*
X1282841D1*
X1309841D2*
X1352841D1*
X1374841D2*
X1417841D1*
X959841Y537948D2*
X966841D1*
X987195D2*
X1021628D1*
X1042841D2*
X1050841D1*
X1078687D2*
X1089841D1*
X1130841D2*
X1138841D1*
X1177840D2*
X1185841D1*
X1198841D2*
X1206841D1*
X1232841D2*
X1240841D1*
X1274841D2*
X1282841D1*
X1307883D2*
X1352841D1*
X1372883D2*
X1417841D1*
X959841Y536948D2*
X966841D1*
X983971D2*
X1023187D1*
X1042841D2*
X1050841D1*
X1077439D2*
X1088841D1*
X1130841D2*
X1138841D1*
X1177841D2*
X1185841D1*
X1198841D2*
X1206841D1*
X1232841D2*
X1240841D1*
X1274841D2*
X1282841D1*
X1306050D2*
X1352837D1*
X1371050D2*
X1417837D1*
X959841Y535948D2*
X966841D1*
X982675D2*
X1024397D1*
X1042841D2*
X1050841D1*
X1076180D2*
X1087841D1*
X1130841D2*
X1138841D1*
X1177841D2*
X1185841D1*
X1198841D2*
X1206841D1*
X1232841D2*
X1240841D1*
X1274841D2*
X1282841D1*
X1304461D2*
X1352783D1*
X1369461D2*
X1417783D1*
X959841Y534948D2*
X966841D1*
X982226D2*
X1025317D1*
X1042841D2*
X1050841D1*
X1075005D2*
X1086841D1*
X1130841D2*
X1138841D1*
X1177841D2*
X1185841D1*
X1198841D2*
X1206841D1*
X1232841D2*
X1240841D1*
X1274841D2*
X1282841D1*
X1303158D2*
X1352642D1*
X1368158D2*
X1417642D1*
X959841Y533948D2*
X966841D1*
X981997D2*
X1026092D1*
X1042841D2*
X1050841D1*
X1073912D2*
X1085841D1*
X1130841D2*
X1138841D1*
X1177841D2*
X1185841D1*
X1198841D2*
X1206841D1*
X1232841D2*
X1240841D1*
X1274841D2*
X1282841D1*
X1302122D2*
X1351804D1*
X1367122D2*
X1416804D1*
X959841Y532948D2*
X966841D1*
X981897D2*
X1026783D1*
X1042841D2*
X1050841D1*
X1072869D2*
X1084837D1*
X1130841D2*
X1138841D1*
X1177837D2*
X1185837D1*
X1198841D2*
X1206841D1*
X1232841D2*
X1240841D1*
X1274841D2*
X1282841D1*
X1301295D2*
X1349726D1*
X1366295D2*
X1414726D1*
X959841Y531948D2*
X966841D1*
X981841D2*
X997841D1*
X1014444D2*
X1027330D1*
X1042841D2*
X1050841D1*
X1071852D2*
X1083802D1*
X1130841D2*
X1138841D1*
X1177802D2*
X1185802D1*
X1198841D2*
X1206841D1*
X1232841D2*
X1240841D1*
X1274841D2*
X1282841D1*
X1300563D2*
X1347453D1*
X1365563D2*
X1412453D1*
X959841Y530948D2*
X966841D1*
X1016579D2*
X1027756D1*
X1042841D2*
X1050841D1*
X1070845D2*
X1082675D1*
X1130841D2*
X1138841D1*
X1177675D2*
X1185675D1*
X1198841D2*
X1206841D1*
X1232841D2*
X1240841D1*
X1274841D2*
X1282841D1*
X1299889D2*
X1314431D1*
X1330565D2*
X1345499D1*
X1364889D2*
X1379431D1*
X1395565D2*
X1410499D1*
X959841Y529948D2*
X966841D1*
X1018117D2*
X1028142D1*
X1042841D2*
X1050841D1*
X1069842D2*
X1081435D1*
X1130841D2*
X1138841D1*
X1177431D2*
X1185435D1*
X1198841D2*
X1206841D1*
X1232841D2*
X1240841D1*
X1274841D2*
X1282841D1*
X1299349D2*
X1311676D1*
X1332854D2*
X1343841D1*
X1364349D2*
X1376676D1*
X1397854D2*
X1408841D1*
X959841Y528948D2*
X966841D1*
X1019163D2*
X1028463D1*
X1042841D2*
X1050841D1*
X1068842D2*
X1080179D1*
X1130841D2*
X1138841D1*
X1177140D2*
X1185175D1*
X1198841D2*
X1206841D1*
X1232841D2*
X1240841D1*
X1274841D2*
X1282841D1*
X1298925D2*
X1309675D1*
X1334539D2*
X1344457D1*
X1363925D2*
X1374675D1*
X1399539D2*
X1409457D1*
X959841Y527948D2*
X966841D1*
X1019881D2*
X1028663D1*
X1042841D2*
X1050841D1*
X1067841D2*
X1079004D1*
X1130841D2*
X1138841D1*
X1176834D2*
X1184965D1*
X1198841D2*
X1206841D1*
X1232841D2*
X1240841D1*
X1274841D2*
X1282841D1*
X1298536D2*
X1308227D1*
X1335744D2*
X1344996D1*
X1363536D2*
X1373227D1*
X1400744D2*
X1409996D1*
X959841Y526948D2*
X966841D1*
X1020357D2*
X1028765D1*
X1042841D2*
X1050841D1*
X1066841D2*
X1077912D1*
X1130841D2*
X1138841D1*
X1176463D2*
X1184745D1*
X1198841D2*
X1206841D1*
X1232841D2*
X1240841D1*
X1274841D2*
X1282841D1*
X1298180D2*
X1307179D1*
X1336640D2*
X1345436D1*
X1363180D2*
X1372179D1*
X1401640D2*
X1410436D1*
X959841Y525948D2*
X966841D1*
X1020626D2*
X1028811D1*
X1042841D2*
X1050841D1*
X1065837D2*
X1076869D1*
X1130841D2*
X1138841D1*
X1175993D2*
X1184459D1*
X1198841D2*
X1206841D1*
X1232841D2*
X1240841D1*
X1274841D2*
X1282841D1*
X1297853D2*
X1306466D1*
X1337275D2*
X1345803D1*
X1362853D2*
X1371466D1*
X1402275D2*
X1410803D1*
X959841Y524948D2*
X966841D1*
X1020790D2*
X1028830D1*
X1042841D2*
X1050841D1*
X1064802D2*
X1075852D1*
X1130841D2*
X1138841D1*
X1175356D2*
X1184150D1*
X1198841D2*
X1206841D1*
X1232841D2*
X1240841D1*
X1274841D2*
X1282841D1*
X1297511D2*
X1305970D1*
X1337736D2*
X1346161D1*
X1362511D2*
X1370970D1*
X1402736D2*
X1411161D1*
X959841Y523948D2*
X966841D1*
X1020973D2*
X1028837D1*
X1042841D2*
X1050841D1*
X1063675D2*
X1074845D1*
X1130841D2*
X1138841D1*
X1174428D2*
X1183838D1*
X1198841D2*
X1206841D1*
X1232841D2*
X1240841D1*
X1274841D2*
X1282841D1*
X1297209D2*
X1305556D1*
X1338135D2*
X1346470D1*
X1362209D2*
X1370556D1*
X1403135D2*
X1411470D1*
X959841Y522948D2*
X966841D1*
X1021234D2*
X1028840D1*
X1042841D2*
X1050841D1*
X1062435D2*
X1073842D1*
X1130841D2*
X1138841D1*
X1173144D2*
X1183468D1*
X1198841D2*
X1206841D1*
X1232841D2*
X1240841D1*
X1274841D2*
X1282841D1*
X1297015D2*
X1305225D1*
X1338461D2*
X1346666D1*
X1362015D2*
X1370225D1*
X1403461D2*
X1411666D1*
X959841Y521948D2*
X966841D1*
X1021499D2*
X1028841D1*
X1042841D2*
X1050841D1*
X1061179D2*
X1072842D1*
X1130841D2*
X1138841D1*
X1171559D2*
X1183037D1*
X1198841D2*
X1206841D1*
X1232841D2*
X1240841D1*
X1274841D2*
X1282841D1*
X1296916D2*
X1305021D1*
X1338662D2*
X1346766D1*
X1361916D2*
X1370021D1*
X1403662D2*
X1411766D1*
X959841Y520948D2*
X966841D1*
X1021673D2*
X1028841D1*
X1042841D2*
X1050841D1*
X1059985D2*
X1071841D1*
X1130841D2*
X1182566D1*
X1198841D2*
X1206841D1*
X1232841D2*
X1240841D1*
X1274841D2*
X1282841D1*
X1296871D2*
X1304918D1*
X1338765D2*
X1346812D1*
X1361871D2*
X1369918D1*
X1403765D2*
X1411812D1*
X959841Y519948D2*
X966841D1*
X1021731D2*
X1028841D1*
X1042841D2*
X1050841D1*
X1058702D2*
X1070841D1*
X1130841D2*
X1182044D1*
X1198841D2*
X1206841D1*
X1232841D2*
X1240841D1*
X1274841D2*
X1282841D1*
X1296852D2*
X1304871D1*
X1338811D2*
X1346830D1*
X1361852D2*
X1369871D1*
X1403811D2*
X1411830D1*
X959841Y518948D2*
X966841D1*
X1021646D2*
X1028841D1*
X1042841D2*
X1050841D1*
X1056887D2*
X1069841D1*
X1130841D2*
X1181414D1*
X1198841D2*
X1206841D1*
X1232841D2*
X1240841D1*
X1274841D2*
X1282841D1*
X1296845D2*
X1304852D1*
X1338830D2*
X1346837D1*
X1361845D2*
X1369852D1*
X1403830D2*
X1411837D1*
X959841Y517948D2*
X966841D1*
X1021425D2*
X1028841D1*
X1042841D2*
X1050841D1*
X1054159D2*
X1068841D1*
X1130841D2*
X1180602D1*
X1198841D2*
X1206841D1*
X1232841D2*
X1240841D1*
X1274841D2*
X1282841D1*
X1296843D2*
X1304845D1*
X1338837D2*
X1346840D1*
X1361843D2*
X1369845D1*
X1403837D2*
X1411840D1*
X959841Y516948D2*
X966841D1*
X1021175D2*
X1028841D1*
X1042841D2*
X1067841D1*
X1130841D2*
X1179549D1*
X1198841D2*
X1206841D1*
X1232841D2*
X1240841D1*
X1274841D2*
X1282841D1*
X1296842D2*
X1304843D1*
X1338840D2*
X1346841D1*
X1361842D2*
X1369843D1*
X1403840D2*
X1411841D1*
X959841Y515948D2*
X966841D1*
X1021002D2*
X1028841D1*
X1042841D2*
X1066841D1*
X1130841D2*
X1178193D1*
X1198841D2*
X1206841D1*
X1232841D2*
X1240841D1*
X1274841D2*
X1282841D1*
X1296841D2*
X1304846D1*
X1338841D2*
X1346837D1*
X1361841D2*
X1369846D1*
X1403841D2*
X1411837D1*
X959841Y514948D2*
X966841D1*
X1020905D2*
X1028841D1*
X1042841D2*
X1065841D1*
X1130841D2*
X1176552D1*
X1198841D2*
X1206841D1*
X1232841D2*
X1240841D1*
X1274841D2*
X1282841D1*
X1296845D2*
X1304880D1*
X1338837D2*
X1346802D1*
X1361845D2*
X1369880D1*
X1403837D2*
X1411802D1*
X959841Y513948D2*
X966841D1*
X988841D2*
X1028841D1*
X1042841D2*
X1064841D1*
X1130841D2*
X1138841D1*
X1144841D2*
X1174731D1*
X1198841D2*
X1206841D1*
X1232841D2*
X1240841D1*
X1274841D2*
X1282841D1*
X1296880D2*
X1305008D1*
X1338802D2*
X1346675D1*
X1361880D2*
X1370008D1*
X1403802D2*
X1411675D1*
X959841Y512948D2*
X966841D1*
X987229D2*
X1028841D1*
X1042841D2*
X1063841D1*
X1130841D2*
X1138841D1*
X1155841D2*
X1172841D1*
X1198841D2*
X1206841D1*
X1232841D2*
X1240841D1*
X1274841D2*
X1282841D1*
X1297008D2*
X1305251D1*
X1338671D2*
X1346435D1*
X1362008D2*
X1370251D1*
X1403671D2*
X1411435D1*
X959841Y511948D2*
X966841D1*
X985729D2*
X1028841D1*
X1042841D2*
X1064687D1*
X1130841D2*
X1138841D1*
X1198841D2*
X1206841D1*
X1232841D2*
X1240841D1*
X1274841D2*
X1282841D1*
X1297247D2*
X1305543D1*
X1338396D2*
X1346175D1*
X1362247D2*
X1370543D1*
X1403396D2*
X1411175D1*
X959841Y510948D2*
X966841D1*
X984452D2*
X1028841D1*
X1042841D2*
X1065439D1*
X1130841D2*
X1138841D1*
X1198841D2*
X1206841D1*
X1232841D2*
X1240841D1*
X1274841D2*
X1282841D1*
X1297508D2*
X1305848D1*
X1338008D2*
X1345965D1*
X1362508D2*
X1370848D1*
X1403008D2*
X1410965D1*
X959841Y509948D2*
X966841D1*
X983456D2*
X1028841D1*
X1042841D2*
X1066180D1*
X1130841D2*
X1138841D1*
X1198841D2*
X1206841D1*
X1232841D2*
X1240841D1*
X1274841D2*
X1282841D1*
X1297717D2*
X1306220D1*
X1337555D2*
X1345745D1*
X1362717D2*
X1371220D1*
X1402555D2*
X1410745D1*
X959841Y508948D2*
X966841D1*
X982632D2*
X1028841D1*
X1042841D2*
X1067001D1*
X1130841D2*
X1138841D1*
X1198841D2*
X1206841D1*
X1232841D2*
X1240841D1*
X1274841D2*
X1282841D1*
X1297941D2*
X1306685D1*
X1337040D2*
X1345459D1*
X1362941D2*
X1371685D1*
X1402040D2*
X1410459D1*
X959841Y507948D2*
X966841D1*
X981917D2*
X1018841D1*
X1020841D2*
X1028841D1*
X1042841D2*
X1050841D1*
X1056837D2*
X1067873D1*
X1130841D2*
X1138841D1*
X1198841D2*
X1206841D1*
X1232841D2*
X1240841D1*
X1274841D2*
X1282841D1*
X1298258D2*
X1307291D1*
X1336409D2*
X1345150D1*
X1363258D2*
X1372291D1*
X1401409D2*
X1410150D1*
X959841Y506948D2*
X966841D1*
X981360D2*
X1004841D1*
X1020841D2*
X1028841D1*
X1042841D2*
X1050841D1*
X1057802D2*
X1068703D1*
X1130841D2*
X1138841D1*
X1198841D2*
X1206841D1*
X1232841D2*
X1240841D1*
X1274841D2*
X1282841D1*
X1298664D2*
X1308131D1*
X1335558D2*
X1344838D1*
X1363664D2*
X1373131D1*
X1400558D2*
X1409838D1*
X959841Y505948D2*
X966841D1*
X980929D2*
X993038D1*
X1020841D2*
X1028841D1*
X1042841D2*
X1050841D1*
X1058675D2*
X1069446D1*
X1130841D2*
X1138841D1*
X1198841D2*
X1206841D1*
X1232841D2*
X1240841D1*
X1274841D2*
X1282841D1*
X1299123D2*
X1309345D1*
X1334340D2*
X1344468D1*
X1364123D2*
X1374345D1*
X1399340D2*
X1409468D1*
X959841Y504948D2*
X966841D1*
X980541D2*
X991457D1*
X1020841D2*
X1028841D1*
X1042841D2*
X1050841D1*
X1059435D2*
X1070179D1*
X1130841D2*
X1138841D1*
X1198841D2*
X1206841D1*
X1232841D2*
X1240841D1*
X1274841D2*
X1282841D1*
X1299641D2*
X1311098D1*
X1332585D2*
X1344037D1*
X1364641D2*
X1376098D1*
X1397585D2*
X1409037D1*
X959841Y503948D2*
X966841D1*
X980220D2*
X990161D1*
X1020841D2*
X1028841D1*
X1042841D2*
X1050841D1*
X1060179D2*
X1070967D1*
X1130841D2*
X1138841D1*
X1198841D2*
X1206841D1*
X1232841D2*
X1240841D1*
X1274841D2*
X1282841D1*
X1300265D2*
X1313355D1*
X1330328D2*
X1343566D1*
X1365265D2*
X1378355D1*
X1395328D2*
X1408566D1*
X959841Y502948D2*
X966841D1*
X980019D2*
X989165D1*
X1020841D2*
X1028841D1*
X1042841D2*
X1050841D1*
X1061000D2*
X1071746D1*
X1130841D2*
X1138841D1*
X1198841D2*
X1206841D1*
X1232841D2*
X1240841D1*
X1274841D2*
X1282841D1*
X1301037D2*
X1343044D1*
X1366037D2*
X1408044D1*
X959841Y501948D2*
X966841D1*
X979917D2*
X988389D1*
X1020841D2*
X1028841D1*
X1042841D2*
X1050841D1*
X1061873D2*
X1072463D1*
X1130841D2*
X1138841D1*
X1198841D2*
X1206841D1*
X1232841D2*
X1240841D1*
X1274841D2*
X1282841D1*
X1301917D2*
X1342418D1*
X1366917D2*
X1407418D1*
X959841Y500948D2*
X966841D1*
X979871D2*
X988107D1*
X1020841D2*
X1028841D1*
X1042841D2*
X1050841D1*
X1062703D2*
X1073185D1*
X1130841D2*
X1138841D1*
X1198841D2*
X1206841D1*
X1232841D2*
X1240841D1*
X1274841D2*
X1282841D1*
X1302841D2*
X1341641D1*
X1367841D2*
X1406641D1*
X959841Y499948D2*
X966841D1*
X979852D2*
X987955D1*
X1020841D2*
X1028841D1*
X1042841D2*
X1050841D1*
X1063446D2*
X1073969D1*
X1130841D2*
X1138841D1*
X1198841D2*
X1206841D1*
X1232841D2*
X1240841D1*
X1274841D2*
X1282841D1*
X1301537D2*
X1340715D1*
X1366537D2*
X1405715D1*
X959841Y498948D2*
X966841D1*
X979845D2*
X987886D1*
X1020841D2*
X1028841D1*
X1042841D2*
X1050841D1*
X1064183D2*
X1074746D1*
X1130841D2*
X1138841D1*
X1198841D2*
X1206841D1*
X1232841D2*
X1240841D1*
X1274841D2*
X1282841D1*
X1300372D2*
X1339588D1*
X1365372D2*
X1404588D1*
X959837Y497948D2*
X966841D1*
X979843D2*
X987858D1*
X1020841D2*
X1028841D1*
X1042841D2*
X1050841D1*
X1065002D2*
X1075464D1*
X1130841D2*
X1138841D1*
X1198845D2*
X1206841D1*
X1232841D2*
X1240841D1*
X1274841D2*
X1282841D1*
X1299457D2*
X1338088D1*
X1364457D2*
X1403088D1*
X959802Y496948D2*
X966841D1*
X979842D2*
X987847D1*
X1020841D2*
X1028841D1*
X1042841D2*
X1050841D1*
X1065873D2*
X1076189D1*
X1130841D2*
X1138841D1*
X1198880D2*
X1206845D1*
X1232841D2*
X1240841D1*
X1274841D2*
X1282841D1*
X1298747D2*
X1335971D1*
X1363747D2*
X1400971D1*
X959675Y495948D2*
X966841D1*
X979841D2*
X987843D1*
X1020841D2*
X1028841D1*
X1042841D2*
X1050841D1*
X1066703D2*
X1077004D1*
X1130841D2*
X1138841D1*
X1199008D2*
X1206880D1*
X1232841D2*
X1240841D1*
X1274841D2*
X1282841D1*
X1298156D2*
X1333119D1*
X1363156D2*
X1398119D1*
X959435Y494948D2*
X966841D1*
X979841D2*
X987842D1*
X1020837D2*
X1028841D1*
X1042841D2*
X1050841D1*
X1067446D2*
X1077874D1*
X1130841D2*
X1138841D1*
X1199247D2*
X1207008D1*
X1232845D2*
X1240845D1*
X1274837D2*
X1282841D1*
X1297653D2*
X1329841D1*
X1362653D2*
X1394841D1*
X959175Y493948D2*
X966841D1*
X979841D2*
X987841D1*
X1020790D2*
X1028841D1*
X1042841D2*
X1050841D1*
X1068183D2*
X1078703D1*
X1130841D2*
X1138841D1*
X1199504D2*
X1207251D1*
X1232880D2*
X1240880D1*
X1274794D2*
X1282841D1*
X1297269D2*
X1306038D1*
X1362269D2*
X1371038D1*
X958965Y492948D2*
X966841D1*
X979841D2*
X987841D1*
X1020673D2*
X1028841D1*
X1042841D2*
X1050841D1*
X1069002D2*
X1079446D1*
X1130841D2*
X1138841D1*
X1199678D2*
X1207543D1*
X1233008D2*
X1241012D1*
X1274689D2*
X1282841D1*
X1297039D2*
X1305453D1*
X1362039D2*
X1370453D1*
X958741Y491948D2*
X966841D1*
X979841D2*
X987845D1*
X1020046D2*
X1028841D1*
X1042841D2*
X1050841D1*
X1069873D2*
X1080179D1*
X1130841D2*
X1138841D1*
X1199775D2*
X1207848D1*
X1233251D2*
X1241290D1*
X1274167D2*
X1282841D1*
X1296925D2*
X1305126D1*
X1361925D2*
X1370126D1*
X958424Y490948D2*
X966837D1*
X979845D2*
X987884D1*
X1018350D2*
X1028841D1*
X1042841D2*
X1050841D1*
X1070703D2*
X1080967D1*
X1130841D2*
X1138841D1*
X1199852D2*
X1208224D1*
X1233543D2*
X1241713D1*
X1272825D2*
X1282841D1*
X1296874D2*
X1304949D1*
X1361874D2*
X1369949D1*
X958015Y489948D2*
X966802D1*
X979880D2*
X988051D1*
X1015973D2*
X1028841D1*
X1042841D2*
X1050841D1*
X1071446D2*
X1081746D1*
X1130841D2*
X1138841D1*
X1199997D2*
X1208732D1*
X1233848D2*
X1242297D1*
X1271008D2*
X1282841D1*
X1296857D2*
X1305141D1*
X1361857D2*
X1370141D1*
X957516Y488948D2*
X966675D1*
X980008D2*
X988363D1*
X1012878D2*
X1028841D1*
X1042841D2*
X1050841D1*
X1072183D2*
X1082463D1*
X1130841D2*
X1138841D1*
X1200247D2*
X1209377D1*
X1234216D2*
X1243092D1*
X1268770D2*
X1282841D1*
X1296885D2*
X1306040D1*
X1361885D2*
X1371040D1*
X956796Y487948D2*
X966431D1*
X980251D2*
X989191D1*
X1008873D2*
X1028841D1*
X1042841D2*
X1050841D1*
X1073002D2*
X1083189D1*
X1130841D2*
X1138841D1*
X1200541D2*
X1210872D1*
X1234646D2*
X1244137D1*
X1266120D2*
X1282841D1*
X1297013D2*
X1307339D1*
X1362013D2*
X1372339D1*
X955808Y486948D2*
X966140D1*
X980547D2*
X991648D1*
X1003309D2*
X1028841D1*
X1042841D2*
X1050841D1*
X1073873D2*
X1084004D1*
X1130841D2*
X1138841D1*
X1200848D2*
X1213007D1*
X1235116D2*
X1245487D1*
X1263001D2*
X1282841D1*
X1297287D2*
X1338841D1*
X1362287D2*
X1403841D1*
X952696Y485948D2*
X965834D1*
X980884D2*
X995709D1*
X995690D2*
X1028841D1*
X1042841D2*
X1050841D1*
X1074703D2*
X1084874D1*
X1130841D2*
X1138841D1*
X1201220D2*
X1215747D1*
X1235639D2*
X1247104D1*
X1259503D2*
X1282841D1*
X1297678D2*
X1340915D1*
X1362678D2*
X1405915D1*
X937841Y484948D2*
X942841D1*
X947838D2*
X965463D1*
X981347D2*
X1028841D1*
X1042841D2*
X1050841D1*
X1075446D2*
X1085703D1*
X1130841D2*
X1138841D1*
X1201685D2*
X1218618D1*
X1236264D2*
X1282841D1*
X1298162D2*
X1342702D1*
X1363162D2*
X1407702D1*
X937691Y483948D2*
X964997D1*
X981925D2*
X1019034D1*
X1021879D2*
X1028841D1*
X1042841D2*
X1050841D1*
X1076183D2*
X1086446D1*
X1130841D2*
X1138841D1*
X1202283D2*
X1220965D1*
X1237038D2*
X1272996D1*
X1274683D2*
X1282841D1*
X1298762D2*
X1344124D1*
X1363762D2*
X1409124D1*
X937482Y482948D2*
X964396D1*
X982543D2*
X1016410D1*
X1022007D2*
X1028841D1*
X1042841D2*
X1050841D1*
X1077002D2*
X1087179D1*
X1130841D2*
X1138841D1*
X1203049D2*
X1222730D1*
X1237924D2*
X1271244D1*
X1275396D2*
X1282841D1*
X1299423D2*
X1345185D1*
X1364423D2*
X1410185D1*
X937290Y481948D2*
X963595D1*
X983262D2*
X1013909D1*
X1022251D2*
X1028841D1*
X1042841D2*
X1050841D1*
X1077873D2*
X1087967D1*
X1130841D2*
X1138841D1*
X1203970D2*
X1223413D1*
X1238878D2*
X1269499D1*
X1275974D2*
X1282841D1*
X1300040D2*
X1346035D1*
X1365040D2*
X1411035D1*
X937511Y480948D2*
X962535D1*
X984233D2*
X1011332D1*
X1022546D2*
X1028841D1*
X1042841D2*
X1050841D1*
X1078702D2*
X1088745D1*
X1130841D2*
X1138841D1*
X1205084D2*
X1223645D1*
X1239900D2*
X1267635D1*
X1276431D2*
X1282841D1*
X1300156D2*
X1346760D1*
X1365156D2*
X1411760D1*
X938285Y479948D2*
X961067D1*
X985574D2*
X1008523D1*
X1022875D2*
X1028841D1*
X1042841D2*
X1050841D1*
X1079437D2*
X1089454D1*
X1130841D2*
X1138841D1*
X1206465D2*
X1223762D1*
X1241097D2*
X1265561D1*
X1276831D2*
X1282841D1*
X1299851D2*
X1347321D1*
X1364851D2*
X1412321D1*
X940125Y478948D2*
X958963D1*
X987344D2*
X1005350D1*
X1023315D2*
X1028841D1*
X1042841D2*
X1050841D1*
X1080132D2*
X1090138D1*
X1130841D2*
X1138841D1*
X1208097D2*
X1223813D1*
X1242651D2*
X1263202D1*
X1277300D2*
X1282841D1*
X1299375D2*
X1303841D1*
X1307841D2*
X1347753D1*
X1364375D2*
X1368841D1*
X1372841D2*
X1412753D1*
X942744Y477948D2*
X956116D1*
X989496D2*
X1001728D1*
X1023841D2*
X1028841D1*
X1042841D2*
X1050841D1*
X1080841D2*
X1090841D1*
X1130841D2*
X1138841D1*
X1209841D2*
X1223841D1*
X1244631D2*
X1260580D1*
X1277841D2*
X1282841D1*
X1298784D2*
X1303841D1*
X1338799D2*
X1348141D1*
X1363784D2*
X1368841D1*
X1403799D2*
X1413141D1*
X945841Y476948D2*
X952841D1*
X991841D2*
X997841D1*
X1246841D2*
X1257841D1*
X1298196D2*
X1303841D1*
X1339636D2*
X1348463D1*
X1363196D2*
X1368841D1*
X1404636D2*
X1413463D1*
X1297677Y475948D2*
X1303841D1*
X1340265D2*
X1348663D1*
X1362677D2*
X1368841D1*
X1405265D2*
X1413663D1*
X1297280Y474948D2*
X1303841D1*
X1340730D2*
X1348765D1*
X1362280D2*
X1368841D1*
X1405730D2*
X1413765D1*
X1297044Y473948D2*
X1303841D1*
X1341133D2*
X1348811D1*
X1362044D2*
X1368841D1*
X1406133D2*
X1413811D1*
X1296926Y472948D2*
X1303841D1*
X1341459D2*
X1348830D1*
X1361926D2*
X1368841D1*
X1406459D2*
X1413830D1*
X1296874Y471948D2*
X1303841D1*
X1341662D2*
X1348837D1*
X1361874D2*
X1368841D1*
X1406662D2*
X1413837D1*
X1296853Y470948D2*
X1303841D1*
X1341765D2*
X1348840D1*
X1361853D2*
X1368841D1*
X1406765D2*
X1413840D1*
X1296846Y469948D2*
X1303841D1*
X1341811D2*
X1348841D1*
X1361846D2*
X1368841D1*
X1406811D2*
X1413841D1*
X1296843Y468948D2*
X1303841D1*
X1341830D2*
X1348841D1*
X1361843D2*
X1368841D1*
X1406830D2*
X1413841D1*
X1296842Y467948D2*
X1303841D1*
X1341837D2*
X1348841D1*
X1361842D2*
X1368841D1*
X1406837D2*
X1413841D1*
X1296841Y466948D2*
X1303841D1*
X1341840D2*
X1348841D1*
X1361841D2*
X1368841D1*
X1406840D2*
X1413841D1*
X1296841Y465948D2*
X1303841D1*
X1341841D2*
X1348841D1*
X1361841D2*
X1368841D1*
X1406841D2*
X1413841D1*
X1296841Y464948D2*
X1303845D1*
X1341837D2*
X1348841D1*
X1361841D2*
X1368845D1*
X1406837D2*
X1413841D1*
X1296841Y463948D2*
X1303880D1*
X1341802D2*
X1348841D1*
X1361841D2*
X1368880D1*
X1406802D2*
X1413841D1*
X1296841Y462948D2*
X1304008D1*
X1341675D2*
X1348841D1*
X1361841D2*
X1369008D1*
X1406675D2*
X1413841D1*
X1296841Y461948D2*
X1304251D1*
X1341431D2*
X1348841D1*
X1361841D2*
X1369251D1*
X1406431D2*
X1413841D1*
X1296841Y460948D2*
X1304547D1*
X1341140D2*
X1348841D1*
X1361841D2*
X1369547D1*
X1406140D2*
X1413841D1*
X1296845Y459948D2*
X1304887D1*
X1340830D2*
X1348837D1*
X1361845D2*
X1369887D1*
X1405830D2*
X1413837D1*
X1296880Y458948D2*
X1305394D1*
X1340420D2*
X1348802D1*
X1361880D2*
X1370394D1*
X1405420D2*
X1413802D1*
X1297012Y457948D2*
X1306177D1*
X1339788D2*
X1348671D1*
X1362012D2*
X1371177D1*
X1404788D2*
X1413671D1*
X1297286Y456948D2*
X1307364D1*
X1338784D2*
X1348396D1*
X1362286D2*
X1372364D1*
X1403784D2*
X1413396D1*
X1297674Y455948D2*
X1309105D1*
X1337362D2*
X1348008D1*
X1362674D2*
X1374105D1*
X1402362D2*
X1413008D1*
X1298127Y454948D2*
X1311358D1*
X1335657D2*
X1347559D1*
X1363127D2*
X1376358D1*
X1400657D2*
X1412559D1*
X1298643Y453948D2*
X1347079D1*
X1363643D2*
X1412079D1*
X1299269Y452948D2*
X1346580D1*
X1364269D2*
X1411580D1*
X1300077Y451948D2*
X1346011D1*
X1365077D2*
X1411011D1*
X1301098Y450948D2*
X1345246D1*
X1366098D2*
X1410246D1*
X1302373Y449948D2*
X1344150D1*
X1367373D2*
X1409150D1*
X1304018Y448948D2*
X1342636D1*
X1369018D2*
X1407636D1*
X1306299Y447948D2*
X1340551D1*
X1371299D2*
X1405551D1*
X1309357Y446948D2*
X1337854D1*
X1374357D2*
X1402854D1*
X1312841Y445948D2*
X1334841D1*
X1377841D2*
X1399841D1*
X1269883Y5405948D2*
X1266157Y5404948D1*
X1263001Y5403948D1*
X1260415Y5402948D1*
X1258290Y5401948D1*
X1256573Y5400948D1*
X1255188Y5399948D1*
X1254007Y5398948D1*
X1252934Y5397948D1*
X1251939Y5396948D1*
X1251060Y5395948D1*
X1250330Y5394948D1*
X1249717Y5393948D1*
X1249165Y5392948D1*
X1248646Y5391948D1*
X1248137Y5390948D1*
X1247635Y5389948D1*
X1247137Y5388948D1*
X1246669Y5387948D1*
X1246264Y5386948D1*
X1245912Y5385948D1*
X1245556Y5384948D1*
X1245214Y5383948D1*
X1244892Y5382948D1*
X1244552Y5381948D1*
X1244246Y5380948D1*
X1244018Y5379948D1*
X1243791Y5378948D1*
X1243507Y5377948D1*
X1243232Y5376948D1*
X1243050Y5375948D1*
X1242951Y5374948D1*
X1242873Y5373948D1*
X1242727Y5372948D1*
X1242481Y5371948D1*
X1242222Y5370948D1*
X1242047Y5369948D1*
X1241954Y5368948D1*
X1241911Y5367948D1*
X1241894Y5366948D1*
X1241887Y5365948D1*
X1241884Y5364948D1*
X1241880Y5363948D1*
X1241844Y5362948D1*
X1241717Y5361948D1*
X1241477Y5360948D1*
X1241221Y5359948D1*
X1241046Y5358948D1*
X1240954Y5357948D1*
X1240911Y5356948D1*
X1240894Y5355948D1*
X1240887Y5354948D1*
X1240884Y5353948D1*
Y5352948D1*
X1240883Y5351948D1*
Y5350948D1*
Y5349948D1*
Y5348948D1*
Y5347948D1*
Y5346948D1*
X1240887Y5345948D1*
X1240922Y5344948D1*
X1241050Y5343948D1*
X1241289Y5342948D1*
X1241546Y5341948D1*
X1241720Y5340948D1*
X1241813Y5339948D1*
X1241855Y5338948D1*
X1241873Y5337948D1*
X1241879Y5336948D1*
X1241882Y5335948D1*
X1241883Y5334948D1*
Y5333948D1*
X1241887Y5332948D1*
X1241922Y5331948D1*
X1242050Y5330948D1*
X1242289Y5329948D1*
X1242546Y5328948D1*
X1242724Y5327948D1*
X1242852Y5326948D1*
X1243022Y5325948D1*
X1243279Y5324948D1*
X1243546Y5323948D1*
X1243758Y5322948D1*
X1243979Y5321948D1*
X1244265Y5320948D1*
X1244574Y5319948D1*
X1244883Y5318948D1*
X1245221Y5317948D1*
X1245556Y5316948D1*
X1245880Y5315948D1*
X1246254Y5314948D1*
X1246687Y5313948D1*
X1247154Y5312948D1*
X1247642Y5311948D1*
X1248140Y5310948D1*
X1248674Y5309948D1*
X1249304Y5308948D1*
X1250079Y5307948D1*
X1250966Y5306948D1*
X1251915Y5305948D1*
X1252899Y5304948D1*
X1253930Y5303948D1*
X1255094Y5302948D1*
X1256503Y5301948D1*
X1258216Y5300948D1*
X1260333Y5299948D1*
X1263129Y5298948D1*
X1266765Y5297948D1*
X1270883Y5296948D1*
X1281883Y5405948D2*
X1291234Y5404948D1*
X1299192Y5403948D1*
X1305028Y5402948D1*
X1309276Y5401948D1*
X1310876Y5400948D1*
X1311522Y5399948D1*
X1311722Y5398948D1*
X1311820Y5397948D1*
X1311860Y5396948D1*
X1311875Y5395948D1*
X1311881Y5394948D1*
X1311883Y5393948D1*
X955883Y5404948D2*
Y5403948D1*
Y5402948D1*
Y5401948D1*
Y5400948D1*
Y5399948D1*
Y5398948D1*
Y5397948D1*
Y5396948D1*
Y5395948D1*
Y5394948D1*
X1029883Y5404948D2*
Y5403948D1*
Y5402948D1*
Y5401948D1*
Y5400948D1*
Y5399948D1*
Y5398948D1*
Y5397948D1*
Y5396948D1*
Y5395948D1*
Y5394948D1*
X1040883Y5404948D2*
X1041229Y5403948D1*
X1041562Y5402948D1*
X1041879Y5401948D1*
X1042220Y5400948D1*
X1042556Y5399948D1*
X1042876Y5398948D1*
X1043219Y5397948D1*
X1043555Y5396948D1*
X1043876Y5395948D1*
X1044219Y5394948D1*
X1044555Y5393948D1*
X1044879Y5392948D1*
X1045254Y5391948D1*
X1045683Y5390948D1*
X1046119Y5389948D1*
X1046510Y5388948D1*
X1046857Y5387948D1*
X1047212Y5386948D1*
X1047553Y5385948D1*
X1047875Y5384948D1*
X1048218Y5383948D1*
X1048555Y5382948D1*
X1048876Y5381948D1*
X1049219Y5380948D1*
X1049555Y5379948D1*
X1049876Y5378948D1*
X1050219Y5377948D1*
X1050555Y5376948D1*
X1050876Y5375948D1*
X1051219Y5374948D1*
X1051555Y5373948D1*
X1051879Y5372948D1*
X1052254Y5371948D1*
X1052683Y5370948D1*
X1053119Y5369948D1*
X1053510Y5368948D1*
X1053857Y5367948D1*
X1054212Y5366948D1*
X1054553Y5365948D1*
X1054875Y5364948D1*
X1055218Y5363948D1*
X1055555Y5362948D1*
X1055876Y5361948D1*
X1056219Y5360948D1*
X1056555Y5359948D1*
X1056876Y5358948D1*
X1057219Y5357948D1*
X1057555Y5356948D1*
X1057879Y5355948D1*
X1058254Y5354948D1*
X1058683Y5353948D1*
X1059119Y5352948D1*
X1059510Y5351948D1*
X1059857Y5350948D1*
X1060212Y5349948D1*
X1060553Y5348948D1*
X1060875Y5347948D1*
X1061218Y5346948D1*
X1061555Y5345948D1*
X1061876Y5344948D1*
X1062219Y5343948D1*
X1062555Y5342948D1*
X1062876Y5341948D1*
X1063219Y5340948D1*
X1063555Y5339948D1*
X1063876Y5338948D1*
X1064219Y5337948D1*
X1064555Y5336948D1*
X1064879Y5335948D1*
X1065254Y5334948D1*
X1065683Y5333948D1*
X1066119Y5332948D1*
X1066510Y5331948D1*
X1066857Y5330948D1*
X1067212Y5329948D1*
X1067553Y5328948D1*
X1067875Y5327948D1*
X1068218Y5326948D1*
X1068555Y5325948D1*
X1068876Y5324948D1*
X1069219Y5323948D1*
X1069555Y5322948D1*
X1069876Y5321948D1*
X1070219Y5320948D1*
X1070555Y5319948D1*
X1070876Y5318948D1*
X1071219Y5317948D1*
X1071555Y5316948D1*
X1071879Y5315948D1*
X1072254Y5314948D1*
X1072683Y5313948D1*
X1073119Y5312948D1*
X1073510Y5311948D1*
X1073857Y5310948D1*
X1074212Y5309948D1*
X1074553Y5308948D1*
X1074875Y5307948D1*
X1075218Y5306948D1*
X1075555Y5305948D1*
X1075876Y5304948D1*
X1076219Y5303948D1*
X1076555Y5302948D1*
X1076876Y5301948D1*
X1077215Y5300948D1*
X1077519Y5299948D1*
X1077728Y5298948D1*
X1077883Y5297948D1*
X1051883Y5404948D2*
X1052229Y5403948D1*
X1052562Y5402948D1*
X1052879Y5401948D1*
X1053220Y5400948D1*
X1053556Y5399948D1*
X1053880Y5398948D1*
X1054254Y5397948D1*
X1054683Y5396948D1*
X1055119Y5395948D1*
X1055510Y5394948D1*
X1055857Y5393948D1*
X1056212Y5392948D1*
X1056553Y5391948D1*
X1056875Y5390948D1*
X1057218Y5389948D1*
X1057555Y5388948D1*
X1057876Y5387948D1*
X1058219Y5386948D1*
X1058555Y5385948D1*
X1058876Y5384948D1*
X1059219Y5383948D1*
X1059555Y5382948D1*
X1059879Y5381948D1*
X1060254Y5380948D1*
X1060683Y5379948D1*
X1061119Y5378948D1*
X1061510Y5377948D1*
X1061857Y5376948D1*
X1062212Y5375948D1*
X1062553Y5374948D1*
X1062875Y5373948D1*
X1063218Y5372948D1*
X1063555Y5371948D1*
X1063876Y5370948D1*
X1064219Y5369948D1*
X1064555Y5368948D1*
X1064876Y5367948D1*
X1065219Y5366948D1*
X1065555Y5365948D1*
X1065879Y5364948D1*
X1066254Y5363948D1*
X1066683Y5362948D1*
X1067119Y5361948D1*
X1067510Y5360948D1*
X1067857Y5359948D1*
X1068212Y5358948D1*
X1068553Y5357948D1*
X1068875Y5356948D1*
X1069218Y5355948D1*
X1069555Y5354948D1*
X1069876Y5353948D1*
X1070219Y5352948D1*
X1070555Y5351948D1*
X1070876Y5350948D1*
X1071219Y5349948D1*
X1071555Y5348948D1*
X1071879Y5347948D1*
X1072254Y5346948D1*
X1072683Y5345948D1*
X1073119Y5344948D1*
X1073510Y5343948D1*
X1073857Y5342948D1*
X1074212Y5341948D1*
X1074553Y5340948D1*
X1074875Y5339948D1*
X1075218Y5338948D1*
X1075555Y5337948D1*
X1075876Y5336948D1*
X1076219Y5335948D1*
X1076555Y5334948D1*
X1076876Y5333948D1*
X1077219Y5332948D1*
X1077555Y5331948D1*
X1077879Y5330948D1*
X1078254Y5329948D1*
X1078683Y5328948D1*
X1079119Y5327948D1*
X1079510Y5326948D1*
X1079857Y5325948D1*
X1080212Y5324948D1*
X1080553Y5323948D1*
X1080875Y5322948D1*
X1081218Y5321948D1*
X1081563Y5320948D1*
X1081960Y5319948D1*
X1082484Y5318948D1*
X1083612Y5317948D1*
X1084883Y5316948D1*
X1110883Y5404948D2*
X1110384Y5403948D1*
X1109968Y5402948D1*
X1109583Y5401948D1*
X1109258Y5400948D1*
X1109023Y5399948D1*
X1108793Y5398948D1*
X1108503Y5397948D1*
X1108193Y5396948D1*
X1107884Y5395948D1*
X1107545Y5394948D1*
X1107210Y5393948D1*
X1106891Y5392948D1*
X1106551Y5391948D1*
X1106246Y5390948D1*
X1106018Y5389948D1*
X1105791Y5388948D1*
X1105503Y5387948D1*
X1105193Y5386948D1*
X1104884Y5385948D1*
X1104545Y5384948D1*
X1104210Y5383948D1*
X1103891Y5382948D1*
X1103551Y5381948D1*
X1103246Y5380948D1*
X1103018Y5379948D1*
X1102791Y5378948D1*
X1102503Y5377948D1*
X1102193Y5376948D1*
X1101884Y5375948D1*
X1101545Y5374948D1*
X1101210Y5373948D1*
X1100891Y5372948D1*
X1100551Y5371948D1*
X1100246Y5370948D1*
X1100018Y5369948D1*
X1099791Y5368948D1*
X1099503Y5367948D1*
X1099193Y5366948D1*
X1098884Y5365948D1*
X1098545Y5364948D1*
X1098210Y5363948D1*
X1097891Y5362948D1*
X1097551Y5361948D1*
X1097246Y5360948D1*
X1097018Y5359948D1*
X1096791Y5358948D1*
X1096503Y5357948D1*
X1096193Y5356948D1*
X1095884Y5355948D1*
X1095545Y5354948D1*
X1095210Y5353948D1*
X1094891Y5352948D1*
X1094551Y5351948D1*
X1094246Y5350948D1*
X1094018Y5349948D1*
X1093791Y5348948D1*
X1093503Y5347948D1*
X1093193Y5346948D1*
X1092884Y5345948D1*
X1092545Y5344948D1*
X1092210Y5343948D1*
X1091891Y5342948D1*
X1091551Y5341948D1*
X1091246Y5340948D1*
X1091018Y5339948D1*
X1090791Y5338948D1*
X1090503Y5337948D1*
X1090193Y5336948D1*
X1089884Y5335948D1*
X1089545Y5334948D1*
X1089210Y5333948D1*
X1088891Y5332948D1*
X1088551Y5331948D1*
X1088246Y5330948D1*
X1088018Y5329948D1*
X1087791Y5328948D1*
X1087503Y5327948D1*
X1087193Y5326948D1*
X1086884Y5325948D1*
X1086545Y5324948D1*
X1086210Y5323948D1*
X1085891Y5322948D1*
X1085551Y5321948D1*
X1085246Y5320948D1*
X1085015Y5319948D1*
X1084761Y5318948D1*
X1084372Y5317948D1*
X1083883Y5316948D1*
X1121883Y5404948D2*
X1121729Y5403948D1*
X1121477Y5402948D1*
X1121183Y5401948D1*
X1120880Y5400948D1*
X1120548Y5399948D1*
X1120245Y5398948D1*
X1120018Y5397948D1*
X1119791Y5396948D1*
X1119503Y5395948D1*
X1119193Y5394948D1*
X1118884Y5393948D1*
X1118549Y5392948D1*
X1118245Y5391948D1*
X1118018Y5390948D1*
X1117791Y5389948D1*
X1117503Y5388948D1*
X1117193Y5387948D1*
X1116884Y5386948D1*
X1116545Y5385948D1*
X1116210Y5384948D1*
X1115891Y5383948D1*
X1115551Y5382948D1*
X1115246Y5381948D1*
X1115018Y5380948D1*
X1114791Y5379948D1*
X1114503Y5378948D1*
X1114193Y5377948D1*
X1113884Y5376948D1*
X1113549Y5375948D1*
X1113245Y5374948D1*
X1113018Y5373948D1*
X1112795Y5372948D1*
X1112546Y5371948D1*
X1112402Y5370948D1*
X1112495Y5369948D1*
X1112784Y5368948D1*
X1113158Y5367948D1*
X1113525Y5366948D1*
X1113862Y5365948D1*
X1114213Y5364948D1*
X1114553Y5363948D1*
X1114875Y5362948D1*
X1115219Y5361948D1*
X1115555Y5360948D1*
X1115876Y5359948D1*
X1116219Y5358948D1*
X1116555Y5357948D1*
X1116876Y5356948D1*
X1117219Y5355948D1*
X1117555Y5354948D1*
X1117879Y5353948D1*
X1118254Y5352948D1*
X1118683Y5351948D1*
X1119119Y5350948D1*
X1119510Y5349948D1*
X1119857Y5348948D1*
X1120212Y5347948D1*
X1120553Y5346948D1*
X1120875Y5345948D1*
X1121218Y5344948D1*
X1121555Y5343948D1*
X1121876Y5342948D1*
X1122219Y5341948D1*
X1122555Y5340948D1*
X1122879Y5339948D1*
X1123254Y5338948D1*
X1123683Y5337948D1*
X1124119Y5336948D1*
X1124510Y5335948D1*
X1124857Y5334948D1*
X1125212Y5333948D1*
X1125553Y5332948D1*
X1125875Y5331948D1*
X1126218Y5330948D1*
X1126555Y5329948D1*
X1126876Y5328948D1*
X1127219Y5327948D1*
X1127555Y5326948D1*
X1127876Y5325948D1*
X1128219Y5324948D1*
X1128555Y5323948D1*
X1128879Y5322948D1*
X1129254Y5321948D1*
X1129683Y5320948D1*
X1130119Y5319948D1*
X1130513Y5318948D1*
X1130888Y5317948D1*
X1131347Y5316948D1*
X1131883Y5315948D1*
X1159883Y5404948D2*
X1159541Y5403948D1*
X1159240Y5402948D1*
X1159015Y5401948D1*
X1158790Y5400948D1*
X1158502Y5399948D1*
X1158192Y5398948D1*
X1157884Y5397948D1*
X1157545Y5396948D1*
X1157210Y5395948D1*
X1156891Y5394948D1*
X1156548Y5393948D1*
X1156211Y5392948D1*
X1155891Y5391948D1*
X1155552Y5390948D1*
X1155246Y5389948D1*
X1155018Y5388948D1*
X1154791Y5387948D1*
X1154503Y5386948D1*
X1154193Y5385948D1*
X1153884Y5384948D1*
X1153545Y5383948D1*
X1153210Y5382948D1*
X1152891Y5381948D1*
X1152548Y5380948D1*
X1152211Y5379948D1*
X1151891Y5378948D1*
X1151552Y5377948D1*
X1151246Y5376948D1*
X1151018Y5375948D1*
X1150791Y5374948D1*
X1150503Y5373948D1*
X1150193Y5372948D1*
X1149884Y5371948D1*
X1149545Y5370948D1*
X1149210Y5369948D1*
X1148891Y5368948D1*
X1148548Y5367948D1*
X1148211Y5366948D1*
X1147891Y5365948D1*
X1147552Y5364948D1*
X1147246Y5363948D1*
X1147018Y5362948D1*
X1146791Y5361948D1*
X1146503Y5360948D1*
X1146193Y5359948D1*
X1145884Y5358948D1*
X1145545Y5357948D1*
X1145210Y5356948D1*
X1144891Y5355948D1*
X1144548Y5354948D1*
X1144211Y5353948D1*
X1143891Y5352948D1*
X1143552Y5351948D1*
X1143246Y5350948D1*
X1143018Y5349948D1*
X1142791Y5348948D1*
X1142503Y5347948D1*
X1142193Y5346948D1*
X1141884Y5345948D1*
X1141545Y5344948D1*
X1141210Y5343948D1*
X1140891Y5342948D1*
X1140548Y5341948D1*
X1140211Y5340948D1*
X1139891Y5339948D1*
X1139552Y5338948D1*
X1139246Y5337948D1*
X1139018Y5336948D1*
X1138791Y5335948D1*
X1138503Y5334948D1*
X1138193Y5333948D1*
X1137884Y5332948D1*
X1137545Y5331948D1*
X1137210Y5330948D1*
X1136891Y5329948D1*
X1136548Y5328948D1*
X1136211Y5327948D1*
X1135891Y5326948D1*
X1135552Y5325948D1*
X1135246Y5324948D1*
X1135018Y5323948D1*
X1134791Y5322948D1*
X1134503Y5321948D1*
X1134193Y5320948D1*
X1133880Y5319948D1*
X1133507Y5318948D1*
X1133050Y5317948D1*
X1132500Y5316948D1*
X1131883Y5315948D1*
X1170883Y5404948D2*
X1170541Y5403948D1*
X1170240Y5402948D1*
X1170015Y5401948D1*
X1169790Y5400948D1*
X1169502Y5399948D1*
X1169192Y5398948D1*
X1168884Y5397948D1*
X1168545Y5396948D1*
X1168210Y5395948D1*
X1167891Y5394948D1*
X1167548Y5393948D1*
X1167211Y5392948D1*
X1166891Y5391948D1*
X1166548Y5390948D1*
X1166211Y5389948D1*
X1165891Y5388948D1*
X1165552Y5387948D1*
X1165246Y5386948D1*
X1165018Y5385948D1*
X1164791Y5384948D1*
X1164503Y5383948D1*
X1164193Y5382948D1*
X1163884Y5381948D1*
X1163545Y5380948D1*
X1163210Y5379948D1*
X1162891Y5378948D1*
X1162548Y5377948D1*
X1162211Y5376948D1*
X1161891Y5375948D1*
X1161548Y5374948D1*
X1161211Y5373948D1*
X1160891Y5372948D1*
X1160552Y5371948D1*
X1160246Y5370948D1*
X1160018Y5369948D1*
X1159791Y5368948D1*
X1159503Y5367948D1*
X1159193Y5366948D1*
X1158884Y5365948D1*
X1158545Y5364948D1*
X1158210Y5363948D1*
X1157891Y5362948D1*
X1157548Y5361948D1*
X1157211Y5360948D1*
X1156891Y5359948D1*
X1156548Y5358948D1*
X1156211Y5357948D1*
X1155891Y5356948D1*
X1155552Y5355948D1*
X1155246Y5354948D1*
X1155018Y5353948D1*
X1154791Y5352948D1*
X1154503Y5351948D1*
X1154193Y5350948D1*
X1153884Y5349948D1*
X1153545Y5348948D1*
X1153210Y5347948D1*
X1152891Y5346948D1*
X1152548Y5345948D1*
X1152211Y5344948D1*
X1151891Y5343948D1*
X1151548Y5342948D1*
X1151211Y5341948D1*
X1150891Y5340948D1*
X1150552Y5339948D1*
X1150246Y5338948D1*
X1150018Y5337948D1*
X1149791Y5336948D1*
X1149503Y5335948D1*
X1149193Y5334948D1*
X1148884Y5333948D1*
X1148545Y5332948D1*
X1148210Y5331948D1*
X1147891Y5330948D1*
X1147548Y5329948D1*
X1147211Y5328948D1*
X1146891Y5327948D1*
X1146548Y5326948D1*
X1146211Y5325948D1*
X1145891Y5324948D1*
X1145552Y5323948D1*
X1145246Y5322948D1*
X1145018Y5321948D1*
X1144791Y5320948D1*
X1144503Y5319948D1*
X1144193Y5318948D1*
X1143884Y5317948D1*
X1143545Y5316948D1*
X1143210Y5315948D1*
X1142891Y5314948D1*
X1142548Y5313948D1*
X1142211Y5312948D1*
X1141891Y5311948D1*
X1141548Y5310948D1*
X1141211Y5309948D1*
X1140891Y5308948D1*
X1140552Y5307948D1*
X1140246Y5306948D1*
X1140018Y5305948D1*
X1139791Y5304948D1*
X1139503Y5303948D1*
X1139193Y5302948D1*
X1138884Y5301948D1*
X1138549Y5300948D1*
X1138247Y5299948D1*
X1138039Y5298948D1*
X1137883Y5297948D1*
X1350883Y5404948D2*
X1348084Y5403948D1*
X1345538Y5402948D1*
X1343369Y5401948D1*
X1341613Y5400948D1*
X1340205Y5399948D1*
X1339018Y5398948D1*
X1337972Y5397948D1*
X1337072Y5396948D1*
X1336338Y5395948D1*
X1335753Y5394948D1*
X1335297Y5393948D1*
X1334924Y5392948D1*
X1334564Y5391948D1*
X1334251Y5390948D1*
X1334020Y5389948D1*
X1333792Y5388948D1*
X1333507Y5387948D1*
X1333232Y5386948D1*
X1333050Y5385948D1*
X1332955Y5384948D1*
X1332912Y5383948D1*
X1332894Y5382948D1*
X1332887Y5381948D1*
X1332885Y5380948D1*
X1332884Y5379948D1*
X1332883Y5378948D1*
Y5377948D1*
Y5376948D1*
Y5375948D1*
Y5374948D1*
Y5373948D1*
Y5372948D1*
Y5371948D1*
Y5370948D1*
Y5369948D1*
Y5368948D1*
Y5367948D1*
Y5366948D1*
Y5365948D1*
X1332887Y5364948D1*
X1332922Y5363948D1*
X1333050Y5362948D1*
X1333293Y5361948D1*
X1333585Y5360948D1*
X1333887Y5359948D1*
X1334223Y5358948D1*
X1334557Y5357948D1*
X1334880Y5356948D1*
X1335258Y5355948D1*
X1335726Y5354948D1*
X1336325Y5353948D1*
X1337087Y5352948D1*
X1337972Y5351948D1*
X1338959Y5350948D1*
X1340109Y5349948D1*
X1341558Y5348948D1*
X1343498Y5347948D1*
X1346199Y5346948D1*
X1349791Y5345948D1*
X1353883Y5344948D1*
X1375883Y5404948D2*
X1384078Y5403948D1*
X1391293Y5402948D1*
X1397883Y5401948D1*
Y5400948D1*
Y5399948D1*
Y5398948D1*
Y5397948D1*
Y5396948D1*
Y5395948D1*
Y5394948D1*
Y5393948D1*
X1183883Y5398948D2*
X1183422Y5397948D1*
X1183134Y5396948D1*
X1182989Y5395948D1*
X1182925Y5394948D1*
X1182899Y5393948D1*
X1182889Y5392948D1*
X1182885Y5391948D1*
X1182884Y5390948D1*
X1182883Y5389948D1*
X1182891Y5388948D1*
X1182967Y5387948D1*
X1183149Y5386948D1*
X1183928Y5385948D1*
X1184883Y5384948D1*
X1194883Y5398948D2*
X1195345Y5397948D1*
X1195632Y5396948D1*
X1195777Y5395948D1*
X1195842Y5394948D1*
X1195868Y5393948D1*
X1195878Y5392948D1*
X1195881Y5391948D1*
X1195883Y5390948D1*
X1195879Y5389948D1*
X1195840Y5388948D1*
X1195674Y5387948D1*
X1195272Y5386948D1*
X1194632Y5385948D1*
X1193883Y5384948D1*
X1212883Y5398948D2*
X1212422Y5397948D1*
X1212134Y5396948D1*
X1211989Y5395948D1*
X1211925Y5394948D1*
X1211899Y5393948D1*
X1211889Y5392948D1*
X1211885Y5391948D1*
X1211884Y5390948D1*
X1211883Y5389948D1*
X1211891Y5388948D1*
X1211967Y5387948D1*
X1212149Y5386948D1*
X1212928Y5385948D1*
X1213883Y5384948D1*
X1223883Y5398948D2*
X1224345Y5397948D1*
X1224632Y5396948D1*
X1224777Y5395948D1*
X1224842Y5394948D1*
X1224868Y5393948D1*
X1224878Y5392948D1*
X1224881Y5391948D1*
X1224883Y5390948D1*
X1224879Y5389948D1*
X1224840Y5388948D1*
X1224674Y5387948D1*
X1224272Y5386948D1*
X1223632Y5385948D1*
X1222883Y5384948D1*
X1273883Y5395948D2*
X1270160Y5394948D1*
X1266874Y5393948D1*
X1264224Y5392948D1*
X1262151Y5391948D1*
X1260533Y5390948D1*
X1259318Y5389948D1*
X1258402Y5388948D1*
X1257630Y5387948D1*
X1256941Y5386948D1*
X1256394Y5385948D1*
X1255968Y5384948D1*
X1255578Y5383948D1*
X1255222Y5382948D1*
X1254895Y5381948D1*
X1254549Y5380948D1*
X1254212Y5379948D1*
X1253891Y5378948D1*
X1253552Y5377948D1*
X1253250Y5376948D1*
X1253057Y5375948D1*
X1252954Y5374948D1*
X1252874Y5373948D1*
X1252728Y5372948D1*
X1252481Y5371948D1*
X1252222Y5370948D1*
X1252047Y5369948D1*
X1251954Y5368948D1*
X1251911Y5367948D1*
X1251894Y5366948D1*
X1251887Y5365948D1*
X1251884Y5364948D1*
Y5363948D1*
X1251883Y5362948D1*
X1251879Y5361948D1*
X1251844Y5360948D1*
X1251717Y5359948D1*
X1251477Y5358948D1*
X1251221Y5357948D1*
X1251046Y5356948D1*
X1250954Y5355948D1*
X1250911Y5354948D1*
X1250894Y5353948D1*
X1250887Y5352948D1*
X1250884Y5351948D1*
Y5350948D1*
X1250883Y5349948D1*
Y5348948D1*
X1250887Y5347948D1*
X1250922Y5346948D1*
X1251050Y5345948D1*
X1251289Y5344948D1*
X1251546Y5343948D1*
X1251720Y5342948D1*
X1251813Y5341948D1*
X1251855Y5340948D1*
X1251873Y5339948D1*
X1251879Y5338948D1*
X1251882Y5337948D1*
X1251883Y5336948D1*
X1251887Y5335948D1*
X1251922Y5334948D1*
X1252050Y5333948D1*
X1252289Y5332948D1*
X1252546Y5331948D1*
X1252720Y5330948D1*
X1252817Y5329948D1*
X1252894Y5328948D1*
X1253039Y5327948D1*
X1253285Y5326948D1*
X1253548Y5325948D1*
X1253759Y5324948D1*
X1253979Y5323948D1*
X1254265Y5322948D1*
X1254574Y5321948D1*
X1254887Y5320948D1*
X1255257Y5319948D1*
X1255688Y5318948D1*
X1256158Y5317948D1*
X1256681Y5316948D1*
X1257306Y5315948D1*
X1258080Y5314948D1*
X1258970Y5313948D1*
X1259959Y5312948D1*
X1261112Y5311948D1*
X1262632Y5310948D1*
X1265043Y5309948D1*
X1269383Y5308948D1*
X1276349Y5307948D1*
X1284883Y5306948D1*
X1288883Y5395948D2*
X1289883Y5394948D1*
X1359883Y5395948D2*
X1355481Y5394948D1*
X1351800Y5393948D1*
X1349090Y5392948D1*
X1347252Y5391948D1*
X1345999Y5390948D1*
X1345089Y5389948D1*
X1344450Y5388948D1*
X1343988Y5387948D1*
X1343589Y5386948D1*
X1343264Y5385948D1*
X1343062Y5384948D1*
X1342959Y5383948D1*
X1342913Y5382948D1*
X1342894Y5381948D1*
X1342887Y5380948D1*
X1342885Y5379948D1*
X1342884Y5378948D1*
X1342883Y5377948D1*
Y5376948D1*
Y5375948D1*
Y5374948D1*
Y5373948D1*
Y5372948D1*
Y5371948D1*
Y5370948D1*
Y5369948D1*
Y5368948D1*
Y5367948D1*
X1342887Y5366948D1*
X1342922Y5365948D1*
X1343050Y5364948D1*
X1343293Y5363948D1*
X1343589Y5362948D1*
X1343929Y5361948D1*
X1344432Y5360948D1*
X1345184Y5359948D1*
X1346283Y5358948D1*
X1347958Y5357948D1*
X1350398Y5356948D1*
X1353496Y5355948D1*
X1356883Y5354948D1*
X1362883Y5395948D2*
X1363883Y5394948D1*
X986883D2*
Y5393948D1*
Y5392948D1*
Y5391948D1*
Y5390948D1*
Y5389948D1*
Y5388948D1*
Y5387948D1*
Y5386948D1*
Y5385948D1*
Y5384948D1*
Y5383948D1*
Y5382948D1*
Y5381948D1*
Y5380948D1*
Y5379948D1*
Y5378948D1*
Y5377948D1*
Y5376948D1*
Y5375948D1*
Y5374948D1*
Y5373948D1*
Y5372948D1*
Y5371948D1*
Y5370948D1*
Y5369948D1*
Y5368948D1*
Y5367948D1*
Y5366948D1*
Y5365948D1*
Y5364948D1*
Y5363948D1*
Y5362948D1*
Y5361948D1*
Y5360948D1*
Y5359948D1*
Y5358948D1*
Y5357948D1*
Y5356948D1*
Y5355948D1*
Y5354948D1*
Y5353948D1*
Y5352948D1*
Y5351948D1*
Y5350948D1*
Y5349948D1*
Y5348948D1*
Y5347948D1*
Y5346948D1*
Y5345948D1*
Y5344948D1*
Y5343948D1*
Y5342948D1*
Y5341948D1*
Y5340948D1*
Y5339948D1*
Y5338948D1*
Y5337948D1*
Y5336948D1*
Y5335948D1*
Y5334948D1*
Y5333948D1*
Y5332948D1*
Y5331948D1*
Y5330948D1*
Y5329948D1*
Y5328948D1*
Y5327948D1*
Y5326948D1*
Y5325948D1*
Y5324948D1*
Y5323948D1*
Y5322948D1*
Y5321948D1*
Y5320948D1*
Y5319948D1*
Y5318948D1*
Y5317948D1*
Y5316948D1*
Y5315948D1*
Y5314948D1*
Y5313948D1*
Y5312948D1*
Y5311948D1*
Y5310948D1*
Y5309948D1*
Y5308948D1*
Y5307948D1*
Y5306948D1*
Y5305948D1*
Y5304948D1*
Y5303948D1*
Y5302948D1*
Y5301948D1*
Y5300948D1*
Y5299948D1*
Y5298948D1*
Y5297948D1*
X996883Y5394948D2*
Y5393948D1*
Y5392948D1*
Y5391948D1*
Y5390948D1*
Y5389948D1*
Y5388948D1*
Y5387948D1*
Y5386948D1*
Y5385948D1*
Y5384948D1*
Y5383948D1*
Y5382948D1*
Y5381948D1*
Y5380948D1*
Y5379948D1*
Y5378948D1*
Y5377948D1*
Y5376948D1*
Y5375948D1*
Y5374948D1*
Y5373948D1*
Y5372948D1*
Y5371948D1*
Y5370948D1*
Y5369948D1*
Y5368948D1*
Y5367948D1*
Y5366948D1*
Y5365948D1*
Y5364948D1*
Y5363948D1*
Y5362948D1*
Y5361948D1*
Y5360948D1*
Y5359948D1*
Y5358948D1*
Y5357948D1*
Y5356948D1*
Y5355948D1*
Y5354948D1*
Y5353948D1*
Y5352948D1*
Y5351948D1*
Y5350948D1*
Y5349948D1*
Y5348948D1*
Y5347948D1*
Y5346948D1*
Y5345948D1*
Y5344948D1*
Y5343948D1*
Y5342948D1*
Y5341948D1*
Y5340948D1*
Y5339948D1*
Y5338948D1*
Y5337948D1*
Y5336948D1*
Y5335948D1*
Y5334948D1*
Y5333948D1*
Y5332948D1*
Y5331948D1*
Y5330948D1*
Y5329948D1*
Y5328948D1*
Y5327948D1*
Y5326948D1*
Y5325948D1*
Y5324948D1*
Y5323948D1*
Y5322948D1*
Y5321948D1*
Y5320948D1*
Y5319948D1*
Y5318948D1*
Y5317948D1*
Y5316948D1*
Y5315948D1*
Y5314948D1*
Y5313948D1*
Y5312948D1*
Y5311948D1*
Y5310948D1*
Y5309948D1*
Y5308948D1*
Y5307948D1*
Y5306948D1*
Y5305948D1*
Y5304948D1*
Y5303948D1*
Y5302948D1*
Y5301948D1*
Y5300948D1*
Y5299948D1*
Y5298948D1*
Y5297948D1*
X1306883Y5394948D2*
X1307883Y5393948D1*
X1387883Y5394948D2*
X1388883Y5393948D1*
X1183883Y5374948D2*
Y5373948D1*
Y5372948D1*
Y5371948D1*
Y5370948D1*
Y5369948D1*
Y5368948D1*
Y5367948D1*
Y5366948D1*
Y5365948D1*
Y5364948D1*
Y5363948D1*
Y5362948D1*
Y5361948D1*
Y5360948D1*
Y5359948D1*
Y5358948D1*
Y5357948D1*
Y5356948D1*
Y5355948D1*
Y5354948D1*
Y5353948D1*
Y5352948D1*
Y5351948D1*
Y5350948D1*
Y5349948D1*
Y5348948D1*
Y5347948D1*
Y5346948D1*
Y5345948D1*
Y5344948D1*
Y5343948D1*
Y5342948D1*
Y5341948D1*
Y5340948D1*
Y5339948D1*
Y5338948D1*
Y5337948D1*
Y5336948D1*
Y5335948D1*
Y5334948D1*
Y5333948D1*
Y5332948D1*
Y5331948D1*
Y5330948D1*
Y5329948D1*
Y5328948D1*
Y5327948D1*
Y5326948D1*
Y5325948D1*
Y5324948D1*
Y5323948D1*
Y5322948D1*
Y5321948D1*
Y5320948D1*
Y5319948D1*
Y5318948D1*
Y5317948D1*
Y5316948D1*
Y5315948D1*
Y5314948D1*
Y5313948D1*
Y5312948D1*
Y5311948D1*
Y5310948D1*
Y5309948D1*
Y5308948D1*
Y5307948D1*
Y5306948D1*
Y5305948D1*
Y5304948D1*
Y5303948D1*
Y5302948D1*
Y5301948D1*
Y5300948D1*
Y5299948D1*
Y5298948D1*
Y5297948D1*
X1193883Y5374948D2*
Y5373948D1*
Y5372948D1*
Y5371948D1*
Y5370948D1*
Y5369948D1*
Y5368948D1*
Y5367948D1*
Y5366948D1*
Y5365948D1*
Y5364948D1*
Y5363948D1*
Y5362948D1*
Y5361948D1*
Y5360948D1*
Y5359948D1*
Y5358948D1*
Y5357948D1*
Y5356948D1*
Y5355948D1*
Y5354948D1*
Y5353948D1*
Y5352948D1*
Y5351948D1*
Y5350948D1*
Y5349948D1*
Y5348948D1*
Y5347948D1*
Y5346948D1*
Y5345948D1*
Y5344948D1*
Y5343948D1*
Y5342948D1*
Y5341948D1*
Y5340948D1*
Y5339948D1*
Y5338948D1*
Y5337948D1*
Y5336948D1*
Y5335948D1*
Y5334948D1*
Y5333948D1*
Y5332948D1*
Y5331948D1*
Y5330948D1*
Y5329948D1*
Y5328948D1*
Y5327948D1*
Y5326948D1*
Y5325948D1*
Y5324948D1*
Y5323948D1*
Y5322948D1*
Y5321948D1*
Y5320948D1*
Y5319948D1*
Y5318948D1*
Y5317948D1*
Y5316948D1*
Y5315948D1*
Y5314948D1*
Y5313948D1*
Y5312948D1*
Y5311948D1*
Y5310948D1*
Y5309948D1*
Y5308948D1*
Y5307948D1*
Y5306948D1*
Y5305948D1*
Y5304948D1*
Y5303948D1*
Y5302948D1*
Y5301948D1*
Y5300948D1*
Y5299948D1*
Y5298948D1*
Y5297948D1*
X1212883Y5374948D2*
Y5373948D1*
Y5372948D1*
Y5371948D1*
Y5370948D1*
Y5369948D1*
Y5368948D1*
Y5367948D1*
Y5366948D1*
Y5365948D1*
Y5364948D1*
Y5363948D1*
Y5362948D1*
Y5361948D1*
Y5360948D1*
Y5359948D1*
Y5358948D1*
Y5357948D1*
Y5356948D1*
Y5355948D1*
Y5354948D1*
Y5353948D1*
Y5352948D1*
Y5351948D1*
Y5350948D1*
Y5349948D1*
Y5348948D1*
Y5347948D1*
Y5346948D1*
Y5345948D1*
Y5344948D1*
Y5343948D1*
Y5342948D1*
Y5341948D1*
Y5340948D1*
Y5339948D1*
Y5338948D1*
Y5337948D1*
Y5336948D1*
Y5335948D1*
Y5334948D1*
Y5333948D1*
Y5332948D1*
Y5331948D1*
Y5330948D1*
Y5329948D1*
Y5328948D1*
Y5327948D1*
Y5326948D1*
Y5325948D1*
Y5324948D1*
Y5323948D1*
Y5322948D1*
Y5321948D1*
Y5320948D1*
Y5319948D1*
Y5318948D1*
Y5317948D1*
Y5316948D1*
Y5315948D1*
Y5314948D1*
Y5313948D1*
Y5312948D1*
Y5311948D1*
Y5310948D1*
Y5309948D1*
Y5308948D1*
Y5307948D1*
Y5306948D1*
Y5305948D1*
Y5304948D1*
Y5303948D1*
Y5302948D1*
Y5301948D1*
Y5300948D1*
Y5299948D1*
Y5298948D1*
Y5297948D1*
X1222883Y5374948D2*
Y5373948D1*
Y5372948D1*
Y5371948D1*
Y5370948D1*
Y5369948D1*
Y5368948D1*
Y5367948D1*
Y5366948D1*
Y5365948D1*
Y5364948D1*
Y5363948D1*
Y5362948D1*
Y5361948D1*
Y5360948D1*
Y5359948D1*
Y5358948D1*
Y5357948D1*
Y5356948D1*
Y5355948D1*
Y5354948D1*
Y5353948D1*
Y5352948D1*
Y5351948D1*
Y5350948D1*
Y5349948D1*
Y5348948D1*
Y5347948D1*
Y5346948D1*
Y5345948D1*
Y5344948D1*
Y5343948D1*
Y5342948D1*
Y5341948D1*
Y5340948D1*
Y5339948D1*
Y5338948D1*
Y5337948D1*
Y5336948D1*
Y5335948D1*
Y5334948D1*
Y5333948D1*
Y5332948D1*
Y5331948D1*
Y5330948D1*
Y5329948D1*
Y5328948D1*
Y5327948D1*
Y5326948D1*
Y5325948D1*
Y5324948D1*
Y5323948D1*
Y5322948D1*
Y5321948D1*
Y5320948D1*
Y5319948D1*
Y5318948D1*
Y5317948D1*
Y5316948D1*
Y5315948D1*
Y5314948D1*
Y5313948D1*
Y5312948D1*
Y5311948D1*
Y5310948D1*
Y5309948D1*
Y5308948D1*
Y5307948D1*
Y5306948D1*
Y5305948D1*
Y5304948D1*
Y5303948D1*
Y5302948D1*
Y5301948D1*
Y5300948D1*
Y5299948D1*
Y5298948D1*
Y5297948D1*
X1385883Y5354948D2*
X1388303Y5353948D1*
X1390423Y5352948D1*
X1392162Y5351948D1*
X1393564Y5350948D1*
X1394749Y5349948D1*
X1395795Y5348948D1*
X1396695Y5347948D1*
X1397432Y5346948D1*
X1398048Y5345948D1*
X1398597Y5344948D1*
X1399085Y5343948D1*
X1399498Y5342948D1*
X1399853Y5341948D1*
X1400206Y5340948D1*
X1400513Y5339948D1*
X1400708Y5338948D1*
X1400812Y5337948D1*
X1400893Y5336948D1*
X1401039Y5335948D1*
X1401285Y5334948D1*
X1401544Y5333948D1*
X1401720Y5332948D1*
X1401813Y5331948D1*
X1401855Y5330948D1*
X1401873Y5329948D1*
X1401879Y5328948D1*
X1401882Y5327948D1*
X1401883Y5326948D1*
Y5325948D1*
Y5324948D1*
Y5323948D1*
Y5322948D1*
Y5321948D1*
Y5320948D1*
X1401879Y5319948D1*
X1401844Y5318948D1*
X1401717Y5317948D1*
X1401477Y5316948D1*
X1401221Y5315948D1*
X1401042Y5314948D1*
X1400915Y5313948D1*
X1400745Y5312948D1*
X1400484Y5311948D1*
X1400185Y5310948D1*
X1399877Y5309948D1*
X1399505Y5308948D1*
X1399043Y5307948D1*
X1398481Y5306948D1*
X1397842Y5305948D1*
X1397165Y5304948D1*
X1396342Y5303948D1*
X1395259Y5302948D1*
X1393933Y5301948D1*
X1392355Y5300948D1*
X1390414Y5299948D1*
X1387985Y5298948D1*
X1385061Y5297948D1*
X1381883Y5296948D1*
X1293883Y5353948D2*
X1289128Y5352948D1*
X1285222Y5351948D1*
X1282116Y5350948D1*
X1280772Y5349948D1*
X1280296Y5348948D1*
X1280052Y5347948D1*
X1279947Y5346948D1*
X1279906Y5345948D1*
X1279891Y5344948D1*
X1279883Y5343948D1*
X1314883Y5353948D2*
Y5352948D1*
Y5351948D1*
Y5350948D1*
Y5349948D1*
Y5348948D1*
Y5347948D1*
Y5346948D1*
Y5345948D1*
Y5344948D1*
Y5343948D1*
Y5342948D1*
Y5341948D1*
Y5340948D1*
Y5339948D1*
Y5338948D1*
Y5337948D1*
Y5336948D1*
Y5335948D1*
Y5334948D1*
Y5333948D1*
Y5332948D1*
Y5331948D1*
Y5330948D1*
Y5329948D1*
Y5328948D1*
Y5327948D1*
Y5326948D1*
Y5325948D1*
Y5324948D1*
Y5323948D1*
Y5322948D1*
Y5321948D1*
Y5320948D1*
Y5319948D1*
Y5318948D1*
Y5317948D1*
Y5316948D1*
Y5315948D1*
Y5314948D1*
Y5313948D1*
Y5312948D1*
Y5311948D1*
Y5310948D1*
Y5309948D1*
Y5308948D1*
Y5307948D1*
Y5306948D1*
Y5305948D1*
Y5304948D1*
Y5303948D1*
Y5302948D1*
Y5301948D1*
Y5300948D1*
Y5299948D1*
Y5298948D1*
Y5297948D1*
X1105883Y5351948D2*
X1105729Y5350948D1*
X1105477Y5349948D1*
X1105183Y5348948D1*
X1104880Y5347948D1*
X1104544Y5346948D1*
X1104210Y5345948D1*
X1103890Y5344948D1*
X1103548Y5343948D1*
X1103211Y5342948D1*
X1102891Y5341948D1*
X1102548Y5340948D1*
X1102211Y5339948D1*
X1101891Y5338948D1*
X1101548Y5337948D1*
X1101211Y5336948D1*
X1100891Y5335948D1*
X1100552Y5334948D1*
X1100246Y5333948D1*
X1100018Y5332948D1*
X1099791Y5331948D1*
X1099503Y5330948D1*
X1099193Y5329948D1*
X1098884Y5328948D1*
X1098545Y5327948D1*
X1098210Y5326948D1*
X1097891Y5325948D1*
X1097548Y5324948D1*
X1097211Y5323948D1*
X1096891Y5322948D1*
X1096548Y5321948D1*
X1096211Y5320948D1*
X1095891Y5319948D1*
X1095548Y5318948D1*
X1095211Y5317948D1*
X1094891Y5316948D1*
X1094548Y5315948D1*
X1094211Y5314948D1*
X1093891Y5313948D1*
X1093548Y5312948D1*
X1093211Y5311948D1*
X1092891Y5310948D1*
X1092548Y5309948D1*
X1092211Y5308948D1*
X1091891Y5307948D1*
X1091548Y5306948D1*
X1091211Y5305948D1*
X1090891Y5304948D1*
X1090548Y5303948D1*
X1090211Y5302948D1*
X1089891Y5301948D1*
X1089551Y5300948D1*
X1089247Y5299948D1*
X1089039Y5298948D1*
X1088883Y5297948D1*
X1107883Y5351948D2*
X1108038Y5350948D1*
X1108290Y5349948D1*
X1108584Y5348948D1*
X1108886Y5347948D1*
X1109223Y5346948D1*
X1109557Y5345948D1*
X1109880Y5344948D1*
X1110254Y5343948D1*
X1110683Y5342948D1*
X1111119Y5341948D1*
X1111510Y5340948D1*
X1111857Y5339948D1*
X1112212Y5338948D1*
X1112553Y5337948D1*
X1112875Y5336948D1*
X1113218Y5335948D1*
X1113555Y5334948D1*
X1113879Y5333948D1*
X1114254Y5332948D1*
X1114683Y5331948D1*
X1115119Y5330948D1*
X1115510Y5329948D1*
X1115857Y5328948D1*
X1116212Y5327948D1*
X1116553Y5326948D1*
X1116875Y5325948D1*
X1117218Y5324948D1*
X1117555Y5323948D1*
X1117879Y5322948D1*
X1118254Y5321948D1*
X1118683Y5320948D1*
X1119119Y5319948D1*
X1119510Y5318948D1*
X1119857Y5317948D1*
X1120212Y5316948D1*
X1120553Y5315948D1*
X1120879Y5314948D1*
X1121254Y5313948D1*
X1121683Y5312948D1*
X1122119Y5311948D1*
X1122510Y5310948D1*
X1122857Y5309948D1*
X1123212Y5308948D1*
X1123553Y5307948D1*
X1123875Y5306948D1*
X1124218Y5305948D1*
X1124555Y5304948D1*
X1124879Y5303948D1*
X1125254Y5302948D1*
X1125683Y5301948D1*
X1126115Y5300948D1*
X1126474Y5299948D1*
X1126710Y5298948D1*
X1126883Y5297948D1*
X1382883Y5344948D2*
X1384687Y5343948D1*
X1386268Y5342948D1*
X1387567Y5341948D1*
X1388598Y5340948D1*
X1389390Y5339948D1*
X1389995Y5338948D1*
X1390425Y5337948D1*
X1390678Y5336948D1*
X1390835Y5335948D1*
X1391016Y5334948D1*
X1391277Y5333948D1*
X1391541Y5332948D1*
X1391719Y5331948D1*
X1391812Y5330948D1*
X1391855Y5329948D1*
X1391873Y5328948D1*
X1391879Y5327948D1*
X1391882Y5326948D1*
X1391883Y5325948D1*
Y5324948D1*
Y5323948D1*
Y5322948D1*
X1391879Y5321948D1*
X1391844Y5320948D1*
X1391717Y5319948D1*
X1391477Y5318948D1*
X1391217Y5317948D1*
X1391003Y5316948D1*
X1390748Y5315948D1*
X1390335Y5314948D1*
X1389778Y5313948D1*
X1389135Y5312948D1*
X1388289Y5311948D1*
X1387046Y5310948D1*
X1385320Y5309948D1*
X1383127Y5308948D1*
X1380580Y5307948D1*
X1377883Y5306948D1*
X1304883Y5343948D2*
Y5342948D1*
Y5341948D1*
Y5340948D1*
Y5339948D1*
Y5338948D1*
Y5337948D1*
Y5336948D1*
Y5335948D1*
Y5334948D1*
Y5333948D1*
Y5332948D1*
Y5331948D1*
Y5330948D1*
Y5329948D1*
Y5328948D1*
Y5327948D1*
Y5326948D1*
Y5325948D1*
Y5324948D1*
Y5323948D1*
Y5322948D1*
Y5321948D1*
Y5320948D1*
Y5319948D1*
Y5318948D1*
X1304879Y5317948D1*
X1304832Y5316948D1*
X1304715Y5315948D1*
X1304088Y5314948D1*
X1302430Y5313948D1*
X1300185Y5312948D1*
X1297400Y5311948D1*
X1294078Y5310948D1*
X1289896Y5309948D1*
X1283982Y5308948D1*
X1275664Y5307948D1*
X1265883Y5306948D1*
X1335883Y5307948D2*
Y5306948D1*
Y5305948D1*
Y5304948D1*
Y5303948D1*
Y5302948D1*
Y5301948D1*
Y5300948D1*
Y5299948D1*
X1343671Y5298948D1*
X1352095Y5297948D1*
X1360883Y5296948D1*
X1344883Y5307948D2*
Y5306948D1*
X1304883Y5304948D2*
X1302845Y5303948D1*
X1300713Y5302948D1*
X1298430Y5301948D1*
X1295957Y5300948D1*
X1293096Y5299948D1*
X1289475Y5298948D1*
X1284937Y5297948D1*
X1279883Y5296948D1*
X1304883Y5304948D2*
X1305038Y5303948D1*
X1305290Y5302948D1*
X1305584Y5301948D1*
X1305887Y5300948D1*
X1306228Y5299948D1*
X1306570Y5298948D1*
X1306883Y5297948D1*
X1042841Y568948D2*
Y567948D1*
Y566948D1*
Y565948D1*
Y564948D1*
Y563948D1*
Y562948D1*
Y561948D1*
Y560948D1*
Y559948D1*
Y558948D1*
Y557948D1*
Y556948D1*
Y555948D1*
Y554948D1*
Y553948D1*
Y552948D1*
Y551948D1*
Y550948D1*
Y549948D1*
Y548948D1*
Y547948D1*
Y546948D1*
Y545948D1*
Y544948D1*
Y543948D1*
Y542948D1*
Y541948D1*
Y540948D1*
Y539948D1*
Y538948D1*
Y537948D1*
Y536948D1*
Y535948D1*
Y534948D1*
Y533948D1*
Y532948D1*
Y531948D1*
Y530948D1*
Y529948D1*
Y528948D1*
Y527948D1*
Y526948D1*
Y525948D1*
Y524948D1*
Y523948D1*
Y522948D1*
Y521948D1*
Y520948D1*
Y519948D1*
Y518948D1*
Y517948D1*
Y516948D1*
Y515948D1*
Y514948D1*
Y513948D1*
Y512948D1*
Y511948D1*
Y510948D1*
Y509948D1*
Y508948D1*
Y507948D1*
Y506948D1*
Y505948D1*
Y504948D1*
Y503948D1*
Y502948D1*
Y501948D1*
Y500948D1*
Y499948D1*
Y498948D1*
Y497948D1*
Y496948D1*
Y495948D1*
Y494948D1*
Y493948D1*
Y492948D1*
Y491948D1*
Y490948D1*
Y489948D1*
Y488948D1*
Y487948D1*
Y486948D1*
Y485948D1*
Y484948D1*
Y483948D1*
Y482948D1*
Y481948D1*
Y480948D1*
Y479948D1*
Y478948D1*
Y477948D1*
X1050841Y568948D2*
Y567948D1*
Y566948D1*
Y565948D1*
Y564948D1*
Y563948D1*
Y562948D1*
Y561948D1*
Y560948D1*
Y559948D1*
Y558948D1*
Y557948D1*
Y556948D1*
Y555948D1*
Y554948D1*
Y553948D1*
Y552948D1*
Y551948D1*
Y550948D1*
Y549948D1*
Y548948D1*
Y547948D1*
Y546948D1*
Y545948D1*
Y544948D1*
Y543948D1*
Y542948D1*
Y541948D1*
Y540948D1*
Y539948D1*
Y538948D1*
Y537948D1*
Y536948D1*
Y535948D1*
Y534948D1*
Y533948D1*
Y532948D1*
Y531948D1*
Y530948D1*
Y529948D1*
Y528948D1*
Y527948D1*
Y526948D1*
Y525948D1*
Y524948D1*
Y523948D1*
Y522948D1*
Y521948D1*
Y520948D1*
Y519948D1*
Y518948D1*
Y517948D1*
X1055841Y516948D1*
X1198841Y568948D2*
Y567948D1*
Y566948D1*
Y565948D1*
Y564948D1*
Y563948D1*
Y562948D1*
Y561948D1*
Y560948D1*
Y559948D1*
Y558948D1*
Y557948D1*
Y556948D1*
Y555948D1*
Y554948D1*
Y553948D1*
Y552948D1*
Y551948D1*
Y550948D1*
Y549948D1*
Y548948D1*
Y547948D1*
Y546948D1*
Y545948D1*
Y544948D1*
Y543948D1*
Y542948D1*
Y541948D1*
Y540948D1*
Y539948D1*
Y538948D1*
Y537948D1*
Y536948D1*
Y535948D1*
Y534948D1*
Y533948D1*
Y532948D1*
Y531948D1*
Y530948D1*
Y529948D1*
Y528948D1*
Y527948D1*
Y526948D1*
Y525948D1*
Y524948D1*
Y523948D1*
Y522948D1*
Y521948D1*
Y520948D1*
Y519948D1*
Y518948D1*
Y517948D1*
Y516948D1*
Y515948D1*
Y514948D1*
Y513948D1*
Y512948D1*
Y511948D1*
Y510948D1*
Y509948D1*
Y508948D1*
Y507948D1*
Y506948D1*
Y505948D1*
Y504948D1*
Y503948D1*
Y502948D1*
Y501948D1*
Y500948D1*
Y499948D1*
Y498948D1*
X1198845Y497948D1*
X1198880Y496948D1*
X1199008Y495948D1*
X1199247Y494948D1*
X1199504Y493948D1*
X1199678Y492948D1*
X1199775Y491948D1*
X1199852Y490948D1*
X1199997Y489948D1*
X1200247Y488948D1*
X1200541Y487948D1*
X1200848Y486948D1*
X1201220Y485948D1*
X1201685Y484948D1*
X1202283Y483948D1*
X1203049Y482948D1*
X1203970Y481948D1*
X1205084Y480948D1*
X1206465Y479948D1*
X1208097Y478948D1*
X1209841Y477948D1*
X1206841Y568948D2*
Y567948D1*
Y566948D1*
Y565948D1*
Y564948D1*
Y563948D1*
Y562948D1*
Y561948D1*
Y560948D1*
Y559948D1*
Y558948D1*
Y557948D1*
Y556948D1*
Y555948D1*
Y554948D1*
Y553948D1*
Y552948D1*
Y551948D1*
Y550948D1*
Y549948D1*
Y548948D1*
Y547948D1*
Y546948D1*
Y545948D1*
Y544948D1*
Y543948D1*
Y542948D1*
Y541948D1*
Y540948D1*
Y539948D1*
Y538948D1*
Y537948D1*
Y536948D1*
Y535948D1*
Y534948D1*
Y533948D1*
Y532948D1*
Y531948D1*
Y530948D1*
Y529948D1*
Y528948D1*
Y527948D1*
Y526948D1*
Y525948D1*
Y524948D1*
Y523948D1*
Y522948D1*
Y521948D1*
Y520948D1*
Y519948D1*
Y518948D1*
Y517948D1*
Y516948D1*
Y515948D1*
Y514948D1*
Y513948D1*
Y512948D1*
Y511948D1*
Y510948D1*
Y509948D1*
Y508948D1*
Y507948D1*
Y506948D1*
Y505948D1*
Y504948D1*
Y503948D1*
Y502948D1*
Y501948D1*
Y500948D1*
Y499948D1*
Y498948D1*
Y497948D1*
X1206845Y496948D1*
X1206880Y495948D1*
X1207008Y494948D1*
X1207251Y493948D1*
X1207543Y492948D1*
X1207848Y491948D1*
X1208224Y490948D1*
X1208732Y489948D1*
X1209377Y488948D1*
X1210872Y487948D1*
X1213007Y486948D1*
X1215747Y485948D1*
X1218618Y484948D1*
X1220965Y483948D1*
X1222730Y482948D1*
X1223413Y481948D1*
X1223645Y480948D1*
X1223762Y479948D1*
X1223813Y478948D1*
X1223841Y477948D1*
X959841Y562948D2*
Y561948D1*
Y560948D1*
Y559948D1*
Y558948D1*
Y557948D1*
Y556948D1*
Y555948D1*
Y554948D1*
Y553948D1*
Y552948D1*
Y551948D1*
Y550948D1*
Y549948D1*
Y548948D1*
Y547948D1*
Y546948D1*
Y545948D1*
Y544948D1*
Y543948D1*
Y542948D1*
Y541948D1*
Y540948D1*
Y539948D1*
Y538948D1*
Y537948D1*
Y536948D1*
Y535948D1*
Y534948D1*
Y533948D1*
Y532948D1*
Y531948D1*
Y530948D1*
Y529948D1*
Y528948D1*
Y527948D1*
Y526948D1*
Y525948D1*
Y524948D1*
Y523948D1*
Y522948D1*
Y521948D1*
Y520948D1*
Y519948D1*
Y518948D1*
Y517948D1*
Y516948D1*
Y515948D1*
Y514948D1*
Y513948D1*
Y512948D1*
Y511948D1*
Y510948D1*
Y509948D1*
Y508948D1*
Y507948D1*
Y506948D1*
Y505948D1*
Y504948D1*
Y503948D1*
Y502948D1*
Y501948D1*
Y500948D1*
Y499948D1*
Y498948D1*
X959837Y497948D1*
X959802Y496948D1*
X959675Y495948D1*
X959435Y494948D1*
X959175Y493948D1*
X958965Y492948D1*
X958741Y491948D1*
X958424Y490948D1*
X958015Y489948D1*
X957516Y488948D1*
X956796Y487948D1*
X955808Y486948D1*
X952696Y485948D1*
X947838Y484948D1*
X941841Y483948D1*
X966841Y562948D2*
Y561948D1*
Y560948D1*
Y559948D1*
Y558948D1*
Y557948D1*
Y556948D1*
Y555948D1*
Y554948D1*
Y553948D1*
Y552948D1*
Y551948D1*
Y550948D1*
Y549948D1*
Y548948D1*
Y547948D1*
Y546948D1*
Y545948D1*
Y544948D1*
Y543948D1*
Y542948D1*
Y541948D1*
Y540948D1*
Y539948D1*
Y538948D1*
Y537948D1*
Y536948D1*
Y535948D1*
Y534948D1*
Y533948D1*
Y532948D1*
Y531948D1*
Y530948D1*
Y529948D1*
Y528948D1*
Y527948D1*
Y526948D1*
Y525948D1*
Y524948D1*
Y523948D1*
Y522948D1*
Y521948D1*
Y520948D1*
Y519948D1*
Y518948D1*
Y517948D1*
Y516948D1*
Y515948D1*
Y514948D1*
Y513948D1*
Y512948D1*
Y511948D1*
Y510948D1*
Y509948D1*
Y508948D1*
Y507948D1*
Y506948D1*
Y505948D1*
Y504948D1*
Y503948D1*
Y502948D1*
Y501948D1*
Y500948D1*
Y499948D1*
Y498948D1*
Y497948D1*
Y496948D1*
Y495948D1*
Y494948D1*
Y493948D1*
Y492948D1*
Y491948D1*
X966837Y490948D1*
X966802Y489948D1*
X966675Y488948D1*
X966431Y487948D1*
X966140Y486948D1*
X965834Y485948D1*
X965463Y484948D1*
X964997Y483948D1*
X964396Y482948D1*
X963595Y481948D1*
X962535Y480948D1*
X961067Y479948D1*
X958963Y478948D1*
X956116Y477948D1*
X952841Y476948D1*
X1130841Y562948D2*
Y561948D1*
Y560948D1*
Y559948D1*
Y558948D1*
Y557948D1*
Y556948D1*
Y555948D1*
Y554948D1*
Y553948D1*
Y552948D1*
Y551948D1*
Y550948D1*
Y549948D1*
Y548948D1*
Y547948D1*
Y546948D1*
Y545948D1*
Y544948D1*
Y543948D1*
Y542948D1*
Y541948D1*
Y540948D1*
Y539948D1*
Y538948D1*
Y537948D1*
Y536948D1*
Y535948D1*
Y534948D1*
Y533948D1*
Y532948D1*
Y531948D1*
Y530948D1*
Y529948D1*
Y528948D1*
Y527948D1*
Y526948D1*
Y525948D1*
Y524948D1*
Y523948D1*
Y522948D1*
Y521948D1*
Y520948D1*
Y519948D1*
Y518948D1*
Y517948D1*
Y516948D1*
Y515948D1*
Y514948D1*
Y513948D1*
Y512948D1*
Y511948D1*
Y510948D1*
Y509948D1*
Y508948D1*
Y507948D1*
Y506948D1*
Y505948D1*
Y504948D1*
Y503948D1*
Y502948D1*
Y501948D1*
Y500948D1*
Y499948D1*
Y498948D1*
Y497948D1*
Y496948D1*
Y495948D1*
Y494948D1*
Y493948D1*
Y492948D1*
Y491948D1*
Y490948D1*
Y489948D1*
Y488948D1*
Y487948D1*
Y486948D1*
Y485948D1*
Y484948D1*
Y483948D1*
Y482948D1*
Y481948D1*
Y480948D1*
Y479948D1*
Y478948D1*
Y477948D1*
X1168841Y562948D2*
X1172184Y561948D1*
X1174878Y560948D1*
X1176908Y559948D1*
X1178435Y558948D1*
X1179642Y557948D1*
X1180610Y556948D1*
X1181374Y555948D1*
X1182001Y554948D1*
X1182557Y553948D1*
X1183078Y552948D1*
X1183583Y551948D1*
X1184050Y550948D1*
X1184425Y549948D1*
X1184685Y548948D1*
X1184925Y547948D1*
X1185215Y546948D1*
X1185492Y545948D1*
X1185674Y544948D1*
X1185769Y543948D1*
X1185813Y542948D1*
X1185831Y541948D1*
X1185837Y540948D1*
X1185840Y539948D1*
X1185841Y538948D1*
Y537948D1*
Y536948D1*
Y535948D1*
Y534948D1*
Y533948D1*
X1185837Y532948D1*
X1185802Y531948D1*
X1185675Y530948D1*
X1185435Y529948D1*
X1185175Y528948D1*
X1184965Y527948D1*
X1184745Y526948D1*
X1184459Y525948D1*
X1184150Y524948D1*
X1183838Y523948D1*
X1183468Y522948D1*
X1183037Y521948D1*
X1182566Y520948D1*
X1182044Y519948D1*
X1181414Y518948D1*
X1180602Y517948D1*
X1179549Y516948D1*
X1178193Y515948D1*
X1176552Y514948D1*
X1174731Y513948D1*
X1172841Y512948D1*
X1138841Y554948D2*
Y553948D1*
Y552948D1*
Y551948D1*
Y550948D1*
Y549948D1*
Y548948D1*
Y547948D1*
Y546948D1*
Y545948D1*
Y544948D1*
Y543948D1*
Y542948D1*
Y541948D1*
Y540948D1*
Y539948D1*
Y538948D1*
Y537948D1*
Y536948D1*
Y535948D1*
Y534948D1*
Y533948D1*
Y532948D1*
Y531948D1*
Y530948D1*
Y529948D1*
Y528948D1*
Y527948D1*
Y526948D1*
Y525948D1*
Y524948D1*
Y523948D1*
Y522948D1*
Y521948D1*
Y520948D1*
X1167841Y554948D2*
X1169799Y553948D1*
X1171628Y552948D1*
X1173187Y551948D1*
X1174393Y550948D1*
X1175278Y549948D1*
X1175925Y548948D1*
X1176377Y547948D1*
X1176667Y546948D1*
X1176919Y545948D1*
X1177213Y544948D1*
X1177491Y543948D1*
X1177674Y542948D1*
X1177769Y541948D1*
X1177813Y540948D1*
X1177831Y539948D1*
X1177837Y538948D1*
X1177840Y537948D1*
X1177841Y536948D1*
Y535948D1*
Y534948D1*
Y533948D1*
X1177837Y532948D1*
X1177802Y531948D1*
X1177675Y530948D1*
X1177431Y529948D1*
X1177140Y528948D1*
X1176834Y527948D1*
X1176463Y526948D1*
X1175993Y525948D1*
X1175356Y524948D1*
X1174428Y523948D1*
X1173144Y522948D1*
X1171559Y521948D1*
X1169841Y520948D1*
X996841Y539948D2*
X991437Y538948D1*
X987195Y537948D1*
X983971Y536948D1*
X982675Y535948D1*
X982226Y534948D1*
X981997Y533948D1*
X981897Y532948D1*
X981841Y531948D1*
X1017841Y539948D2*
X1019799Y538948D1*
X1021628Y537948D1*
X1023187Y536948D1*
X1024397Y535948D1*
X1025317Y534948D1*
X1026092Y533948D1*
X1026783Y532948D1*
X1027330Y531948D1*
X1027756Y530948D1*
X1028142Y529948D1*
X1028463Y528948D1*
X1028663Y527948D1*
X1028765Y526948D1*
X1028811Y525948D1*
X1028830Y524948D1*
X1028837Y523948D1*
X1028840Y522948D1*
X1028841Y521948D1*
Y520948D1*
Y519948D1*
Y518948D1*
Y517948D1*
Y516948D1*
Y515948D1*
Y514948D1*
Y513948D1*
Y512948D1*
Y511948D1*
Y510948D1*
Y509948D1*
Y508948D1*
Y507948D1*
Y506948D1*
Y505948D1*
Y504948D1*
Y503948D1*
Y502948D1*
Y501948D1*
Y500948D1*
Y499948D1*
Y498948D1*
Y497948D1*
Y496948D1*
Y495948D1*
Y494948D1*
Y493948D1*
Y492948D1*
Y491948D1*
Y490948D1*
Y489948D1*
Y488948D1*
Y487948D1*
Y486948D1*
Y485948D1*
Y484948D1*
Y483948D1*
Y482948D1*
Y481948D1*
Y480948D1*
Y479948D1*
Y478948D1*
Y477948D1*
X1079841Y538948D2*
X1078687Y537948D1*
X1077439Y536948D1*
X1076180Y535948D1*
X1075005Y534948D1*
X1073912Y533948D1*
X1072869Y532948D1*
X1071852Y531948D1*
X1070845Y530948D1*
X1069842Y529948D1*
X1068842Y528948D1*
X1067841Y527948D1*
X1066841Y526948D1*
X1065837Y525948D1*
X1064802Y524948D1*
X1063675Y523948D1*
X1062435Y522948D1*
X1061179Y521948D1*
X1059985Y520948D1*
X1058702Y519948D1*
X1056887Y518948D1*
X1054159Y517948D1*
X1050841Y516948D1*
X1090841Y538948D2*
X1089841Y537948D1*
X1088841Y536948D1*
X1087841Y535948D1*
X1086841Y534948D1*
X1085841Y533948D1*
X1084837Y532948D1*
X1083802Y531948D1*
X1082675Y530948D1*
X1081435Y529948D1*
X1080179Y528948D1*
X1079004Y527948D1*
X1077912Y526948D1*
X1076869Y525948D1*
X1075852Y524948D1*
X1074845Y523948D1*
X1073842Y522948D1*
X1072842Y521948D1*
X1071841Y520948D1*
X1070841Y519948D1*
X1069841Y518948D1*
X1068841Y517948D1*
X1067841Y516948D1*
X1066841Y515948D1*
X1065841Y514948D1*
X1064841Y513948D1*
X1063841Y512948D1*
X1064687Y511948D1*
X1065439Y510948D1*
X1066180Y509948D1*
X1067001Y508948D1*
X1067873Y507948D1*
X1068703Y506948D1*
X1069446Y505948D1*
X1070179Y504948D1*
X1070967Y503948D1*
X1071746Y502948D1*
X1072463Y501948D1*
X1073185Y500948D1*
X1073969Y499948D1*
X1074746Y498948D1*
X1075464Y497948D1*
X1076189Y496948D1*
X1077004Y495948D1*
X1077874Y494948D1*
X1078703Y493948D1*
X1079446Y492948D1*
X1080179Y491948D1*
X1080967Y490948D1*
X1081746Y489948D1*
X1082463Y488948D1*
X1083189Y487948D1*
X1084004Y486948D1*
X1084874Y485948D1*
X1085703Y484948D1*
X1086446Y483948D1*
X1087179Y482948D1*
X1087967Y481948D1*
X1088745Y480948D1*
X1089454Y479948D1*
X1090138Y478948D1*
X1090841Y477948D1*
X1232841Y538948D2*
Y537948D1*
Y536948D1*
Y535948D1*
Y534948D1*
Y533948D1*
Y532948D1*
Y531948D1*
Y530948D1*
Y529948D1*
Y528948D1*
Y527948D1*
Y526948D1*
Y525948D1*
Y524948D1*
Y523948D1*
Y522948D1*
Y521948D1*
Y520948D1*
Y519948D1*
Y518948D1*
Y517948D1*
Y516948D1*
Y515948D1*
Y514948D1*
Y513948D1*
Y512948D1*
Y511948D1*
Y510948D1*
Y509948D1*
Y508948D1*
Y507948D1*
Y506948D1*
Y505948D1*
Y504948D1*
Y503948D1*
Y502948D1*
Y501948D1*
Y500948D1*
Y499948D1*
Y498948D1*
Y497948D1*
Y496948D1*
Y495948D1*
X1232845Y494948D1*
X1232880Y493948D1*
X1233008Y492948D1*
X1233251Y491948D1*
X1233543Y490948D1*
X1233848Y489948D1*
X1234216Y488948D1*
X1234646Y487948D1*
X1235116Y486948D1*
X1235639Y485948D1*
X1236264Y484948D1*
X1237038Y483948D1*
X1237924Y482948D1*
X1238878Y481948D1*
X1239900Y480948D1*
X1241097Y479948D1*
X1242651Y478948D1*
X1244631Y477948D1*
X1246841Y476948D1*
X1240841Y538948D2*
Y537948D1*
Y536948D1*
Y535948D1*
Y534948D1*
Y533948D1*
Y532948D1*
Y531948D1*
Y530948D1*
Y529948D1*
Y528948D1*
Y527948D1*
Y526948D1*
Y525948D1*
Y524948D1*
Y523948D1*
Y522948D1*
Y521948D1*
Y520948D1*
Y519948D1*
Y518948D1*
Y517948D1*
Y516948D1*
Y515948D1*
Y514948D1*
Y513948D1*
Y512948D1*
Y511948D1*
Y510948D1*
Y509948D1*
Y508948D1*
Y507948D1*
Y506948D1*
Y505948D1*
Y504948D1*
Y503948D1*
Y502948D1*
Y501948D1*
Y500948D1*
Y499948D1*
Y498948D1*
Y497948D1*
Y496948D1*
Y495948D1*
X1240845Y494948D1*
X1240880Y493948D1*
X1241012Y492948D1*
X1241290Y491948D1*
X1241713Y490948D1*
X1242297Y489948D1*
X1243092Y488948D1*
X1244137Y487948D1*
X1245487Y486948D1*
X1247104Y485948D1*
X1248841Y484948D1*
X1274841Y538948D2*
Y537948D1*
Y536948D1*
Y535948D1*
Y534948D1*
Y533948D1*
Y532948D1*
Y531948D1*
Y530948D1*
Y529948D1*
Y528948D1*
Y527948D1*
Y526948D1*
Y525948D1*
Y524948D1*
Y523948D1*
Y522948D1*
Y521948D1*
Y520948D1*
Y519948D1*
Y518948D1*
Y517948D1*
Y516948D1*
Y515948D1*
Y514948D1*
Y513948D1*
Y512948D1*
Y511948D1*
Y510948D1*
Y509948D1*
Y508948D1*
Y507948D1*
Y506948D1*
Y505948D1*
Y504948D1*
Y503948D1*
Y502948D1*
Y501948D1*
Y500948D1*
Y499948D1*
Y498948D1*
Y497948D1*
Y496948D1*
Y495948D1*
X1274837Y494948D1*
X1274794Y493948D1*
X1274689Y492948D1*
X1274167Y491948D1*
X1272825Y490948D1*
X1271008Y489948D1*
X1268770Y488948D1*
X1266120Y487948D1*
X1263001Y486948D1*
X1259503Y485948D1*
X1255841Y484948D1*
X1282841Y538948D2*
Y537948D1*
Y536948D1*
Y535948D1*
Y534948D1*
Y533948D1*
Y532948D1*
Y531948D1*
Y530948D1*
Y529948D1*
Y528948D1*
Y527948D1*
Y526948D1*
Y525948D1*
Y524948D1*
Y523948D1*
Y522948D1*
Y521948D1*
Y520948D1*
Y519948D1*
Y518948D1*
Y517948D1*
Y516948D1*
Y515948D1*
Y514948D1*
Y513948D1*
Y512948D1*
Y511948D1*
Y510948D1*
Y509948D1*
Y508948D1*
Y507948D1*
Y506948D1*
Y505948D1*
Y504948D1*
Y503948D1*
Y502948D1*
Y501948D1*
Y500948D1*
Y499948D1*
Y498948D1*
Y497948D1*
Y496948D1*
Y495948D1*
Y494948D1*
Y493948D1*
Y492948D1*
Y491948D1*
Y490948D1*
Y489948D1*
Y488948D1*
Y487948D1*
Y486948D1*
Y485948D1*
Y484948D1*
Y483948D1*
Y482948D1*
Y481948D1*
Y480948D1*
Y479948D1*
Y478948D1*
Y477948D1*
X1309841Y538948D2*
X1307883Y537948D1*
X1306050Y536948D1*
X1304461Y535948D1*
X1303158Y534948D1*
X1302122Y533948D1*
X1301295Y532948D1*
X1300563Y531948D1*
X1299889Y530948D1*
X1299349Y529948D1*
X1298925Y528948D1*
X1298536Y527948D1*
X1298180Y526948D1*
X1297853Y525948D1*
X1297511Y524948D1*
X1297209Y523948D1*
X1297015Y522948D1*
X1296916Y521948D1*
X1296871Y520948D1*
X1296852Y519948D1*
X1296845Y518948D1*
X1296843Y517948D1*
X1296842Y516948D1*
X1296841Y515948D1*
X1296845Y514948D1*
X1296880Y513948D1*
X1297008Y512948D1*
X1297247Y511948D1*
X1297508Y510948D1*
X1297717Y509948D1*
X1297941Y508948D1*
X1298258Y507948D1*
X1298664Y506948D1*
X1299123Y505948D1*
X1299641Y504948D1*
X1300265Y503948D1*
X1301037Y502948D1*
X1301917Y501948D1*
X1302841Y500948D1*
X1301537Y499948D1*
X1300372Y498948D1*
X1299457Y497948D1*
X1298747Y496948D1*
X1298156Y495948D1*
X1297653Y494948D1*
X1297269Y493948D1*
X1297039Y492948D1*
X1296925Y491948D1*
X1296874Y490948D1*
X1296857Y489948D1*
X1296885Y488948D1*
X1297013Y487948D1*
X1297287Y486948D1*
X1297678Y485948D1*
X1298162Y484948D1*
X1298762Y483948D1*
X1299423Y482948D1*
X1300040Y481948D1*
X1300156Y480948D1*
X1299851Y479948D1*
X1299375Y478948D1*
X1298784Y477948D1*
X1298196Y476948D1*
X1297677Y475948D1*
X1297280Y474948D1*
X1297044Y473948D1*
X1296926Y472948D1*
X1296874Y471948D1*
X1296853Y470948D1*
X1296846Y469948D1*
X1296843Y468948D1*
X1296842Y467948D1*
X1296841Y466948D1*
Y465948D1*
Y464948D1*
Y463948D1*
Y462948D1*
Y461948D1*
Y460948D1*
X1296845Y459948D1*
X1296880Y458948D1*
X1297012Y457948D1*
X1297286Y456948D1*
X1297674Y455948D1*
X1298127Y454948D1*
X1298643Y453948D1*
X1299269Y452948D1*
X1300077Y451948D1*
X1301098Y450948D1*
X1302373Y449948D1*
X1304018Y448948D1*
X1306299Y447948D1*
X1309357Y446948D1*
X1312841Y445948D1*
X1352841Y538948D2*
Y537948D1*
X1352837Y536948D1*
X1352783Y535948D1*
X1352642Y534948D1*
X1351804Y533948D1*
X1349726Y532948D1*
X1347453Y531948D1*
X1345499Y530948D1*
X1343841Y529948D1*
X1344457Y528948D1*
X1344996Y527948D1*
X1345436Y526948D1*
X1345803Y525948D1*
X1346161Y524948D1*
X1346470Y523948D1*
X1346666Y522948D1*
X1346766Y521948D1*
X1346812Y520948D1*
X1346830Y519948D1*
X1346837Y518948D1*
X1346840Y517948D1*
X1346841Y516948D1*
X1346837Y515948D1*
X1346802Y514948D1*
X1346675Y513948D1*
X1346435Y512948D1*
X1346175Y511948D1*
X1345965Y510948D1*
X1345745Y509948D1*
X1345459Y508948D1*
X1345150Y507948D1*
X1344838Y506948D1*
X1344468Y505948D1*
X1344037Y504948D1*
X1343566Y503948D1*
X1343044Y502948D1*
X1342418Y501948D1*
X1341641Y500948D1*
X1340715Y499948D1*
X1339588Y498948D1*
X1338088Y497948D1*
X1335971Y496948D1*
X1333119Y495948D1*
X1329841Y494948D1*
X1374841Y538948D2*
X1372883Y537948D1*
X1371050Y536948D1*
X1369461Y535948D1*
X1368158Y534948D1*
X1367122Y533948D1*
X1366295Y532948D1*
X1365563Y531948D1*
X1364889Y530948D1*
X1364349Y529948D1*
X1363925Y528948D1*
X1363536Y527948D1*
X1363180Y526948D1*
X1362853Y525948D1*
X1362511Y524948D1*
X1362209Y523948D1*
X1362015Y522948D1*
X1361916Y521948D1*
X1361871Y520948D1*
X1361852Y519948D1*
X1361845Y518948D1*
X1361843Y517948D1*
X1361842Y516948D1*
X1361841Y515948D1*
X1361845Y514948D1*
X1361880Y513948D1*
X1362008Y512948D1*
X1362247Y511948D1*
X1362508Y510948D1*
X1362717Y509948D1*
X1362941Y508948D1*
X1363258Y507948D1*
X1363664Y506948D1*
X1364123Y505948D1*
X1364641Y504948D1*
X1365265Y503948D1*
X1366037Y502948D1*
X1366917Y501948D1*
X1367841Y500948D1*
X1366537Y499948D1*
X1365372Y498948D1*
X1364457Y497948D1*
X1363747Y496948D1*
X1363156Y495948D1*
X1362653Y494948D1*
X1362269Y493948D1*
X1362039Y492948D1*
X1361925Y491948D1*
X1361874Y490948D1*
X1361857Y489948D1*
X1361885Y488948D1*
X1362013Y487948D1*
X1362287Y486948D1*
X1362678Y485948D1*
X1363162Y484948D1*
X1363762Y483948D1*
X1364423Y482948D1*
X1365040Y481948D1*
X1365156Y480948D1*
X1364851Y479948D1*
X1364375Y478948D1*
X1363784Y477948D1*
X1363196Y476948D1*
X1362677Y475948D1*
X1362280Y474948D1*
X1362044Y473948D1*
X1361926Y472948D1*
X1361874Y471948D1*
X1361853Y470948D1*
X1361846Y469948D1*
X1361843Y468948D1*
X1361842Y467948D1*
X1361841Y466948D1*
Y465948D1*
Y464948D1*
Y463948D1*
Y462948D1*
Y461948D1*
Y460948D1*
X1361845Y459948D1*
X1361880Y458948D1*
X1362012Y457948D1*
X1362286Y456948D1*
X1362674Y455948D1*
X1363127Y454948D1*
X1363643Y453948D1*
X1364269Y452948D1*
X1365077Y451948D1*
X1366098Y450948D1*
X1367373Y449948D1*
X1369018Y448948D1*
X1371299Y447948D1*
X1374357Y446948D1*
X1377841Y445948D1*
X1417841Y538948D2*
Y537948D1*
X1417837Y536948D1*
X1417783Y535948D1*
X1417642Y534948D1*
X1416804Y533948D1*
X1414726Y532948D1*
X1412453Y531948D1*
X1410499Y530948D1*
X1408841Y529948D1*
X1409457Y528948D1*
X1409996Y527948D1*
X1410436Y526948D1*
X1410803Y525948D1*
X1411161Y524948D1*
X1411470Y523948D1*
X1411666Y522948D1*
X1411766Y521948D1*
X1411812Y520948D1*
X1411830Y519948D1*
X1411837Y518948D1*
X1411840Y517948D1*
X1411841Y516948D1*
X1411837Y515948D1*
X1411802Y514948D1*
X1411675Y513948D1*
X1411435Y512948D1*
X1411175Y511948D1*
X1410965Y510948D1*
X1410745Y509948D1*
X1410459Y508948D1*
X1410150Y507948D1*
X1409838Y506948D1*
X1409468Y505948D1*
X1409037Y504948D1*
X1408566Y503948D1*
X1408044Y502948D1*
X1407418Y501948D1*
X1406641Y500948D1*
X1405715Y499948D1*
X1404588Y498948D1*
X1403088Y497948D1*
X1400971Y496948D1*
X1398119Y495948D1*
X1394841Y494948D1*
X998841Y532948D2*
X997841Y531948D1*
X1011841Y532948D2*
X1014444Y531948D1*
X1016579Y530948D1*
X1018117Y529948D1*
X1019163Y528948D1*
X1019881Y527948D1*
X1020357Y526948D1*
X1020626Y525948D1*
X1020790Y524948D1*
X1020973Y523948D1*
X1021234Y522948D1*
X1021499Y521948D1*
X1021673Y520948D1*
X1021731Y519948D1*
X1021646Y518948D1*
X1021425Y517948D1*
X1021175Y516948D1*
X1021002Y515948D1*
X1020905Y514948D1*
X1020841Y513948D1*
X1317841Y531948D2*
X1314431Y530948D1*
X1311676Y529948D1*
X1309675Y528948D1*
X1308227Y527948D1*
X1307179Y526948D1*
X1306466Y525948D1*
X1305970Y524948D1*
X1305556Y523948D1*
X1305225Y522948D1*
X1305021Y521948D1*
X1304918Y520948D1*
X1304871Y519948D1*
X1304852Y518948D1*
X1304845Y517948D1*
X1304843Y516948D1*
X1304846Y515948D1*
X1304880Y514948D1*
X1305008Y513948D1*
X1305251Y512948D1*
X1305543Y511948D1*
X1305848Y510948D1*
X1306220Y509948D1*
X1306685Y508948D1*
X1307291Y507948D1*
X1308131Y506948D1*
X1309345Y505948D1*
X1311098Y504948D1*
X1313355Y503948D1*
X1315841Y502948D1*
X1327841Y531948D2*
X1330565Y530948D1*
X1332854Y529948D1*
X1334539Y528948D1*
X1335744Y527948D1*
X1336640Y526948D1*
X1337275Y525948D1*
X1337736Y524948D1*
X1338135Y523948D1*
X1338461Y522948D1*
X1338662Y521948D1*
X1338765Y520948D1*
X1338811Y519948D1*
X1338830Y518948D1*
X1338837Y517948D1*
X1338840Y516948D1*
X1338841Y515948D1*
X1338837Y514948D1*
X1338802Y513948D1*
X1338671Y512948D1*
X1338396Y511948D1*
X1338008Y510948D1*
X1337555Y509948D1*
X1337040Y508948D1*
X1336409Y507948D1*
X1335558Y506948D1*
X1334340Y505948D1*
X1332585Y504948D1*
X1330328Y503948D1*
X1327841Y502948D1*
X1382841Y531948D2*
X1379431Y530948D1*
X1376676Y529948D1*
X1374675Y528948D1*
X1373227Y527948D1*
X1372179Y526948D1*
X1371466Y525948D1*
X1370970Y524948D1*
X1370556Y523948D1*
X1370225Y522948D1*
X1370021Y521948D1*
X1369918Y520948D1*
X1369871Y519948D1*
X1369852Y518948D1*
X1369845Y517948D1*
X1369843Y516948D1*
X1369846Y515948D1*
X1369880Y514948D1*
X1370008Y513948D1*
X1370251Y512948D1*
X1370543Y511948D1*
X1370848Y510948D1*
X1371220Y509948D1*
X1371685Y508948D1*
X1372291Y507948D1*
X1373131Y506948D1*
X1374345Y505948D1*
X1376098Y504948D1*
X1378355Y503948D1*
X1380841Y502948D1*
X1392841Y531948D2*
X1395565Y530948D1*
X1397854Y529948D1*
X1399539Y528948D1*
X1400744Y527948D1*
X1401640Y526948D1*
X1402275Y525948D1*
X1402736Y524948D1*
X1403135Y523948D1*
X1403461Y522948D1*
X1403662Y521948D1*
X1403765Y520948D1*
X1403811Y519948D1*
X1403830Y518948D1*
X1403837Y517948D1*
X1403840Y516948D1*
X1403841Y515948D1*
X1403837Y514948D1*
X1403802Y513948D1*
X1403671Y512948D1*
X1403396Y511948D1*
X1403008Y510948D1*
X1402555Y509948D1*
X1402040Y508948D1*
X1401409Y507948D1*
X1400558Y506948D1*
X1399340Y505948D1*
X1397585Y504948D1*
X1395328Y503948D1*
X1392841Y502948D1*
X988841Y513948D2*
X987229Y512948D1*
X985729Y511948D1*
X984452Y510948D1*
X983456Y509948D1*
X982632Y508948D1*
X981917Y507948D1*
X981360Y506948D1*
X980929Y505948D1*
X980541Y504948D1*
X980220Y503948D1*
X980019Y502948D1*
X979917Y501948D1*
X979871Y500948D1*
X979852Y499948D1*
X979845Y498948D1*
X979843Y497948D1*
X979842Y496948D1*
X979841Y495948D1*
Y494948D1*
Y493948D1*
Y492948D1*
Y491948D1*
X979845Y490948D1*
X979880Y489948D1*
X980008Y488948D1*
X980251Y487948D1*
X980547Y486948D1*
X980884Y485948D1*
X981347Y484948D1*
X981925Y483948D1*
X982543Y482948D1*
X983262Y481948D1*
X984233Y480948D1*
X985574Y479948D1*
X987344Y478948D1*
X989496Y477948D1*
X991841Y476948D1*
X1138841Y514948D2*
Y513948D1*
Y512948D1*
Y511948D1*
Y510948D1*
Y509948D1*
Y508948D1*
Y507948D1*
Y506948D1*
Y505948D1*
Y504948D1*
Y503948D1*
Y502948D1*
Y501948D1*
Y500948D1*
Y499948D1*
Y498948D1*
Y497948D1*
Y496948D1*
Y495948D1*
Y494948D1*
Y493948D1*
Y492948D1*
Y491948D1*
Y490948D1*
Y489948D1*
Y488948D1*
Y487948D1*
Y486948D1*
Y485948D1*
Y484948D1*
Y483948D1*
Y482948D1*
Y481948D1*
Y480948D1*
Y479948D1*
Y478948D1*
Y477948D1*
X1133841Y514948D2*
X1144841Y513948D1*
X1155841Y512948D1*
X1019841Y508948D2*
X1018841Y507948D1*
X1020841Y508948D2*
Y507948D1*
Y506948D1*
Y505948D1*
Y504948D1*
Y503948D1*
Y502948D1*
Y501948D1*
Y500948D1*
Y499948D1*
Y498948D1*
Y497948D1*
Y496948D1*
Y495948D1*
X1020837Y494948D1*
X1020790Y493948D1*
X1020673Y492948D1*
X1020046Y491948D1*
X1018350Y490948D1*
X1015973Y489948D1*
X1012878Y488948D1*
X1008873Y487948D1*
X1003309Y486948D1*
X995690Y485948D1*
X986841Y484948D1*
X1050841Y508948D2*
Y507948D1*
Y506948D1*
Y505948D1*
Y504948D1*
Y503948D1*
Y502948D1*
Y501948D1*
Y500948D1*
Y499948D1*
Y498948D1*
Y497948D1*
Y496948D1*
Y495948D1*
Y494948D1*
Y493948D1*
Y492948D1*
Y491948D1*
Y490948D1*
Y489948D1*
Y488948D1*
Y487948D1*
Y486948D1*
Y485948D1*
Y484948D1*
Y483948D1*
Y482948D1*
Y481948D1*
Y480948D1*
Y479948D1*
Y478948D1*
Y477948D1*
X1055841Y508948D2*
X1056837Y507948D1*
X1057802Y506948D1*
X1058675Y505948D1*
X1059435Y504948D1*
X1060179Y503948D1*
X1061000Y502948D1*
X1061873Y501948D1*
X1062703Y500948D1*
X1063446Y499948D1*
X1064183Y498948D1*
X1065002Y497948D1*
X1065873Y496948D1*
X1066703Y495948D1*
X1067446Y494948D1*
X1068183Y493948D1*
X1069002Y492948D1*
X1069873Y491948D1*
X1070703Y490948D1*
X1071446Y489948D1*
X1072183Y488948D1*
X1073002Y487948D1*
X1073873Y486948D1*
X1074703Y485948D1*
X1075446Y484948D1*
X1076183Y483948D1*
X1077002Y482948D1*
X1077873Y481948D1*
X1078702Y480948D1*
X1079437Y479948D1*
X1080132Y478948D1*
X1080841Y477948D1*
X1005841Y507948D2*
X1004841Y506948D1*
X994841D2*
X993038Y505948D1*
X991457Y504948D1*
X990161Y503948D1*
X989165Y502948D1*
X988389Y501948D1*
X988107Y500948D1*
X987955Y499948D1*
X987886Y498948D1*
X987858Y497948D1*
X987847Y496948D1*
X987843Y495948D1*
X987842Y494948D1*
X987841Y493948D1*
Y492948D1*
X987845Y491948D1*
X987884Y490948D1*
X988051Y489948D1*
X988363Y488948D1*
X989191Y487948D1*
X991648Y486948D1*
X995709Y485948D1*
X1000841Y484948D1*
X1306841Y494948D2*
X1306038Y493948D1*
X1305453Y492948D1*
X1305126Y491948D1*
X1304949Y490948D1*
X1305141Y489948D1*
X1306040Y488948D1*
X1307339Y487948D1*
X1308841Y486948D1*
X1371841Y494948D2*
X1371038Y493948D1*
X1370453Y492948D1*
X1370126Y491948D1*
X1369949Y490948D1*
X1370141Y489948D1*
X1371040Y488948D1*
X1372339Y487948D1*
X1373841Y486948D1*
X1338841D2*
X1340915Y485948D1*
X1342702Y484948D1*
X1344124Y483948D1*
X1345185Y482948D1*
X1346035Y481948D1*
X1346760Y480948D1*
X1347321Y479948D1*
X1347753Y478948D1*
X1348141Y477948D1*
X1348463Y476948D1*
X1348663Y475948D1*
X1348765Y474948D1*
X1348811Y473948D1*
X1348830Y472948D1*
X1348837Y471948D1*
X1348840Y470948D1*
X1348841Y469948D1*
Y468948D1*
Y467948D1*
Y466948D1*
Y465948D1*
Y464948D1*
Y463948D1*
Y462948D1*
Y461948D1*
Y460948D1*
X1348837Y459948D1*
X1348802Y458948D1*
X1348671Y457948D1*
X1348396Y456948D1*
X1348008Y455948D1*
X1347559Y454948D1*
X1347079Y453948D1*
X1346580Y452948D1*
X1346011Y451948D1*
X1345246Y450948D1*
X1344150Y449948D1*
X1342636Y448948D1*
X1340551Y447948D1*
X1337854Y446948D1*
X1334841Y445948D1*
X1403841Y486948D2*
X1405915Y485948D1*
X1407702Y484948D1*
X1409124Y483948D1*
X1410185Y482948D1*
X1411035Y481948D1*
X1411760Y480948D1*
X1412321Y479948D1*
X1412753Y478948D1*
X1413141Y477948D1*
X1413463Y476948D1*
X1413663Y475948D1*
X1413765Y474948D1*
X1413811Y473948D1*
X1413830Y472948D1*
X1413837Y471948D1*
X1413840Y470948D1*
X1413841Y469948D1*
Y468948D1*
Y467948D1*
Y466948D1*
Y465948D1*
Y464948D1*
Y463948D1*
Y462948D1*
Y461948D1*
Y460948D1*
X1413837Y459948D1*
X1413802Y458948D1*
X1413671Y457948D1*
X1413396Y456948D1*
X1413008Y455948D1*
X1412559Y454948D1*
X1412079Y453948D1*
X1411580Y452948D1*
X1411011Y451948D1*
X1410246Y450948D1*
X1409150Y449948D1*
X1407636Y448948D1*
X1405551Y447948D1*
X1402854Y446948D1*
X1399841Y445948D1*
X937841Y484948D2*
X937691Y483948D1*
X937482Y482948D1*
X937290Y481948D1*
X937511Y480948D1*
X938285Y479948D1*
X940125Y478948D1*
X942744Y477948D1*
X945841Y476948D1*
X942841Y484948D2*
X943841Y483948D1*
X1021841Y484948D2*
X1019034Y483948D1*
X1016410Y482948D1*
X1013909Y481948D1*
X1011332Y480948D1*
X1008523Y479948D1*
X1005350Y478948D1*
X1001728Y477948D1*
X997841Y476948D1*
X1021841Y484948D2*
X1021879Y483948D1*
X1022007Y482948D1*
X1022251Y481948D1*
X1022546Y480948D1*
X1022875Y479948D1*
X1023315Y478948D1*
X1023841Y477948D1*
X1274841Y484948D2*
X1272996Y483948D1*
X1271244Y482948D1*
X1269499Y481948D1*
X1267635Y480948D1*
X1265561Y479948D1*
X1263202Y478948D1*
X1260580Y477948D1*
X1257841Y476948D1*
X1273841Y484948D2*
X1274683Y483948D1*
X1275396Y482948D1*
X1275974Y481948D1*
X1276431Y480948D1*
X1276831Y479948D1*
X1277300Y478948D1*
X1277841Y477948D1*
X1303841Y479948D2*
Y478948D1*
Y477948D1*
Y476948D1*
Y475948D1*
Y474948D1*
Y473948D1*
Y472948D1*
Y471948D1*
Y470948D1*
Y469948D1*
Y468948D1*
Y467948D1*
Y466948D1*
Y465948D1*
X1303845Y464948D1*
X1303880Y463948D1*
X1304008Y462948D1*
X1304251Y461948D1*
X1304547Y460948D1*
X1304887Y459948D1*
X1305394Y458948D1*
X1306177Y457948D1*
X1307364Y456948D1*
X1309105Y455948D1*
X1311358Y454948D1*
X1313841Y453948D1*
X1306841Y479948D2*
X1307841Y478948D1*
X1368841Y479948D2*
Y478948D1*
Y477948D1*
Y476948D1*
Y475948D1*
Y474948D1*
Y473948D1*
Y472948D1*
Y471948D1*
Y470948D1*
Y469948D1*
Y468948D1*
Y467948D1*
Y466948D1*
Y465948D1*
X1368845Y464948D1*
X1368880Y463948D1*
X1369008Y462948D1*
X1369251Y461948D1*
X1369547Y460948D1*
X1369887Y459948D1*
X1370394Y458948D1*
X1371177Y457948D1*
X1372364Y456948D1*
X1374105Y455948D1*
X1376358Y454948D1*
X1378841Y453948D1*
X1371841Y479948D2*
X1372841Y478948D1*
X1337841D2*
X1338799Y477948D1*
X1339636Y476948D1*
X1340265Y475948D1*
X1340730Y474948D1*
X1341133Y473948D1*
X1341459Y472948D1*
X1341662Y471948D1*
X1341765Y470948D1*
X1341811Y469948D1*
X1341830Y468948D1*
X1341837Y467948D1*
X1341840Y466948D1*
X1341841Y465948D1*
X1341837Y464948D1*
X1341802Y463948D1*
X1341675Y462948D1*
X1341431Y461948D1*
X1341140Y460948D1*
X1340830Y459948D1*
X1340420Y458948D1*
X1339788Y457948D1*
X1338784Y456948D1*
X1337362Y455948D1*
X1335657Y454948D1*
X1333841Y453948D1*
X1402841Y478948D2*
X1403799Y477948D1*
X1404636Y476948D1*
X1405265Y475948D1*
X1405730Y474948D1*
X1406133Y473948D1*
X1406459Y472948D1*
X1406662Y471948D1*
X1406765Y470948D1*
X1406811Y469948D1*
X1406830Y468948D1*
X1406837Y467948D1*
X1406840Y466948D1*
X1406841Y465948D1*
X1406837Y464948D1*
X1406802Y463948D1*
X1406675Y462948D1*
X1406431Y461948D1*
X1406140Y460948D1*
X1405830Y459948D1*
X1405420Y458948D1*
X1404788Y457948D1*
X1403784Y456948D1*
X1402362Y455948D1*
X1400657Y454948D1*
X1398841Y453948D1*
X601500Y4421284D2*
D32*
X606308Y4423716D1*
X613493Y4430846D1*
Y4380661D1*
X978932Y4418908D2*
Y4421284D1*
X981308Y4426093D1*
X983685Y4428469D1*
X988493Y4430846D1*
X998055D1*
X1002808Y4428469D1*
X1005185Y4426093D1*
X1007617Y4421284D1*
Y4416531D1*
X1005185Y4411723D1*
X1000432Y4404593D1*
X976500Y4380661D1*
X1009993D1*
X1368808Y4424596D2*
X1395061D1*
X1380747Y4405473D1*
X1387932D1*
X1392685Y4403096D1*
X1395061Y4400719D1*
X1397493Y4393534D1*
Y4388781D1*
X1395061Y4381596D1*
X1390308Y4376788D1*
X1383123Y4374411D1*
X1375938D1*
X1368808Y4376788D1*
X1366432Y4379220D1*
X1364000Y4383973D1*
X1769182Y4374411D2*
Y4424596D1*
X1745250Y4391158D1*
X1781120D1*
M02*
