M48
INCH
T01C0.126
T02C0.127
T03C0.2
T04C0.236
T05C0.2362
%
T01
X+017382Y+005121G85X+016398Y+005121
X+007382Y+005121G85X+006398Y+005121
X+007382Y+053349G85X+006398Y+053349
X+017382Y+053349G85X+016398Y+053349
T02
X+005640Y+049440
X+018140Y+049440
T03
X+013827Y+046440
X+017640Y+046440
X+009952Y+046440
X+006140Y+046440
T04
X+005950Y+015080
X+005950Y+024440
T05
X+013890Y+015080
X+017830Y+015080
X+017830Y+019690
X+013890Y+019690
X+009890Y+019690
X+005950Y+019690
X+009890Y+015080
X+009890Y+010310
X+005950Y+010310
X+013890Y+010310
X+017830Y+010310
X+017830Y+024440
X+013890Y+024440
X+009890Y+024440
T00
M30
