G04 DipTrace 3.2.0.1*
G04 twiigs_panel.GBL*
%MOIN*%
G04 #@! TF.FileFunction,Copper,L2,Bot*
G04 #@! TF.Part,Single*
G04 #@! TA.AperFunction,CopperBalancing*
%ADD14C,0.01*%
G04 #@! TA.AperFunction,ComponentPad*
%ADD19C,0.334646*%
%ADD20O,0.299213X0.177165*%
%FSLAX26Y26*%
G04*
G70*
G90*
G75*
G01*
G04 Bottom*
%LPD*%
X456712Y5428233D2*
D14*
X415714Y5387235D1*
X499139Y5428233D2*
X415714Y5344809D1*
X541565Y5428233D2*
X415714Y5302382D1*
X534356Y5378598D2*
X415714Y5259956D1*
X524578Y5326394D2*
X415714Y5217529D1*
X533099Y5292488D2*
X415714Y5175103D1*
X549603Y5266566D2*
X415714Y5132677D1*
X572460Y5246996D2*
X415714Y5090250D1*
X602194Y5234304D2*
X415714Y5047824D1*
X838550Y5428233D2*
X821099Y5410782D1*
X641513Y5231197D2*
X415714Y5005397D1*
X880976Y5428233D2*
X839881Y5387138D1*
X683940Y5231197D2*
X415714Y4962971D1*
X923403Y5428233D2*
X851593Y5356423D1*
X726366Y5231197D2*
X542676Y5047506D1*
X460497Y4965327D2*
X415714Y4920545D1*
X965829Y5428233D2*
X851372Y5313776D1*
X771140Y5233544D2*
X585378Y5047782D1*
X460220Y4922625D2*
X415714Y4878118D1*
X1008256Y5428233D2*
X616314Y5036292D1*
X471697Y4891675D2*
X415714Y4835692D1*
X1050682Y5428233D2*
X640262Y5017813D1*
X490189Y4867741D2*
X415714Y4793265D1*
X1093108Y5428233D2*
X658022Y4993147D1*
X514855Y4849980D2*
X415714Y4750839D1*
X1135535Y5428233D2*
X668532Y4961231D1*
X546772Y4839470D2*
X415714Y4708413D1*
X1177961Y5428233D2*
X665894Y4916167D1*
X591836Y4842108D2*
X415714Y4665986D1*
X1220388Y5428233D2*
X574123Y4781968D1*
X476034Y4683879D2*
X415714Y4623560D1*
X1262814Y5428233D2*
X622225Y4787644D1*
X470357Y4635777D2*
X415714Y4581133D1*
X1305241Y5428233D2*
X658105Y4781098D1*
X476904Y4599897D2*
X415714Y4538707D1*
X1347667Y5428233D2*
X687425Y4767992D1*
X490010Y4570576D2*
X415714Y4496281D1*
X1390093Y5428233D2*
X711760Y4749900D1*
X508102Y4546242D2*
X415714Y4453854D1*
X1432520Y5428233D2*
X731592Y4727306D1*
X530696Y4526410D2*
X415714Y4411428D1*
X1474946Y5428233D2*
X746728Y4700016D1*
X557986Y4511273D2*
X415714Y4369001D1*
X1517373Y5428233D2*
X756092Y4666953D1*
X591035Y4501896D2*
X415714Y4326575D1*
X1559799Y5428233D2*
X756465Y4624899D1*
X633102Y4501537D2*
X415714Y4284149D1*
X1525811Y5351819D2*
X956195Y4782203D1*
X857043Y4683051D2*
X415714Y4241722D1*
X1527026Y5310608D2*
X1004035Y4787617D1*
X851643Y4635224D2*
X574551Y4358132D1*
X543775Y4327357D2*
X415714Y4199296D1*
X1539373Y5280528D2*
X1039805Y4780960D1*
X858299Y4599455D2*
X616977Y4358132D1*
X543775Y4284930D2*
X415714Y4156869D1*
X1558653Y5257382D2*
X1069042Y4767771D1*
X871475Y4570204D2*
X659403Y4358132D1*
X543775Y4242504D2*
X415714Y4114443D1*
X1584299Y5240602D2*
X1093321Y4749624D1*
X889622Y4545924D2*
X684939Y4341242D1*
X543775Y4200077D2*
X415714Y4072016D1*
X1814357Y5428233D2*
X1807582Y5421458D1*
X1617762Y5231638D2*
X1113084Y4726960D1*
X912285Y4526161D2*
X685174Y4299050D1*
X543775Y4157651D2*
X415714Y4029590D1*
X1856784Y5428233D2*
X1829955Y5401405D1*
X1659747Y5231197D2*
X1128152Y4699601D1*
X939658Y4511108D2*
X685174Y4256624D1*
X543775Y4115225D2*
X415714Y3987164D1*
X1899210Y5428233D2*
X1845907Y5374930D1*
X1702173Y5231197D2*
X1137432Y4666456D1*
X972804Y4501827D2*
X685174Y4214197D1*
X543775Y4072798D2*
X415714Y3944737D1*
X1941637Y5428233D2*
X1853613Y5340210D1*
X1744600Y5231197D2*
X1137612Y4624209D1*
X1015037Y4501634D2*
X685174Y4171771D1*
X543775Y4030372D2*
X415714Y3902311D1*
X1962286Y5406456D2*
X1839887Y5284058D1*
X1800853Y5245023D2*
X1335342Y4779512D1*
X1247238Y4691409D2*
X685177Y4129347D1*
X543777Y3987948D2*
X415703Y3859873D1*
X1962286Y5364030D2*
X1386069Y4787813D1*
X1238938Y4640682D2*
X956681Y4358425D1*
X924634Y4326378D2*
X685177Y4086921D1*
X543777Y3945521D2*
X415703Y3817447D1*
X1962286Y5321604D2*
X1422957Y4782275D1*
X1244476Y4603794D2*
X999107Y4358425D1*
X924634Y4283952D2*
X685177Y4044494D1*
X543777Y3903095D2*
X415703Y3775020D1*
X1962286Y5279177D2*
X1452954Y4769845D1*
X1256906Y4573797D2*
X1041534Y4358425D1*
X924634Y4241526D2*
X685177Y4002068D1*
X543777Y3860669D2*
X415703Y3732594D1*
X1962286Y5236751D2*
X1760048Y5034513D1*
X1723486Y4997950D2*
X1477841Y4752305D1*
X1274445Y4548910D2*
X1065951Y4340416D1*
X924634Y4199099D2*
X685177Y3959641D1*
X543777Y3818242D2*
X415703Y3690167D1*
X1962286Y5194324D2*
X1817749Y5049787D1*
X1708211Y4940249D2*
X1498211Y4730250D1*
X1296501Y4528539D2*
X1066047Y4298086D1*
X924634Y4156673D2*
X685177Y3917215D1*
X543777Y3775816D2*
X415703Y3647741D1*
X1962286Y5151898D2*
X1853008Y5042620D1*
X1715379Y4904991D2*
X1513942Y4703554D1*
X1323197Y4512809D2*
X1066047Y4255659D1*
X924634Y4114246D2*
X685177Y3874789D1*
X543777Y3733389D2*
X415703Y3605315D1*
X1962286Y5109472D2*
X1879952Y5027138D1*
X1730860Y4878046D2*
X1524092Y4671278D1*
X1355459Y4502644D2*
X1066047Y4213233D1*
X924634Y4071820D2*
X685177Y3832362D1*
X543777Y3690963D2*
X415703Y3562888D1*
X1962286Y5067045D2*
X1900585Y5005345D1*
X1752654Y4857413D2*
X1525902Y4630661D1*
X1396090Y4500849D2*
X1066047Y4170807D1*
X924634Y4029394D2*
X685177Y3789936D1*
X543777Y3648537D2*
X415703Y3520462D1*
X1962286Y5024619D2*
X1914728Y4977060D1*
X1780938Y4843271D2*
X1717497Y4779830D1*
X1628178Y4690511D2*
X1501664Y4563997D1*
X1462754Y4525087D2*
X1066047Y4128380D1*
X924634Y3986967D2*
X685177Y3747509D1*
X543777Y3606110D2*
X415703Y3478035D1*
X1962286Y4982192D2*
X1919713Y4939620D1*
X1818379Y4838285D2*
X1767892Y4787799D1*
X1620195Y4640102D2*
X1338505Y4358411D1*
X1312355Y4332262D2*
X1066047Y4085954D1*
X924634Y3944541D2*
X685177Y3705083D1*
X543777Y3563684D2*
X415703Y3435609D1*
X1962286Y4939766D2*
X1804670Y4782150D1*
X1625858Y4603338D2*
X1380931Y4358411D1*
X1312355Y4289835D2*
X1066047Y4043527D1*
X924634Y3902114D2*
X685177Y3662657D1*
X543777Y3521257D2*
X415703Y3393183D1*
X1962286Y4897340D2*
X1834570Y4769624D1*
X1638370Y4573424D2*
X1423357Y4358411D1*
X1312355Y4247409D2*
X1066047Y4001101D1*
X924634Y3859688D2*
X685177Y3620230D1*
X543777Y3478831D2*
X415703Y3350756D1*
X1962286Y4854913D2*
X1859402Y4752029D1*
X1655965Y4548592D2*
X1452567Y4345194D1*
X1312355Y4204983D2*
X1066047Y3958675D1*
X924634Y3817262D2*
X685177Y3577804D1*
X543777Y3436404D2*
X415703Y3308330D1*
X1962286Y4812487D2*
X1879717Y4729918D1*
X1678090Y4528291D2*
X1453755Y4303955D1*
X1312355Y4162556D2*
X1066047Y3916248D1*
X924634Y3774835D2*
X685177Y3535377D1*
X543777Y3393978D2*
X415703Y3265903D1*
X1962286Y4770060D2*
X1895365Y4703139D1*
X1704855Y4512629D2*
X1453755Y4261529D1*
X1312355Y4120130D2*
X1066047Y3873822D1*
X924634Y3732409D2*
X685177Y3492951D1*
X543777Y3351552D2*
X415703Y3223477D1*
X1962286Y4727634D2*
X1905447Y4670795D1*
X1737213Y4502561D2*
X1453755Y4219103D1*
X1312355Y4077703D2*
X1066047Y3831395D1*
X924634Y3689982D2*
X685177Y3450525D1*
X543777Y3309125D2*
X415703Y3181051D1*
X1962286Y4685208D2*
X1907076Y4629998D1*
X1777996Y4500918D2*
X1453755Y4176676D1*
X1312355Y4035277D2*
X1066047Y3788969D1*
X924634Y3647556D2*
X685177Y3408098D1*
X543777Y3266699D2*
X415703Y3138624D1*
X1962286Y4642781D2*
X1881568Y4562063D1*
X1845931Y4526426D2*
X1453755Y4134250D1*
X1312355Y3992851D2*
X1066047Y3746543D1*
X924634Y3605130D2*
X685177Y3365672D1*
X543777Y3224272D2*
X415703Y3096198D1*
X1962286Y4600355D2*
X1720273Y4358342D1*
X1693433Y4331502D2*
X1453755Y4091823D1*
X1312355Y3950424D2*
X1066047Y3704116D1*
X924634Y3562703D2*
X685177Y3323245D1*
X543777Y3181846D2*
X415703Y3053771D1*
X1962286Y4557928D2*
X1762700Y4358342D1*
X1693433Y4289076D2*
X1453755Y4049397D1*
X1312355Y3907998D2*
X1066047Y3661690D1*
X924634Y3520277D2*
X685177Y3280819D1*
X543777Y3139420D2*
X415703Y3011345D1*
X1962286Y4515502D2*
X1805126Y4358342D1*
X1693433Y4246649D2*
X1453755Y4006971D1*
X1312355Y3865571D2*
X1066047Y3619263D1*
X924634Y3477850D2*
X685177Y3238392D1*
X543777Y3096993D2*
X415703Y2968918D1*
X1962286Y4473075D2*
X1833825Y4344614D1*
X1693433Y4204223D2*
X1453755Y3964544D1*
X1312355Y3823145D2*
X1066047Y3576837D1*
X924634Y3435424D2*
X685177Y3195966D1*
X543777Y3054567D2*
X415703Y2926492D1*
X1962286Y4430649D2*
X1834833Y4303196D1*
X1693433Y4161797D2*
X1453755Y3922118D1*
X1312355Y3780719D2*
X1066047Y3534411D1*
X924634Y3392998D2*
X685177Y3153540D1*
X543777Y3012140D2*
X415703Y2884066D1*
X1962286Y4388223D2*
X1834833Y4260769D1*
X1693433Y4119370D2*
X1453755Y3879691D1*
X1312355Y3738292D2*
X1066047Y3491984D1*
X924634Y3350571D2*
X685177Y3111113D1*
X543777Y2969714D2*
X415703Y2841639D1*
X1962286Y4345796D2*
X1834833Y4218343D1*
X1693433Y4076944D2*
X1453755Y3837265D1*
X1312355Y3695866D2*
X1066047Y3449558D1*
X924634Y3308145D2*
X685177Y3068687D1*
X543777Y2927288D2*
X415703Y2799213D1*
X1962286Y4303370D2*
X1834833Y4175917D1*
X1693433Y4034517D2*
X1453755Y3794839D1*
X1312355Y3653439D2*
X1066047Y3407131D1*
X924634Y3265718D2*
X685177Y3026260D1*
X543777Y2884861D2*
X415703Y2756786D1*
X1962286Y4260943D2*
X1834833Y4133490D1*
X1693433Y3992091D2*
X1453755Y3752412D1*
X1312355Y3611013D2*
X1066047Y3364705D1*
X924634Y3223292D2*
X685177Y2983834D1*
X543777Y2842435D2*
X415703Y2714360D1*
X1962286Y4218517D2*
X1834833Y4091064D1*
X1693433Y3949665D2*
X1453755Y3709986D1*
X1312355Y3568586D2*
X1066047Y3322279D1*
X924634Y3180865D2*
X685177Y2941408D1*
X560861Y2817092D2*
X415703Y2671934D1*
X1962286Y4176091D2*
X1834833Y4048637D1*
X1693433Y3907238D2*
X1453755Y3667559D1*
X1312355Y3526160D2*
X1066047Y3279852D1*
X924634Y3138439D2*
X685177Y2898981D1*
X603080Y2816885D2*
X415703Y2629507D1*
X1962286Y4133664D2*
X1834833Y4006211D1*
X1693433Y3864812D2*
X1453755Y3625133D1*
X1312355Y3483734D2*
X1066047Y3237426D1*
X924634Y3096013D2*
X685177Y2856555D1*
X645507Y2816885D2*
X415703Y2587081D1*
X1962286Y4091238D2*
X1834833Y3963785D1*
X1693433Y3822385D2*
X1453755Y3582707D1*
X1312355Y3441307D2*
X1066047Y3194999D1*
X924634Y3053586D2*
X415703Y2544654D1*
X1962286Y4048811D2*
X1834833Y3921358D1*
X1693433Y3779959D2*
X1453755Y3540280D1*
X1312355Y3398881D2*
X1066047Y3152573D1*
X924634Y3011160D2*
X526008Y2612534D1*
X426469Y2512995D2*
X415703Y2502228D1*
X1962286Y4006385D2*
X1834833Y3878932D1*
X1693433Y3737533D2*
X1453755Y3497854D1*
X1312355Y3356454D2*
X1066047Y3110147D1*
X924634Y2968733D2*
X581804Y2625903D1*
X1962286Y3963959D2*
X1834833Y3836505D1*
X1693433Y3695106D2*
X1453755Y3455427D1*
X1312355Y3314028D2*
X1066047Y3067720D1*
X924634Y2926307D2*
X622738Y2624411D1*
X1962286Y3921532D2*
X1834833Y3794079D1*
X1693433Y3652680D2*
X1453755Y3413001D1*
X1312355Y3271602D2*
X1066047Y3025294D1*
X924634Y2883881D2*
X656658Y2615904D1*
X423100Y2382346D2*
X415703Y2374949D1*
X1962286Y3879106D2*
X1834833Y3751653D1*
X1693433Y3610253D2*
X1453755Y3370574D1*
X1312355Y3229175D2*
X1066047Y2982867D1*
X924634Y2841454D2*
X685743Y2602563D1*
X436441Y2353261D2*
X415703Y2332522D1*
X1962286Y3836679D2*
X1834833Y3709226D1*
X1693433Y3567827D2*
X1453755Y3328148D1*
X1312355Y3186749D2*
X1066047Y2940441D1*
X942851Y2817244D2*
X710878Y2585272D1*
X453732Y2328125D2*
X415703Y2290096D1*
X1962286Y3794253D2*
X1834833Y3666800D1*
X1693433Y3525400D2*
X1453755Y3285722D1*
X1312355Y3144322D2*
X1066047Y2898014D1*
X985194Y2817161D2*
X732437Y2564404D1*
X474600Y2306567D2*
X415703Y2247670D1*
X1962286Y3751827D2*
X1834833Y3624373D1*
X1693433Y3482974D2*
X1453755Y3243295D1*
X1312355Y3101896D2*
X1066047Y2855588D1*
X1027621Y2817161D2*
X750446Y2539986D1*
X499017Y2288557D2*
X415703Y2205243D1*
X1962286Y3709400D2*
X1834833Y3581947D1*
X1693433Y3440548D2*
X1453755Y3200869D1*
X1312355Y3059470D2*
X764616Y2511730D1*
X527274Y2274388D2*
X415703Y2162817D1*
X1962286Y3666974D2*
X1834833Y3539521D1*
X1693433Y3398121D2*
X1453755Y3158442D1*
X1312355Y3017043D2*
X895292Y2599980D1*
X833028Y2537716D2*
X774186Y2478874D1*
X560129Y2264817D2*
X415703Y2120390D1*
X1962286Y3624547D2*
X1834833Y3497094D1*
X1693433Y3355695D2*
X1453755Y3116016D1*
X1312355Y2974617D2*
X962053Y2624314D1*
X808680Y2470941D2*
X777363Y2439624D1*
X599379Y2261640D2*
X415703Y2077964D1*
X1962286Y3582121D2*
X1834833Y3454668D1*
X1693433Y3313268D2*
X1453755Y3073590D1*
X1312355Y2932190D2*
X1005874Y2625709D1*
X807285Y2427120D2*
X768455Y2388290D1*
X650713Y2270548D2*
X510250Y2130085D1*
X433927Y2053762D2*
X415703Y2035538D1*
X1962286Y3539695D2*
X1834833Y3412241D1*
X1693433Y3270842D2*
X1453755Y3031163D1*
X1312355Y2889764D2*
X1041492Y2618901D1*
X814108Y2391516D2*
X572537Y2149945D1*
X1962286Y3497268D2*
X1834833Y3369815D1*
X1693433Y3228416D2*
X1453755Y2988737D1*
X1312355Y2847338D2*
X1071834Y2606816D1*
X826192Y2361174D2*
X615377Y2150360D1*
X1962286Y3454842D2*
X1834833Y3327388D1*
X1693433Y3185989D2*
X1453755Y2946310D1*
X1325724Y2818280D2*
X1098047Y2590603D1*
X842392Y2334948D2*
X650443Y2142998D1*
X421014Y1913570D2*
X415703Y1908258D1*
X1962286Y3412415D2*
X1834833Y3284962D1*
X1693433Y3143563D2*
X1453755Y2903884D1*
X1367032Y2817161D2*
X1120613Y2570743D1*
X862252Y2312381D2*
X680370Y2130500D1*
X433499Y1883628D2*
X415703Y1865832D1*
X1962286Y3369989D2*
X1834833Y3242536D1*
X1693433Y3101136D2*
X1453755Y2861458D1*
X1409458Y2817161D2*
X1139658Y2547361D1*
X885633Y2293336D2*
X706238Y2113941D1*
X450058Y1857761D2*
X415703Y1823406D1*
X1962286Y3327563D2*
X1834833Y3200109D1*
X1693433Y3058710D2*
X1154974Y2520251D1*
X912743Y2278020D2*
X728487Y2093763D1*
X470235Y1835512D2*
X415703Y1780979D1*
X1962286Y3285136D2*
X1834833Y3157683D1*
X1693433Y3016284D2*
X1165995Y2488845D1*
X944163Y2267013D2*
X747214Y2070064D1*
X493935Y1816785D2*
X415703Y1738553D1*
X1962286Y3242710D2*
X1834833Y3115256D1*
X1693433Y2973857D2*
X1338698Y2619122D1*
X1213871Y2494295D2*
X1171299Y2451722D1*
X981286Y2261710D2*
X762171Y2042595D1*
X521404Y1801828D2*
X415703Y1696126D1*
X1962286Y3200283D2*
X1834833Y3072830D1*
X1693433Y2931431D2*
X1388430Y2626427D1*
X1206579Y2444577D2*
X1167045Y2405042D1*
X1027952Y2265949D2*
X772736Y2010734D1*
X553265Y1791263D2*
X415703Y1653700D1*
X1962286Y3157857D2*
X1834833Y3030404D1*
X1693433Y2889004D2*
X1426990Y2622560D1*
X1210433Y2406003D2*
X951875Y2147445D1*
X810544Y2006115D2*
X777404Y1972975D1*
X591024Y1786595D2*
X415703Y1611273D1*
X1962286Y3115430D2*
X1834833Y2987977D1*
X1693433Y2846578D2*
X1459389Y2612534D1*
X1220459Y2373604D2*
X998085Y2151230D1*
X806760Y1959905D2*
X771839Y1924983D1*
X639016Y1792160D2*
X521396Y1674540D1*
X428458Y1581603D2*
X415703Y1568847D1*
X1962286Y3073004D2*
X1834833Y2945551D1*
X1707327Y2818045D2*
X1487287Y2598005D1*
X1234988Y2345706D2*
X1034987Y2145705D1*
X812298Y1923016D2*
X578931Y1689649D1*
X1962286Y3030578D2*
X1834833Y2903124D1*
X1748787Y2817078D2*
X1511387Y2579678D1*
X1253315Y2321606D2*
X1066241Y2134532D1*
X823471Y1891763D2*
X620446Y1688738D1*
X1962286Y2988151D2*
X1834833Y2860698D1*
X1791213Y2817078D2*
X1531937Y2557802D1*
X1275191Y2301056D2*
X1093213Y2119078D1*
X838925Y1864791D2*
X654710Y1680575D1*
X422423Y1448288D2*
X415703Y1441568D1*
X1962286Y2945725D2*
X1548896Y2532335D1*
X1300658Y2284097D2*
X1116470Y2099909D1*
X858081Y1841520D2*
X684058Y1667497D1*
X435502Y1418940D2*
X415703Y1399141D1*
X1962286Y2903298D2*
X1561865Y2502877D1*
X1330116Y2271128D2*
X1136206Y2077218D1*
X880772Y1821784D2*
X709428Y1650441D1*
X452558Y1393570D2*
X415703Y1356715D1*
X1962286Y2860872D2*
X1713906Y2612492D1*
X1614505Y2513092D2*
X1569875Y2468461D1*
X1364546Y2263132D2*
X1152295Y2050881D1*
X907122Y1805709D2*
X731208Y1629794D1*
X473205Y1371791D2*
X415703Y1314289D1*
X1962286Y2818446D2*
X1769729Y2625889D1*
X1601109Y2457269D2*
X1570538Y2426697D1*
X1406309Y2262469D2*
X1164228Y2020387D1*
X937616Y1793776D2*
X749438Y1605597D1*
X497401Y1353561D2*
X415703Y1271862D1*
X1962286Y2776019D2*
X1810678Y2624411D1*
X1602587Y2416320D2*
X1554600Y2368333D1*
X1464660Y2278393D2*
X1326254Y2139988D1*
X1218001Y2031734D2*
X1170829Y1984562D1*
X973441Y1787175D2*
X763870Y1577603D1*
X525395Y1339129D2*
X415703Y1229436D1*
X1962286Y2733593D2*
X1844611Y2615918D1*
X1611080Y2382387D2*
X1379854Y2151161D1*
X1206842Y1978149D2*
X1169048Y1940354D1*
X1017649Y1788956D2*
X887986Y1659293D1*
X837710Y1609017D2*
X773758Y1545065D1*
X557933Y1329240D2*
X415703Y1187009D1*
X1962286Y2691166D2*
X1873696Y2602576D1*
X1624422Y2353302D2*
X1420001Y2148882D1*
X1209121Y1938001D2*
X1142586Y1871467D1*
X1086537Y1815417D2*
X958918Y1687798D1*
X809191Y1538071D2*
X777418Y1506299D1*
X596700Y1325580D2*
X415703Y1144583D1*
X1962286Y2648740D2*
X1898845Y2585299D1*
X1641699Y2328153D2*
X1453437Y2139891D1*
X1218111Y1904565D2*
X1003457Y1689911D1*
X807092Y1493546D2*
X769656Y1456110D1*
X646902Y1333356D2*
X499285Y1185739D1*
X440266Y1126720D2*
X415703Y1102157D1*
X1962286Y2606314D2*
X1920404Y2564431D1*
X1662567Y2306594D2*
X1482136Y2126163D1*
X1231839Y1875867D2*
X1039462Y1683490D1*
X813514Y1457541D2*
X567137Y1211164D1*
X1962286Y2563887D2*
X1938427Y2540028D1*
X1686970Y2288571D2*
X1506953Y2108555D1*
X1249448Y1851049D2*
X1070080Y1671681D1*
X825308Y1426909D2*
X611165Y1212766D1*
X1962286Y2521461D2*
X1952596Y2511771D1*
X1715227Y2274402D2*
X1528194Y2087369D1*
X1270633Y1829808D2*
X1096541Y1655716D1*
X841287Y1400462D2*
X646893Y1206068D1*
X419923Y979098D2*
X415712Y974887D1*
X1748069Y2264817D2*
X1545872Y2062620D1*
X1295368Y1812117D2*
X1119329Y1636077D1*
X860926Y1377674D2*
X677318Y1194067D1*
X431925Y948673D2*
X415703Y932451D1*
X1787318Y2261640D2*
X1559683Y2034005D1*
X1323998Y1798320D2*
X1138581Y1612903D1*
X884086Y1358408D2*
X703614Y1177936D1*
X448069Y922391D2*
X415703Y890025D1*
X1962286Y2394182D2*
X1956477Y2388373D1*
X1838625Y2270521D2*
X1698121Y2130016D1*
X1621991Y2053886D2*
X1568770Y2000666D1*
X1357337Y1789232D2*
X1154146Y1586041D1*
X910948Y1342844D2*
X726236Y1158131D1*
X467860Y899756D2*
X415703Y847598D1*
X1962286Y2351755D2*
X1760462Y2149931D1*
X1602062Y1991531D2*
X1571201Y1960670D1*
X1397319Y1786788D2*
X1165457Y1554926D1*
X942077Y1331546D2*
X745350Y1134819D1*
X491186Y880655D2*
X415703Y805172D1*
X1962286Y2309329D2*
X1803331Y2150373D1*
X1601634Y1948677D2*
X1560442Y1907485D1*
X1450504Y1797546D2*
X1334941Y1681984D1*
X1215018Y1562061D2*
X1171174Y1518217D1*
X978772Y1325815D2*
X760735Y1107778D1*
X518214Y865256D2*
X415703Y762745D1*
X1962286Y2266902D2*
X1838396Y2143012D1*
X1608995Y1913611D2*
X1385765Y1690381D1*
X1206607Y1511223D2*
X1167763Y1472379D1*
X1024624Y1329240D2*
X771839Y1076455D1*
X549550Y854167D2*
X415703Y720319D1*
X1962286Y2224476D2*
X1868337Y2130527D1*
X1621480Y1883670D2*
X1424821Y1687011D1*
X1209991Y1472181D2*
X1122989Y1385179D1*
X1111824Y1374014D2*
X945881Y1208071D1*
X811939Y1074129D2*
X777266Y1039456D1*
X586549Y848739D2*
X415703Y677893D1*
X1962286Y2182050D2*
X1894205Y2113968D1*
X1638025Y1857789D2*
X1457539Y1677302D1*
X1219700Y1439463D2*
X993624Y1213388D1*
X806608Y1026372D2*
X773261Y993025D1*
X632967Y852730D2*
X415703Y635466D1*
X1962286Y2139623D2*
X1916468Y2093805D1*
X1658202Y1835540D2*
X1485685Y1663022D1*
X1233980Y1411317D2*
X1031272Y1208609D1*
X811387Y988724D2*
X415703Y593040D1*
X1962286Y2097197D2*
X1935181Y2070092D1*
X1681902Y1816812D2*
X1510006Y1644916D1*
X1252086Y1386996D2*
X1063064Y1197975D1*
X822035Y956946D2*
X415703Y550613D1*
X1962286Y2054770D2*
X1950152Y2042636D1*
X1709357Y1801842D2*
X1530777Y1623261D1*
X1273741Y1366225D2*
X1090465Y1182949D1*
X837061Y929545D2*
X415703Y508187D1*
X1741218Y1791276D2*
X1547971Y1598029D1*
X1298973Y1349031D2*
X1114109Y1164167D1*
X855830Y905888D2*
X415703Y465760D1*
X1778963Y1786595D2*
X1561202Y1568833D1*
X1328169Y1335800D2*
X1134231Y1141862D1*
X878134Y885765D2*
X605461Y613093D1*
X526942Y534574D2*
X415703Y423334D1*
X1962286Y1927491D2*
X1959851Y1925056D1*
X1826928Y1792133D2*
X1709294Y1674499D1*
X1616508Y1581713D2*
X1569557Y1534762D1*
X1362240Y1327445D2*
X1150735Y1115940D1*
X904070Y869275D2*
X650539Y615744D1*
X526224Y491429D2*
X450506Y415711D1*
X1962286Y1885065D2*
X1766870Y1689649D1*
X1601358Y1524136D2*
X1570800Y1493579D1*
X1403423Y1326202D2*
X1163150Y1085929D1*
X934067Y856846D2*
X692966Y615744D1*
X537714Y460493D2*
X492932Y415711D1*
X1962286Y1842638D2*
X1808399Y1688751D1*
X1602255Y1482608D2*
X1556713Y1437066D1*
X1459936Y1340289D2*
X1318576Y1198928D1*
X1221067Y1101419D2*
X1170429Y1050781D1*
X969215Y849568D2*
X735392Y615744D1*
X556331Y436683D2*
X535358Y415711D1*
X1962286Y1800212D2*
X1842677Y1680603D1*
X1610404Y1448330D2*
X1374896Y1212822D1*
X1207173Y1045099D2*
X1169849Y1007774D1*
X1012222Y850148D2*
X774932Y612858D1*
X581287Y419213D2*
X577787Y415713D1*
X1962286Y1757785D2*
X1872025Y1667524D1*
X1623469Y1418968D2*
X1416010Y1211510D1*
X1208485Y1003985D2*
X1149298Y944798D1*
X1075198Y870698D2*
X804874Y600373D1*
X1962286Y1715359D2*
X1897395Y1650468D1*
X1640525Y1393598D2*
X1450053Y1203126D1*
X1216882Y969955D2*
X827896Y580969D1*
X1962286Y1672933D2*
X1919175Y1629821D1*
X1661172Y1371818D2*
X1479208Y1189854D1*
X1230140Y940787D2*
X844566Y555212D1*
X1962286Y1630506D2*
X1937418Y1605639D1*
X1685354Y1353574D2*
X1504426Y1172646D1*
X1247362Y915583D2*
X853335Y521556D1*
X1962286Y1588080D2*
X1951851Y1577644D1*
X1713362Y1339156D2*
X1526054Y1151847D1*
X1268147Y893941D2*
X844593Y470387D1*
X1745886Y1329254D2*
X1544132Y1127499D1*
X1292496Y875863D2*
X832343Y415711D1*
X1784639Y1325580D2*
X1558384Y1099325D1*
X1320683Y861624D2*
X874770Y415711D1*
X1962286Y1460801D2*
X1957671Y1456185D1*
X1834813Y1333328D2*
X1687128Y1185642D1*
X1628358Y1126872D2*
X1568052Y1066566D1*
X1353428Y851943D2*
X917196Y415711D1*
X1962286Y1418374D2*
X1755076Y1211164D1*
X1602835Y1058924D2*
X1571380Y1027468D1*
X1392526Y848615D2*
X959622Y415711D1*
X1962286Y1375948D2*
X1799118Y1212780D1*
X1601220Y1014881D2*
X1562845Y976507D1*
X1443502Y857163D2*
X1002049Y415711D1*
X1962286Y1333521D2*
X1834847Y1206082D1*
X1607918Y979153D2*
X1044475Y415711D1*
X1962286Y1291095D2*
X1865285Y1194094D1*
X1619905Y948714D2*
X1086902Y415711D1*
X1962286Y1248669D2*
X1891567Y1177950D1*
X1636050Y922433D2*
X1129328Y415711D1*
X1962286Y1206242D2*
X1914217Y1158173D1*
X1655827Y899783D2*
X1171754Y415711D1*
X1962286Y1163816D2*
X1933317Y1134846D1*
X1679153Y880683D2*
X1214181Y415711D1*
X1962286Y1121389D2*
X1948716Y1107819D1*
X1706181Y865284D2*
X1256607Y415711D1*
X1962286Y1078963D2*
X1959823Y1076500D1*
X1737503Y854180D2*
X1299034Y415711D1*
X1774488Y848739D2*
X1341460Y415711D1*
X1820892Y852716D2*
X1383886Y415711D1*
X1962286Y951684D2*
X1626319Y615717D1*
X1524308Y513706D2*
X1426313Y415711D1*
X1962286Y909257D2*
X1668773Y615744D1*
X1530150Y477121D2*
X1468739Y415711D1*
X1962286Y866831D2*
X1711200Y615744D1*
X1544941Y449486D2*
X1511166Y415711D1*
X1962286Y824404D2*
X1753585Y615703D1*
X1566265Y428383D2*
X1553592Y415711D1*
X1962286Y781978D2*
X1788774Y608466D1*
X1962286Y739552D2*
X1815539Y592805D1*
X1962286Y697125D2*
X1835869Y570708D1*
X1962286Y654699D2*
X1849500Y541913D1*
X1962286Y612272D2*
X1853270Y503256D1*
X1962286Y569846D2*
X1808151Y415711D1*
X1962286Y527420D2*
X1850577Y415711D1*
X1962286Y484993D2*
X1893003Y415711D1*
X1962286Y442567D2*
X1935430Y415711D1*
X1921288Y5428233D2*
X1962286Y5387235D1*
X1878861Y5428233D2*
X1962286Y5344809D1*
X1836435Y5428233D2*
X1962286Y5302382D1*
X1843644Y5378598D2*
X1962286Y5259956D1*
X1853422Y5326394D2*
X1962286Y5217529D1*
X1844901Y5292488D2*
X1962286Y5175103D1*
X1828397Y5266566D2*
X1962286Y5132677D1*
X1805540Y5246996D2*
X1962286Y5090250D1*
X1775806Y5234304D2*
X1962286Y5047824D1*
X1539450Y5428233D2*
X1556901Y5410782D1*
X1736487Y5231197D2*
X1962286Y5005397D1*
X1497024Y5428233D2*
X1538119Y5387138D1*
X1694060Y5231197D2*
X1962286Y4962971D1*
X1454597Y5428233D2*
X1526407Y5356423D1*
X1651634Y5231197D2*
X1835324Y5047506D1*
X1917503Y4965327D2*
X1962286Y4920545D1*
X1412171Y5428233D2*
X1526628Y5313776D1*
X1606860Y5233544D2*
X1792622Y5047782D1*
X1917780Y4922625D2*
X1962286Y4878118D1*
X1369744Y5428233D2*
X1761686Y5036292D1*
X1906303Y4891675D2*
X1962286Y4835692D1*
X1327318Y5428233D2*
X1737738Y5017813D1*
X1887811Y4867741D2*
X1962286Y4793265D1*
X1284892Y5428233D2*
X1719978Y4993147D1*
X1863145Y4849980D2*
X1962286Y4750839D1*
X1242465Y5428233D2*
X1709468Y4961231D1*
X1831228Y4839470D2*
X1962286Y4708413D1*
X1200039Y5428233D2*
X1712106Y4916167D1*
X1786164Y4842108D2*
X1962286Y4665986D1*
X1157612Y5428233D2*
X1803877Y4781968D1*
X1901966Y4683879D2*
X1962286Y4623560D1*
X1115186Y5428233D2*
X1755775Y4787644D1*
X1907643Y4635777D2*
X1962286Y4581133D1*
X1072759Y5428233D2*
X1719895Y4781098D1*
X1901096Y4599897D2*
X1962286Y4538707D1*
X1030333Y5428233D2*
X1690575Y4767992D1*
X1887990Y4570576D2*
X1962286Y4496281D1*
X987907Y5428233D2*
X1666240Y4749900D1*
X1869898Y4546242D2*
X1962286Y4453854D1*
X945480Y5428233D2*
X1646408Y4727306D1*
X1847304Y4526410D2*
X1962286Y4411428D1*
X903054Y5428233D2*
X1631272Y4700016D1*
X1820014Y4511273D2*
X1962286Y4369001D1*
X860627Y5428233D2*
X1621908Y4666953D1*
X1786965Y4501896D2*
X1962286Y4326575D1*
X818201Y5428233D2*
X1621535Y4624899D1*
X1744898Y4501537D2*
X1962286Y4284149D1*
X852189Y5351819D2*
X1421805Y4782203D1*
X1520957Y4683051D2*
X1962286Y4241722D1*
X850974Y5310608D2*
X1373965Y4787617D1*
X1526357Y4635224D2*
X1803242Y4358340D1*
X1834833Y4326749D2*
X1962286Y4199296D1*
X838627Y5280528D2*
X1338195Y4780960D1*
X1519701Y4599455D2*
X1760816Y4358340D1*
X1834833Y4284323D2*
X1962286Y4156869D1*
X819347Y5257382D2*
X1308958Y4767771D1*
X1506525Y4570204D2*
X1718389Y4358340D1*
X1834833Y4241896D2*
X1962286Y4114443D1*
X793701Y5240602D2*
X1284679Y4749624D1*
X1488378Y4545924D2*
X1693572Y4340731D1*
X1834833Y4199470D2*
X1962286Y4072016D1*
X563643Y5428233D2*
X570418Y5421458D1*
X760238Y5231638D2*
X1264916Y4726960D1*
X1465715Y4526161D2*
X1693433Y4298443D1*
X1834833Y4157043D2*
X1962286Y4029590D1*
X521216Y5428233D2*
X548045Y5401405D1*
X718253Y5231197D2*
X1249848Y4699601D1*
X1438342Y4511108D2*
X1693433Y4256016D1*
X1834833Y4114617D2*
X1962286Y3987164D1*
X478790Y5428233D2*
X532093Y5374930D1*
X675827Y5231197D2*
X1240568Y4666456D1*
X1405196Y4501827D2*
X1693433Y4213590D1*
X1834833Y4072191D2*
X1962286Y3944737D1*
X436363Y5428233D2*
X524387Y5340210D1*
X633400Y5231197D2*
X1240388Y4624209D1*
X1362963Y4501634D2*
X1693433Y4171163D1*
X1834833Y4029764D2*
X1962286Y3902311D1*
X415714Y5406456D2*
X538113Y5284058D1*
X577147Y5245023D2*
X1042658Y4779512D1*
X1130762Y4691409D2*
X1693431Y4128739D1*
X1834844Y3987326D2*
X1962297Y3859873D1*
X415714Y5364030D2*
X991931Y4787813D1*
X1139062Y4640682D2*
X1421333Y4358411D1*
X1453752Y4325992D2*
X1693431Y4086313D1*
X1834844Y3944900D2*
X1962297Y3817447D1*
X415714Y5321604D2*
X955043Y4782275D1*
X1133524Y4603794D2*
X1378907Y4358411D1*
X1453752Y4283565D2*
X1693431Y4043887D1*
X1834844Y3902473D2*
X1962297Y3775020D1*
X415714Y5279177D2*
X925046Y4769845D1*
X1121094Y4573797D2*
X1336480Y4358411D1*
X1453752Y4241139D2*
X1693431Y4001460D1*
X1834844Y3860047D2*
X1962297Y3732594D1*
X415714Y5236751D2*
X617952Y5034513D1*
X654514Y4997950D2*
X900159Y4752305D1*
X1103555Y4548910D2*
X1312422Y4340043D1*
X1453752Y4198713D2*
X1693431Y3959034D1*
X1834844Y3817621D2*
X1962297Y3690167D1*
X415714Y5194324D2*
X560251Y5049787D1*
X669789Y4940249D2*
X879789Y4730250D1*
X1081499Y4528539D2*
X1312353Y4297685D1*
X1453752Y4156286D2*
X1693431Y3916607D1*
X1834844Y3775194D2*
X1962297Y3647741D1*
X415714Y5151898D2*
X524992Y5042620D1*
X662621Y4904991D2*
X864058Y4703554D1*
X1054803Y4512809D2*
X1312353Y4255259D1*
X1453752Y4113860D2*
X1693431Y3874181D1*
X1834844Y3732768D2*
X1962297Y3605315D1*
X415714Y5109472D2*
X498048Y5027138D1*
X647140Y4878046D2*
X853908Y4671278D1*
X1022541Y4502644D2*
X1312353Y4212833D1*
X1453752Y4071433D2*
X1693431Y3831754D1*
X1834844Y3690341D2*
X1962297Y3562888D1*
X415714Y5067045D2*
X477415Y5005345D1*
X625346Y4857413D2*
X852098Y4630661D1*
X981910Y4500849D2*
X1312353Y4170406D1*
X1453752Y4029007D2*
X1693431Y3789328D1*
X1834844Y3647915D2*
X1962297Y3520462D1*
X415714Y5024619D2*
X463272Y4977060D1*
X597062Y4843271D2*
X660503Y4779830D1*
X749822Y4690511D2*
X876336Y4563997D1*
X915246Y4525087D2*
X1312353Y4127980D1*
X1453752Y3986580D2*
X1693431Y3746902D1*
X1834844Y3605489D2*
X1962297Y3478035D1*
X415714Y4982192D2*
X458287Y4939620D1*
X559621Y4838285D2*
X610108Y4787799D1*
X757805Y4640102D2*
X1039482Y4358425D1*
X1066045Y4331861D2*
X1312353Y4085553D1*
X1453752Y3944154D2*
X1693431Y3704475D1*
X1834844Y3563062D2*
X1962297Y3435609D1*
X415714Y4939766D2*
X573330Y4782150D1*
X752142Y4603338D2*
X997055Y4358425D1*
X1066045Y4289435D2*
X1312353Y4043127D1*
X1453752Y3901728D2*
X1693431Y3662049D1*
X1834844Y3520636D2*
X1962297Y3393183D1*
X415714Y4897340D2*
X543430Y4769624D1*
X739630Y4573424D2*
X954629Y4358425D1*
X1066045Y4247008D2*
X1312353Y4000701D1*
X1453752Y3859301D2*
X1693431Y3619622D1*
X1834844Y3478209D2*
X1962297Y3350756D1*
X415714Y4854913D2*
X518598Y4752029D1*
X722035Y4548592D2*
X925723Y4344904D1*
X1066045Y4204582D2*
X1312353Y3958274D1*
X1453752Y3816875D2*
X1693431Y3577196D1*
X1834844Y3435783D2*
X1962297Y3308330D1*
X415714Y4812487D2*
X498283Y4729918D1*
X699910Y4528291D2*
X924646Y4303555D1*
X1066045Y4162156D2*
X1312353Y3915848D1*
X1453752Y3774448D2*
X1693431Y3534770D1*
X1834844Y3393357D2*
X1962297Y3265903D1*
X415714Y4770060D2*
X482635Y4703139D1*
X673145Y4512629D2*
X924646Y4261129D1*
X1066045Y4119729D2*
X1312353Y3873421D1*
X1453752Y3732022D2*
X1693431Y3492343D1*
X1834844Y3350930D2*
X1962297Y3223477D1*
X415714Y4727634D2*
X472553Y4670795D1*
X640787Y4502561D2*
X924646Y4218702D1*
X1066045Y4077303D2*
X1312353Y3830995D1*
X1453752Y3689596D2*
X1693431Y3449917D1*
X1834844Y3308504D2*
X1962297Y3181051D1*
X415714Y4685208D2*
X470924Y4629998D1*
X600004Y4500918D2*
X924646Y4176276D1*
X1066045Y4034876D2*
X1312353Y3788569D1*
X1453752Y3647169D2*
X1693431Y3407490D1*
X1834844Y3266077D2*
X1962297Y3138624D1*
X415714Y4642781D2*
X496432Y4562063D1*
X532069Y4526426D2*
X924646Y4133849D1*
X1066045Y3992450D2*
X1312353Y3746142D1*
X1453752Y3604743D2*
X1693431Y3365064D1*
X1834844Y3223651D2*
X1962297Y3096198D1*
X415714Y4600355D2*
X657934Y4358135D1*
X685174Y4330895D2*
X924646Y4091423D1*
X1066045Y3950024D2*
X1312353Y3703716D1*
X1453752Y3562316D2*
X1693431Y3322638D1*
X1834844Y3181225D2*
X1962297Y3053771D1*
X415714Y4557928D2*
X615508Y4358135D1*
X685174Y4288468D2*
X924646Y4048996D1*
X1066045Y3907597D2*
X1312353Y3661289D1*
X1453752Y3519890D2*
X1693431Y3280211D1*
X1834844Y3138798D2*
X1962297Y3011345D1*
X415714Y4515502D2*
X573081Y4358135D1*
X685174Y4246042D2*
X924646Y4006570D1*
X1066045Y3865171D2*
X1312353Y3618863D1*
X1453752Y3477464D2*
X1693431Y3237785D1*
X1834844Y3096372D2*
X1962297Y2968918D1*
X415714Y4473075D2*
X544686Y4344103D1*
X685174Y4203615D2*
X924646Y3964144D1*
X1066045Y3822744D2*
X1312353Y3576436D1*
X1453752Y3435037D2*
X1693431Y3195358D1*
X1834844Y3053945D2*
X1962297Y2926492D1*
X415714Y4430649D2*
X543775Y4302588D1*
X685174Y4161189D2*
X924646Y3921717D1*
X1066045Y3780318D2*
X1312353Y3534010D1*
X1453752Y3392611D2*
X1693431Y3152932D1*
X1834844Y3011519D2*
X1962297Y2884066D1*
X415714Y4388223D2*
X543775Y4260162D1*
X685174Y4118763D2*
X924646Y3879291D1*
X1066045Y3737892D2*
X1312353Y3491584D1*
X1453752Y3350184D2*
X1693431Y3110506D1*
X1834844Y2969093D2*
X1962297Y2841639D1*
X415714Y4345796D2*
X543775Y4217735D1*
X685174Y4076336D2*
X924646Y3836864D1*
X1066045Y3695465D2*
X1312353Y3449157D1*
X1453752Y3307758D2*
X1693431Y3068079D1*
X1834844Y2926666D2*
X1962297Y2799213D1*
X415714Y4303370D2*
X543775Y4175309D1*
X685174Y4033910D2*
X924646Y3794438D1*
X1066045Y3653039D2*
X1312353Y3406731D1*
X1453752Y3265332D2*
X1693431Y3025653D1*
X1834844Y2884240D2*
X1962297Y2756786D1*
X415714Y4260943D2*
X543775Y4132883D1*
X685174Y3991483D2*
X924646Y3752012D1*
X1066045Y3610612D2*
X1312353Y3364304D1*
X1453752Y3222905D2*
X1693431Y2983226D1*
X1834844Y2841813D2*
X1962297Y2714360D1*
X415714Y4218517D2*
X543775Y4090456D1*
X685174Y3949057D2*
X924646Y3709585D1*
X1066045Y3568186D2*
X1312353Y3321878D1*
X1453752Y3180479D2*
X1693431Y2940800D1*
X1817028Y2817203D2*
X1962297Y2671934D1*
X415714Y4176091D2*
X543775Y4048030D1*
X685174Y3906630D2*
X924646Y3667159D1*
X1066045Y3525760D2*
X1312353Y3279452D1*
X1453752Y3138052D2*
X1693431Y2898374D1*
X1774726Y2817078D2*
X1962297Y2629507D1*
X415714Y4133664D2*
X543775Y4005603D1*
X685174Y3864204D2*
X924646Y3624732D1*
X1066045Y3483333D2*
X1312353Y3237025D1*
X1453752Y3095626D2*
X1693431Y2855947D1*
X1732300Y2817078D2*
X1962297Y2587081D1*
X415714Y4091238D2*
X543775Y3963177D1*
X685174Y3821778D2*
X924646Y3582306D1*
X1066045Y3440907D2*
X1312353Y3194599D1*
X1453752Y3053200D2*
X1962297Y2544654D1*
X415714Y4048811D2*
X543775Y3920751D1*
X685174Y3779351D2*
X924646Y3539880D1*
X1066045Y3398480D2*
X1312353Y3152172D1*
X1453752Y3010773D2*
X1851992Y2612534D1*
X1951531Y2512995D2*
X1962297Y2502228D1*
X415714Y4006385D2*
X543775Y3878324D1*
X685174Y3736925D2*
X924646Y3497453D1*
X1066045Y3356054D2*
X1312353Y3109746D1*
X1453752Y2968347D2*
X1796196Y2625903D1*
X415714Y3963959D2*
X543775Y3835898D1*
X685174Y3694498D2*
X924646Y3455027D1*
X1066045Y3313628D2*
X1312353Y3067320D1*
X1453752Y2925920D2*
X1755262Y2624411D1*
X415714Y3921532D2*
X543775Y3793471D1*
X685174Y3652072D2*
X924646Y3412600D1*
X1066045Y3271201D2*
X1312353Y3024893D1*
X1453752Y2883494D2*
X1721342Y2615904D1*
X1954900Y2382346D2*
X1962297Y2374949D1*
X415714Y3879106D2*
X543775Y3751045D1*
X685174Y3609646D2*
X924646Y3370174D1*
X1066045Y3228775D2*
X1312353Y2982467D1*
X1453752Y2841068D2*
X1692257Y2602563D1*
X1941559Y2353261D2*
X1962297Y2332522D1*
X415714Y3836679D2*
X543775Y3708618D1*
X685174Y3567219D2*
X924646Y3327748D1*
X1066045Y3186348D2*
X1312353Y2940040D1*
X1435177Y2817216D2*
X1667122Y2585272D1*
X1924268Y2328125D2*
X1962297Y2290096D1*
X415714Y3794253D2*
X543775Y3666192D1*
X685174Y3524793D2*
X924646Y3285321D1*
X1066045Y3143922D2*
X1312353Y2897614D1*
X1392806Y2817161D2*
X1645563Y2564404D1*
X1903400Y2306567D2*
X1962297Y2247670D1*
X415714Y3751827D2*
X543775Y3623766D1*
X685174Y3482366D2*
X924646Y3242895D1*
X1066045Y3101495D2*
X1312353Y2855188D1*
X1350379Y2817161D2*
X1627554Y2539986D1*
X1878983Y2288557D2*
X1962297Y2205243D1*
X415714Y3709400D2*
X543775Y3581339D1*
X685174Y3439940D2*
X924646Y3200468D1*
X1066045Y3059069D2*
X1613384Y2511730D1*
X1850726Y2274388D2*
X1962297Y2162817D1*
X415714Y3666974D2*
X543775Y3538913D1*
X685174Y3397514D2*
X924646Y3158042D1*
X1066045Y3016643D2*
X1482708Y2599980D1*
X1544972Y2537716D2*
X1603814Y2478874D1*
X1817871Y2264817D2*
X1962297Y2120390D1*
X415714Y3624547D2*
X543775Y3496486D1*
X685174Y3355087D2*
X924646Y3115616D1*
X1066045Y2974216D2*
X1415947Y2624314D1*
X1569320Y2470941D2*
X1600637Y2439624D1*
X1778621Y2261640D2*
X1962297Y2077964D1*
X415714Y3582121D2*
X543775Y3454060D1*
X685174Y3312661D2*
X924646Y3073189D1*
X1066045Y2931790D2*
X1372126Y2625709D1*
X1570715Y2427120D2*
X1609545Y2388290D1*
X1727287Y2270548D2*
X1867750Y2130085D1*
X1944073Y2053762D2*
X1962297Y2035538D1*
X415714Y3539695D2*
X543775Y3411634D1*
X685174Y3270234D2*
X924646Y3030763D1*
X1066045Y2889363D2*
X1336508Y2618901D1*
X1563892Y2391516D2*
X1805463Y2149945D1*
X415714Y3497268D2*
X543775Y3369207D1*
X685174Y3227808D2*
X924646Y2988336D1*
X1066045Y2846937D2*
X1306166Y2606816D1*
X1551808Y2361174D2*
X1762623Y2150360D1*
X415714Y3454842D2*
X543775Y3326781D1*
X685174Y3185382D2*
X924646Y2945910D1*
X1052373Y2818183D2*
X1279953Y2590603D1*
X1535608Y2334948D2*
X1727557Y2142998D1*
X1956986Y1913570D2*
X1962297Y1908258D1*
X415714Y3412415D2*
X543775Y3284354D1*
X685174Y3142955D2*
X924646Y2903483D1*
X1010968Y2817161D2*
X1257387Y2570743D1*
X1515748Y2312381D2*
X1697630Y2130500D1*
X1944501Y1883628D2*
X1962297Y1865832D1*
X415714Y3369989D2*
X543775Y3241928D1*
X685174Y3100529D2*
X924646Y2861057D1*
X968542Y2817161D2*
X1238342Y2547361D1*
X1492367Y2293336D2*
X1671762Y2113941D1*
X1927942Y1857761D2*
X1962297Y1823406D1*
X415714Y3327563D2*
X543775Y3199502D1*
X685174Y3058102D2*
X1223026Y2520251D1*
X1465257Y2278020D2*
X1649513Y2093763D1*
X1907765Y1835512D2*
X1962297Y1780979D1*
X415714Y3285136D2*
X543775Y3157075D1*
X685174Y3015676D2*
X1212005Y2488845D1*
X1433837Y2267013D2*
X1630786Y2070064D1*
X1884065Y1816785D2*
X1962297Y1738553D1*
X415714Y3242710D2*
X543775Y3114649D1*
X685174Y2973250D2*
X1039302Y2619122D1*
X1164129Y2494295D2*
X1206701Y2451722D1*
X1396714Y2261710D2*
X1615829Y2042595D1*
X1856596Y1801828D2*
X1962297Y1696126D1*
X415714Y3200283D2*
X543775Y3072222D1*
X685174Y2930823D2*
X989570Y2626427D1*
X1171421Y2444577D2*
X1210955Y2405042D1*
X1350048Y2265949D2*
X1605264Y2010734D1*
X1824735Y1791263D2*
X1962297Y1653700D1*
X415714Y3157857D2*
X543775Y3029796D1*
X685174Y2888397D2*
X951010Y2622560D1*
X1167567Y2406003D2*
X1426125Y2147445D1*
X1567456Y2006115D2*
X1600596Y1972975D1*
X1786976Y1786595D2*
X1962297Y1611273D1*
X415714Y3115430D2*
X543775Y2987370D1*
X685174Y2845970D2*
X918611Y2612534D1*
X1157541Y2373604D2*
X1379915Y2151230D1*
X1571240Y1959905D2*
X1606161Y1924983D1*
X1738984Y1792160D2*
X1856604Y1674540D1*
X1949542Y1581603D2*
X1962297Y1568847D1*
X415714Y3073004D2*
X543775Y2944943D1*
X670977Y2817741D2*
X890713Y2598005D1*
X1143012Y2345706D2*
X1343013Y2145705D1*
X1565702Y1923016D2*
X1799069Y1689649D1*
X415714Y3030578D2*
X543775Y2902517D1*
X629407Y2816885D2*
X866613Y2579678D1*
X1124685Y2321606D2*
X1311759Y2134532D1*
X1554529Y1891763D2*
X1757554Y1688738D1*
X415714Y2988151D2*
X543775Y2860090D1*
X586980Y2816885D2*
X846063Y2557802D1*
X1102809Y2301056D2*
X1284787Y2119078D1*
X1539075Y1864791D2*
X1723290Y1680575D1*
X1955577Y1448288D2*
X1962297Y1441568D1*
X415714Y2945725D2*
X829104Y2532335D1*
X1077342Y2284097D2*
X1261530Y2099909D1*
X1519919Y1841520D2*
X1693942Y1667497D1*
X1942498Y1418940D2*
X1962297Y1399141D1*
X415714Y2903298D2*
X816135Y2502877D1*
X1047884Y2271128D2*
X1241794Y2077218D1*
X1497228Y1821784D2*
X1668572Y1650441D1*
X1925442Y1393570D2*
X1962297Y1356715D1*
X415714Y2860872D2*
X664094Y2612492D1*
X763495Y2513092D2*
X808125Y2468461D1*
X1013454Y2263132D2*
X1225705Y2050881D1*
X1470878Y1805709D2*
X1646792Y1629794D1*
X1904795Y1371791D2*
X1962297Y1314289D1*
X415714Y2818446D2*
X608271Y2625889D1*
X776891Y2457269D2*
X807462Y2426697D1*
X971691Y2262469D2*
X1213772Y2020387D1*
X1440384Y1793776D2*
X1628562Y1605597D1*
X1880599Y1353561D2*
X1962297Y1271862D1*
X415714Y2776019D2*
X567322Y2624411D1*
X775413Y2416320D2*
X823400Y2368333D1*
X913340Y2278393D2*
X1051746Y2139988D1*
X1159999Y2031734D2*
X1207171Y1984562D1*
X1404559Y1787175D2*
X1614130Y1577603D1*
X1852605Y1339129D2*
X1962297Y1229436D1*
X415714Y2733593D2*
X533389Y2615918D1*
X766920Y2382387D2*
X998146Y2151161D1*
X1171158Y1978149D2*
X1208952Y1940354D1*
X1360351Y1788956D2*
X1490014Y1659293D1*
X1540290Y1609017D2*
X1604242Y1545065D1*
X1820067Y1329240D2*
X1962297Y1187009D1*
X415714Y2691166D2*
X504304Y2602576D1*
X753578Y2353302D2*
X957999Y2148882D1*
X1168879Y1938001D2*
X1235414Y1871467D1*
X1291463Y1815417D2*
X1419082Y1687798D1*
X1568809Y1538071D2*
X1600582Y1506299D1*
X1781300Y1325580D2*
X1962297Y1144583D1*
X415714Y2648740D2*
X479155Y2585299D1*
X736301Y2328153D2*
X924563Y2139891D1*
X1159889Y1904565D2*
X1374543Y1689911D1*
X1570908Y1493546D2*
X1608344Y1456110D1*
X1731098Y1333356D2*
X1878715Y1185739D1*
X1937734Y1126720D2*
X1962297Y1102157D1*
X415714Y2606314D2*
X457596Y2564431D1*
X715433Y2306594D2*
X895864Y2126163D1*
X1146161Y1875867D2*
X1338538Y1683490D1*
X1564486Y1457541D2*
X1810863Y1211164D1*
X415714Y2563887D2*
X439573Y2540028D1*
X691030Y2288571D2*
X871047Y2108555D1*
X1128552Y1851049D2*
X1307920Y1671681D1*
X1552692Y1426909D2*
X1766835Y1212766D1*
X415714Y2521461D2*
X425404Y2511771D1*
X662773Y2274402D2*
X849806Y2087369D1*
X1107367Y1829808D2*
X1281459Y1655716D1*
X1536713Y1400462D2*
X1731107Y1206068D1*
X1958077Y979098D2*
X1962288Y974887D1*
X629931Y2264817D2*
X832128Y2062620D1*
X1082632Y1812117D2*
X1258671Y1636077D1*
X1517074Y1377674D2*
X1700682Y1194067D1*
X1946075Y948673D2*
X1962297Y932451D1*
X590682Y2261640D2*
X818317Y2034005D1*
X1054002Y1798320D2*
X1239419Y1612903D1*
X1493914Y1358408D2*
X1674386Y1177936D1*
X1929931Y922391D2*
X1962297Y890025D1*
X415714Y2394182D2*
X421523Y2388373D1*
X539375Y2270521D2*
X679879Y2130016D1*
X756009Y2053886D2*
X809230Y2000666D1*
X1020663Y1789232D2*
X1223854Y1586041D1*
X1467052Y1342844D2*
X1651764Y1158131D1*
X1910140Y899756D2*
X1962297Y847598D1*
X415714Y2351755D2*
X617538Y2149931D1*
X775938Y1991531D2*
X806799Y1960670D1*
X980681Y1786788D2*
X1212543Y1554926D1*
X1435923Y1331546D2*
X1632650Y1134819D1*
X1886814Y880655D2*
X1962297Y805172D1*
X415714Y2309329D2*
X574669Y2150373D1*
X776366Y1948677D2*
X817558Y1907485D1*
X927496Y1797546D2*
X1043059Y1681984D1*
X1162982Y1562061D2*
X1206826Y1518217D1*
X1399228Y1325815D2*
X1617265Y1107778D1*
X1859786Y865256D2*
X1962297Y762745D1*
X415714Y2266902D2*
X539604Y2143012D1*
X769005Y1913611D2*
X992235Y1690381D1*
X1171393Y1511223D2*
X1210237Y1472379D1*
X1353376Y1329240D2*
X1606161Y1076455D1*
X1828450Y854167D2*
X1962297Y720319D1*
X415714Y2224476D2*
X509663Y2130527D1*
X756520Y1883670D2*
X953179Y1687011D1*
X1168009Y1472181D2*
X1255011Y1385179D1*
X1266176Y1374014D2*
X1432119Y1208071D1*
X1566061Y1074129D2*
X1600734Y1039456D1*
X1791451Y848739D2*
X1962297Y677893D1*
X415714Y2182050D2*
X483795Y2113968D1*
X739975Y1857789D2*
X920461Y1677302D1*
X1158300Y1439463D2*
X1384376Y1213388D1*
X1571392Y1026372D2*
X1604739Y993025D1*
X1745033Y852730D2*
X1962297Y635466D1*
X415714Y2139623D2*
X461532Y2093805D1*
X719798Y1835540D2*
X892315Y1663022D1*
X1144020Y1411317D2*
X1346728Y1208609D1*
X1566613Y988724D2*
X1962297Y593040D1*
X415714Y2097197D2*
X442819Y2070092D1*
X696098Y1816812D2*
X867994Y1644916D1*
X1125914Y1386996D2*
X1314936Y1197975D1*
X1555965Y956946D2*
X1962297Y550613D1*
X415714Y2054770D2*
X427848Y2042636D1*
X668643Y1801842D2*
X847223Y1623261D1*
X1104259Y1366225D2*
X1287535Y1182949D1*
X1540939Y929545D2*
X1962297Y508187D1*
X636782Y1791276D2*
X830029Y1598029D1*
X1079027Y1349031D2*
X1263891Y1164167D1*
X1522170Y905888D2*
X1962297Y465760D1*
X599037Y1786595D2*
X816798Y1568833D1*
X1049831Y1335800D2*
X1243769Y1141862D1*
X1499866Y885765D2*
X1772539Y613093D1*
X1851058Y534574D2*
X1962297Y423334D1*
X415714Y1927491D2*
X418149Y1925056D1*
X551072Y1792133D2*
X668706Y1674499D1*
X761492Y1581713D2*
X808443Y1534762D1*
X1015760Y1327445D2*
X1227265Y1115940D1*
X1473930Y869275D2*
X1727461Y615744D1*
X1851776Y491429D2*
X1927494Y415711D1*
X415714Y1885065D2*
X611130Y1689649D1*
X776642Y1524136D2*
X807200Y1493579D1*
X974577Y1326202D2*
X1214850Y1085929D1*
X1443933Y856846D2*
X1685034Y615744D1*
X1840286Y460493D2*
X1885068Y415711D1*
X415714Y1842638D2*
X569601Y1688751D1*
X775745Y1482608D2*
X821287Y1437066D1*
X918064Y1340289D2*
X1059424Y1198928D1*
X1156933Y1101419D2*
X1207571Y1050781D1*
X1408785Y849568D2*
X1642608Y615744D1*
X1821669Y436683D2*
X1842642Y415711D1*
X415714Y1800212D2*
X535323Y1680603D1*
X767596Y1448330D2*
X1003104Y1212822D1*
X1170827Y1045099D2*
X1208151Y1007774D1*
X1365778Y850148D2*
X1603068Y612858D1*
X1796713Y419213D2*
X1800213Y415713D1*
X415714Y1757785D2*
X505975Y1667524D1*
X754531Y1418968D2*
X961990Y1211510D1*
X1169515Y1003985D2*
X1228702Y944798D1*
X1302802Y870698D2*
X1573126Y600373D1*
X415714Y1715359D2*
X480605Y1650468D1*
X737475Y1393598D2*
X927947Y1203126D1*
X1161118Y969955D2*
X1550104Y580969D1*
X415714Y1672933D2*
X458825Y1629821D1*
X716828Y1371818D2*
X898792Y1189854D1*
X1147860Y940787D2*
X1533434Y555212D1*
X415714Y1630506D2*
X440582Y1605639D1*
X692646Y1353574D2*
X873574Y1172646D1*
X1130638Y915583D2*
X1524665Y521556D1*
X415714Y1588080D2*
X426149Y1577644D1*
X664638Y1339156D2*
X851946Y1151847D1*
X1109853Y893941D2*
X1533407Y470387D1*
X632114Y1329254D2*
X833868Y1127499D1*
X1085504Y875863D2*
X1545657Y415711D1*
X593361Y1325580D2*
X819616Y1099325D1*
X1057317Y861624D2*
X1503230Y415711D1*
X415714Y1460801D2*
X420329Y1456185D1*
X543187Y1333328D2*
X690872Y1185642D1*
X749642Y1126872D2*
X809948Y1066566D1*
X1024572Y851943D2*
X1460804Y415711D1*
X415714Y1418374D2*
X622924Y1211164D1*
X775165Y1058924D2*
X806620Y1027468D1*
X985474Y848615D2*
X1418378Y415711D1*
X415714Y1375948D2*
X578882Y1212780D1*
X776780Y1014881D2*
X815155Y976507D1*
X934498Y857163D2*
X1375951Y415711D1*
X415714Y1333521D2*
X543153Y1206082D1*
X770082Y979153D2*
X1333525Y415711D1*
X415714Y1291095D2*
X512715Y1194094D1*
X758095Y948714D2*
X1291098Y415711D1*
X415714Y1248669D2*
X486433Y1177950D1*
X741950Y922433D2*
X1248672Y415711D1*
X415714Y1206242D2*
X463783Y1158173D1*
X722173Y899783D2*
X1206246Y415711D1*
X415714Y1163816D2*
X444683Y1134846D1*
X698847Y880683D2*
X1163819Y415711D1*
X415714Y1121389D2*
X429284Y1107819D1*
X671819Y865284D2*
X1121393Y415711D1*
X415714Y1078963D2*
X418177Y1076500D1*
X640497Y854180D2*
X1078966Y415711D1*
X603512Y848739D2*
X1036540Y415711D1*
X557108Y852716D2*
X994114Y415711D1*
X415714Y951684D2*
X751681Y615717D1*
X853692Y513706D2*
X951687Y415711D1*
X415714Y909257D2*
X709227Y615744D1*
X847850Y477121D2*
X909261Y415711D1*
X415714Y866831D2*
X666800Y615744D1*
X833059Y449486D2*
X866834Y415711D1*
X415714Y824404D2*
X624415Y615703D1*
X811735Y428383D2*
X824408Y415711D1*
X415714Y781978D2*
X589226Y608466D1*
X415714Y739552D2*
X562461Y592805D1*
X415714Y697125D2*
X542131Y570708D1*
X415714Y654699D2*
X528500Y541913D1*
X415714Y612272D2*
X524730Y503256D1*
X415714Y569846D2*
X569849Y415711D1*
X415714Y527420D2*
X527423Y415711D1*
X415714Y484993D2*
X484997Y415711D1*
X415714Y442567D2*
X442570Y415711D1*
X669012Y4939002D2*
X668063Y4929051D1*
X666173Y4919235D1*
X663359Y4909643D1*
X659647Y4900362D1*
X655070Y4891475D1*
X649669Y4883063D1*
X643494Y4875202D1*
X636601Y4867963D1*
X629051Y4861411D1*
X620913Y4855606D1*
X612260Y4850600D1*
X603172Y4846439D1*
X593729Y4843160D1*
X584017Y4840792D1*
X574124Y4839357D1*
X564140Y4838869D1*
X554154Y4839331D1*
X544258Y4840739D1*
X534540Y4843081D1*
X525088Y4846335D1*
X515988Y4850472D1*
X507322Y4855455D1*
X499169Y4861238D1*
X491601Y4867770D1*
X484689Y4874991D1*
X478493Y4882835D1*
X473070Y4891233D1*
X468470Y4900107D1*
X464733Y4909379D1*
X461893Y4918963D1*
X459977Y4928774D1*
X459001Y4938723D1*
X458975Y4948719D1*
X459898Y4958672D1*
X461762Y4968493D1*
X464550Y4978093D1*
X468238Y4987384D1*
X472791Y4996283D1*
X478169Y5004709D1*
X484323Y5012587D1*
X491197Y5019844D1*
X498730Y5026416D1*
X506852Y5032242D1*
X515491Y5037271D1*
X524569Y5041457D1*
X534003Y5044761D1*
X543709Y5047154D1*
X553598Y5048615D1*
X563581Y5049130D1*
X573567Y5048695D1*
X583468Y5047313D1*
X593192Y5044997D1*
X602652Y5041768D1*
X611763Y5037655D1*
X620442Y5032695D1*
X628611Y5026934D1*
X636196Y5020422D1*
X643128Y5013220D1*
X649344Y5005392D1*
X654789Y4997009D1*
X659413Y4988146D1*
X663175Y4978885D1*
X666040Y4969308D1*
X667982Y4959502D1*
X668984Y4949556D1*
X669131Y4944000D1*
X669012Y4939002D1*
X1919012D2*
X1918063Y4929051D1*
X1916173Y4919235D1*
X1913359Y4909643D1*
X1909647Y4900362D1*
X1905070Y4891475D1*
X1899669Y4883063D1*
X1893494Y4875202D1*
X1886601Y4867963D1*
X1879051Y4861411D1*
X1870913Y4855606D1*
X1862260Y4850600D1*
X1853172Y4846439D1*
X1843729Y4843160D1*
X1834017Y4840792D1*
X1824124Y4839357D1*
X1814140Y4838869D1*
X1804154Y4839331D1*
X1794258Y4840739D1*
X1784540Y4843081D1*
X1775088Y4846335D1*
X1765988Y4850472D1*
X1757322Y4855455D1*
X1749169Y4861238D1*
X1741601Y4867770D1*
X1734689Y4874991D1*
X1728493Y4882835D1*
X1723070Y4891233D1*
X1718470Y4900107D1*
X1714733Y4909379D1*
X1711893Y4918963D1*
X1709977Y4928774D1*
X1709001Y4938723D1*
X1708975Y4948719D1*
X1709898Y4958672D1*
X1711762Y4968493D1*
X1714550Y4978093D1*
X1718238Y4987384D1*
X1722791Y4996283D1*
X1728169Y5004709D1*
X1734323Y5012587D1*
X1741197Y5019844D1*
X1748730Y5026416D1*
X1756852Y5032242D1*
X1765491Y5037271D1*
X1774569Y5041457D1*
X1784003Y5044761D1*
X1793709Y5047154D1*
X1803598Y5048615D1*
X1813581Y5049130D1*
X1823567Y5048695D1*
X1833468Y5047313D1*
X1843192Y5044997D1*
X1852652Y5041768D1*
X1861763Y5037655D1*
X1870442Y5032695D1*
X1878611Y5026934D1*
X1886196Y5020422D1*
X1893128Y5013220D1*
X1899344Y5005392D1*
X1904789Y4997009D1*
X1909413Y4988146D1*
X1913175Y4978885D1*
X1916040Y4969308D1*
X1917982Y4959502D1*
X1918984Y4949556D1*
X1919131Y4944000D1*
X1919012Y4939002D1*
X1170654Y1026001D2*
X1170104Y1016017D1*
X1169006Y1006079D1*
X1167363Y996216D1*
X1165180Y986458D1*
X1162463Y976836D1*
X1159221Y967377D1*
X1155464Y958111D1*
X1151203Y949066D1*
X1146451Y940268D1*
X1141223Y931746D1*
X1135533Y923524D1*
X1129400Y915627D1*
X1122842Y908079D1*
X1115879Y900904D1*
X1108531Y894122D1*
X1100822Y887755D1*
X1092774Y881822D1*
X1084412Y876340D1*
X1075761Y871326D1*
X1066847Y866796D1*
X1057698Y862763D1*
X1048341Y859239D1*
X1038804Y856235D1*
X1029116Y853760D1*
X1019307Y851822D1*
X1009406Y850427D1*
X999444Y849578D1*
X989450Y849278D1*
X979454Y849528D1*
X969487Y850328D1*
X959580Y851675D1*
X949761Y853564D1*
X940061Y855991D1*
X930510Y858947D1*
X921135Y862425D1*
X911966Y866413D1*
X903030Y870899D1*
X894355Y875870D1*
X885966Y881310D1*
X877888Y887204D1*
X870148Y893533D1*
X862767Y900278D1*
X855768Y907419D1*
X849172Y914933D1*
X843000Y922800D1*
X837270Y930994D1*
X831999Y939490D1*
X827204Y948264D1*
X822898Y957288D1*
X819095Y966536D1*
X815807Y975978D1*
X813043Y985587D1*
X810812Y995334D1*
X809120Y1005188D1*
X807972Y1015121D1*
X807373Y1025102D1*
X807323Y1035101D1*
X807824Y1045087D1*
X808873Y1055030D1*
X810467Y1064901D1*
X812602Y1074669D1*
X815271Y1084305D1*
X818466Y1093780D1*
X822177Y1103064D1*
X826393Y1112131D1*
X831102Y1120951D1*
X836288Y1129500D1*
X841937Y1137750D1*
X848031Y1145677D1*
X854551Y1153257D1*
X861479Y1160467D1*
X868793Y1167285D1*
X876471Y1173690D1*
X884489Y1179663D1*
X892824Y1185186D1*
X901450Y1190243D1*
X910341Y1194817D1*
X919470Y1198895D1*
X928810Y1202465D1*
X938332Y1205516D1*
X948007Y1208039D1*
X957807Y1210026D1*
X967700Y1211470D1*
X977659Y1212369D1*
X987651Y1212718D1*
X997648Y1212517D1*
X1007619Y1211767D1*
X1017533Y1210469D1*
X1027361Y1208628D1*
X1037072Y1206249D1*
X1046638Y1203340D1*
X1056030Y1199909D1*
X1065219Y1195966D1*
X1074177Y1191525D1*
X1082877Y1186597D1*
X1091293Y1181198D1*
X1099399Y1175344D1*
X1107171Y1169054D1*
X1114585Y1162345D1*
X1121619Y1155239D1*
X1128252Y1147757D1*
X1134463Y1139921D1*
X1140233Y1131756D1*
X1145546Y1123285D1*
X1150385Y1114535D1*
X1154735Y1105533D1*
X1158583Y1096304D1*
X1161919Y1086878D1*
X1164730Y1077283D1*
X1167010Y1067547D1*
X1168750Y1057701D1*
X1169947Y1047774D1*
X1170596Y1037797D1*
X1170654Y1026001D1*
X776654D2*
X776104Y1016017D1*
X775006Y1006079D1*
X773363Y996216D1*
X771180Y986458D1*
X768463Y976836D1*
X765221Y967377D1*
X761464Y958111D1*
X757203Y949066D1*
X752451Y940268D1*
X747223Y931746D1*
X741533Y923524D1*
X735400Y915627D1*
X728842Y908079D1*
X721879Y900904D1*
X714531Y894122D1*
X706822Y887755D1*
X698774Y881822D1*
X690412Y876340D1*
X681761Y871326D1*
X672847Y866796D1*
X663698Y862763D1*
X654341Y859239D1*
X644804Y856235D1*
X635116Y853760D1*
X625307Y851822D1*
X615406Y850427D1*
X605444Y849578D1*
X595450Y849278D1*
X585454Y849528D1*
X575487Y850328D1*
X565580Y851675D1*
X555761Y853564D1*
X546061Y855991D1*
X536510Y858947D1*
X527135Y862425D1*
X517966Y866413D1*
X509030Y870899D1*
X500355Y875870D1*
X491966Y881310D1*
X483888Y887204D1*
X476148Y893533D1*
X468767Y900278D1*
X461768Y907419D1*
X455172Y914933D1*
X449000Y922800D1*
X443270Y930994D1*
X437999Y939490D1*
X433204Y948264D1*
X428898Y957288D1*
X425095Y966536D1*
X421807Y975978D1*
X419043Y985587D1*
X416812Y995334D1*
X415002Y1006099D1*
X415000Y414983D1*
X593535Y415000D1*
X586000Y418018D1*
X577081Y422531D1*
X568641Y427887D1*
X560760Y434036D1*
X553512Y440921D1*
X546966Y448475D1*
X541183Y456629D1*
X536218Y465304D1*
X532118Y474421D1*
X528920Y483892D1*
X526656Y493628D1*
X525347Y503538D1*
X525004Y513528D1*
X525632Y523504D1*
X527224Y533373D1*
X529765Y543041D1*
X533231Y552416D1*
X537591Y561412D1*
X542801Y569942D1*
X548814Y577928D1*
X555574Y585292D1*
X563015Y591967D1*
X571068Y597888D1*
X579658Y603001D1*
X588702Y607257D1*
X598117Y610617D1*
X607813Y613047D1*
X617699Y614526D1*
X627682Y615040D1*
X754728Y614933D1*
X764679Y613992D1*
X774493Y612091D1*
X784076Y609248D1*
X793338Y605488D1*
X802192Y600849D1*
X810555Y595373D1*
X818347Y589112D1*
X825496Y582125D1*
X831933Y574477D1*
X837599Y566242D1*
X842440Y557496D1*
X846410Y548322D1*
X849472Y538807D1*
X851597Y529039D1*
X852764Y519111D1*
X853006Y512058D1*
X852521Y502073D1*
X851070Y492183D1*
X848667Y482480D1*
X845335Y473056D1*
X841105Y463999D1*
X836016Y455395D1*
X830118Y447325D1*
X823465Y439865D1*
X816119Y433085D1*
X808152Y427048D1*
X799636Y421813D1*
X790653Y417429D1*
X784370Y415000D1*
X1593535D1*
X1586000Y418018D1*
X1577081Y422531D1*
X1568641Y427887D1*
X1560760Y434036D1*
X1553512Y440921D1*
X1546966Y448475D1*
X1541183Y456629D1*
X1536218Y465304D1*
X1532118Y474421D1*
X1528920Y483892D1*
X1526656Y493628D1*
X1525347Y503538D1*
X1525004Y513528D1*
X1525632Y523504D1*
X1527224Y533373D1*
X1529765Y543041D1*
X1533231Y552416D1*
X1537591Y561412D1*
X1542801Y569942D1*
X1548814Y577928D1*
X1555574Y585292D1*
X1563015Y591967D1*
X1571068Y597888D1*
X1579658Y603001D1*
X1588702Y607257D1*
X1598117Y610617D1*
X1607813Y613047D1*
X1617699Y614526D1*
X1627682Y615040D1*
X1754728Y614933D1*
X1764679Y613992D1*
X1774493Y612091D1*
X1784076Y609248D1*
X1793338Y605488D1*
X1802192Y600849D1*
X1810555Y595373D1*
X1818347Y589112D1*
X1825496Y582125D1*
X1831933Y574477D1*
X1837599Y566242D1*
X1842440Y557496D1*
X1846410Y548322D1*
X1849472Y538807D1*
X1851597Y529039D1*
X1852764Y519111D1*
X1853006Y512058D1*
X1852521Y502073D1*
X1851070Y492183D1*
X1848667Y482480D1*
X1845335Y473056D1*
X1841105Y463999D1*
X1836016Y455395D1*
X1830118Y447325D1*
X1823465Y439865D1*
X1816119Y433085D1*
X1808152Y427048D1*
X1799636Y421813D1*
X1790653Y417429D1*
X1784370Y415000D1*
X1962988D1*
X1963000Y1006035D1*
X1961363Y996216D1*
X1959180Y986458D1*
X1956463Y976836D1*
X1953221Y967377D1*
X1949464Y958111D1*
X1945203Y949066D1*
X1940451Y940268D1*
X1935223Y931746D1*
X1929533Y923524D1*
X1923400Y915627D1*
X1916842Y908079D1*
X1909879Y900904D1*
X1902531Y894122D1*
X1894822Y887755D1*
X1886774Y881822D1*
X1878412Y876340D1*
X1869761Y871326D1*
X1860847Y866796D1*
X1851698Y862763D1*
X1842341Y859239D1*
X1832804Y856235D1*
X1823116Y853760D1*
X1813307Y851822D1*
X1803406Y850427D1*
X1793444Y849578D1*
X1783450Y849278D1*
X1773454Y849528D1*
X1763487Y850328D1*
X1753580Y851675D1*
X1743761Y853564D1*
X1734061Y855991D1*
X1724510Y858947D1*
X1715135Y862425D1*
X1705966Y866413D1*
X1697030Y870899D1*
X1688355Y875870D1*
X1679966Y881310D1*
X1671888Y887204D1*
X1664148Y893533D1*
X1656767Y900278D1*
X1649768Y907419D1*
X1643172Y914933D1*
X1637000Y922800D1*
X1631270Y930994D1*
X1625999Y939490D1*
X1621204Y948264D1*
X1616898Y957288D1*
X1613095Y966536D1*
X1609807Y975978D1*
X1607043Y985587D1*
X1604812Y995334D1*
X1603120Y1005188D1*
X1601972Y1015121D1*
X1601373Y1025102D1*
X1601323Y1035101D1*
X1601824Y1045087D1*
X1602873Y1055030D1*
X1604467Y1064901D1*
X1606602Y1074669D1*
X1609271Y1084305D1*
X1612466Y1093780D1*
X1616177Y1103064D1*
X1620393Y1112131D1*
X1625102Y1120951D1*
X1630288Y1129500D1*
X1635937Y1137750D1*
X1642031Y1145677D1*
X1648551Y1153257D1*
X1655479Y1160467D1*
X1662793Y1167285D1*
X1670471Y1173690D1*
X1678489Y1179663D1*
X1686824Y1185186D1*
X1695450Y1190243D1*
X1704341Y1194817D1*
X1713470Y1198895D1*
X1722810Y1202465D1*
X1732332Y1205516D1*
X1742007Y1208039D1*
X1751807Y1210026D1*
X1761700Y1211470D1*
X1771659Y1212369D1*
X1781651Y1212718D1*
X1791648Y1212517D1*
X1801619Y1211767D1*
X1811533Y1210469D1*
X1821361Y1208628D1*
X1831072Y1206249D1*
X1840638Y1203340D1*
X1850030Y1199909D1*
X1859219Y1195966D1*
X1868177Y1191525D1*
X1876877Y1186597D1*
X1885293Y1181198D1*
X1893399Y1175344D1*
X1901171Y1169054D1*
X1908585Y1162345D1*
X1915619Y1155239D1*
X1922252Y1147757D1*
X1928463Y1139921D1*
X1934233Y1131756D1*
X1939546Y1123285D1*
X1944385Y1114535D1*
X1948735Y1105533D1*
X1952583Y1096304D1*
X1955919Y1086878D1*
X1958730Y1077283D1*
X1961010Y1067547D1*
X1962750Y1057701D1*
X1962998Y1055862D1*
X1963000Y1483027D1*
X1961363Y1473216D1*
X1959180Y1463458D1*
X1956463Y1453836D1*
X1953221Y1444377D1*
X1949464Y1435111D1*
X1945203Y1426066D1*
X1940451Y1417268D1*
X1935223Y1408746D1*
X1929533Y1400524D1*
X1923400Y1392627D1*
X1916842Y1385079D1*
X1909879Y1377904D1*
X1902531Y1371122D1*
X1894822Y1364755D1*
X1886774Y1358822D1*
X1878412Y1353340D1*
X1869761Y1348326D1*
X1860847Y1343796D1*
X1851698Y1339763D1*
X1842341Y1336239D1*
X1832804Y1333235D1*
X1823116Y1330760D1*
X1813307Y1328822D1*
X1803406Y1327427D1*
X1793444Y1326578D1*
X1783450Y1326278D1*
X1773454Y1326528D1*
X1763487Y1327328D1*
X1753580Y1328675D1*
X1743761Y1330564D1*
X1734061Y1332991D1*
X1724510Y1335947D1*
X1715135Y1339425D1*
X1705966Y1343413D1*
X1697030Y1347899D1*
X1688355Y1352870D1*
X1679966Y1358310D1*
X1671888Y1364204D1*
X1664148Y1370533D1*
X1656767Y1377278D1*
X1649768Y1384419D1*
X1643172Y1391933D1*
X1637000Y1399800D1*
X1631270Y1407994D1*
X1625999Y1416490D1*
X1621204Y1425264D1*
X1616898Y1434288D1*
X1613095Y1443536D1*
X1609807Y1452978D1*
X1607043Y1462587D1*
X1604812Y1472334D1*
X1603120Y1482188D1*
X1601972Y1492121D1*
X1601373Y1502102D1*
X1601323Y1512101D1*
X1601824Y1522087D1*
X1602873Y1532030D1*
X1604467Y1541901D1*
X1606602Y1551669D1*
X1609271Y1561305D1*
X1612466Y1570780D1*
X1616177Y1580064D1*
X1620393Y1589131D1*
X1625102Y1597951D1*
X1630288Y1606500D1*
X1635937Y1614750D1*
X1642031Y1622677D1*
X1648551Y1630257D1*
X1655479Y1637467D1*
X1662793Y1644285D1*
X1670471Y1650690D1*
X1678489Y1656663D1*
X1686824Y1662186D1*
X1695450Y1667243D1*
X1704341Y1671817D1*
X1713470Y1675895D1*
X1722810Y1679465D1*
X1732332Y1682516D1*
X1742007Y1685039D1*
X1751807Y1687026D1*
X1761700Y1688470D1*
X1771659Y1689369D1*
X1781651Y1689718D1*
X1791648Y1689517D1*
X1801619Y1688767D1*
X1811533Y1687469D1*
X1821361Y1685628D1*
X1831072Y1683249D1*
X1840638Y1680340D1*
X1850030Y1676909D1*
X1859219Y1672966D1*
X1868177Y1668525D1*
X1876877Y1663597D1*
X1885293Y1658198D1*
X1893399Y1652344D1*
X1901171Y1646054D1*
X1908585Y1639345D1*
X1915619Y1632239D1*
X1922252Y1624757D1*
X1928463Y1616921D1*
X1934233Y1608756D1*
X1939546Y1600285D1*
X1944385Y1591535D1*
X1948735Y1582533D1*
X1952583Y1573304D1*
X1955919Y1563878D1*
X1958730Y1554283D1*
X1961010Y1544547D1*
X1962750Y1534701D1*
X1962998Y1532862D1*
X1963000Y1944043D1*
X1961363Y1934216D1*
X1959180Y1924458D1*
X1956463Y1914836D1*
X1953221Y1905377D1*
X1949464Y1896111D1*
X1945203Y1887066D1*
X1940451Y1878268D1*
X1935223Y1869746D1*
X1929533Y1861524D1*
X1923400Y1853627D1*
X1916842Y1846079D1*
X1909879Y1838904D1*
X1902531Y1832122D1*
X1894822Y1825755D1*
X1886774Y1819822D1*
X1878412Y1814340D1*
X1869761Y1809326D1*
X1860847Y1804796D1*
X1851698Y1800763D1*
X1842341Y1797239D1*
X1832804Y1794235D1*
X1823116Y1791760D1*
X1813307Y1789822D1*
X1803406Y1788427D1*
X1793444Y1787578D1*
X1783450Y1787278D1*
X1773454Y1787528D1*
X1763487Y1788328D1*
X1753580Y1789675D1*
X1743761Y1791564D1*
X1734061Y1793991D1*
X1724510Y1796947D1*
X1715135Y1800425D1*
X1705966Y1804413D1*
X1697030Y1808899D1*
X1688355Y1813870D1*
X1679966Y1819310D1*
X1671888Y1825204D1*
X1664148Y1831533D1*
X1656767Y1838278D1*
X1649768Y1845419D1*
X1643172Y1852933D1*
X1637000Y1860800D1*
X1631270Y1868994D1*
X1625999Y1877490D1*
X1621204Y1886264D1*
X1616898Y1895288D1*
X1613095Y1904536D1*
X1609807Y1913978D1*
X1607043Y1923587D1*
X1604812Y1933334D1*
X1603120Y1943188D1*
X1601972Y1953121D1*
X1601373Y1963102D1*
X1601323Y1973101D1*
X1601824Y1983087D1*
X1602873Y1993030D1*
X1604467Y2002901D1*
X1606602Y2012669D1*
X1609271Y2022305D1*
X1612466Y2031780D1*
X1616177Y2041064D1*
X1620393Y2050131D1*
X1625102Y2058951D1*
X1630288Y2067500D1*
X1635937Y2075750D1*
X1642031Y2083677D1*
X1648551Y2091257D1*
X1655479Y2098467D1*
X1662793Y2105285D1*
X1670471Y2111690D1*
X1678489Y2117663D1*
X1686824Y2123186D1*
X1695450Y2128243D1*
X1704341Y2132817D1*
X1713470Y2136895D1*
X1722810Y2140465D1*
X1732332Y2143516D1*
X1742007Y2146039D1*
X1751807Y2148026D1*
X1761700Y2149470D1*
X1771659Y2150369D1*
X1781651Y2150718D1*
X1791648Y2150517D1*
X1801619Y2149767D1*
X1811533Y2148469D1*
X1821361Y2146628D1*
X1831072Y2144249D1*
X1840638Y2141340D1*
X1850030Y2137909D1*
X1859219Y2133966D1*
X1868177Y2129525D1*
X1876877Y2124597D1*
X1885293Y2119198D1*
X1893399Y2113344D1*
X1901171Y2107054D1*
X1908585Y2100345D1*
X1915619Y2093239D1*
X1922252Y2085757D1*
X1928463Y2077921D1*
X1934233Y2069756D1*
X1939546Y2061285D1*
X1944385Y2052535D1*
X1948735Y2043533D1*
X1952583Y2034304D1*
X1955919Y2024878D1*
X1958730Y2015283D1*
X1961010Y2005547D1*
X1962750Y1995701D1*
X1962998Y1993862D1*
X1963000Y2419043D1*
X1961363Y2409216D1*
X1959180Y2399458D1*
X1956463Y2389836D1*
X1953221Y2380377D1*
X1949464Y2371111D1*
X1945203Y2362066D1*
X1940451Y2353268D1*
X1935223Y2344746D1*
X1929533Y2336524D1*
X1923400Y2328627D1*
X1916842Y2321079D1*
X1909879Y2313904D1*
X1902531Y2307122D1*
X1894822Y2300755D1*
X1886774Y2294822D1*
X1878412Y2289340D1*
X1869761Y2284326D1*
X1860847Y2279796D1*
X1851698Y2275763D1*
X1842341Y2272239D1*
X1832804Y2269235D1*
X1823116Y2266760D1*
X1813307Y2264822D1*
X1803406Y2263427D1*
X1793444Y2262578D1*
X1783450Y2262278D1*
X1773454Y2262528D1*
X1763487Y2263328D1*
X1753580Y2264675D1*
X1743761Y2266564D1*
X1734061Y2268991D1*
X1724510Y2271947D1*
X1715135Y2275425D1*
X1705966Y2279413D1*
X1697030Y2283899D1*
X1688355Y2288870D1*
X1679966Y2294310D1*
X1671888Y2300204D1*
X1664148Y2306533D1*
X1656767Y2313278D1*
X1649768Y2320419D1*
X1643172Y2327933D1*
X1637000Y2335800D1*
X1631270Y2343994D1*
X1625999Y2352490D1*
X1621204Y2361264D1*
X1616898Y2370288D1*
X1613095Y2379536D1*
X1609807Y2388978D1*
X1607043Y2398587D1*
X1604812Y2408334D1*
X1603120Y2418188D1*
X1601972Y2428121D1*
X1601373Y2438102D1*
X1601323Y2448101D1*
X1601824Y2458087D1*
X1602873Y2468030D1*
X1604467Y2477901D1*
X1606602Y2487669D1*
X1609271Y2497305D1*
X1612466Y2506780D1*
X1616177Y2516064D1*
X1620393Y2525131D1*
X1625102Y2533951D1*
X1630288Y2542500D1*
X1635937Y2550750D1*
X1642031Y2558677D1*
X1648551Y2566257D1*
X1655479Y2573467D1*
X1662793Y2580285D1*
X1670471Y2586690D1*
X1678489Y2592663D1*
X1686824Y2598186D1*
X1695450Y2603243D1*
X1704341Y2607817D1*
X1713470Y2611895D1*
X1722810Y2615465D1*
X1732332Y2618516D1*
X1742007Y2621039D1*
X1751807Y2623026D1*
X1761700Y2624470D1*
X1771659Y2625369D1*
X1781651Y2625718D1*
X1791648Y2625517D1*
X1801619Y2624767D1*
X1811533Y2623469D1*
X1821361Y2621628D1*
X1831072Y2619249D1*
X1840638Y2616340D1*
X1850030Y2612909D1*
X1859219Y2608966D1*
X1868177Y2604525D1*
X1876877Y2599597D1*
X1885293Y2594198D1*
X1893399Y2588344D1*
X1901171Y2582054D1*
X1908585Y2575345D1*
X1915619Y2568239D1*
X1922252Y2560757D1*
X1928463Y2552921D1*
X1934233Y2544756D1*
X1939546Y2536285D1*
X1944385Y2527535D1*
X1948735Y2518533D1*
X1952583Y2509304D1*
X1955919Y2499878D1*
X1958730Y2490283D1*
X1961010Y2480547D1*
X1962750Y2470701D1*
X1962998Y2468862D1*
X1963000Y5428965D1*
X1791965Y5428947D1*
X1797822Y5426111D1*
X1806440Y5421047D1*
X1814527Y5415171D1*
X1822006Y5408540D1*
X1828808Y5401214D1*
X1834866Y5393263D1*
X1840126Y5384763D1*
X1844536Y5375792D1*
X1848056Y5366436D1*
X1850653Y5356783D1*
X1852301Y5346924D1*
X1852986Y5336951D1*
X1852885Y5329894D1*
X1851916Y5319945D1*
X1849987Y5310137D1*
X1847116Y5300562D1*
X1843330Y5291311D1*
X1838665Y5282470D1*
X1833165Y5274123D1*
X1826882Y5266349D1*
X1819874Y5259220D1*
X1812209Y5252804D1*
X1803957Y5247162D1*
X1795198Y5242347D1*
X1786012Y5238403D1*
X1776488Y5235368D1*
X1766714Y5233271D1*
X1756784Y5232132D1*
X1750024Y5231910D1*
X1624742Y5231961D1*
X1614778Y5232759D1*
X1604938Y5234520D1*
X1595315Y5237226D1*
X1586000Y5240853D1*
X1577081Y5245366D1*
X1568641Y5250722D1*
X1560760Y5256871D1*
X1553512Y5263755D1*
X1546966Y5271310D1*
X1541183Y5279463D1*
X1536218Y5288139D1*
X1532118Y5297255D1*
X1528920Y5306726D1*
X1526656Y5316463D1*
X1525347Y5326373D1*
X1525004Y5336363D1*
X1525632Y5346339D1*
X1527224Y5356208D1*
X1529765Y5365875D1*
X1533231Y5375251D1*
X1537591Y5384247D1*
X1542801Y5392777D1*
X1548814Y5400762D1*
X1555574Y5408127D1*
X1563015Y5414801D1*
X1571068Y5420723D1*
X1579658Y5425836D1*
X1586111Y5428949D1*
X791965Y5428947D1*
X797822Y5426111D1*
X806440Y5421047D1*
X814527Y5415171D1*
X822006Y5408540D1*
X828808Y5401214D1*
X834866Y5393263D1*
X840126Y5384763D1*
X844536Y5375792D1*
X848056Y5366436D1*
X850653Y5356783D1*
X852301Y5346924D1*
X852986Y5336951D1*
X852885Y5329894D1*
X851916Y5319945D1*
X849987Y5310137D1*
X847116Y5300562D1*
X843330Y5291311D1*
X838665Y5282470D1*
X833165Y5274123D1*
X826882Y5266349D1*
X819874Y5259220D1*
X812209Y5252804D1*
X803957Y5247162D1*
X795198Y5242347D1*
X786012Y5238403D1*
X776488Y5235368D1*
X766714Y5233271D1*
X756784Y5232132D1*
X750024Y5231910D1*
X624742Y5231961D1*
X614778Y5232759D1*
X604938Y5234520D1*
X595315Y5237226D1*
X586000Y5240853D1*
X577081Y5245366D1*
X568641Y5250722D1*
X560760Y5256871D1*
X553512Y5263755D1*
X546966Y5271310D1*
X541183Y5279463D1*
X536218Y5288139D1*
X532118Y5297255D1*
X528920Y5306726D1*
X526656Y5316463D1*
X525347Y5326373D1*
X525004Y5336363D1*
X525632Y5346339D1*
X527224Y5356208D1*
X529765Y5365875D1*
X533231Y5375251D1*
X537591Y5384247D1*
X542801Y5392777D1*
X548814Y5400762D1*
X555574Y5408127D1*
X563015Y5414801D1*
X571068Y5420723D1*
X579658Y5425836D1*
X586111Y5428949D1*
X415012Y5428947D1*
X415000Y2468967D1*
X416467Y2477901D1*
X418602Y2487669D1*
X421271Y2497305D1*
X424466Y2506780D1*
X428177Y2516064D1*
X432393Y2525131D1*
X437102Y2533951D1*
X442288Y2542500D1*
X447937Y2550750D1*
X454031Y2558677D1*
X460551Y2566257D1*
X467479Y2573467D1*
X474793Y2580285D1*
X482471Y2586690D1*
X490489Y2592663D1*
X498824Y2598186D1*
X507450Y2603243D1*
X516341Y2607817D1*
X525470Y2611895D1*
X534810Y2615465D1*
X544332Y2618516D1*
X554007Y2621039D1*
X563807Y2623026D1*
X573700Y2624470D1*
X583659Y2625369D1*
X593651Y2625718D1*
X603648Y2625517D1*
X613619Y2624767D1*
X623533Y2623469D1*
X633361Y2621628D1*
X643072Y2619249D1*
X652638Y2616340D1*
X662030Y2612909D1*
X671219Y2608966D1*
X680177Y2604525D1*
X688877Y2599597D1*
X697293Y2594198D1*
X705399Y2588344D1*
X713171Y2582054D1*
X720585Y2575345D1*
X727619Y2568239D1*
X734252Y2560757D1*
X740463Y2552921D1*
X746233Y2544756D1*
X751546Y2536285D1*
X756385Y2527535D1*
X760735Y2518533D1*
X764583Y2509304D1*
X767919Y2499878D1*
X770730Y2490283D1*
X773010Y2480547D1*
X774750Y2470701D1*
X775947Y2460774D1*
X776596Y2450797D1*
X776654Y2439001D1*
X776104Y2429017D1*
X775006Y2419079D1*
X773363Y2409216D1*
X771180Y2399458D1*
X768463Y2389836D1*
X765221Y2380377D1*
X761464Y2371111D1*
X757203Y2362066D1*
X752451Y2353268D1*
X747223Y2344746D1*
X741533Y2336524D1*
X735400Y2328627D1*
X728842Y2321079D1*
X721879Y2313904D1*
X714531Y2307122D1*
X706822Y2300755D1*
X698774Y2294822D1*
X690412Y2289340D1*
X681761Y2284326D1*
X672847Y2279796D1*
X663698Y2275763D1*
X654341Y2272239D1*
X644804Y2269235D1*
X635116Y2266760D1*
X625307Y2264822D1*
X615406Y2263427D1*
X605444Y2262578D1*
X595450Y2262278D1*
X585454Y2262528D1*
X575487Y2263328D1*
X565580Y2264675D1*
X555761Y2266564D1*
X546061Y2268991D1*
X536510Y2271947D1*
X527135Y2275425D1*
X517966Y2279413D1*
X509030Y2283899D1*
X500355Y2288870D1*
X491966Y2294310D1*
X483888Y2300204D1*
X476148Y2306533D1*
X468767Y2313278D1*
X461768Y2320419D1*
X455172Y2327933D1*
X449000Y2335800D1*
X443270Y2343994D1*
X437999Y2352490D1*
X433204Y2361264D1*
X428898Y2370288D1*
X425095Y2379536D1*
X421807Y2388978D1*
X419043Y2398587D1*
X416812Y2408334D1*
X415002Y2419099D1*
X415000Y1993967D1*
X416467Y2002901D1*
X418602Y2012669D1*
X421271Y2022305D1*
X424466Y2031780D1*
X428177Y2041064D1*
X432393Y2050131D1*
X437102Y2058951D1*
X442288Y2067500D1*
X447937Y2075750D1*
X454031Y2083677D1*
X460551Y2091257D1*
X467479Y2098467D1*
X474793Y2105285D1*
X482471Y2111690D1*
X490489Y2117663D1*
X498824Y2123186D1*
X507450Y2128243D1*
X516341Y2132817D1*
X525470Y2136895D1*
X534810Y2140465D1*
X544332Y2143516D1*
X554007Y2146039D1*
X563807Y2148026D1*
X573700Y2149470D1*
X583659Y2150369D1*
X593651Y2150718D1*
X603648Y2150517D1*
X613619Y2149767D1*
X623533Y2148469D1*
X633361Y2146628D1*
X643072Y2144249D1*
X652638Y2141340D1*
X662030Y2137909D1*
X671219Y2133966D1*
X680177Y2129525D1*
X688877Y2124597D1*
X697293Y2119198D1*
X705399Y2113344D1*
X713171Y2107054D1*
X720585Y2100345D1*
X727619Y2093239D1*
X734252Y2085757D1*
X740463Y2077921D1*
X746233Y2069756D1*
X751546Y2061285D1*
X756385Y2052535D1*
X760735Y2043533D1*
X764583Y2034304D1*
X767919Y2024878D1*
X770730Y2015283D1*
X773010Y2005547D1*
X774750Y1995701D1*
X775947Y1985774D1*
X776596Y1975797D1*
X776654Y1964001D1*
X776104Y1954017D1*
X775006Y1944079D1*
X773363Y1934216D1*
X771180Y1924458D1*
X768463Y1914836D1*
X765221Y1905377D1*
X761464Y1896111D1*
X757203Y1887066D1*
X752451Y1878268D1*
X747223Y1869746D1*
X741533Y1861524D1*
X735400Y1853627D1*
X728842Y1846079D1*
X721879Y1838904D1*
X714531Y1832122D1*
X706822Y1825755D1*
X698774Y1819822D1*
X690412Y1814340D1*
X681761Y1809326D1*
X672847Y1804796D1*
X663698Y1800763D1*
X654341Y1797239D1*
X644804Y1794235D1*
X635116Y1791760D1*
X625307Y1789822D1*
X615406Y1788427D1*
X605444Y1787578D1*
X595450Y1787278D1*
X585454Y1787528D1*
X575487Y1788328D1*
X565580Y1789675D1*
X555761Y1791564D1*
X546061Y1793991D1*
X536510Y1796947D1*
X527135Y1800425D1*
X517966Y1804413D1*
X509030Y1808899D1*
X500355Y1813870D1*
X491966Y1819310D1*
X483888Y1825204D1*
X476148Y1831533D1*
X468767Y1838278D1*
X461768Y1845419D1*
X455172Y1852933D1*
X449000Y1860800D1*
X443270Y1868994D1*
X437999Y1877490D1*
X433204Y1886264D1*
X428898Y1895288D1*
X425095Y1904536D1*
X421807Y1913978D1*
X419043Y1923587D1*
X416812Y1933334D1*
X415002Y1944099D1*
X415000Y1532951D1*
X416467Y1541901D1*
X418602Y1551669D1*
X421271Y1561305D1*
X424466Y1570780D1*
X428177Y1580064D1*
X432393Y1589131D1*
X437102Y1597951D1*
X442288Y1606500D1*
X447937Y1614750D1*
X454031Y1622677D1*
X460551Y1630257D1*
X467479Y1637467D1*
X474793Y1644285D1*
X482471Y1650690D1*
X490489Y1656663D1*
X498824Y1662186D1*
X507450Y1667243D1*
X516341Y1671817D1*
X525470Y1675895D1*
X534810Y1679465D1*
X544332Y1682516D1*
X554007Y1685039D1*
X563807Y1687026D1*
X573700Y1688470D1*
X583659Y1689369D1*
X593651Y1689718D1*
X603648Y1689517D1*
X613619Y1688767D1*
X623533Y1687469D1*
X633361Y1685628D1*
X643072Y1683249D1*
X652638Y1680340D1*
X662030Y1676909D1*
X671219Y1672966D1*
X680177Y1668525D1*
X688877Y1663597D1*
X697293Y1658198D1*
X705399Y1652344D1*
X713171Y1646054D1*
X720585Y1639345D1*
X727619Y1632239D1*
X734252Y1624757D1*
X740463Y1616921D1*
X746233Y1608756D1*
X751546Y1600285D1*
X756385Y1591535D1*
X760735Y1582533D1*
X764583Y1573304D1*
X767919Y1563878D1*
X770730Y1554283D1*
X773010Y1544547D1*
X774750Y1534701D1*
X775947Y1524774D1*
X776596Y1514797D1*
X776654Y1503001D1*
X776104Y1493017D1*
X775006Y1483079D1*
X773363Y1473216D1*
X771180Y1463458D1*
X768463Y1453836D1*
X765221Y1444377D1*
X761464Y1435111D1*
X757203Y1426066D1*
X752451Y1417268D1*
X747223Y1408746D1*
X741533Y1400524D1*
X735400Y1392627D1*
X728842Y1385079D1*
X721879Y1377904D1*
X714531Y1371122D1*
X706822Y1364755D1*
X698774Y1358822D1*
X690412Y1353340D1*
X681761Y1348326D1*
X672847Y1343796D1*
X663698Y1339763D1*
X654341Y1336239D1*
X644804Y1333235D1*
X635116Y1330760D1*
X625307Y1328822D1*
X615406Y1327427D1*
X605444Y1326578D1*
X595450Y1326278D1*
X585454Y1326528D1*
X575487Y1327328D1*
X565580Y1328675D1*
X555761Y1330564D1*
X546061Y1332991D1*
X536510Y1335947D1*
X527135Y1339425D1*
X517966Y1343413D1*
X509030Y1347899D1*
X500355Y1352870D1*
X491966Y1358310D1*
X483888Y1364204D1*
X476148Y1370533D1*
X468767Y1377278D1*
X461768Y1384419D1*
X455172Y1391933D1*
X449000Y1399800D1*
X443270Y1407994D1*
X437999Y1416490D1*
X433204Y1425264D1*
X428898Y1434288D1*
X425095Y1443536D1*
X421807Y1452978D1*
X419043Y1462587D1*
X416812Y1472334D1*
X415002Y1483099D1*
X415000Y1055959D1*
X416467Y1064901D1*
X418602Y1074669D1*
X421271Y1084305D1*
X424466Y1093780D1*
X428177Y1103064D1*
X432393Y1112131D1*
X437102Y1120951D1*
X442288Y1129500D1*
X447937Y1137750D1*
X454031Y1145677D1*
X460551Y1153257D1*
X467479Y1160467D1*
X474793Y1167285D1*
X482471Y1173690D1*
X490489Y1179663D1*
X498824Y1185186D1*
X507450Y1190243D1*
X516341Y1194817D1*
X525470Y1198895D1*
X534810Y1202465D1*
X544332Y1205516D1*
X554007Y1208039D1*
X563807Y1210026D1*
X573700Y1211470D1*
X583659Y1212369D1*
X593651Y1212718D1*
X603648Y1212517D1*
X613619Y1211767D1*
X623533Y1210469D1*
X633361Y1208628D1*
X643072Y1206249D1*
X652638Y1203340D1*
X662030Y1199909D1*
X671219Y1195966D1*
X680177Y1191525D1*
X688877Y1186597D1*
X697293Y1181198D1*
X705399Y1175344D1*
X713171Y1169054D1*
X720585Y1162345D1*
X727619Y1155239D1*
X734252Y1147757D1*
X740463Y1139921D1*
X746233Y1131756D1*
X751546Y1123285D1*
X756385Y1114535D1*
X760735Y1105533D1*
X764583Y1096304D1*
X767919Y1086878D1*
X770730Y1077283D1*
X773010Y1067547D1*
X774750Y1057701D1*
X775947Y1047774D1*
X776596Y1037797D1*
X776654Y1026001D1*
X1170654Y1503001D2*
X1170104Y1493017D1*
X1169006Y1483079D1*
X1167363Y1473216D1*
X1165180Y1463458D1*
X1162463Y1453836D1*
X1159221Y1444377D1*
X1155464Y1435111D1*
X1151203Y1426066D1*
X1146451Y1417268D1*
X1141223Y1408746D1*
X1135533Y1400524D1*
X1129400Y1392627D1*
X1122842Y1385079D1*
X1115879Y1377904D1*
X1108531Y1371122D1*
X1100822Y1364755D1*
X1092774Y1358822D1*
X1084412Y1353340D1*
X1075761Y1348326D1*
X1066847Y1343796D1*
X1057698Y1339763D1*
X1048341Y1336239D1*
X1038804Y1333235D1*
X1029116Y1330760D1*
X1019307Y1328822D1*
X1009406Y1327427D1*
X999444Y1326578D1*
X989450Y1326278D1*
X979454Y1326528D1*
X969487Y1327328D1*
X959580Y1328675D1*
X949761Y1330564D1*
X940061Y1332991D1*
X930510Y1335947D1*
X921135Y1339425D1*
X911966Y1343413D1*
X903030Y1347899D1*
X894355Y1352870D1*
X885966Y1358310D1*
X877888Y1364204D1*
X870148Y1370533D1*
X862767Y1377278D1*
X855768Y1384419D1*
X849172Y1391933D1*
X843000Y1399800D1*
X837270Y1407994D1*
X831999Y1416490D1*
X827204Y1425264D1*
X822898Y1434288D1*
X819095Y1443536D1*
X815807Y1452978D1*
X813043Y1462587D1*
X810812Y1472334D1*
X809120Y1482188D1*
X807972Y1492121D1*
X807373Y1502102D1*
X807323Y1512101D1*
X807824Y1522087D1*
X808873Y1532030D1*
X810467Y1541901D1*
X812602Y1551669D1*
X815271Y1561305D1*
X818466Y1570780D1*
X822177Y1580064D1*
X826393Y1589131D1*
X831102Y1597951D1*
X836288Y1606500D1*
X841937Y1614750D1*
X848031Y1622677D1*
X854551Y1630257D1*
X861479Y1637467D1*
X868793Y1644285D1*
X876471Y1650690D1*
X884489Y1656663D1*
X892824Y1662186D1*
X901450Y1667243D1*
X910341Y1671817D1*
X919470Y1675895D1*
X928810Y1679465D1*
X938332Y1682516D1*
X948007Y1685039D1*
X957807Y1687026D1*
X967700Y1688470D1*
X977659Y1689369D1*
X987651Y1689718D1*
X997648Y1689517D1*
X1007619Y1688767D1*
X1017533Y1687469D1*
X1027361Y1685628D1*
X1037072Y1683249D1*
X1046638Y1680340D1*
X1056030Y1676909D1*
X1065219Y1672966D1*
X1074177Y1668525D1*
X1082877Y1663597D1*
X1091293Y1658198D1*
X1099399Y1652344D1*
X1107171Y1646054D1*
X1114585Y1639345D1*
X1121619Y1632239D1*
X1128252Y1624757D1*
X1134463Y1616921D1*
X1140233Y1608756D1*
X1145546Y1600285D1*
X1150385Y1591535D1*
X1154735Y1582533D1*
X1158583Y1573304D1*
X1161919Y1563878D1*
X1164730Y1554283D1*
X1167010Y1544547D1*
X1168750Y1534701D1*
X1169947Y1524774D1*
X1170596Y1514797D1*
X1170654Y1503001D1*
X1570654D2*
X1570104Y1493017D1*
X1569006Y1483079D1*
X1567363Y1473216D1*
X1565180Y1463458D1*
X1562463Y1453836D1*
X1559221Y1444377D1*
X1555464Y1435111D1*
X1551203Y1426066D1*
X1546451Y1417268D1*
X1541223Y1408746D1*
X1535533Y1400524D1*
X1529400Y1392627D1*
X1522842Y1385079D1*
X1515879Y1377904D1*
X1508531Y1371122D1*
X1500822Y1364755D1*
X1492774Y1358822D1*
X1484412Y1353340D1*
X1475761Y1348326D1*
X1466847Y1343796D1*
X1457698Y1339763D1*
X1448341Y1336239D1*
X1438804Y1333235D1*
X1429116Y1330760D1*
X1419307Y1328822D1*
X1409406Y1327427D1*
X1399444Y1326578D1*
X1389450Y1326278D1*
X1379454Y1326528D1*
X1369487Y1327328D1*
X1359580Y1328675D1*
X1349761Y1330564D1*
X1340061Y1332991D1*
X1330510Y1335947D1*
X1321135Y1339425D1*
X1311966Y1343413D1*
X1303030Y1347899D1*
X1294355Y1352870D1*
X1285966Y1358310D1*
X1277888Y1364204D1*
X1270148Y1370533D1*
X1262767Y1377278D1*
X1255768Y1384419D1*
X1249172Y1391933D1*
X1243000Y1399800D1*
X1237270Y1407994D1*
X1231999Y1416490D1*
X1227204Y1425264D1*
X1222898Y1434288D1*
X1219095Y1443536D1*
X1215807Y1452978D1*
X1213043Y1462587D1*
X1210812Y1472334D1*
X1209120Y1482188D1*
X1207972Y1492121D1*
X1207373Y1502102D1*
X1207323Y1512101D1*
X1207824Y1522087D1*
X1208873Y1532030D1*
X1210467Y1541901D1*
X1212602Y1551669D1*
X1215271Y1561305D1*
X1218466Y1570780D1*
X1222177Y1580064D1*
X1226393Y1589131D1*
X1231102Y1597951D1*
X1236288Y1606500D1*
X1241937Y1614750D1*
X1248031Y1622677D1*
X1254551Y1630257D1*
X1261479Y1637467D1*
X1268793Y1644285D1*
X1276471Y1650690D1*
X1284489Y1656663D1*
X1292824Y1662186D1*
X1301450Y1667243D1*
X1310341Y1671817D1*
X1319470Y1675895D1*
X1328810Y1679465D1*
X1338332Y1682516D1*
X1348007Y1685039D1*
X1357807Y1687026D1*
X1367700Y1688470D1*
X1377659Y1689369D1*
X1387651Y1689718D1*
X1397648Y1689517D1*
X1407619Y1688767D1*
X1417533Y1687469D1*
X1427361Y1685628D1*
X1437072Y1683249D1*
X1446638Y1680340D1*
X1456030Y1676909D1*
X1465219Y1672966D1*
X1474177Y1668525D1*
X1482877Y1663597D1*
X1491293Y1658198D1*
X1499399Y1652344D1*
X1507171Y1646054D1*
X1514585Y1639345D1*
X1521619Y1632239D1*
X1528252Y1624757D1*
X1534463Y1616921D1*
X1540233Y1608756D1*
X1545546Y1600285D1*
X1550385Y1591535D1*
X1554735Y1582533D1*
X1558583Y1573304D1*
X1561919Y1563878D1*
X1564730Y1554283D1*
X1567010Y1544547D1*
X1568750Y1534701D1*
X1569947Y1524774D1*
X1570596Y1514797D1*
X1570654Y1503001D1*
Y1026001D2*
X1570104Y1016017D1*
X1569006Y1006079D1*
X1567363Y996216D1*
X1565180Y986458D1*
X1562463Y976836D1*
X1559221Y967377D1*
X1555464Y958111D1*
X1551203Y949066D1*
X1546451Y940268D1*
X1541223Y931746D1*
X1535533Y923524D1*
X1529400Y915627D1*
X1522842Y908079D1*
X1515879Y900904D1*
X1508531Y894122D1*
X1500822Y887755D1*
X1492774Y881822D1*
X1484412Y876340D1*
X1475761Y871326D1*
X1466847Y866796D1*
X1457698Y862763D1*
X1448341Y859239D1*
X1438804Y856235D1*
X1429116Y853760D1*
X1419307Y851822D1*
X1409406Y850427D1*
X1399444Y849578D1*
X1389450Y849278D1*
X1379454Y849528D1*
X1369487Y850328D1*
X1359580Y851675D1*
X1349761Y853564D1*
X1340061Y855991D1*
X1330510Y858947D1*
X1321135Y862425D1*
X1311966Y866413D1*
X1303030Y870899D1*
X1294355Y875870D1*
X1285966Y881310D1*
X1277888Y887204D1*
X1270148Y893533D1*
X1262767Y900278D1*
X1255768Y907419D1*
X1249172Y914933D1*
X1243000Y922800D1*
X1237270Y930994D1*
X1231999Y939490D1*
X1227204Y948264D1*
X1222898Y957288D1*
X1219095Y966536D1*
X1215807Y975978D1*
X1213043Y985587D1*
X1210812Y995334D1*
X1209120Y1005188D1*
X1207972Y1015121D1*
X1207373Y1025102D1*
X1207323Y1035101D1*
X1207824Y1045087D1*
X1208873Y1055030D1*
X1210467Y1064901D1*
X1212602Y1074669D1*
X1215271Y1084305D1*
X1218466Y1093780D1*
X1222177Y1103064D1*
X1226393Y1112131D1*
X1231102Y1120951D1*
X1236288Y1129500D1*
X1241937Y1137750D1*
X1248031Y1145677D1*
X1254551Y1153257D1*
X1261479Y1160467D1*
X1268793Y1167285D1*
X1276471Y1173690D1*
X1284489Y1179663D1*
X1292824Y1185186D1*
X1301450Y1190243D1*
X1310341Y1194817D1*
X1319470Y1198895D1*
X1328810Y1202465D1*
X1338332Y1205516D1*
X1348007Y1208039D1*
X1357807Y1210026D1*
X1367700Y1211470D1*
X1377659Y1212369D1*
X1387651Y1212718D1*
X1397648Y1212517D1*
X1407619Y1211767D1*
X1417533Y1210469D1*
X1427361Y1208628D1*
X1437072Y1206249D1*
X1446638Y1203340D1*
X1456030Y1199909D1*
X1465219Y1195966D1*
X1474177Y1191525D1*
X1482877Y1186597D1*
X1491293Y1181198D1*
X1499399Y1175344D1*
X1507171Y1169054D1*
X1514585Y1162345D1*
X1521619Y1155239D1*
X1528252Y1147757D1*
X1534463Y1139921D1*
X1540233Y1131756D1*
X1545546Y1123285D1*
X1550385Y1114535D1*
X1554735Y1105533D1*
X1558583Y1096304D1*
X1561919Y1086878D1*
X1564730Y1077283D1*
X1567010Y1067547D1*
X1568750Y1057701D1*
X1569947Y1047774D1*
X1570596Y1037797D1*
X1570654Y1026001D1*
X1170654Y1964001D2*
X1170104Y1954017D1*
X1169006Y1944079D1*
X1167363Y1934216D1*
X1165180Y1924458D1*
X1162463Y1914836D1*
X1159221Y1905377D1*
X1155464Y1896111D1*
X1151203Y1887066D1*
X1146451Y1878268D1*
X1141223Y1869746D1*
X1135533Y1861524D1*
X1129400Y1853627D1*
X1122842Y1846079D1*
X1115879Y1838904D1*
X1108531Y1832122D1*
X1100822Y1825755D1*
X1092774Y1819822D1*
X1084412Y1814340D1*
X1075761Y1809326D1*
X1066847Y1804796D1*
X1057698Y1800763D1*
X1048341Y1797239D1*
X1038804Y1794235D1*
X1029116Y1791760D1*
X1019307Y1789822D1*
X1009406Y1788427D1*
X999444Y1787578D1*
X989450Y1787278D1*
X979454Y1787528D1*
X969487Y1788328D1*
X959580Y1789675D1*
X949761Y1791564D1*
X940061Y1793991D1*
X930510Y1796947D1*
X921135Y1800425D1*
X911966Y1804413D1*
X903030Y1808899D1*
X894355Y1813870D1*
X885966Y1819310D1*
X877888Y1825204D1*
X870148Y1831533D1*
X862767Y1838278D1*
X855768Y1845419D1*
X849172Y1852933D1*
X843000Y1860800D1*
X837270Y1868994D1*
X831999Y1877490D1*
X827204Y1886264D1*
X822898Y1895288D1*
X819095Y1904536D1*
X815807Y1913978D1*
X813043Y1923587D1*
X810812Y1933334D1*
X809120Y1943188D1*
X807972Y1953121D1*
X807373Y1963102D1*
X807323Y1973101D1*
X807824Y1983087D1*
X808873Y1993030D1*
X810467Y2002901D1*
X812602Y2012669D1*
X815271Y2022305D1*
X818466Y2031780D1*
X822177Y2041064D1*
X826393Y2050131D1*
X831102Y2058951D1*
X836288Y2067500D1*
X841937Y2075750D1*
X848031Y2083677D1*
X854551Y2091257D1*
X861479Y2098467D1*
X868793Y2105285D1*
X876471Y2111690D1*
X884489Y2117663D1*
X892824Y2123186D1*
X901450Y2128243D1*
X910341Y2132817D1*
X919470Y2136895D1*
X928810Y2140465D1*
X938332Y2143516D1*
X948007Y2146039D1*
X957807Y2148026D1*
X967700Y2149470D1*
X977659Y2150369D1*
X987651Y2150718D1*
X997648Y2150517D1*
X1007619Y2149767D1*
X1017533Y2148469D1*
X1027361Y2146628D1*
X1037072Y2144249D1*
X1046638Y2141340D1*
X1056030Y2137909D1*
X1065219Y2133966D1*
X1074177Y2129525D1*
X1082877Y2124597D1*
X1091293Y2119198D1*
X1099399Y2113344D1*
X1107171Y2107054D1*
X1114585Y2100345D1*
X1121619Y2093239D1*
X1128252Y2085757D1*
X1134463Y2077921D1*
X1140233Y2069756D1*
X1145546Y2061285D1*
X1150385Y2052535D1*
X1154735Y2043533D1*
X1158583Y2034304D1*
X1161919Y2024878D1*
X1164730Y2015283D1*
X1167010Y2005547D1*
X1168750Y1995701D1*
X1169947Y1985774D1*
X1170596Y1975797D1*
X1170654Y1964001D1*
Y2439001D2*
X1170104Y2429017D1*
X1169006Y2419079D1*
X1167363Y2409216D1*
X1165180Y2399458D1*
X1162463Y2389836D1*
X1159221Y2380377D1*
X1155464Y2371111D1*
X1151203Y2362066D1*
X1146451Y2353268D1*
X1141223Y2344746D1*
X1135533Y2336524D1*
X1129400Y2328627D1*
X1122842Y2321079D1*
X1115879Y2313904D1*
X1108531Y2307122D1*
X1100822Y2300755D1*
X1092774Y2294822D1*
X1084412Y2289340D1*
X1075761Y2284326D1*
X1066847Y2279796D1*
X1057698Y2275763D1*
X1048341Y2272239D1*
X1038804Y2269235D1*
X1029116Y2266760D1*
X1019307Y2264822D1*
X1009406Y2263427D1*
X999444Y2262578D1*
X989450Y2262278D1*
X979454Y2262528D1*
X969487Y2263328D1*
X959580Y2264675D1*
X949761Y2266564D1*
X940061Y2268991D1*
X930510Y2271947D1*
X921135Y2275425D1*
X911966Y2279413D1*
X903030Y2283899D1*
X894355Y2288870D1*
X885966Y2294310D1*
X877888Y2300204D1*
X870148Y2306533D1*
X862767Y2313278D1*
X855768Y2320419D1*
X849172Y2327933D1*
X843000Y2335800D1*
X837270Y2343994D1*
X831999Y2352490D1*
X827204Y2361264D1*
X822898Y2370288D1*
X819095Y2379536D1*
X815807Y2388978D1*
X813043Y2398587D1*
X810812Y2408334D1*
X809120Y2418188D1*
X807972Y2428121D1*
X807373Y2438102D1*
X807323Y2448101D1*
X807824Y2458087D1*
X808873Y2468030D1*
X810467Y2477901D1*
X812602Y2487669D1*
X815271Y2497305D1*
X818466Y2506780D1*
X822177Y2516064D1*
X826393Y2525131D1*
X831102Y2533951D1*
X836288Y2542500D1*
X841937Y2550750D1*
X848031Y2558677D1*
X854551Y2566257D1*
X861479Y2573467D1*
X868793Y2580285D1*
X876471Y2586690D1*
X884489Y2592663D1*
X892824Y2598186D1*
X901450Y2603243D1*
X910341Y2607817D1*
X919470Y2611895D1*
X928810Y2615465D1*
X938332Y2618516D1*
X948007Y2621039D1*
X957807Y2623026D1*
X967700Y2624470D1*
X977659Y2625369D1*
X987651Y2625718D1*
X997648Y2625517D1*
X1007619Y2624767D1*
X1017533Y2623469D1*
X1027361Y2621628D1*
X1037072Y2619249D1*
X1046638Y2616340D1*
X1056030Y2612909D1*
X1065219Y2608966D1*
X1074177Y2604525D1*
X1082877Y2599597D1*
X1091293Y2594198D1*
X1099399Y2588344D1*
X1107171Y2582054D1*
X1114585Y2575345D1*
X1121619Y2568239D1*
X1128252Y2560757D1*
X1134463Y2552921D1*
X1140233Y2544756D1*
X1145546Y2536285D1*
X1150385Y2527535D1*
X1154735Y2518533D1*
X1158583Y2509304D1*
X1161919Y2499878D1*
X1164730Y2490283D1*
X1167010Y2480547D1*
X1168750Y2470701D1*
X1169947Y2460774D1*
X1170596Y2450797D1*
X1170654Y2439001D1*
X1570654D2*
X1570104Y2429017D1*
X1569006Y2419079D1*
X1567363Y2409216D1*
X1565180Y2399458D1*
X1562463Y2389836D1*
X1559221Y2380377D1*
X1555464Y2371111D1*
X1551203Y2362066D1*
X1546451Y2353268D1*
X1541223Y2344746D1*
X1535533Y2336524D1*
X1529400Y2328627D1*
X1522842Y2321079D1*
X1515879Y2313904D1*
X1508531Y2307122D1*
X1500822Y2300755D1*
X1492774Y2294822D1*
X1484412Y2289340D1*
X1475761Y2284326D1*
X1466847Y2279796D1*
X1457698Y2275763D1*
X1448341Y2272239D1*
X1438804Y2269235D1*
X1429116Y2266760D1*
X1419307Y2264822D1*
X1409406Y2263427D1*
X1399444Y2262578D1*
X1389450Y2262278D1*
X1379454Y2262528D1*
X1369487Y2263328D1*
X1359580Y2264675D1*
X1349761Y2266564D1*
X1340061Y2268991D1*
X1330510Y2271947D1*
X1321135Y2275425D1*
X1311966Y2279413D1*
X1303030Y2283899D1*
X1294355Y2288870D1*
X1285966Y2294310D1*
X1277888Y2300204D1*
X1270148Y2306533D1*
X1262767Y2313278D1*
X1255768Y2320419D1*
X1249172Y2327933D1*
X1243000Y2335800D1*
X1237270Y2343994D1*
X1231999Y2352490D1*
X1227204Y2361264D1*
X1222898Y2370288D1*
X1219095Y2379536D1*
X1215807Y2388978D1*
X1213043Y2398587D1*
X1210812Y2408334D1*
X1209120Y2418188D1*
X1207972Y2428121D1*
X1207373Y2438102D1*
X1207323Y2448101D1*
X1207824Y2458087D1*
X1208873Y2468030D1*
X1210467Y2477901D1*
X1212602Y2487669D1*
X1215271Y2497305D1*
X1218466Y2506780D1*
X1222177Y2516064D1*
X1226393Y2525131D1*
X1231102Y2533951D1*
X1236288Y2542500D1*
X1241937Y2550750D1*
X1248031Y2558677D1*
X1254551Y2566257D1*
X1261479Y2573467D1*
X1268793Y2580285D1*
X1276471Y2586690D1*
X1284489Y2592663D1*
X1292824Y2598186D1*
X1301450Y2603243D1*
X1310341Y2607817D1*
X1319470Y2611895D1*
X1328810Y2615465D1*
X1338332Y2618516D1*
X1348007Y2621039D1*
X1357807Y2623026D1*
X1367700Y2624470D1*
X1377659Y2625369D1*
X1387651Y2625718D1*
X1397648Y2625517D1*
X1407619Y2624767D1*
X1417533Y2623469D1*
X1427361Y2621628D1*
X1437072Y2619249D1*
X1446638Y2616340D1*
X1456030Y2612909D1*
X1465219Y2608966D1*
X1474177Y2604525D1*
X1482877Y2599597D1*
X1491293Y2594198D1*
X1499399Y2588344D1*
X1507171Y2582054D1*
X1514585Y2575345D1*
X1521619Y2568239D1*
X1528252Y2560757D1*
X1534463Y2552921D1*
X1540233Y2544756D1*
X1545546Y2536285D1*
X1550385Y2527535D1*
X1554735Y2518533D1*
X1558583Y2509304D1*
X1561919Y2499878D1*
X1564730Y2490283D1*
X1567010Y2480547D1*
X1568750Y2470701D1*
X1569947Y2460774D1*
X1570596Y2450797D1*
X1570654Y2439001D1*
Y1964001D2*
X1570104Y1954017D1*
X1569006Y1944079D1*
X1567363Y1934216D1*
X1565180Y1924458D1*
X1562463Y1914836D1*
X1559221Y1905377D1*
X1555464Y1896111D1*
X1551203Y1887066D1*
X1546451Y1878268D1*
X1541223Y1869746D1*
X1535533Y1861524D1*
X1529400Y1853627D1*
X1522842Y1846079D1*
X1515879Y1838904D1*
X1508531Y1832122D1*
X1500822Y1825755D1*
X1492774Y1819822D1*
X1484412Y1814340D1*
X1475761Y1809326D1*
X1466847Y1804796D1*
X1457698Y1800763D1*
X1448341Y1797239D1*
X1438804Y1794235D1*
X1429116Y1791760D1*
X1419307Y1789822D1*
X1409406Y1788427D1*
X1399444Y1787578D1*
X1389450Y1787278D1*
X1379454Y1787528D1*
X1369487Y1788328D1*
X1359580Y1789675D1*
X1349761Y1791564D1*
X1340061Y1793991D1*
X1330510Y1796947D1*
X1321135Y1800425D1*
X1311966Y1804413D1*
X1303030Y1808899D1*
X1294355Y1813870D1*
X1285966Y1819310D1*
X1277888Y1825204D1*
X1270148Y1831533D1*
X1262767Y1838278D1*
X1255768Y1845419D1*
X1249172Y1852933D1*
X1243000Y1860800D1*
X1237270Y1868994D1*
X1231999Y1877490D1*
X1227204Y1886264D1*
X1222898Y1895288D1*
X1219095Y1904536D1*
X1215807Y1913978D1*
X1213043Y1923587D1*
X1210812Y1933334D1*
X1209120Y1943188D1*
X1207972Y1953121D1*
X1207373Y1963102D1*
X1207323Y1973101D1*
X1207824Y1983087D1*
X1208873Y1993030D1*
X1210467Y2002901D1*
X1212602Y2012669D1*
X1215271Y2022305D1*
X1218466Y2031780D1*
X1222177Y2041064D1*
X1226393Y2050131D1*
X1231102Y2058951D1*
X1236288Y2067500D1*
X1241937Y2075750D1*
X1248031Y2083677D1*
X1254551Y2091257D1*
X1261479Y2098467D1*
X1268793Y2105285D1*
X1276471Y2111690D1*
X1284489Y2117663D1*
X1292824Y2123186D1*
X1301450Y2128243D1*
X1310341Y2132817D1*
X1319470Y2136895D1*
X1328810Y2140465D1*
X1338332Y2143516D1*
X1348007Y2146039D1*
X1357807Y2148026D1*
X1367700Y2149470D1*
X1377659Y2150369D1*
X1387651Y2150718D1*
X1397648Y2150517D1*
X1407619Y2149767D1*
X1417533Y2148469D1*
X1427361Y2146628D1*
X1437072Y2144249D1*
X1446638Y2141340D1*
X1456030Y2137909D1*
X1465219Y2133966D1*
X1474177Y2129525D1*
X1482877Y2124597D1*
X1491293Y2119198D1*
X1499399Y2113344D1*
X1507171Y2107054D1*
X1514585Y2100345D1*
X1521619Y2093239D1*
X1528252Y2085757D1*
X1534463Y2077921D1*
X1540233Y2069756D1*
X1545546Y2061285D1*
X1550385Y2052535D1*
X1554735Y2043533D1*
X1558583Y2034304D1*
X1561919Y2024878D1*
X1564730Y2015283D1*
X1567010Y2005547D1*
X1568750Y1995701D1*
X1569947Y1985774D1*
X1570596Y1975797D1*
X1570654Y1964001D1*
X1907044Y4639001D2*
X1906346Y4629027D1*
X1904953Y4619127D1*
X1902873Y4609348D1*
X1900115Y4599738D1*
X1896693Y4590344D1*
X1892624Y4581211D1*
X1887927Y4572385D1*
X1882625Y4563909D1*
X1876745Y4555823D1*
X1870314Y4548168D1*
X1863365Y4540980D1*
X1855931Y4534294D1*
X1848048Y4528144D1*
X1839755Y4522560D1*
X1831093Y4517568D1*
X1822103Y4513192D1*
X1812830Y4509455D1*
X1803318Y4506375D1*
X1793615Y4503966D1*
X1783767Y4502240D1*
X1773822Y4501206D1*
X1763830Y4500869D1*
X1753839Y4501230D1*
X1743897Y4502288D1*
X1734053Y4504037D1*
X1724355Y4506469D1*
X1714851Y4509572D1*
X1705587Y4513331D1*
X1696607Y4517727D1*
X1687957Y4522740D1*
X1679677Y4528344D1*
X1671809Y4534513D1*
X1664391Y4541216D1*
X1657459Y4548420D1*
X1651046Y4556091D1*
X1645185Y4564191D1*
X1639903Y4572680D1*
X1635227Y4581517D1*
X1631180Y4590659D1*
X1627780Y4600061D1*
X1625045Y4609678D1*
X1622988Y4619462D1*
X1621619Y4629366D1*
X1620945Y4639341D1*
X1620968Y4649339D1*
X1621690Y4659311D1*
X1623106Y4669208D1*
X1625209Y4678982D1*
X1627990Y4688585D1*
X1631434Y4697971D1*
X1635526Y4707094D1*
X1640244Y4715909D1*
X1645565Y4724373D1*
X1651465Y4732444D1*
X1657914Y4740085D1*
X1664880Y4747256D1*
X1672330Y4753924D1*
X1680228Y4760055D1*
X1688534Y4765620D1*
X1697208Y4770591D1*
X1706208Y4774945D1*
X1715490Y4778660D1*
X1725009Y4781718D1*
X1734718Y4784104D1*
X1744570Y4785806D1*
X1754517Y4786817D1*
X1764510Y4787130D1*
X1774501Y4786746D1*
X1784440Y4785664D1*
X1794279Y4783892D1*
X1803971Y4781437D1*
X1813468Y4778311D1*
X1822724Y4774530D1*
X1831692Y4770112D1*
X1840331Y4765079D1*
X1848597Y4759455D1*
X1856451Y4753268D1*
X1863853Y4746547D1*
X1870768Y4739326D1*
X1877162Y4731640D1*
X1883004Y4723527D1*
X1888266Y4715025D1*
X1892921Y4706177D1*
X1896947Y4697025D1*
X1900324Y4687615D1*
X1903036Y4677992D1*
X1905070Y4668203D1*
X1906415Y4658296D1*
X1907066Y4648319D1*
X1907044Y4639001D1*
X1525794D2*
X1525096Y4629027D1*
X1523703Y4619127D1*
X1521623Y4609348D1*
X1518865Y4599738D1*
X1515443Y4590344D1*
X1511374Y4581211D1*
X1506677Y4572385D1*
X1501375Y4563909D1*
X1495495Y4555823D1*
X1489064Y4548168D1*
X1482115Y4540980D1*
X1474681Y4534294D1*
X1466798Y4528144D1*
X1458505Y4522560D1*
X1449843Y4517568D1*
X1440853Y4513192D1*
X1431580Y4509455D1*
X1422068Y4506375D1*
X1412365Y4503966D1*
X1402517Y4502240D1*
X1392572Y4501206D1*
X1382580Y4500869D1*
X1372589Y4501230D1*
X1362647Y4502288D1*
X1352803Y4504037D1*
X1343105Y4506469D1*
X1333601Y4509572D1*
X1324337Y4513331D1*
X1315357Y4517727D1*
X1306707Y4522740D1*
X1298427Y4528344D1*
X1290559Y4534513D1*
X1283141Y4541216D1*
X1276209Y4548420D1*
X1269796Y4556091D1*
X1263935Y4564191D1*
X1258653Y4572680D1*
X1253977Y4581517D1*
X1249930Y4590659D1*
X1246530Y4600061D1*
X1243795Y4609678D1*
X1241738Y4619462D1*
X1240369Y4629366D1*
X1239695Y4639341D1*
X1239718Y4649339D1*
X1240440Y4659311D1*
X1241856Y4669208D1*
X1243959Y4678982D1*
X1246740Y4688585D1*
X1250184Y4697971D1*
X1254276Y4707094D1*
X1258994Y4715909D1*
X1264315Y4724373D1*
X1270215Y4732444D1*
X1276664Y4740085D1*
X1283630Y4747256D1*
X1291080Y4753924D1*
X1298978Y4760055D1*
X1307284Y4765620D1*
X1315958Y4770591D1*
X1324958Y4774945D1*
X1334240Y4778660D1*
X1343759Y4781718D1*
X1353468Y4784104D1*
X1363320Y4785806D1*
X1373267Y4786817D1*
X1383260Y4787130D1*
X1393251Y4786746D1*
X1403190Y4785664D1*
X1413029Y4783892D1*
X1422721Y4781437D1*
X1432218Y4778311D1*
X1441474Y4774530D1*
X1450442Y4770112D1*
X1459081Y4765079D1*
X1467347Y4759455D1*
X1475201Y4753268D1*
X1482603Y4746547D1*
X1489518Y4739326D1*
X1495912Y4731640D1*
X1501754Y4723527D1*
X1507016Y4715025D1*
X1511671Y4706177D1*
X1515697Y4697025D1*
X1519074Y4687615D1*
X1521786Y4677992D1*
X1523820Y4668203D1*
X1525165Y4658296D1*
X1525816Y4648319D1*
X1525794Y4639001D1*
X757044D2*
X756346Y4629027D1*
X754953Y4619127D1*
X752873Y4609348D1*
X750115Y4599738D1*
X746693Y4590344D1*
X742624Y4581211D1*
X737927Y4572385D1*
X732625Y4563909D1*
X726745Y4555823D1*
X720314Y4548168D1*
X713365Y4540980D1*
X705931Y4534294D1*
X698048Y4528144D1*
X689755Y4522560D1*
X681093Y4517568D1*
X672103Y4513192D1*
X662830Y4509455D1*
X653318Y4506375D1*
X643615Y4503966D1*
X633767Y4502240D1*
X623822Y4501206D1*
X613830Y4500869D1*
X603839Y4501230D1*
X593897Y4502288D1*
X584053Y4504037D1*
X574355Y4506469D1*
X564851Y4509572D1*
X555587Y4513331D1*
X546607Y4517727D1*
X537957Y4522740D1*
X529677Y4528344D1*
X521809Y4534513D1*
X514391Y4541216D1*
X507459Y4548420D1*
X501046Y4556091D1*
X495185Y4564191D1*
X489903Y4572680D1*
X485227Y4581517D1*
X481180Y4590659D1*
X477780Y4600061D1*
X475045Y4609678D1*
X472988Y4619462D1*
X471619Y4629366D1*
X470945Y4639341D1*
X470968Y4649339D1*
X471690Y4659311D1*
X473106Y4669208D1*
X475209Y4678982D1*
X477990Y4688585D1*
X481434Y4697971D1*
X485526Y4707094D1*
X490244Y4715909D1*
X495565Y4724373D1*
X501465Y4732444D1*
X507914Y4740085D1*
X514880Y4747256D1*
X522330Y4753924D1*
X530228Y4760055D1*
X538534Y4765620D1*
X547208Y4770591D1*
X556208Y4774945D1*
X565490Y4778660D1*
X575009Y4781718D1*
X584718Y4784104D1*
X594570Y4785806D1*
X604517Y4786817D1*
X614510Y4787130D1*
X624501Y4786746D1*
X634440Y4785664D1*
X644279Y4783892D1*
X653971Y4781437D1*
X663468Y4778311D1*
X672724Y4774530D1*
X681692Y4770112D1*
X690331Y4765079D1*
X698597Y4759455D1*
X706451Y4753268D1*
X713853Y4746547D1*
X720768Y4739326D1*
X727162Y4731640D1*
X733004Y4723527D1*
X738266Y4715025D1*
X742921Y4706177D1*
X746947Y4697025D1*
X750324Y4687615D1*
X753036Y4677992D1*
X755070Y4668203D1*
X756415Y4658296D1*
X757066Y4648319D1*
X757044Y4639001D1*
X1138294D2*
X1137596Y4629027D1*
X1136203Y4619127D1*
X1134123Y4609348D1*
X1131365Y4599738D1*
X1127943Y4590344D1*
X1123874Y4581211D1*
X1119177Y4572385D1*
X1113875Y4563909D1*
X1107995Y4555823D1*
X1101564Y4548168D1*
X1094615Y4540980D1*
X1087181Y4534294D1*
X1079298Y4528144D1*
X1071005Y4522560D1*
X1062343Y4517568D1*
X1053353Y4513192D1*
X1044080Y4509455D1*
X1034568Y4506375D1*
X1024865Y4503966D1*
X1015017Y4502240D1*
X1005072Y4501206D1*
X995080Y4500869D1*
X985089Y4501230D1*
X975147Y4502288D1*
X965303Y4504037D1*
X955605Y4506469D1*
X946101Y4509572D1*
X936837Y4513331D1*
X927857Y4517727D1*
X919207Y4522740D1*
X910927Y4528344D1*
X903059Y4534513D1*
X895641Y4541216D1*
X888709Y4548420D1*
X882296Y4556091D1*
X876435Y4564191D1*
X871153Y4572680D1*
X866477Y4581517D1*
X862430Y4590659D1*
X859030Y4600061D1*
X856295Y4609678D1*
X854238Y4619462D1*
X852869Y4629366D1*
X852195Y4639341D1*
X852218Y4649339D1*
X852940Y4659311D1*
X854356Y4669208D1*
X856459Y4678982D1*
X859240Y4688585D1*
X862684Y4697971D1*
X866776Y4707094D1*
X871494Y4715909D1*
X876815Y4724373D1*
X882715Y4732444D1*
X889164Y4740085D1*
X896130Y4747256D1*
X903580Y4753924D1*
X911478Y4760055D1*
X919784Y4765620D1*
X928458Y4770591D1*
X937458Y4774945D1*
X946740Y4778660D1*
X956259Y4781718D1*
X965968Y4784104D1*
X975820Y4785806D1*
X985767Y4786817D1*
X995760Y4787130D1*
X1005751Y4786746D1*
X1015690Y4785664D1*
X1025529Y4783892D1*
X1035221Y4781437D1*
X1044718Y4778311D1*
X1053974Y4774530D1*
X1062942Y4770112D1*
X1071581Y4765079D1*
X1079847Y4759455D1*
X1087701Y4753268D1*
X1095103Y4746547D1*
X1102018Y4739326D1*
X1108412Y4731640D1*
X1114254Y4723527D1*
X1119516Y4715025D1*
X1124171Y4706177D1*
X1128197Y4697025D1*
X1131574Y4687615D1*
X1134286Y4677992D1*
X1136320Y4668203D1*
X1137665Y4658296D1*
X1138316Y4648319D1*
X1138294Y4639001D1*
X1714161Y4357634D2*
X1815700Y4357572D1*
X1818800Y4357081D1*
X1821785Y4356112D1*
X1824581Y4354687D1*
X1827120Y4352842D1*
X1829339Y4350623D1*
X1831184Y4348084D1*
X1832609Y4345288D1*
X1833579Y4342303D1*
X1834070Y4339203D1*
X1834131Y4312634D1*
X1834070Y2836222D1*
X1833579Y2833122D1*
X1832609Y2830138D1*
X1831184Y2827341D1*
X1829339Y2824802D1*
X1827120Y2822583D1*
X1824581Y2820738D1*
X1821785Y2819314D1*
X1818800Y2818344D1*
X1815700Y2817853D1*
X1789131Y2817791D1*
X1712573Y2817853D1*
X1709473Y2818344D1*
X1706488Y2819314D1*
X1703692Y2820738D1*
X1701153Y2822583D1*
X1698934Y2824802D1*
X1697089Y2827341D1*
X1695664Y2830138D1*
X1694694Y2833122D1*
X1694203Y2836222D1*
X1694142Y2862791D1*
X1694203Y4339203D1*
X1694694Y4342303D1*
X1695664Y4345288D1*
X1697089Y4348084D1*
X1698934Y4350623D1*
X1701153Y4352842D1*
X1703692Y4354687D1*
X1706488Y4356112D1*
X1709473Y4357081D1*
X1712573Y4357572D1*
X1714148Y4357634D1*
X1333079Y4357709D2*
X1434618Y4357647D1*
X1437717Y4357156D1*
X1440702Y4356186D1*
X1443499Y4354762D1*
X1446038Y4352917D1*
X1448257Y4350698D1*
X1450101Y4348159D1*
X1451526Y4345362D1*
X1452496Y4342378D1*
X1452987Y4339278D1*
X1453049Y4312709D1*
X1452987Y2836297D1*
X1452496Y2833197D1*
X1451526Y2830212D1*
X1450101Y2827416D1*
X1448257Y2824877D1*
X1446038Y2822658D1*
X1443499Y2820813D1*
X1440702Y2819388D1*
X1437717Y2818419D1*
X1434618Y2817928D1*
X1408049Y2817866D1*
X1331490Y2817928D1*
X1328390Y2818419D1*
X1325405Y2819388D1*
X1322609Y2820813D1*
X1320070Y2822658D1*
X1317851Y2824877D1*
X1316006Y2827416D1*
X1314581Y2830212D1*
X1313612Y2833197D1*
X1313121Y2836297D1*
X1313059Y2862866D1*
X1313121Y4339278D1*
X1313612Y4342378D1*
X1314581Y4345362D1*
X1316006Y4348159D1*
X1317851Y4350698D1*
X1320070Y4352917D1*
X1322609Y4354762D1*
X1325405Y4356186D1*
X1328390Y4357156D1*
X1331490Y4357647D1*
X1333065Y4357709D1*
X945367Y4357714D2*
X1046906Y4357652D1*
X1050006Y4357161D1*
X1052991Y4356192D1*
X1055787Y4354767D1*
X1058326Y4352922D1*
X1060545Y4350703D1*
X1062390Y4348164D1*
X1063815Y4345368D1*
X1064785Y4342383D1*
X1065276Y4339283D1*
X1065337Y4312714D1*
X1065276Y2836302D1*
X1064785Y2833202D1*
X1063815Y2830218D1*
X1062390Y2827421D1*
X1060545Y2824882D1*
X1058326Y2822663D1*
X1055787Y2820819D1*
X1052991Y2819394D1*
X1050006Y2818424D1*
X1046906Y2817933D1*
X1020337Y2817871D1*
X943779Y2817933D1*
X940679Y2818424D1*
X937694Y2819394D1*
X934898Y2820819D1*
X932359Y2822663D1*
X930140Y2824882D1*
X928295Y2827421D1*
X926870Y2830218D1*
X925900Y2833202D1*
X925409Y2836302D1*
X925348Y2862871D1*
X925409Y4339283D1*
X925900Y4342383D1*
X926870Y4345368D1*
X928295Y4348164D1*
X930140Y4350703D1*
X932359Y4352922D1*
X934898Y4354767D1*
X937694Y4356192D1*
X940679Y4357161D1*
X943779Y4357652D1*
X945354Y4357714D1*
X564497Y4357428D2*
X666036Y4357366D1*
X669136Y4356875D1*
X672121Y4355905D1*
X674917Y4354481D1*
X677456Y4352636D1*
X679675Y4350417D1*
X681520Y4347878D1*
X682945Y4345082D1*
X683915Y4342097D1*
X684406Y4338997D1*
X684467Y4312428D1*
X684406Y2836016D1*
X683915Y2832916D1*
X682945Y2829932D1*
X681520Y2827135D1*
X679675Y2824596D1*
X677456Y2822377D1*
X674917Y2820532D1*
X672121Y2819108D1*
X669136Y2818138D1*
X666036Y2817647D1*
X639467Y2817585D1*
X562909Y2817647D1*
X559809Y2818138D1*
X556824Y2819108D1*
X554028Y2820532D1*
X551489Y2822377D1*
X549270Y2824596D1*
X547425Y2827135D1*
X546000Y2829932D1*
X545030Y2832916D1*
X544539Y2836016D1*
X544478Y2862585D1*
X544539Y4338997D1*
X545030Y4342097D1*
X546000Y4345082D1*
X547425Y4347878D1*
X549270Y4350417D1*
X551489Y4352636D1*
X554028Y4354481D1*
X556824Y4355905D1*
X559809Y4356875D1*
X562909Y4357366D1*
X564484Y4357428D1*
D19*
X1389000Y1508000D3*
X989000Y1031000D3*
X595000D3*
Y1508000D3*
X989000D3*
X1389000Y1031000D3*
X1783000Y1508000D3*
X989000Y1969000D3*
X595000D3*
D20*
X1689000Y512058D3*
X689000D3*
D19*
X1783000Y1031000D3*
D20*
X689000Y5334892D3*
X1689000D3*
D19*
X595000Y2444000D3*
X989000D3*
X1783000D3*
Y1969000D3*
X1389000Y2444000D3*
Y1969000D3*
M02*
