G04 DipTrace 3.2.0.1*
G04 twiigs_panel.GTO*
%MOIN*%
G04 #@! TF.FileFunction,Legend,Top*
G04 #@! TF.Part,Single*
%ADD32C,0.00772*%
%FSLAX26Y26*%
G04*
G70*
G90*
G75*
G01*
G04 TopSilk*
%LPD*%
X1164681Y2636954D2*
D32*
Y2586714D1*
X1213614Y2636954D2*
Y2586714D1*
X1180120Y2636954D1*
Y2586714D1*
X1179295Y2151504D2*
X1176918Y2156257D1*
X1172110Y2161065D1*
X1167356Y2163442D1*
X1157795D1*
X1152986Y2161065D1*
X1148233Y2156257D1*
X1145801Y2151504D1*
X1143425Y2144319D1*
Y2132325D1*
X1145801Y2125195D1*
X1148233Y2120387D1*
X1152986Y2115634D1*
X1157795Y2113202D1*
X1167356D1*
X1172110Y2115634D1*
X1176918Y2120387D1*
X1179295Y2125195D1*
X1194734Y2163442D2*
X1213857Y2113202D1*
X1232980Y2163442D1*
X1169442Y1701642D2*
X1164633Y1699266D1*
X1159880Y1694457D1*
X1157448Y1689704D1*
X1155071Y1682519D1*
Y1670526D1*
X1157448Y1663396D1*
X1159880Y1658587D1*
X1164633Y1653834D1*
X1169442Y1651402D1*
X1179003D1*
X1183756Y1653834D1*
X1188565Y1658587D1*
X1190941Y1663396D1*
X1193318Y1670526D1*
Y1682519D1*
X1190941Y1689704D1*
X1188565Y1694457D1*
X1183756Y1699266D1*
X1179003Y1701642D1*
X1169442D1*
X1208757Y1692026D2*
X1213566Y1694457D1*
X1220751Y1701587D1*
Y1651402D1*
X1159357Y1223864D2*
X1154549Y1221487D1*
X1149796Y1216679D1*
X1147364Y1211926D1*
X1144987Y1204741D1*
Y1192747D1*
X1147364Y1185617D1*
X1149796Y1180809D1*
X1154549Y1176056D1*
X1159357Y1173624D1*
X1168919D1*
X1173672Y1176056D1*
X1178481Y1180809D1*
X1180857Y1185617D1*
X1183234Y1192747D1*
Y1204741D1*
X1180857Y1211926D1*
X1178481Y1216679D1*
X1173672Y1221487D1*
X1168919Y1223864D1*
X1159357D1*
X1201105Y1211870D2*
Y1214247D1*
X1203481Y1219055D1*
X1205858Y1221432D1*
X1210666Y1223809D1*
X1220228D1*
X1224981Y1221432D1*
X1227358Y1219055D1*
X1229790Y1214247D1*
Y1209494D1*
X1227358Y1204685D1*
X1222605Y1197556D1*
X1198673Y1173624D1*
X1232166D1*
M02*
