G04 DipTrace 3.2.0.1*
G04 twiigs_panel.GTL*
%MOIN*%
G04 #@! TF.FileFunction,Copper,L1,Top*
G04 #@! TF.Part,Single*
G04 #@! TA.AperFunction,CopperBalancing*
%ADD14C,0.01*%
G04 #@! TA.AperFunction,Nonconductor*
%ADD17O,0.147344X0.141029*%
G04 #@! TA.AperFunction,ComponentPad*
%ADD19C,0.334646*%
%ADD20O,0.299213X0.177165*%
%FSLAX26Y26*%
G04*
G70*
G90*
G75*
G01*
G04 Top*
%LPD*%
X426729Y5228545D2*
D14*
X415714Y5217529D1*
X469156Y5228545D2*
X415714Y5175103D1*
X511582Y5228545D2*
X415714Y5132677D1*
X554009Y5228545D2*
X415714Y5090250D1*
X596435Y5228545D2*
X415714Y5047824D1*
X638861Y5228545D2*
X415714Y5005397D1*
X681288Y5228545D2*
X415714Y4962971D1*
X723714Y5228545D2*
X542676Y5047506D1*
X460497Y4965327D2*
X415714Y4920545D1*
X766141Y5228545D2*
X585378Y5047782D1*
X460220Y4922625D2*
X415714Y4878118D1*
X808567Y5228545D2*
X616314Y5036292D1*
X471697Y4891675D2*
X415714Y4835692D1*
X850993Y5228545D2*
X640262Y5017813D1*
X490189Y4867741D2*
X451304Y4828856D1*
X422890Y4800441D2*
X415714Y4793265D1*
X893420Y5228545D2*
X658022Y4993147D1*
X514855Y4849980D2*
X493731Y4828856D1*
X422890Y4758015D2*
X415714Y4750839D1*
X935846Y5228545D2*
X668532Y4961231D1*
X546772Y4839470D2*
X536157Y4828856D1*
X422890Y4715589D2*
X415714Y4708413D1*
X978273Y5228545D2*
X665894Y4916167D1*
X591836Y4842108D2*
X578583Y4828856D1*
X422890Y4673162D2*
X415714Y4665986D1*
X1020699Y5228545D2*
X621010Y4828856D1*
X422890Y4630736D2*
X415714Y4623560D1*
X1063126Y5228545D2*
X663436Y4828856D1*
X422890Y4588309D2*
X415714Y4581133D1*
X1105552Y5228545D2*
X705863Y4828856D1*
X422890Y4545883D2*
X415714Y4538707D1*
X1147978Y5228545D2*
X748289Y4828856D1*
X422890Y4503457D2*
X415714Y4496281D1*
X1190405Y5228545D2*
X790715Y4828856D1*
X422890Y4461030D2*
X415714Y4453854D1*
X1232831Y5228545D2*
X833142Y4828856D1*
X422890Y4418604D2*
X415714Y4411428D1*
X1275258Y5228545D2*
X875568Y4828856D1*
X422890Y4376177D2*
X415714Y4369001D1*
X1317684Y5228545D2*
X917995Y4828856D1*
X422890Y4333751D2*
X415714Y4326575D1*
X1360110Y5228545D2*
X960421Y4828856D1*
X422890Y4291325D2*
X415714Y4284149D1*
X1402537Y5228545D2*
X1002847Y4828856D1*
X422890Y4248898D2*
X415714Y4241722D1*
X1444963Y5228545D2*
X1045274Y4828856D1*
X422890Y4206472D2*
X415714Y4199296D1*
X1487390Y5228545D2*
X1087700Y4828856D1*
X422890Y4164045D2*
X415714Y4156869D1*
X1529816Y5228545D2*
X1130127Y4828856D1*
X422890Y4121619D2*
X415714Y4114443D1*
X1572242Y5228545D2*
X1172553Y4828856D1*
X422890Y4079193D2*
X415714Y4072016D1*
X1614669Y5228545D2*
X1214979Y4828856D1*
X422890Y4036766D2*
X415714Y4029590D1*
X1657095Y5228545D2*
X1257406Y4828856D1*
X422890Y3994340D2*
X415714Y3987164D1*
X1699522Y5228545D2*
X1299832Y4828856D1*
X422890Y3951913D2*
X415714Y3944737D1*
X1741948Y5228545D2*
X1342259Y4828856D1*
X422890Y3909487D2*
X415714Y3902311D1*
X1784377Y5228547D2*
X1384687Y4828858D1*
X422892Y3867063D2*
X415703Y3859873D1*
X1826803Y5228547D2*
X1427114Y4828858D1*
X422892Y3824636D2*
X415703Y3817447D1*
X1869230Y5228547D2*
X1469540Y4828858D1*
X422892Y3782210D2*
X415703Y3775020D1*
X1911656Y5228547D2*
X1511967Y4828858D1*
X422892Y3739784D2*
X415703Y3732594D1*
X1954082Y5228547D2*
X1760048Y5034513D1*
X1723486Y4997950D2*
X1554393Y4828858D1*
X422892Y3697357D2*
X415703Y3690167D1*
X1962286Y5194324D2*
X1817749Y5049787D1*
X1708211Y4940249D2*
X1596820Y4828858D1*
X422892Y3654931D2*
X415703Y3647741D1*
X1962286Y5151898D2*
X1853008Y5042620D1*
X1715379Y4904991D2*
X1639246Y4828858D1*
X422892Y3612504D2*
X415703Y3605315D1*
X1962286Y5109472D2*
X1879952Y5027138D1*
X1730860Y4878046D2*
X1681672Y4828858D1*
X422892Y3570078D2*
X415703Y3562888D1*
X1962286Y5067045D2*
X1900585Y5005345D1*
X1752654Y4857413D2*
X1724099Y4828858D1*
X422892Y3527652D2*
X415703Y3520462D1*
X1962286Y5024619D2*
X1914728Y4977060D1*
X1780938Y4843271D2*
X1766525Y4828858D1*
X422892Y3485225D2*
X415703Y3478035D1*
X1962286Y4982192D2*
X1919713Y4939620D1*
X1818379Y4838285D2*
X1808952Y4828858D1*
X422892Y3442799D2*
X415703Y3435609D1*
X1962286Y4939766D2*
X1851378Y4828858D1*
X422892Y3400372D2*
X415703Y3393183D1*
X1962286Y4897340D2*
X1893804Y4828858D1*
X422892Y3357946D2*
X415703Y3350756D1*
X1962286Y4854913D2*
X1936231Y4828858D1*
X422892Y3315520D2*
X415703Y3308330D1*
X1962286Y4812487D2*
X1955110Y4805311D1*
X422892Y3273093D2*
X415703Y3265903D1*
X1962286Y4770060D2*
X1955110Y4762884D1*
X422892Y3230667D2*
X415703Y3223477D1*
X1962286Y4727634D2*
X1955110Y4720458D1*
X422892Y3188240D2*
X415703Y3181051D1*
X1962286Y4685208D2*
X1955110Y4678031D1*
X422892Y3145814D2*
X415703Y3138624D1*
X1962286Y4642781D2*
X1955110Y4635605D1*
X422892Y3103388D2*
X415703Y3096198D1*
X1962286Y4600355D2*
X1955110Y4593179D1*
X422892Y3060961D2*
X415703Y3053771D1*
X1962286Y4557928D2*
X1955110Y4550752D1*
X422892Y3018535D2*
X415703Y3011345D1*
X1962286Y4515502D2*
X1955110Y4508326D1*
X422892Y2976108D2*
X415703Y2968918D1*
X1962286Y4473075D2*
X1955110Y4465899D1*
X422892Y2933682D2*
X415703Y2926492D1*
X1962286Y4430649D2*
X1955110Y4423473D1*
X422892Y2891256D2*
X415703Y2884066D1*
X1962286Y4388223D2*
X1955110Y4381047D1*
X422892Y2848829D2*
X415703Y2841639D1*
X1962286Y4345796D2*
X1955110Y4338620D1*
X422892Y2806403D2*
X415703Y2799213D1*
X1962286Y4303370D2*
X1955110Y4296194D1*
X422892Y2763976D2*
X415703Y2756786D1*
X1962286Y4260943D2*
X1955110Y4253767D1*
X422892Y2721550D2*
X415703Y2714360D1*
X1962286Y4218517D2*
X1955110Y4211341D1*
X446661Y2702892D2*
X415703Y2671934D1*
X1962286Y4176091D2*
X1955110Y4168915D1*
X489087Y2702892D2*
X415703Y2629507D1*
X1962286Y4133664D2*
X1955110Y4126488D1*
X531513Y2702892D2*
X415703Y2587081D1*
X1962286Y4091238D2*
X1955110Y4084062D1*
X573940Y2702892D2*
X415703Y2544654D1*
X1962286Y4048811D2*
X1955110Y4041635D1*
X616366Y2702892D2*
X527831Y2614357D1*
X424646Y2511172D2*
X415703Y2502228D1*
X1962286Y4006385D2*
X1955110Y3999209D1*
X658793Y2702892D2*
X582881Y2626980D1*
X1962286Y3963959D2*
X1955110Y3956783D1*
X701219Y2702892D2*
X623609Y2625281D1*
X1962286Y3921532D2*
X1955110Y3914356D1*
X743645Y2702892D2*
X657445Y2616691D1*
X422312Y2381559D2*
X415703Y2374949D1*
X1962286Y3879106D2*
X1955110Y3871930D1*
X786072Y2702892D2*
X686475Y2603295D1*
X435709Y2352529D2*
X415703Y2332522D1*
X1962286Y3836679D2*
X1955110Y3829503D1*
X828498Y2702892D2*
X711596Y2585990D1*
X453014Y2327407D2*
X415703Y2290096D1*
X1962286Y3794253D2*
X1955110Y3787077D1*
X870925Y2702892D2*
X733141Y2565108D1*
X473881Y2305848D2*
X415703Y2247670D1*
X1962286Y3751827D2*
X1955110Y3744651D1*
X913351Y2702892D2*
X751178Y2540718D1*
X498285Y2287826D2*
X415703Y2205243D1*
X1962286Y3709400D2*
X1955110Y3702224D1*
X955777Y2702892D2*
X765389Y2512503D1*
X526500Y2273614D2*
X415703Y2162817D1*
X1962286Y3666974D2*
X1955110Y3659798D1*
X998204Y2702892D2*
X898151Y2602839D1*
X830169Y2534857D2*
X775043Y2479730D1*
X559273Y2263961D2*
X415703Y2120390D1*
X1962286Y3624547D2*
X1955110Y3617371D1*
X1040630Y2702892D2*
X963241Y2625502D1*
X807492Y2469754D2*
X778385Y2440646D1*
X598357Y2260618D2*
X415703Y2077964D1*
X1962286Y3582121D2*
X1955110Y3574945D1*
X1083057Y2702892D2*
X1006800Y2626635D1*
X806374Y2426209D2*
X769988Y2389823D1*
X649167Y2269002D2*
X512598Y2132433D1*
X431566Y2051400D2*
X415703Y2035538D1*
X1962286Y3539695D2*
X1955110Y3532519D1*
X1125483Y2702892D2*
X1042293Y2619702D1*
X813307Y2390715D2*
X573697Y2151105D1*
X1962286Y3497268D2*
X1955110Y3490092D1*
X1167910Y2702892D2*
X1150956Y2685938D1*
X1107364Y2642346D2*
X1072580Y2607562D1*
X825446Y2360428D2*
X616289Y2151271D1*
X1962286Y3454842D2*
X1955110Y3447666D1*
X1210336Y2702892D2*
X1201282Y2693837D1*
X1165465Y2658021D2*
X1135101Y2627657D1*
X1101314Y2593870D2*
X1098757Y2591313D1*
X841687Y2334243D2*
X651230Y2143786D1*
X420213Y1912769D2*
X415713Y1908269D1*
X1962286Y3412415D2*
X1955110Y3405239D1*
X1252762Y2702892D2*
X1233364Y2683493D1*
X1208913Y2659043D2*
X1137228Y2587357D1*
X861547Y2311677D2*
X681116Y2131246D1*
X432753Y1882883D2*
X415703Y1865832D1*
X1962286Y3369989D2*
X1955110Y3362813D1*
X1295189Y2702892D2*
X1257077Y2664780D1*
X1233883Y2641586D2*
X1156797Y2564500D1*
X884915Y2292618D2*
X706956Y2114659D1*
X449340Y1857043D2*
X415703Y1823406D1*
X1962286Y3327563D2*
X1955110Y3320386D1*
X1337615Y2702892D2*
X1273304Y2638581D1*
X1245816Y2611092D2*
X1189349Y2554626D1*
X1161018Y2526295D2*
X1155734Y2521011D1*
X911984Y2277260D2*
X729205Y2094482D1*
X469517Y1834794D2*
X415703Y1780979D1*
X1962286Y3285136D2*
X1955110Y3277960D1*
X1380042Y2702892D2*
X1277406Y2600256D1*
X1201110Y2523961D2*
X1166810Y2489660D1*
X943334Y2266184D2*
X747932Y2070782D1*
X493216Y1816067D2*
X415703Y1738553D1*
X1962286Y3242710D2*
X1955110Y3235534D1*
X1422468Y2702892D2*
X1340162Y2620586D1*
X1212421Y2492845D2*
X1172252Y2452675D1*
X980319Y2260743D2*
X762931Y2043354D1*
X520644Y1801068D2*
X415703Y1696126D1*
X1962286Y3200283D2*
X1955110Y3193107D1*
X1464894Y2702892D2*
X1389438Y2627436D1*
X1205571Y2443569D2*
X1168357Y2406354D1*
X1026640Y2264637D2*
X868002Y2106000D1*
X852004Y2090001D2*
X773565Y2011562D1*
X552437Y1790434D2*
X415703Y1653700D1*
X1962286Y3157857D2*
X1955110Y3150681D1*
X1507321Y2702892D2*
X1427832Y2623403D1*
X1209590Y2405161D2*
X953173Y2148744D1*
X809260Y2004831D2*
X778385Y1973956D1*
X590043Y1785614D2*
X415703Y1611273D1*
X1962286Y3115430D2*
X1955110Y3108254D1*
X1549747Y2702892D2*
X1460163Y2613307D1*
X1219700Y2372844D2*
X999052Y2152196D1*
X805807Y1958952D2*
X773220Y1926364D1*
X637648Y1790793D2*
X523343Y1676488D1*
X426511Y1579655D2*
X415703Y1568847D1*
X1962286Y3073004D2*
X1955110Y3065828D1*
X1592174Y2702892D2*
X1488019Y2598737D1*
X1234270Y2344988D2*
X1035802Y2146520D1*
X811484Y1922202D2*
X580036Y1690754D1*
X1962286Y3030578D2*
X1955110Y3023402D1*
X1634600Y2702892D2*
X1512091Y2580383D1*
X1252610Y2320902D2*
X1147365Y2215656D1*
X1109338Y2177630D2*
X1066987Y2135278D1*
X822712Y1891003D2*
X621330Y1689621D1*
X1962286Y2988151D2*
X1955110Y2980975D1*
X1677026Y2702892D2*
X1532655Y2558520D1*
X1274473Y2300338D2*
X1199652Y2225517D1*
X1161874Y2187740D2*
X1137062Y2162927D1*
X1100983Y2126848D2*
X1093931Y2119796D1*
X838207Y1864072D2*
X655497Y1681363D1*
X421636Y1447501D2*
X415703Y1441568D1*
X1962286Y2945725D2*
X1955110Y2938549D1*
X1719453Y2702892D2*
X1549642Y2533081D1*
X1299926Y2283365D2*
X1232079Y2215518D1*
X1207629Y2191068D2*
X1136537Y2119976D1*
X857376Y1840815D2*
X684804Y1668243D1*
X434756Y1418195D2*
X415703Y1399141D1*
X1962286Y2903298D2*
X1955110Y2896122D1*
X1761879Y2702892D2*
X1562652Y2503664D1*
X1329329Y2270341D2*
X1256096Y2197109D1*
X1232889Y2173901D2*
X1155513Y2096526D1*
X880067Y1821080D2*
X710146Y1651159D1*
X451840Y1392852D2*
X415703Y1356715D1*
X1962286Y2860872D2*
X1955110Y2853696D1*
X1804306Y2702892D2*
X1715729Y2614315D1*
X1612682Y2511268D2*
X1570759Y2469345D1*
X1363648Y2262234D2*
X1272600Y2171186D1*
X1245484Y2144070D2*
X1187706Y2086292D1*
X1159609Y2058195D2*
X1153041Y2051627D1*
X906377Y1804963D2*
X731912Y1630498D1*
X472500Y1371086D2*
X415703Y1314289D1*
X1962286Y2818446D2*
X1955110Y2811270D1*
X1846732Y2702892D2*
X1770820Y2626980D1*
X1600032Y2456192D2*
X1571643Y2427802D1*
X1405191Y2261350D2*
X1277696Y2133856D1*
X1198914Y2055074D2*
X1165029Y2021188D1*
X936815Y1792975D2*
X750170Y1606329D1*
X496669Y1352829D2*
X415703Y1271862D1*
X1962286Y2776019D2*
X1955110Y2768843D1*
X1889158Y2702892D2*
X1811562Y2625295D1*
X1601703Y2415436D2*
X1556617Y2370350D1*
X1462657Y2276390D2*
X1327939Y2141673D1*
X1216330Y2030063D2*
X1171754Y1985488D1*
X972516Y1786249D2*
X764629Y1578363D1*
X524636Y1338369D2*
X415703Y1229436D1*
X1962286Y2733593D2*
X1955110Y2726417D1*
X1931585Y2702892D2*
X1845398Y2616705D1*
X1610293Y2381600D2*
X1380917Y2152224D1*
X1205778Y1977085D2*
X1170249Y1941556D1*
X1016448Y1787755D2*
X891467Y1662773D1*
X834230Y1605537D2*
X774601Y1545908D1*
X557091Y1328398D2*
X415703Y1187009D1*
X1962286Y2691166D2*
X1874428Y2603308D1*
X1623690Y2352570D2*
X1420871Y2149752D1*
X1208251Y1937131D2*
X1145735Y1874616D1*
X1083374Y1812255D2*
X960147Y1689028D1*
X807976Y1536856D2*
X778426Y1507307D1*
X595692Y1324572D2*
X415703Y1144583D1*
X1962286Y2648740D2*
X1899550Y2586004D1*
X1640994Y2327448D2*
X1454210Y2140664D1*
X1217338Y1903792D2*
X1004383Y1690837D1*
X806166Y1492620D2*
X771134Y1457588D1*
X645410Y1331864D2*
X502296Y1188750D1*
X437256Y1123710D2*
X415703Y1102157D1*
X1962286Y2606314D2*
X1921122Y2565149D1*
X1661848Y2305876D2*
X1482868Y2126895D1*
X1231107Y1875135D2*
X1040263Y1684291D1*
X812699Y1456726D2*
X568338Y1212366D1*
X1962286Y2563887D2*
X1939145Y2540746D1*
X1686252Y2287853D2*
X1507658Y2109259D1*
X1248743Y1850345D2*
X1151467Y1753068D1*
X1108689Y1710291D2*
X1070826Y1672427D1*
X824562Y1426163D2*
X612090Y1213692D1*
X1962286Y2521461D2*
X1953370Y2512545D1*
X1714453Y2273628D2*
X1528899Y2088073D1*
X1269915Y1829090D2*
X1202083Y1761257D1*
X1165976Y1725151D2*
X1136413Y1695588D1*
X1102309Y1661484D2*
X1097260Y1656434D1*
X840569Y1399744D2*
X647708Y1206883D1*
X419122Y978297D2*
X415702Y974876D1*
X1747226Y2263974D2*
X1546604Y2063352D1*
X1294650Y1811399D2*
X1234220Y1750968D1*
X1209770Y1726518D2*
X1138167Y1654915D1*
X860221Y1376970D2*
X678064Y1194812D1*
X431179Y947927D2*
X415703Y932451D1*
X1786297Y2260618D2*
X1560456Y2034778D1*
X1323224Y1797546D2*
X1257974Y1732296D1*
X1234781Y1709103D2*
X1157654Y1631976D1*
X883368Y1357690D2*
X704318Y1178640D1*
X447351Y921673D2*
X415703Y890025D1*
X1962286Y2394182D2*
X1958030Y2389925D1*
X1837078Y2268974D2*
X1700482Y2132378D1*
X1619629Y2051525D2*
X1569640Y2001536D1*
X1356467Y1788362D2*
X1274230Y1706125D1*
X1246796Y1678692D2*
X1190136Y1622032D1*
X1161847Y1593742D2*
X1154905Y1586801D1*
X910202Y1342098D2*
X726954Y1158849D1*
X467156Y899051D2*
X415703Y847598D1*
X1962286Y2351755D2*
X1761622Y2151091D1*
X1600916Y1990385D2*
X1572250Y1961719D1*
X1396269Y1785738D2*
X1278483Y1667953D1*
X1201815Y1591284D2*
X1166272Y1555741D1*
X941262Y1330732D2*
X746068Y1135537D1*
X490468Y879937D2*
X415703Y805172D1*
X1962286Y2309329D2*
X1804228Y2151271D1*
X1600722Y1947765D2*
X1562099Y1909142D1*
X1448860Y1795903D2*
X1336461Y1683503D1*
X1213499Y1560541D2*
X1172127Y1519170D1*
X977833Y1324876D2*
X761494Y1108537D1*
X517468Y864511D2*
X415703Y762745D1*
X1962286Y2266902D2*
X1839183Y2143799D1*
X1608194Y1912810D2*
X1386787Y1691403D1*
X1205599Y1510215D2*
X1169034Y1473650D1*
X1023353Y1327969D2*
X772653Y1077270D1*
X548722Y853338D2*
X415703Y720319D1*
X1962286Y2224476D2*
X1869069Y2131259D1*
X1620734Y1882924D2*
X1425664Y1687854D1*
X1209148Y1471338D2*
X1132463Y1394653D1*
X1102350Y1364540D2*
X947234Y1209424D1*
X810572Y1072762D2*
X778219Y1040409D1*
X585582Y847772D2*
X415703Y677893D1*
X1962286Y2182050D2*
X1894923Y2114687D1*
X1637321Y1857084D2*
X1458298Y1678062D1*
X1218940Y1438704D2*
X994605Y1214368D1*
X805642Y1025405D2*
X774559Y994323D1*
X631668Y851432D2*
X440341Y660104D1*
X1962286Y2139623D2*
X1917172Y2094509D1*
X1657498Y1834835D2*
X1486403Y1663740D1*
X1233262Y1410599D2*
X1032101Y1209438D1*
X810558Y987895D2*
X482767Y660104D1*
X1962286Y2097197D2*
X1935899Y2070810D1*
X1681183Y1816094D2*
X1510710Y1645621D1*
X1251381Y1386292D2*
X1063810Y1198721D1*
X821275Y956186D2*
X525194Y660104D1*
X1962286Y2054770D2*
X1950912Y2043396D1*
X1708598Y1801082D2*
X1531481Y1623965D1*
X1273023Y1365507D2*
X1193147Y1285631D1*
X1099892Y1192376D2*
X1091183Y1183667D1*
X836343Y928827D2*
X567620Y660104D1*
X1740390Y1790448D2*
X1548703Y1598761D1*
X1298241Y1348299D2*
X1227039Y1277096D1*
X1201525Y1251583D2*
X1134107Y1184164D1*
X855125Y905183D2*
X610046Y660104D1*
X1777982Y1785614D2*
X1561975Y1569607D1*
X1327381Y1335013D2*
X1252243Y1259875D1*
X1229049Y1236681D2*
X1151591Y1159222D1*
X877416Y885047D2*
X652473Y660104D1*
X1825560Y1790765D2*
X1711241Y1676446D1*
X1614561Y1579766D2*
X1570441Y1535646D1*
X1361356Y1326561D2*
X1269976Y1235181D1*
X1244379Y1209584D2*
X1181201Y1146406D1*
X1154541Y1119746D2*
X1151477Y1116682D1*
X903325Y868530D2*
X694899Y660104D1*
X1962286Y1885065D2*
X1767975Y1690754D1*
X1600253Y1523032D2*
X1571891Y1494670D1*
X1402332Y1325111D2*
X1278566Y1201345D1*
X1190103Y1112882D2*
X1163951Y1086730D1*
X933266Y856045D2*
X737326Y660104D1*
X1962286Y1842638D2*
X1809283Y1689635D1*
X1601372Y1481724D2*
X1558592Y1438944D1*
X1458058Y1338410D2*
X1320440Y1200792D1*
X1219202Y1099555D2*
X1171340Y1051692D1*
X968318Y848670D2*
X779752Y660104D1*
X1962286Y1800212D2*
X1843464Y1681390D1*
X1609616Y1447542D2*
X1375987Y1213913D1*
X1206082Y1044008D2*
X1171009Y1008935D1*
X1011075Y849001D2*
X822179Y660104D1*
X1962286Y1757785D2*
X1872757Y1668256D1*
X1622737Y1418236D2*
X1416894Y1212393D1*
X1207601Y1003101D2*
X1151729Y947228D1*
X1072768Y868267D2*
X864605Y660104D1*
X1962286Y1715359D2*
X1898113Y1651186D1*
X1639820Y1392893D2*
X1450827Y1203900D1*
X1216095Y969168D2*
X907031Y660104D1*
X1962286Y1672933D2*
X1919893Y1630539D1*
X1660467Y1371114D2*
X1479940Y1190586D1*
X1229408Y940055D2*
X949458Y660104D1*
X1962286Y1630506D2*
X1938150Y1606371D1*
X1684636Y1352856D2*
X1505130Y1173351D1*
X1246644Y914864D2*
X991884Y660104D1*
X1962286Y1588080D2*
X1952610Y1578404D1*
X1712589Y1338383D2*
X1526758Y1152552D1*
X1267443Y893237D2*
X1034311Y660104D1*
X1745044Y1328411D2*
X1544864Y1128231D1*
X1291778Y875145D2*
X1076737Y660104D1*
X1783631Y1324572D2*
X1559144Y1100085D1*
X1319910Y860851D2*
X1119163Y660104D1*
X1962286Y1460801D2*
X1959161Y1457676D1*
X1833322Y1331836D2*
X1690138Y1188653D1*
X1625347Y1123861D2*
X1568908Y1067423D1*
X1352586Y851101D2*
X1161590Y660104D1*
X1962286Y1418374D2*
X1756264Y1212352D1*
X1601648Y1057736D2*
X1572402Y1028490D1*
X1391504Y847593D2*
X1204016Y660104D1*
X1962286Y1375948D2*
X1800044Y1213705D1*
X1600308Y1013970D2*
X1564364Y978026D1*
X1441969Y855630D2*
X1246443Y660104D1*
X1962286Y1333521D2*
X1835661Y1206897D1*
X1607117Y978352D2*
X1288869Y660104D1*
X1962286Y1291095D2*
X1866031Y1194840D1*
X1619160Y947969D2*
X1331295Y660104D1*
X1962286Y1248669D2*
X1892285Y1178668D1*
X1635332Y921715D2*
X1373722Y660104D1*
X1962286Y1206242D2*
X1914921Y1158877D1*
X1655123Y899079D2*
X1416148Y660104D1*
X1962286Y1163816D2*
X1934035Y1135565D1*
X1678435Y879965D2*
X1458575Y660104D1*
X1962286Y1121389D2*
X1949475Y1108579D1*
X1705421Y864525D2*
X1501001Y660104D1*
X1736675Y853352D2*
X1543427Y660104D1*
X1773535Y847786D2*
X1585854Y660104D1*
X1819594Y851418D2*
X1628280Y660104D1*
X1962286Y951684D2*
X1670707Y660104D1*
X1962286Y909257D2*
X1713133Y660104D1*
X1962286Y866831D2*
X1755559Y660104D1*
X1962286Y824404D2*
X1797986Y660104D1*
X1962286Y781978D2*
X1840412Y660104D1*
X1962286Y739552D2*
X1882839Y660104D1*
X1962286Y697125D2*
X1925265Y660104D1*
X1951271Y5228545D2*
X1962286Y5217529D1*
X1908844Y5228545D2*
X1962286Y5175103D1*
X1866418Y5228545D2*
X1962286Y5132677D1*
X1823991Y5228545D2*
X1962286Y5090250D1*
X1781565Y5228545D2*
X1962286Y5047824D1*
X1739139Y5228545D2*
X1962286Y5005397D1*
X1696712Y5228545D2*
X1962286Y4962971D1*
X1654286Y5228545D2*
X1835324Y5047506D1*
X1917503Y4965327D2*
X1962286Y4920545D1*
X1611859Y5228545D2*
X1792622Y5047782D1*
X1917780Y4922625D2*
X1962286Y4878118D1*
X1569433Y5228545D2*
X1761686Y5036292D1*
X1906303Y4891675D2*
X1962286Y4835692D1*
X1527007Y5228545D2*
X1737738Y5017813D1*
X1887811Y4867741D2*
X1926696Y4828856D1*
X1955110Y4800441D2*
X1962286Y4793265D1*
X1484580Y5228545D2*
X1719978Y4993147D1*
X1863145Y4849980D2*
X1884269Y4828856D1*
X1955110Y4758015D2*
X1962286Y4750839D1*
X1442154Y5228545D2*
X1709468Y4961231D1*
X1831228Y4839470D2*
X1841843Y4828856D1*
X1955110Y4715589D2*
X1962286Y4708413D1*
X1399727Y5228545D2*
X1712106Y4916167D1*
X1786164Y4842108D2*
X1799417Y4828856D1*
X1955110Y4673162D2*
X1962286Y4665986D1*
X1357301Y5228545D2*
X1756990Y4828856D1*
X1955110Y4630736D2*
X1962286Y4623560D1*
X1314874Y5228545D2*
X1714564Y4828856D1*
X1955110Y4588309D2*
X1962286Y4581133D1*
X1272448Y5228545D2*
X1672137Y4828856D1*
X1955110Y4545883D2*
X1962286Y4538707D1*
X1230022Y5228545D2*
X1629711Y4828856D1*
X1955110Y4503457D2*
X1962286Y4496281D1*
X1187595Y5228545D2*
X1587285Y4828856D1*
X1955110Y4461030D2*
X1962286Y4453854D1*
X1145169Y5228545D2*
X1544858Y4828856D1*
X1955110Y4418604D2*
X1962286Y4411428D1*
X1102742Y5228545D2*
X1502432Y4828856D1*
X1955110Y4376177D2*
X1962286Y4369001D1*
X1060316Y5228545D2*
X1460005Y4828856D1*
X1955110Y4333751D2*
X1962286Y4326575D1*
X1017890Y5228545D2*
X1417579Y4828856D1*
X1955110Y4291325D2*
X1962286Y4284149D1*
X975463Y5228545D2*
X1375153Y4828856D1*
X1955110Y4248898D2*
X1962286Y4241722D1*
X933037Y5228545D2*
X1332726Y4828856D1*
X1955110Y4206472D2*
X1962286Y4199296D1*
X890610Y5228545D2*
X1290300Y4828856D1*
X1955110Y4164045D2*
X1962286Y4156869D1*
X848184Y5228545D2*
X1247873Y4828856D1*
X1955110Y4121619D2*
X1962286Y4114443D1*
X805758Y5228545D2*
X1205447Y4828856D1*
X1955110Y4079193D2*
X1962286Y4072016D1*
X763331Y5228545D2*
X1163021Y4828856D1*
X1955110Y4036766D2*
X1962286Y4029590D1*
X720905Y5228545D2*
X1120594Y4828856D1*
X1955110Y3994340D2*
X1962286Y3987164D1*
X678478Y5228545D2*
X1078168Y4828856D1*
X1955110Y3951913D2*
X1962286Y3944737D1*
X636052Y5228545D2*
X1035741Y4828856D1*
X1955110Y3909487D2*
X1962286Y3902311D1*
X593623Y5228547D2*
X993313Y4828858D1*
X1955108Y3867063D2*
X1962297Y3859873D1*
X551197Y5228547D2*
X950886Y4828858D1*
X1955108Y3824636D2*
X1962297Y3817447D1*
X508770Y5228547D2*
X908460Y4828858D1*
X1955108Y3782210D2*
X1962297Y3775020D1*
X466344Y5228547D2*
X866033Y4828858D1*
X1955108Y3739784D2*
X1962297Y3732594D1*
X423918Y5228547D2*
X617952Y5034513D1*
X654514Y4997950D2*
X823607Y4828858D1*
X1955108Y3697357D2*
X1962297Y3690167D1*
X415714Y5194324D2*
X560251Y5049787D1*
X669789Y4940249D2*
X781180Y4828858D1*
X1955108Y3654931D2*
X1962297Y3647741D1*
X415714Y5151898D2*
X524992Y5042620D1*
X662621Y4904991D2*
X738754Y4828858D1*
X1955108Y3612504D2*
X1962297Y3605315D1*
X415714Y5109472D2*
X498048Y5027138D1*
X647140Y4878046D2*
X696328Y4828858D1*
X1955108Y3570078D2*
X1962297Y3562888D1*
X415714Y5067045D2*
X477415Y5005345D1*
X625346Y4857413D2*
X653901Y4828858D1*
X1955108Y3527652D2*
X1962297Y3520462D1*
X415714Y5024619D2*
X463272Y4977060D1*
X597062Y4843271D2*
X611475Y4828858D1*
X1955108Y3485225D2*
X1962297Y3478035D1*
X415714Y4982192D2*
X458287Y4939620D1*
X559621Y4838285D2*
X569048Y4828858D1*
X1955108Y3442799D2*
X1962297Y3435609D1*
X415714Y4939766D2*
X526622Y4828858D1*
X1955108Y3400372D2*
X1962297Y3393183D1*
X415714Y4897340D2*
X484196Y4828858D1*
X1955108Y3357946D2*
X1962297Y3350756D1*
X415714Y4854913D2*
X441769Y4828858D1*
X1955108Y3315520D2*
X1962297Y3308330D1*
X415714Y4812487D2*
X422890Y4805311D1*
X1955108Y3273093D2*
X1962297Y3265903D1*
X415714Y4770060D2*
X422890Y4762884D1*
X1955108Y3230667D2*
X1962297Y3223477D1*
X415714Y4727634D2*
X422890Y4720458D1*
X1955108Y3188240D2*
X1962297Y3181051D1*
X415714Y4685208D2*
X422890Y4678031D1*
X1955108Y3145814D2*
X1962297Y3138624D1*
X415714Y4642781D2*
X422890Y4635605D1*
X1955108Y3103388D2*
X1962297Y3096198D1*
X415714Y4600355D2*
X422890Y4593179D1*
X1955108Y3060961D2*
X1962297Y3053771D1*
X415714Y4557928D2*
X422890Y4550752D1*
X1955108Y3018535D2*
X1962297Y3011345D1*
X415714Y4515502D2*
X422890Y4508326D1*
X1955108Y2976108D2*
X1962297Y2968918D1*
X415714Y4473075D2*
X422890Y4465899D1*
X1955108Y2933682D2*
X1962297Y2926492D1*
X415714Y4430649D2*
X422890Y4423473D1*
X1955108Y2891256D2*
X1962297Y2884066D1*
X415714Y4388223D2*
X422890Y4381047D1*
X1955108Y2848829D2*
X1962297Y2841639D1*
X415714Y4345796D2*
X422890Y4338620D1*
X1955108Y2806403D2*
X1962297Y2799213D1*
X415714Y4303370D2*
X422890Y4296194D1*
X1955108Y2763976D2*
X1962297Y2756786D1*
X415714Y4260943D2*
X422890Y4253767D1*
X1955108Y2721550D2*
X1962297Y2714360D1*
X415714Y4218517D2*
X422890Y4211341D1*
X1931339Y2702892D2*
X1962297Y2671934D1*
X415714Y4176091D2*
X422890Y4168915D1*
X1888913Y2702892D2*
X1962297Y2629507D1*
X415714Y4133664D2*
X422890Y4126488D1*
X1846487Y2702892D2*
X1962297Y2587081D1*
X415714Y4091238D2*
X422890Y4084062D1*
X1804060Y2702892D2*
X1962297Y2544654D1*
X415714Y4048811D2*
X422890Y4041635D1*
X1761634Y2702892D2*
X1850169Y2614357D1*
X1953354Y2511172D2*
X1962297Y2502228D1*
X415714Y4006385D2*
X422890Y3999209D1*
X1719207Y2702892D2*
X1795119Y2626980D1*
X415714Y3963959D2*
X422890Y3956783D1*
X1676781Y2702892D2*
X1754391Y2625281D1*
X415714Y3921532D2*
X422890Y3914356D1*
X1634355Y2702892D2*
X1720555Y2616691D1*
X1955688Y2381559D2*
X1962297Y2374949D1*
X415714Y3879106D2*
X422890Y3871930D1*
X1591928Y2702892D2*
X1691525Y2603295D1*
X1942291Y2352529D2*
X1962297Y2332522D1*
X415714Y3836679D2*
X422890Y3829503D1*
X1549502Y2702892D2*
X1666404Y2585990D1*
X1924986Y2327407D2*
X1962297Y2290096D1*
X415714Y3794253D2*
X422890Y3787077D1*
X1507075Y2702892D2*
X1644859Y2565108D1*
X1904119Y2305848D2*
X1962297Y2247670D1*
X415714Y3751827D2*
X422890Y3744651D1*
X1464649Y2702892D2*
X1626822Y2540718D1*
X1879715Y2287826D2*
X1962297Y2205243D1*
X415714Y3709400D2*
X422890Y3702224D1*
X1422223Y2702892D2*
X1612611Y2512503D1*
X1851500Y2273614D2*
X1962297Y2162817D1*
X415714Y3666974D2*
X422890Y3659798D1*
X1379796Y2702892D2*
X1479849Y2602839D1*
X1547831Y2534857D2*
X1602957Y2479730D1*
X1818727Y2263961D2*
X1962297Y2120390D1*
X415714Y3624547D2*
X422890Y3617371D1*
X1337370Y2702892D2*
X1414759Y2625502D1*
X1570508Y2469754D2*
X1599615Y2440646D1*
X1779643Y2260618D2*
X1962297Y2077964D1*
X415714Y3582121D2*
X422890Y3574945D1*
X1294943Y2702892D2*
X1371200Y2626635D1*
X1571626Y2426209D2*
X1608012Y2389823D1*
X1728833Y2269002D2*
X1865402Y2132433D1*
X1946434Y2051400D2*
X1962297Y2035538D1*
X415714Y3539695D2*
X422890Y3532519D1*
X1252517Y2702892D2*
X1335707Y2619702D1*
X1564693Y2390715D2*
X1804303Y2151105D1*
X415714Y3497268D2*
X422890Y3490092D1*
X1210090Y2702892D2*
X1227141Y2685841D1*
X1270429Y2642553D2*
X1305420Y2607562D1*
X1552554Y2360428D2*
X1761711Y2151271D1*
X415714Y3454842D2*
X422890Y3447666D1*
X1167664Y2702892D2*
X1176705Y2693851D1*
X1212632Y2657924D2*
X1242692Y2627864D1*
X1276603Y2593953D2*
X1279244Y2591312D1*
X1536313Y2334243D2*
X1726770Y2143786D1*
X1957787Y1912769D2*
X1962287Y1908269D1*
X415714Y3412415D2*
X422890Y3405239D1*
X1125238Y2702892D2*
X1144609Y2683521D1*
X1169045Y2659084D2*
X1240703Y2587426D1*
X1516453Y2311677D2*
X1696884Y2131246D1*
X1945247Y1882883D2*
X1962297Y1865832D1*
X415714Y3369989D2*
X422890Y3362813D1*
X1082811Y2702892D2*
X1120868Y2664835D1*
X1144062Y2641641D2*
X1221175Y2564528D1*
X1493085Y2292618D2*
X1671044Y2114659D1*
X1928660Y1857043D2*
X1962297Y1823406D1*
X415714Y3327563D2*
X422890Y3320386D1*
X1040385Y2702892D2*
X1104640Y2638636D1*
X1132102Y2611175D2*
X1188651Y2554626D1*
X1216954Y2526322D2*
X1222266Y2521011D1*
X1466016Y2277260D2*
X1648795Y2094482D1*
X1908483Y1834794D2*
X1962297Y1780979D1*
X415714Y3285136D2*
X422890Y3277960D1*
X997958Y2702892D2*
X1100470Y2600381D1*
X1176917Y2523933D2*
X1211190Y2489660D1*
X1434666Y2266184D2*
X1630068Y2070782D1*
X1884784Y1816067D2*
X1962297Y1738553D1*
X415714Y3242710D2*
X422890Y3235534D1*
X955532Y2702892D2*
X1037838Y2620586D1*
X1165579Y2492845D2*
X1205748Y2452675D1*
X1397681Y2260743D2*
X1615069Y2043354D1*
X1857356Y1801068D2*
X1962297Y1696126D1*
X415714Y3200283D2*
X422890Y3193107D1*
X913106Y2702892D2*
X988562Y2627436D1*
X1172429Y2443569D2*
X1209643Y2406354D1*
X1351360Y2264637D2*
X1509998Y2106000D1*
X1525996Y2090001D2*
X1604435Y2011562D1*
X1825563Y1790434D2*
X1962297Y1653700D1*
X415714Y3157857D2*
X422890Y3150681D1*
X870679Y2702892D2*
X950168Y2623403D1*
X1168410Y2405161D2*
X1424827Y2148744D1*
X1568740Y2004831D2*
X1599615Y1973956D1*
X1787957Y1785614D2*
X1962297Y1611273D1*
X415714Y3115430D2*
X422890Y3108254D1*
X828253Y2702892D2*
X917837Y2613307D1*
X1158300Y2372844D2*
X1378948Y2152196D1*
X1572193Y1958952D2*
X1604780Y1926364D1*
X1740352Y1790793D2*
X1854657Y1676488D1*
X1951489Y1579655D2*
X1962297Y1568847D1*
X415714Y3073004D2*
X422890Y3065828D1*
X785826Y2702892D2*
X889981Y2598737D1*
X1143730Y2344988D2*
X1342198Y2146520D1*
X1566516Y1922202D2*
X1797964Y1690754D1*
X415714Y3030578D2*
X422890Y3023402D1*
X743400Y2702892D2*
X865909Y2580383D1*
X1125390Y2320902D2*
X1230870Y2215422D1*
X1268137Y2178155D2*
X1311013Y2135278D1*
X1555288Y1891003D2*
X1756670Y1689621D1*
X415714Y2988151D2*
X422890Y2980975D1*
X700974Y2702892D2*
X845345Y2558520D1*
X1103527Y2300338D2*
X1178320Y2225545D1*
X1216361Y2187505D2*
X1240399Y2163466D1*
X1276796Y2127069D2*
X1284069Y2119796D1*
X1539793Y1864072D2*
X1722503Y1681363D1*
X1956364Y1447501D2*
X1962297Y1441568D1*
X415714Y2945725D2*
X422890Y2938549D1*
X658547Y2702892D2*
X828358Y2533081D1*
X1078074Y2283365D2*
X1145838Y2215601D1*
X1170288Y2191151D2*
X1241311Y2120128D1*
X1520624Y1840815D2*
X1693196Y1668243D1*
X1943244Y1418195D2*
X1962297Y1399141D1*
X415714Y2903298D2*
X422890Y2896122D1*
X616121Y2702892D2*
X815348Y2503664D1*
X1048671Y2270341D2*
X1121793Y2197219D1*
X1144987Y2174026D2*
X1222404Y2096608D1*
X1497933Y1821080D2*
X1667854Y1651159D1*
X1926160Y1392852D2*
X1962297Y1356715D1*
X415714Y2860872D2*
X422890Y2853696D1*
X573694Y2702892D2*
X662271Y2614315D1*
X765318Y2511268D2*
X807241Y2469345D1*
X1014352Y2262234D2*
X1105234Y2171352D1*
X1132309Y2144277D2*
X1190267Y2086319D1*
X1218308Y2058278D2*
X1224959Y2051627D1*
X1471623Y1804963D2*
X1646088Y1630498D1*
X1905500Y1371086D2*
X1962297Y1314289D1*
X415714Y2818446D2*
X422890Y2811270D1*
X531268Y2702892D2*
X607180Y2626980D1*
X777968Y2456192D2*
X806357Y2427802D1*
X972809Y2261350D2*
X1100014Y2134146D1*
X1179127Y2055033D2*
X1212971Y2021188D1*
X1441185Y1792975D2*
X1627830Y1606329D1*
X1881331Y1352829D2*
X1962297Y1271862D1*
X415714Y2776019D2*
X422890Y2768843D1*
X488842Y2702892D2*
X566438Y2625295D1*
X776297Y2415436D2*
X821383Y2370350D1*
X915343Y2276390D2*
X1050061Y2141673D1*
X1161670Y2030063D2*
X1206246Y1985488D1*
X1405484Y1786249D2*
X1613371Y1578363D1*
X1853364Y1338369D2*
X1962297Y1229436D1*
X415714Y2733593D2*
X422890Y2726417D1*
X446415Y2702892D2*
X532602Y2616705D1*
X767707Y2381600D2*
X997083Y2152224D1*
X1172222Y1977085D2*
X1207751Y1941556D1*
X1361552Y1787755D2*
X1486533Y1662773D1*
X1543770Y1605537D2*
X1603399Y1545908D1*
X1820909Y1328398D2*
X1962297Y1187009D1*
X415714Y2691166D2*
X503572Y2603308D1*
X754310Y2352570D2*
X957129Y2149752D1*
X1169749Y1937131D2*
X1232265Y1874616D1*
X1294626Y1812255D2*
X1417853Y1689028D1*
X1570024Y1536856D2*
X1599574Y1507307D1*
X1782308Y1324572D2*
X1962297Y1144583D1*
X415714Y2648740D2*
X478450Y2586004D1*
X737006Y2327448D2*
X923790Y2140664D1*
X1160662Y1903792D2*
X1373617Y1690837D1*
X1571834Y1492620D2*
X1606866Y1457588D1*
X1732590Y1331864D2*
X1875704Y1188750D1*
X1940744Y1123710D2*
X1962297Y1102157D1*
X415714Y2606314D2*
X456878Y2565149D1*
X716152Y2305876D2*
X895132Y2126895D1*
X1146893Y1875135D2*
X1337737Y1684291D1*
X1565301Y1456726D2*
X1809662Y1212366D1*
X415714Y2563887D2*
X438855Y2540746D1*
X691748Y2287853D2*
X870342Y2109259D1*
X1129257Y1850345D2*
X1224683Y1754918D1*
X1273481Y1706120D2*
X1307174Y1672427D1*
X1553438Y1426163D2*
X1765910Y1213692D1*
X415714Y2521461D2*
X424630Y2512545D1*
X663547Y2273628D2*
X849101Y2088073D1*
X1108085Y1829090D2*
X1176180Y1760995D1*
X1210160Y1727015D2*
X1244764Y1692411D1*
X1277376Y1659799D2*
X1280740Y1656434D1*
X1537431Y1399744D2*
X1730292Y1206883D1*
X1958878Y978297D2*
X1962298Y974876D1*
X630774Y2263974D2*
X831396Y2063352D1*
X1083350Y1811399D2*
X1144429Y1750319D1*
X1168879Y1725869D2*
X1241104Y1653645D1*
X1517779Y1376970D2*
X1699936Y1194812D1*
X1946821Y947927D2*
X1962297Y932451D1*
X591703Y2260618D2*
X817544Y2034778D1*
X1054776Y1797546D2*
X1120978Y1731344D1*
X1144172Y1708150D2*
X1220995Y1631327D1*
X1494632Y1357690D2*
X1673682Y1178640D1*
X1930649Y921673D2*
X1962297Y890025D1*
X415714Y2394182D2*
X419970Y2389925D1*
X540922Y2268974D2*
X677518Y2132378D1*
X758371Y2051525D2*
X808360Y2001536D1*
X1021533Y1788362D2*
X1105082Y1704813D1*
X1132875Y1677021D2*
X1187712Y1622184D1*
X1216568Y1593328D2*
X1223095Y1586801D1*
X1467798Y1342098D2*
X1651046Y1158849D1*
X1910844Y899051D2*
X1962297Y847598D1*
X415714Y2351755D2*
X616378Y2151091D1*
X777084Y1990385D2*
X805750Y1961719D1*
X981731Y1785738D2*
X1101851Y1665618D1*
X1175826Y1591643D2*
X1211728Y1555741D1*
X1436738Y1330732D2*
X1631932Y1135537D1*
X1887532Y879937D2*
X1962297Y805172D1*
X415714Y2309329D2*
X573772Y2151271D1*
X777278Y1947765D2*
X815901Y1909142D1*
X929140Y1795903D2*
X1041539Y1683503D1*
X1164501Y1560541D2*
X1205873Y1519170D1*
X1400167Y1324876D2*
X1616506Y1108537D1*
X1860532Y864511D2*
X1962297Y762745D1*
X415714Y2266902D2*
X538817Y2143799D1*
X769806Y1912810D2*
X991213Y1691403D1*
X1172401Y1510215D2*
X1208966Y1473650D1*
X1354647Y1327969D2*
X1605347Y1077270D1*
X1829278Y853338D2*
X1962297Y720319D1*
X415714Y2224476D2*
X508931Y2131259D1*
X757266Y1882924D2*
X952336Y1687854D1*
X1168852Y1471338D2*
X1245537Y1394653D1*
X1275650Y1364540D2*
X1430766Y1209424D1*
X1567428Y1072762D2*
X1599781Y1040409D1*
X1792418Y847772D2*
X1962297Y677893D1*
X415714Y2182050D2*
X483077Y2114687D1*
X740679Y1857084D2*
X919702Y1678062D1*
X1159060Y1438704D2*
X1383395Y1214368D1*
X1572358Y1025405D2*
X1603441Y994323D1*
X1746332Y851432D2*
X1937659Y660104D1*
X415714Y2139623D2*
X460828Y2094509D1*
X720502Y1834835D2*
X891597Y1663740D1*
X1144738Y1410599D2*
X1345899Y1209438D1*
X1567442Y987895D2*
X1895233Y660104D1*
X415714Y2097197D2*
X442101Y2070810D1*
X696817Y1816094D2*
X867290Y1645621D1*
X1126619Y1386292D2*
X1314190Y1198721D1*
X1556725Y956186D2*
X1852806Y660104D1*
X415714Y2054770D2*
X427088Y2043396D1*
X669402Y1801082D2*
X846519Y1623965D1*
X1104977Y1365507D2*
X1184811Y1285673D1*
X1277832Y1192652D2*
X1286817Y1183667D1*
X1541657Y928827D2*
X1810380Y660104D1*
X637610Y1790448D2*
X829297Y1598761D1*
X1079759Y1348299D2*
X1150851Y1277207D1*
X1176434Y1251624D2*
X1243603Y1184454D1*
X1522875Y905183D2*
X1767954Y660104D1*
X600018Y1785614D2*
X816025Y1569607D1*
X1050619Y1335013D2*
X1125591Y1260040D1*
X1148785Y1236847D2*
X1226243Y1159388D1*
X1500584Y885047D2*
X1725527Y660104D1*
X552440Y1790765D2*
X666759Y1676446D1*
X763439Y1579766D2*
X807559Y1535646D1*
X1016644Y1326561D2*
X1107803Y1235402D1*
X1133331Y1209874D2*
X1196744Y1146461D1*
X1223349Y1119856D2*
X1226526Y1116679D1*
X1474675Y868530D2*
X1683101Y660104D1*
X415714Y1885065D2*
X610025Y1690754D1*
X777747Y1523032D2*
X806109Y1494670D1*
X975668Y1325111D2*
X1099130Y1201649D1*
X1187938Y1112841D2*
X1214049Y1086730D1*
X1444734Y856045D2*
X1640674Y660104D1*
X415714Y1842638D2*
X568717Y1689635D1*
X776628Y1481724D2*
X819408Y1438944D1*
X919942Y1338410D2*
X1057560Y1200792D1*
X1158798Y1099555D2*
X1206660Y1051692D1*
X1409682Y848670D2*
X1598248Y660104D1*
X415714Y1800212D2*
X534536Y1681390D1*
X768384Y1447542D2*
X1002013Y1213913D1*
X1171918Y1044008D2*
X1206991Y1008935D1*
X1366925Y849001D2*
X1555821Y660104D1*
X415714Y1757785D2*
X505243Y1668256D1*
X755263Y1418236D2*
X961106Y1212393D1*
X1170399Y1003101D2*
X1226271Y947228D1*
X1305232Y868267D2*
X1513395Y660104D1*
X415714Y1715359D2*
X479887Y1651186D1*
X738180Y1392893D2*
X927173Y1203900D1*
X1161905Y969168D2*
X1470969Y660104D1*
X415714Y1672933D2*
X458107Y1630539D1*
X717533Y1371114D2*
X898060Y1190586D1*
X1148592Y940055D2*
X1428542Y660104D1*
X415714Y1630506D2*
X439850Y1606371D1*
X693364Y1352856D2*
X872870Y1173351D1*
X1131356Y914864D2*
X1386116Y660104D1*
X415714Y1588080D2*
X425390Y1578404D1*
X665411Y1338383D2*
X851242Y1152552D1*
X1110557Y893237D2*
X1343689Y660104D1*
X632956Y1328411D2*
X833136Y1128231D1*
X1086222Y875145D2*
X1301263Y660104D1*
X594369Y1324572D2*
X818856Y1100085D1*
X1058090Y860851D2*
X1258837Y660104D1*
X415714Y1460801D2*
X418839Y1457676D1*
X544678Y1331836D2*
X687862Y1188653D1*
X752653Y1123861D2*
X809092Y1067423D1*
X1025414Y851101D2*
X1216410Y660104D1*
X415714Y1418374D2*
X621736Y1212352D1*
X776352Y1057736D2*
X805598Y1028490D1*
X986496Y847593D2*
X1173984Y660104D1*
X415714Y1375948D2*
X577956Y1213705D1*
X777692Y1013970D2*
X813636Y978026D1*
X936031Y855630D2*
X1131557Y660104D1*
X415714Y1333521D2*
X542339Y1206897D1*
X770883Y978352D2*
X1089131Y660104D1*
X415714Y1291095D2*
X511969Y1194840D1*
X758840Y947969D2*
X1046705Y660104D1*
X415714Y1248669D2*
X485715Y1178668D1*
X742668Y921715D2*
X1004278Y660104D1*
X415714Y1206242D2*
X463079Y1158877D1*
X722877Y899079D2*
X961852Y660104D1*
X415714Y1163816D2*
X443965Y1135565D1*
X699565Y879965D2*
X919425Y660104D1*
X415714Y1121389D2*
X428525Y1108579D1*
X672579Y864525D2*
X876999Y660104D1*
X641325Y853352D2*
X834573Y660104D1*
X604465Y847786D2*
X792146Y660104D1*
X558406Y851418D2*
X749720Y660104D1*
X415714Y951684D2*
X707293Y660104D1*
X415714Y909257D2*
X664867Y660104D1*
X415714Y866831D2*
X622441Y660104D1*
X415714Y824404D2*
X580014Y660104D1*
X415714Y781978D2*
X537588Y660104D1*
X415714Y739552D2*
X495161Y660104D1*
X415714Y697125D2*
X452735Y660104D1*
X669012Y4939002D2*
X668063Y4929051D1*
X666173Y4919235D1*
X663359Y4909643D1*
X659647Y4900362D1*
X655070Y4891475D1*
X649669Y4883063D1*
X643494Y4875202D1*
X636601Y4867963D1*
X629051Y4861411D1*
X620913Y4855606D1*
X612260Y4850600D1*
X603172Y4846439D1*
X593729Y4843160D1*
X584017Y4840792D1*
X574124Y4839357D1*
X564140Y4838869D1*
X554154Y4839331D1*
X544258Y4840739D1*
X534540Y4843081D1*
X525088Y4846335D1*
X515988Y4850472D1*
X507322Y4855455D1*
X499169Y4861238D1*
X491601Y4867770D1*
X484689Y4874991D1*
X478493Y4882835D1*
X473070Y4891233D1*
X468470Y4900107D1*
X464733Y4909379D1*
X461893Y4918963D1*
X459977Y4928774D1*
X459001Y4938723D1*
X458975Y4948719D1*
X459898Y4958672D1*
X461762Y4968493D1*
X464550Y4978093D1*
X468238Y4987384D1*
X472791Y4996283D1*
X478169Y5004709D1*
X484323Y5012587D1*
X491197Y5019844D1*
X498730Y5026416D1*
X506852Y5032242D1*
X515491Y5037271D1*
X524569Y5041457D1*
X534003Y5044761D1*
X543709Y5047154D1*
X553598Y5048615D1*
X563581Y5049130D1*
X573567Y5048695D1*
X583468Y5047313D1*
X593192Y5044997D1*
X602652Y5041768D1*
X611763Y5037655D1*
X620442Y5032695D1*
X628611Y5026934D1*
X636196Y5020422D1*
X643128Y5013220D1*
X649344Y5005392D1*
X654789Y4997009D1*
X659413Y4988146D1*
X663175Y4978885D1*
X666040Y4969308D1*
X667982Y4959502D1*
X668984Y4949556D1*
X669131Y4944000D1*
X669012Y4939002D1*
X1919012D2*
X1918063Y4929051D1*
X1916173Y4919235D1*
X1913359Y4909643D1*
X1909647Y4900362D1*
X1905070Y4891475D1*
X1899669Y4883063D1*
X1893494Y4875202D1*
X1886601Y4867963D1*
X1879051Y4861411D1*
X1870913Y4855606D1*
X1862260Y4850600D1*
X1853172Y4846439D1*
X1843729Y4843160D1*
X1834017Y4840792D1*
X1824124Y4839357D1*
X1814140Y4838869D1*
X1804154Y4839331D1*
X1794258Y4840739D1*
X1784540Y4843081D1*
X1775088Y4846335D1*
X1765988Y4850472D1*
X1757322Y4855455D1*
X1749169Y4861238D1*
X1741601Y4867770D1*
X1734689Y4874991D1*
X1728493Y4882835D1*
X1723070Y4891233D1*
X1718470Y4900107D1*
X1714733Y4909379D1*
X1711893Y4918963D1*
X1709977Y4928774D1*
X1709001Y4938723D1*
X1708975Y4948719D1*
X1709898Y4958672D1*
X1711762Y4968493D1*
X1714550Y4978093D1*
X1718238Y4987384D1*
X1722791Y4996283D1*
X1728169Y5004709D1*
X1734323Y5012587D1*
X1741197Y5019844D1*
X1748730Y5026416D1*
X1756852Y5032242D1*
X1765491Y5037271D1*
X1774569Y5041457D1*
X1784003Y5044761D1*
X1793709Y5047154D1*
X1803598Y5048615D1*
X1813581Y5049130D1*
X1823567Y5048695D1*
X1833468Y5047313D1*
X1843192Y5044997D1*
X1852652Y5041768D1*
X1861763Y5037655D1*
X1870442Y5032695D1*
X1878611Y5026934D1*
X1886196Y5020422D1*
X1893128Y5013220D1*
X1899344Y5005392D1*
X1904789Y4997009D1*
X1909413Y4988146D1*
X1913175Y4978885D1*
X1916040Y4969308D1*
X1917982Y4959502D1*
X1918984Y4949556D1*
X1919131Y4944000D1*
X1919012Y4939002D1*
X1171654Y1026001D2*
X1171107Y1016017D1*
X1170015Y1006078D1*
X1168381Y996214D1*
X1166210Y986454D1*
X1163508Y976827D1*
X1160283Y967362D1*
X1156546Y958088D1*
X1152306Y949033D1*
X1147578Y940222D1*
X1142375Y931684D1*
X1136713Y923443D1*
X1130608Y915524D1*
X1124080Y907951D1*
X1117147Y900746D1*
X1109830Y893932D1*
X1102151Y887527D1*
X1094134Y881553D1*
X1085802Y876026D1*
X1077180Y870963D1*
X1068294Y866379D1*
X1059170Y862288D1*
X1049836Y858702D1*
X1040320Y855632D1*
X1030651Y853088D1*
X1020857Y851076D1*
X1010967Y849602D1*
X1001012Y848672D1*
X991020Y848288D1*
X981023Y848451D1*
X971049Y849161D1*
X961130Y850415D1*
X951293Y852210D1*
X941570Y854540D1*
X931988Y857399D1*
X922578Y860777D1*
X913366Y864666D1*
X904381Y869052D1*
X895649Y873923D1*
X887196Y879265D1*
X879049Y885060D1*
X871230Y891293D1*
X863765Y897945D1*
X856674Y904994D1*
X849980Y912421D1*
X843701Y920203D1*
X837858Y928317D1*
X832468Y936738D1*
X827546Y945442D1*
X823108Y954401D1*
X819166Y963590D1*
X815733Y972981D1*
X812819Y982546D1*
X810432Y992256D1*
X808580Y1002081D1*
X807268Y1011994D1*
X806501Y1021963D1*
X806280Y1031959D1*
X806606Y1041953D1*
X807478Y1051913D1*
X808894Y1061811D1*
X810849Y1071617D1*
X813337Y1081301D1*
X816352Y1090835D1*
X819883Y1100189D1*
X823921Y1109336D1*
X828453Y1118249D1*
X833466Y1126900D1*
X838945Y1135264D1*
X844873Y1143316D1*
X851232Y1151032D1*
X858004Y1158388D1*
X865169Y1165363D1*
X872704Y1171936D1*
X880587Y1178086D1*
X888795Y1183796D1*
X897303Y1189048D1*
X906086Y1193828D1*
X915117Y1198119D1*
X924369Y1201911D1*
X933814Y1205190D1*
X943425Y1207948D1*
X953173Y1210176D1*
X963027Y1211867D1*
X972960Y1213017D1*
X982940Y1213622D1*
X992939Y1213680D1*
X1002925Y1213191D1*
X1012871Y1212157D1*
X1022744Y1210580D1*
X1032517Y1208465D1*
X1042159Y1205819D1*
X1051642Y1202650D1*
X1060938Y1198966D1*
X1070018Y1194780D1*
X1078855Y1190103D1*
X1087424Y1184949D1*
X1095697Y1179335D1*
X1104088Y1172915D1*
X1103573Y1175076D1*
X1099800Y1198278D1*
X1099817Y1200695D1*
X1103602Y1223853D1*
X1104208Y1226192D1*
X1105172Y1228407D1*
X1116279Y1249160D1*
X1117742Y1251084D1*
X1134873Y1267547D1*
X1136696Y1269044D1*
X1138779Y1270270D1*
X1160268Y1280711D1*
X1162571Y1281442D1*
X1187522Y1285240D1*
X1189939Y1285256D1*
X1213895Y1281672D1*
X1216100Y1281172D1*
X1218349Y1280286D1*
X1239893Y1269732D1*
X1241879Y1268355D1*
X1259127Y1251911D1*
X1260729Y1250102D1*
X1262028Y1248065D1*
X1273085Y1227162D1*
X1273848Y1224869D1*
X1277731Y1201685D1*
X1277904Y1199274D1*
X1277698Y1196866D1*
X1273806Y1173727D1*
X1273456Y1172565D1*
X1280587Y1178086D1*
X1288795Y1183796D1*
X1297303Y1189048D1*
X1306086Y1193828D1*
X1315117Y1198119D1*
X1324369Y1201911D1*
X1333814Y1205190D1*
X1343425Y1207948D1*
X1353173Y1210176D1*
X1363027Y1211867D1*
X1372960Y1213017D1*
X1382940Y1213622D1*
X1392939Y1213680D1*
X1402925Y1213191D1*
X1412871Y1212157D1*
X1422744Y1210580D1*
X1432517Y1208465D1*
X1442159Y1205819D1*
X1451642Y1202650D1*
X1460938Y1198966D1*
X1470018Y1194780D1*
X1478855Y1190103D1*
X1487424Y1184949D1*
X1495697Y1179335D1*
X1503652Y1173277D1*
X1511263Y1166792D1*
X1518507Y1159901D1*
X1525364Y1152624D1*
X1531813Y1144983D1*
X1537834Y1137000D1*
X1543410Y1128700D1*
X1548523Y1120108D1*
X1553158Y1111248D1*
X1557302Y1102149D1*
X1560942Y1092836D1*
X1564067Y1083338D1*
X1566668Y1073683D1*
X1568736Y1063901D1*
X1570267Y1054020D1*
X1571255Y1044070D1*
X1571697Y1034081D1*
X1571654Y1026001D1*
X1571107Y1016017D1*
X1570015Y1006078D1*
X1568381Y996214D1*
X1566210Y986454D1*
X1563508Y976827D1*
X1560283Y967362D1*
X1556546Y958088D1*
X1552306Y949033D1*
X1547578Y940222D1*
X1542375Y931684D1*
X1536713Y923443D1*
X1530608Y915524D1*
X1524080Y907951D1*
X1517147Y900746D1*
X1509830Y893932D1*
X1502151Y887527D1*
X1494134Y881553D1*
X1485802Y876026D1*
X1477180Y870963D1*
X1468294Y866379D1*
X1459170Y862288D1*
X1449836Y858702D1*
X1440320Y855632D1*
X1430651Y853088D1*
X1420857Y851076D1*
X1410967Y849602D1*
X1401012Y848672D1*
X1391020Y848288D1*
X1381023Y848451D1*
X1371049Y849161D1*
X1361130Y850415D1*
X1351293Y852210D1*
X1341570Y854540D1*
X1331988Y857399D1*
X1322578Y860777D1*
X1313366Y864666D1*
X1304381Y869052D1*
X1295649Y873923D1*
X1287196Y879265D1*
X1279049Y885060D1*
X1271230Y891293D1*
X1263765Y897945D1*
X1256674Y904994D1*
X1249980Y912421D1*
X1243701Y920203D1*
X1237858Y928317D1*
X1232468Y936738D1*
X1227546Y945442D1*
X1223108Y954401D1*
X1219166Y963590D1*
X1215733Y972981D1*
X1212819Y982546D1*
X1210432Y992256D1*
X1208580Y1002081D1*
X1207268Y1011994D1*
X1206501Y1021963D1*
X1206280Y1031959D1*
X1206606Y1041953D1*
X1207478Y1051913D1*
X1208894Y1061811D1*
X1210849Y1071617D1*
X1213337Y1081301D1*
X1216352Y1090835D1*
X1219883Y1100189D1*
X1223921Y1109336D1*
X1228453Y1118249D1*
X1232574Y1125408D1*
X1217397Y1118050D1*
X1215094Y1117319D1*
X1190142Y1113521D1*
X1187726Y1113505D1*
X1163770Y1117089D1*
X1161564Y1117589D1*
X1159316Y1118475D1*
X1145571Y1125178D1*
X1150901Y1115710D1*
X1155292Y1106727D1*
X1159186Y1097517D1*
X1162569Y1088108D1*
X1165433Y1078528D1*
X1167769Y1068806D1*
X1169569Y1058971D1*
X1170829Y1049052D1*
X1171544Y1039079D1*
X1171723Y1031000D1*
X1171654Y1026001D1*
X777654D2*
X777107Y1016017D1*
X776015Y1006078D1*
X774381Y996214D1*
X772210Y986454D1*
X769508Y976827D1*
X766283Y967362D1*
X762546Y958088D1*
X758306Y949033D1*
X753578Y940222D1*
X748375Y931684D1*
X742713Y923443D1*
X736608Y915524D1*
X730080Y907951D1*
X723147Y900746D1*
X715830Y893932D1*
X708151Y887527D1*
X700134Y881553D1*
X691802Y876026D1*
X683180Y870963D1*
X674294Y866379D1*
X665170Y862288D1*
X655836Y858702D1*
X646320Y855632D1*
X636651Y853088D1*
X626857Y851076D1*
X616967Y849602D1*
X607012Y848672D1*
X597020Y848288D1*
X587023Y848451D1*
X577049Y849161D1*
X567130Y850415D1*
X557293Y852210D1*
X547570Y854540D1*
X537988Y857399D1*
X528578Y860777D1*
X519366Y864666D1*
X510381Y869052D1*
X501649Y873923D1*
X493196Y879265D1*
X485049Y885060D1*
X477230Y891293D1*
X469765Y897945D1*
X462674Y904994D1*
X455980Y912421D1*
X449701Y920203D1*
X443858Y928317D1*
X438468Y936738D1*
X433546Y945442D1*
X429108Y954401D1*
X425166Y963590D1*
X421733Y972981D1*
X418819Y982546D1*
X416432Y992256D1*
X414999Y999676D1*
X415000Y659397D1*
X1963004Y659400D1*
X1963000Y999590D1*
X1961362Y991319D1*
X1958924Y981622D1*
X1955960Y972072D1*
X1952478Y962700D1*
X1948488Y953531D1*
X1944003Y944595D1*
X1939035Y935918D1*
X1933601Y927525D1*
X1927715Y919442D1*
X1921396Y911693D1*
X1914663Y904301D1*
X1907535Y897289D1*
X1900035Y890677D1*
X1892184Y884485D1*
X1884006Y878732D1*
X1875525Y873435D1*
X1866768Y868610D1*
X1857760Y864271D1*
X1848528Y860431D1*
X1839099Y857102D1*
X1829503Y854294D1*
X1819768Y852015D1*
X1809922Y850271D1*
X1799996Y849069D1*
X1790019Y848412D1*
X1780020Y848301D1*
X1770031Y848738D1*
X1760081Y849720D1*
X1750199Y851245D1*
X1740416Y853309D1*
X1730760Y855904D1*
X1721260Y859024D1*
X1711945Y862659D1*
X1702843Y866797D1*
X1693981Y871428D1*
X1685386Y876536D1*
X1677083Y882107D1*
X1669097Y888123D1*
X1661452Y894568D1*
X1654171Y901421D1*
X1647276Y908662D1*
X1640787Y916269D1*
X1634724Y924220D1*
X1629105Y932491D1*
X1623947Y941056D1*
X1619266Y949891D1*
X1615074Y958969D1*
X1611385Y968262D1*
X1608210Y977744D1*
X1605559Y987384D1*
X1603439Y997156D1*
X1601856Y1007029D1*
X1600816Y1016973D1*
X1600322Y1026960D1*
X1600374Y1036958D1*
X1600974Y1046939D1*
X1602118Y1056872D1*
X1603804Y1066728D1*
X1606027Y1076476D1*
X1608779Y1086089D1*
X1612053Y1095536D1*
X1615840Y1104790D1*
X1620126Y1113824D1*
X1624900Y1122609D1*
X1630148Y1131120D1*
X1635854Y1139331D1*
X1642000Y1147218D1*
X1648568Y1154756D1*
X1655539Y1161925D1*
X1662891Y1168701D1*
X1670603Y1175065D1*
X1678652Y1180997D1*
X1687013Y1186480D1*
X1695662Y1191498D1*
X1704572Y1196035D1*
X1713717Y1200078D1*
X1723069Y1203615D1*
X1732601Y1206635D1*
X1742284Y1209129D1*
X1752088Y1211089D1*
X1761986Y1212510D1*
X1771946Y1213388D1*
X1781939Y1213720D1*
X1791935Y1213504D1*
X1801905Y1212742D1*
X1811818Y1211436D1*
X1821645Y1209589D1*
X1831356Y1207208D1*
X1840922Y1204299D1*
X1850315Y1200871D1*
X1859506Y1196935D1*
X1868468Y1192502D1*
X1877175Y1187585D1*
X1885599Y1182199D1*
X1893716Y1176360D1*
X1901501Y1170086D1*
X1908932Y1163396D1*
X1915986Y1156309D1*
X1922641Y1148847D1*
X1928878Y1141033D1*
X1934679Y1132888D1*
X1940025Y1124439D1*
X1944901Y1115710D1*
X1949292Y1106727D1*
X1953186Y1097517D1*
X1956569Y1088108D1*
X1959433Y1078528D1*
X1961769Y1068806D1*
X1963000Y1062341D1*
Y1476582D1*
X1961362Y1468319D1*
X1958924Y1458622D1*
X1955960Y1449072D1*
X1952478Y1439700D1*
X1948488Y1430531D1*
X1944003Y1421595D1*
X1939035Y1412918D1*
X1933601Y1404525D1*
X1927715Y1396442D1*
X1921396Y1388693D1*
X1914663Y1381301D1*
X1907535Y1374289D1*
X1900035Y1367677D1*
X1892184Y1361485D1*
X1884006Y1355732D1*
X1875525Y1350435D1*
X1866768Y1345610D1*
X1857760Y1341271D1*
X1848528Y1337431D1*
X1839099Y1334102D1*
X1829503Y1331294D1*
X1819768Y1329015D1*
X1809922Y1327271D1*
X1799996Y1326069D1*
X1790019Y1325412D1*
X1780020Y1325301D1*
X1770031Y1325738D1*
X1760081Y1326720D1*
X1750199Y1328245D1*
X1740416Y1330309D1*
X1730760Y1332904D1*
X1721260Y1336024D1*
X1711945Y1339659D1*
X1702843Y1343797D1*
X1693981Y1348428D1*
X1685386Y1353536D1*
X1677083Y1359107D1*
X1669097Y1365123D1*
X1661452Y1371568D1*
X1654171Y1378421D1*
X1647276Y1385662D1*
X1640787Y1393269D1*
X1634724Y1401220D1*
X1629105Y1409491D1*
X1623947Y1418056D1*
X1619266Y1426891D1*
X1615074Y1435969D1*
X1611385Y1445262D1*
X1608210Y1454744D1*
X1605559Y1464384D1*
X1603439Y1474156D1*
X1601856Y1484029D1*
X1600816Y1493973D1*
X1600322Y1503960D1*
X1600374Y1513958D1*
X1600974Y1523939D1*
X1602118Y1533872D1*
X1603804Y1543728D1*
X1606027Y1553476D1*
X1608779Y1563089D1*
X1612053Y1572536D1*
X1615840Y1581790D1*
X1620126Y1590824D1*
X1624900Y1599609D1*
X1630148Y1608120D1*
X1635854Y1616331D1*
X1642000Y1624218D1*
X1648568Y1631756D1*
X1655539Y1638925D1*
X1662891Y1645701D1*
X1670603Y1652065D1*
X1678652Y1657997D1*
X1687013Y1663480D1*
X1695662Y1668498D1*
X1704572Y1673035D1*
X1713717Y1677078D1*
X1723069Y1680615D1*
X1732601Y1683635D1*
X1742284Y1686129D1*
X1752088Y1688089D1*
X1761986Y1689510D1*
X1771946Y1690388D1*
X1781939Y1690720D1*
X1791935Y1690504D1*
X1801905Y1689742D1*
X1811818Y1688436D1*
X1821645Y1686589D1*
X1831356Y1684208D1*
X1840922Y1681299D1*
X1850315Y1677871D1*
X1859506Y1673935D1*
X1868468Y1669502D1*
X1877175Y1664585D1*
X1885599Y1659199D1*
X1893716Y1653360D1*
X1901501Y1647086D1*
X1908932Y1640396D1*
X1915986Y1633309D1*
X1922641Y1625847D1*
X1928878Y1618033D1*
X1934679Y1609888D1*
X1940025Y1601439D1*
X1944901Y1592710D1*
X1949292Y1583727D1*
X1953186Y1574517D1*
X1956569Y1565108D1*
X1959433Y1555528D1*
X1961769Y1545806D1*
X1963000Y1539341D1*
Y1937559D1*
X1961362Y1929319D1*
X1958924Y1919622D1*
X1955960Y1910072D1*
X1952478Y1900700D1*
X1948488Y1891531D1*
X1944003Y1882595D1*
X1939035Y1873918D1*
X1933601Y1865525D1*
X1927715Y1857442D1*
X1921396Y1849693D1*
X1914663Y1842301D1*
X1907535Y1835289D1*
X1900035Y1828677D1*
X1892184Y1822485D1*
X1884006Y1816732D1*
X1875525Y1811435D1*
X1866768Y1806610D1*
X1857760Y1802271D1*
X1848528Y1798431D1*
X1839099Y1795102D1*
X1829503Y1792294D1*
X1819768Y1790015D1*
X1809922Y1788271D1*
X1799996Y1787069D1*
X1790019Y1786412D1*
X1780020Y1786301D1*
X1770031Y1786738D1*
X1760081Y1787720D1*
X1750199Y1789245D1*
X1740416Y1791309D1*
X1730760Y1793904D1*
X1721260Y1797024D1*
X1711945Y1800659D1*
X1702843Y1804797D1*
X1693981Y1809428D1*
X1685386Y1814536D1*
X1677083Y1820107D1*
X1669097Y1826123D1*
X1661452Y1832568D1*
X1654171Y1839421D1*
X1647276Y1846662D1*
X1640787Y1854269D1*
X1634724Y1862220D1*
X1629105Y1870491D1*
X1623947Y1879056D1*
X1619266Y1887891D1*
X1615074Y1896969D1*
X1611385Y1906262D1*
X1608210Y1915744D1*
X1605559Y1925384D1*
X1603439Y1935156D1*
X1601856Y1945029D1*
X1600816Y1954973D1*
X1600322Y1964960D1*
X1600374Y1974958D1*
X1600974Y1984939D1*
X1602118Y1994872D1*
X1603804Y2004728D1*
X1606027Y2014476D1*
X1608779Y2024089D1*
X1612053Y2033536D1*
X1615840Y2042790D1*
X1620126Y2051824D1*
X1624900Y2060609D1*
X1630148Y2069120D1*
X1635854Y2077331D1*
X1642000Y2085218D1*
X1648568Y2092756D1*
X1655539Y2099925D1*
X1662891Y2106701D1*
X1670603Y2113065D1*
X1678652Y2118997D1*
X1687013Y2124480D1*
X1695662Y2129498D1*
X1704572Y2134035D1*
X1713717Y2138078D1*
X1723069Y2141615D1*
X1732601Y2144635D1*
X1742284Y2147129D1*
X1752088Y2149089D1*
X1761986Y2150510D1*
X1771946Y2151388D1*
X1781939Y2151720D1*
X1791935Y2151504D1*
X1801905Y2150742D1*
X1811818Y2149436D1*
X1821645Y2147589D1*
X1831356Y2145208D1*
X1840922Y2142299D1*
X1850315Y2138871D1*
X1859506Y2134935D1*
X1868468Y2130502D1*
X1877175Y2125585D1*
X1885599Y2120199D1*
X1893716Y2114360D1*
X1901501Y2108086D1*
X1908932Y2101396D1*
X1915986Y2094309D1*
X1922641Y2086847D1*
X1928878Y2079033D1*
X1934679Y2070888D1*
X1940025Y2062439D1*
X1944901Y2053710D1*
X1949292Y2044727D1*
X1953186Y2035517D1*
X1956569Y2026108D1*
X1959433Y2016528D1*
X1961769Y2006806D1*
X1963000Y2000341D1*
Y2412559D1*
X1961362Y2404319D1*
X1958924Y2394622D1*
X1955960Y2385072D1*
X1952478Y2375700D1*
X1948488Y2366531D1*
X1944003Y2357595D1*
X1939035Y2348918D1*
X1933601Y2340525D1*
X1927715Y2332442D1*
X1921396Y2324693D1*
X1914663Y2317301D1*
X1907535Y2310289D1*
X1900035Y2303677D1*
X1892184Y2297485D1*
X1884006Y2291732D1*
X1875525Y2286435D1*
X1866768Y2281610D1*
X1857760Y2277271D1*
X1848528Y2273431D1*
X1839099Y2270102D1*
X1829503Y2267294D1*
X1819768Y2265015D1*
X1809922Y2263271D1*
X1799996Y2262069D1*
X1790019Y2261412D1*
X1780020Y2261301D1*
X1770031Y2261738D1*
X1760081Y2262720D1*
X1750199Y2264245D1*
X1740416Y2266309D1*
X1730760Y2268904D1*
X1721260Y2272024D1*
X1711945Y2275659D1*
X1702843Y2279797D1*
X1693981Y2284428D1*
X1685386Y2289536D1*
X1677083Y2295107D1*
X1669097Y2301123D1*
X1661452Y2307568D1*
X1654171Y2314421D1*
X1647276Y2321662D1*
X1640787Y2329269D1*
X1634724Y2337220D1*
X1629105Y2345491D1*
X1623947Y2354056D1*
X1619266Y2362891D1*
X1615074Y2371969D1*
X1611385Y2381262D1*
X1608210Y2390744D1*
X1605559Y2400384D1*
X1603439Y2410156D1*
X1601856Y2420029D1*
X1600816Y2429973D1*
X1600322Y2439960D1*
X1600374Y2449958D1*
X1600974Y2459939D1*
X1602118Y2469872D1*
X1603804Y2479728D1*
X1606027Y2489476D1*
X1608779Y2499089D1*
X1612053Y2508536D1*
X1615840Y2517790D1*
X1620126Y2526824D1*
X1624900Y2535609D1*
X1630148Y2544120D1*
X1635854Y2552331D1*
X1642000Y2560218D1*
X1648568Y2567756D1*
X1655539Y2574925D1*
X1662891Y2581701D1*
X1670603Y2588065D1*
X1678652Y2593997D1*
X1687013Y2599480D1*
X1695662Y2604498D1*
X1704572Y2609035D1*
X1713717Y2613078D1*
X1723069Y2616615D1*
X1732601Y2619635D1*
X1742284Y2622129D1*
X1752088Y2624089D1*
X1761986Y2625510D1*
X1771946Y2626388D1*
X1781939Y2626720D1*
X1791935Y2626504D1*
X1801905Y2625742D1*
X1811818Y2624436D1*
X1821645Y2622589D1*
X1831356Y2620208D1*
X1840922Y2617299D1*
X1850315Y2613871D1*
X1859506Y2609935D1*
X1868468Y2605502D1*
X1877175Y2600585D1*
X1885599Y2595199D1*
X1893716Y2589360D1*
X1901501Y2583086D1*
X1908932Y2576396D1*
X1915986Y2569309D1*
X1922641Y2561847D1*
X1928878Y2554033D1*
X1934679Y2545888D1*
X1940025Y2537439D1*
X1944901Y2528710D1*
X1949292Y2519727D1*
X1953186Y2510517D1*
X1956569Y2501108D1*
X1959433Y2491528D1*
X1961769Y2481806D1*
X1963000Y2475341D1*
Y5229277D1*
X414997Y5229259D1*
X415000Y2475412D1*
X416849Y2484617D1*
X419337Y2494301D1*
X422352Y2503835D1*
X425883Y2513189D1*
X429921Y2522336D1*
X434453Y2531249D1*
X439466Y2539900D1*
X444945Y2548264D1*
X450873Y2556316D1*
X457232Y2564032D1*
X464004Y2571388D1*
X471169Y2578363D1*
X478704Y2584936D1*
X486587Y2591086D1*
X494795Y2596796D1*
X503303Y2602048D1*
X512086Y2606828D1*
X521117Y2611119D1*
X530369Y2614911D1*
X539814Y2618190D1*
X549425Y2620948D1*
X559173Y2623176D1*
X569027Y2624867D1*
X578960Y2626017D1*
X588940Y2626622D1*
X598939Y2626680D1*
X608925Y2626191D1*
X618871Y2625157D1*
X628744Y2623580D1*
X638517Y2621465D1*
X648159Y2618819D1*
X657642Y2615650D1*
X666938Y2611966D1*
X676018Y2607780D1*
X684855Y2603103D1*
X693424Y2597949D1*
X701697Y2592335D1*
X709652Y2586277D1*
X717263Y2579792D1*
X724507Y2572901D1*
X731364Y2565624D1*
X737813Y2557983D1*
X743834Y2550000D1*
X749410Y2541700D1*
X754523Y2533108D1*
X759158Y2524248D1*
X763302Y2515149D1*
X766942Y2505836D1*
X770067Y2496338D1*
X772668Y2486683D1*
X774736Y2476901D1*
X776267Y2467020D1*
X777255Y2457070D1*
X777697Y2447081D1*
X777654Y2439001D1*
X777107Y2429017D1*
X776015Y2419078D1*
X774381Y2409214D1*
X772210Y2399454D1*
X769508Y2389827D1*
X766283Y2380362D1*
X762546Y2371088D1*
X758306Y2362033D1*
X753578Y2353222D1*
X748375Y2344684D1*
X742713Y2336443D1*
X736608Y2328524D1*
X730080Y2320951D1*
X723147Y2313746D1*
X715830Y2306932D1*
X708151Y2300527D1*
X700134Y2294553D1*
X691802Y2289026D1*
X683180Y2283963D1*
X674294Y2279379D1*
X665170Y2275288D1*
X655836Y2271702D1*
X646320Y2268632D1*
X636651Y2266088D1*
X626857Y2264076D1*
X616967Y2262602D1*
X607012Y2261672D1*
X597020Y2261288D1*
X587023Y2261451D1*
X577049Y2262161D1*
X567130Y2263415D1*
X557293Y2265210D1*
X547570Y2267540D1*
X537988Y2270399D1*
X528578Y2273777D1*
X519366Y2277666D1*
X510381Y2282052D1*
X501649Y2286923D1*
X493196Y2292265D1*
X485049Y2298060D1*
X477230Y2304293D1*
X469765Y2310945D1*
X462674Y2317994D1*
X455980Y2325421D1*
X449701Y2333203D1*
X443858Y2341317D1*
X438468Y2349738D1*
X433546Y2358442D1*
X429108Y2367401D1*
X425166Y2376590D1*
X421733Y2385981D1*
X418819Y2395546D1*
X416432Y2405256D1*
X414999Y2412676D1*
X415000Y2000412D1*
X416849Y2009617D1*
X419337Y2019301D1*
X422352Y2028835D1*
X425883Y2038189D1*
X429921Y2047336D1*
X434453Y2056249D1*
X439466Y2064900D1*
X444945Y2073264D1*
X450873Y2081316D1*
X457232Y2089032D1*
X464004Y2096388D1*
X471169Y2103363D1*
X478704Y2109936D1*
X486587Y2116086D1*
X494795Y2121796D1*
X503303Y2127048D1*
X512086Y2131828D1*
X521117Y2136119D1*
X530369Y2139911D1*
X539814Y2143190D1*
X549425Y2145948D1*
X559173Y2148176D1*
X569027Y2149867D1*
X578960Y2151017D1*
X588940Y2151622D1*
X598939Y2151680D1*
X608925Y2151191D1*
X618871Y2150157D1*
X628744Y2148580D1*
X638517Y2146465D1*
X648159Y2143819D1*
X657642Y2140650D1*
X666938Y2136966D1*
X676018Y2132780D1*
X684855Y2128103D1*
X693424Y2122949D1*
X701697Y2117335D1*
X709652Y2111277D1*
X717263Y2104792D1*
X724507Y2097901D1*
X731364Y2090624D1*
X737813Y2082983D1*
X743834Y2075000D1*
X749410Y2066700D1*
X754523Y2058108D1*
X759158Y2049248D1*
X763302Y2040149D1*
X766942Y2030836D1*
X770067Y2021338D1*
X772668Y2011683D1*
X774736Y2001901D1*
X776267Y1992020D1*
X777255Y1982070D1*
X777697Y1972081D1*
X777654Y1964001D1*
X777107Y1954017D1*
X776015Y1944078D1*
X774381Y1934214D1*
X772210Y1924454D1*
X769508Y1914827D1*
X766283Y1905362D1*
X762546Y1896088D1*
X758306Y1887033D1*
X753578Y1878222D1*
X748375Y1869684D1*
X742713Y1861443D1*
X736608Y1853524D1*
X730080Y1845951D1*
X723147Y1838746D1*
X715830Y1831932D1*
X708151Y1825527D1*
X700134Y1819553D1*
X691802Y1814026D1*
X683180Y1808963D1*
X674294Y1804379D1*
X665170Y1800288D1*
X655836Y1796702D1*
X646320Y1793632D1*
X636651Y1791088D1*
X626857Y1789076D1*
X616967Y1787602D1*
X607012Y1786672D1*
X597020Y1786288D1*
X587023Y1786451D1*
X577049Y1787161D1*
X567130Y1788415D1*
X557293Y1790210D1*
X547570Y1792540D1*
X537988Y1795399D1*
X528578Y1798777D1*
X519366Y1802666D1*
X510381Y1807052D1*
X501649Y1811923D1*
X493196Y1817265D1*
X485049Y1823060D1*
X477230Y1829293D1*
X469765Y1835945D1*
X462674Y1842994D1*
X455980Y1850421D1*
X449701Y1858203D1*
X443858Y1866317D1*
X438468Y1874738D1*
X433546Y1883442D1*
X429108Y1892401D1*
X425166Y1901590D1*
X421733Y1910981D1*
X418819Y1920546D1*
X416432Y1930256D1*
X414999Y1937676D1*
X415000Y1539436D1*
X416849Y1548617D1*
X419337Y1558301D1*
X422352Y1567835D1*
X425883Y1577189D1*
X429921Y1586336D1*
X434453Y1595249D1*
X439466Y1603900D1*
X444945Y1612264D1*
X450873Y1620316D1*
X457232Y1628032D1*
X464004Y1635388D1*
X471169Y1642363D1*
X478704Y1648936D1*
X486587Y1655086D1*
X494795Y1660796D1*
X503303Y1666048D1*
X512086Y1670828D1*
X521117Y1675119D1*
X530369Y1678911D1*
X539814Y1682190D1*
X549425Y1684948D1*
X559173Y1687176D1*
X569027Y1688867D1*
X578960Y1690017D1*
X588940Y1690622D1*
X598939Y1690680D1*
X608925Y1690191D1*
X618871Y1689157D1*
X628744Y1687580D1*
X638517Y1685465D1*
X648159Y1682819D1*
X657642Y1679650D1*
X666938Y1675966D1*
X676018Y1671780D1*
X684855Y1667103D1*
X693424Y1661949D1*
X701697Y1656335D1*
X709652Y1650277D1*
X717263Y1643792D1*
X724507Y1636901D1*
X731364Y1629624D1*
X737813Y1621983D1*
X743834Y1614000D1*
X749410Y1605700D1*
X754523Y1597108D1*
X759158Y1588248D1*
X763302Y1579149D1*
X766942Y1569836D1*
X770067Y1560338D1*
X772668Y1550683D1*
X774736Y1540901D1*
X776267Y1531020D1*
X777255Y1521070D1*
X777697Y1511081D1*
X777654Y1503001D1*
X777107Y1493017D1*
X776015Y1483078D1*
X774381Y1473214D1*
X772210Y1463454D1*
X769508Y1453827D1*
X766283Y1444362D1*
X762546Y1435088D1*
X758306Y1426033D1*
X753578Y1417222D1*
X748375Y1408684D1*
X742713Y1400443D1*
X736608Y1392524D1*
X730080Y1384951D1*
X723147Y1377746D1*
X715830Y1370932D1*
X708151Y1364527D1*
X700134Y1358553D1*
X691802Y1353026D1*
X683180Y1347963D1*
X674294Y1343379D1*
X665170Y1339288D1*
X655836Y1335702D1*
X646320Y1332632D1*
X636651Y1330088D1*
X626857Y1328076D1*
X616967Y1326602D1*
X607012Y1325672D1*
X597020Y1325288D1*
X587023Y1325451D1*
X577049Y1326161D1*
X567130Y1327415D1*
X557293Y1329210D1*
X547570Y1331540D1*
X537988Y1334399D1*
X528578Y1337777D1*
X519366Y1341666D1*
X510381Y1346052D1*
X501649Y1350923D1*
X493196Y1356265D1*
X485049Y1362060D1*
X477230Y1368293D1*
X469765Y1374945D1*
X462674Y1381994D1*
X455980Y1389421D1*
X449701Y1397203D1*
X443858Y1405317D1*
X438468Y1413738D1*
X433546Y1422442D1*
X429108Y1431401D1*
X425166Y1440590D1*
X421733Y1449981D1*
X418819Y1459546D1*
X416432Y1469256D1*
X414999Y1476676D1*
X415000Y1062444D1*
X416849Y1071617D1*
X419337Y1081301D1*
X422352Y1090835D1*
X425883Y1100189D1*
X429921Y1109336D1*
X434453Y1118249D1*
X439466Y1126900D1*
X444945Y1135264D1*
X450873Y1143316D1*
X457232Y1151032D1*
X464004Y1158388D1*
X471169Y1165363D1*
X478704Y1171936D1*
X486587Y1178086D1*
X494795Y1183796D1*
X503303Y1189048D1*
X512086Y1193828D1*
X521117Y1198119D1*
X530369Y1201911D1*
X539814Y1205190D1*
X549425Y1207948D1*
X559173Y1210176D1*
X569027Y1211867D1*
X578960Y1213017D1*
X588940Y1213622D1*
X598939Y1213680D1*
X608925Y1213191D1*
X618871Y1212157D1*
X628744Y1210580D1*
X638517Y1208465D1*
X648159Y1205819D1*
X657642Y1202650D1*
X666938Y1198966D1*
X676018Y1194780D1*
X684855Y1190103D1*
X693424Y1184949D1*
X701697Y1179335D1*
X709652Y1173277D1*
X717263Y1166792D1*
X724507Y1159901D1*
X731364Y1152624D1*
X737813Y1144983D1*
X743834Y1137000D1*
X749410Y1128700D1*
X754523Y1120108D1*
X759158Y1111248D1*
X763302Y1102149D1*
X766942Y1092836D1*
X770067Y1083338D1*
X772668Y1073683D1*
X774736Y1063901D1*
X776267Y1054020D1*
X777255Y1044070D1*
X777697Y1034081D1*
X777654Y1026001D1*
X1171654Y1503001D2*
X1171107Y1493017D1*
X1170015Y1483078D1*
X1168381Y1473214D1*
X1166210Y1463454D1*
X1163508Y1453827D1*
X1160283Y1444362D1*
X1156546Y1435088D1*
X1152306Y1426033D1*
X1147578Y1417222D1*
X1142375Y1408684D1*
X1136713Y1400443D1*
X1130608Y1392524D1*
X1124080Y1384951D1*
X1117147Y1377746D1*
X1109830Y1370932D1*
X1102151Y1364527D1*
X1094134Y1358553D1*
X1085802Y1353026D1*
X1077180Y1347963D1*
X1068294Y1343379D1*
X1059170Y1339288D1*
X1049836Y1335702D1*
X1040320Y1332632D1*
X1030651Y1330088D1*
X1020857Y1328076D1*
X1010967Y1326602D1*
X1001012Y1325672D1*
X991020Y1325288D1*
X981023Y1325451D1*
X971049Y1326161D1*
X961130Y1327415D1*
X951293Y1329210D1*
X941570Y1331540D1*
X931988Y1334399D1*
X922578Y1337777D1*
X913366Y1341666D1*
X904381Y1346052D1*
X895649Y1350923D1*
X887196Y1356265D1*
X879049Y1362060D1*
X871230Y1368293D1*
X863765Y1374945D1*
X856674Y1381994D1*
X849980Y1389421D1*
X843701Y1397203D1*
X837858Y1405317D1*
X832468Y1413738D1*
X827546Y1422442D1*
X823108Y1431401D1*
X819166Y1440590D1*
X815733Y1449981D1*
X812819Y1459546D1*
X810432Y1469256D1*
X808580Y1479081D1*
X807268Y1488994D1*
X806501Y1498963D1*
X806280Y1508959D1*
X806606Y1518953D1*
X807478Y1528913D1*
X808894Y1538811D1*
X810849Y1548617D1*
X813337Y1558301D1*
X816352Y1567835D1*
X819883Y1577189D1*
X823921Y1586336D1*
X828453Y1595249D1*
X833466Y1603900D1*
X838945Y1612264D1*
X844873Y1620316D1*
X851232Y1628032D1*
X858004Y1635388D1*
X865169Y1642363D1*
X872704Y1648936D1*
X880587Y1655086D1*
X888795Y1660796D1*
X897303Y1666048D1*
X906086Y1670828D1*
X915117Y1675119D1*
X924369Y1678911D1*
X933814Y1682190D1*
X943425Y1684948D1*
X953173Y1687176D1*
X963027Y1688867D1*
X972960Y1690017D1*
X982940Y1690622D1*
X992939Y1690680D1*
X1002925Y1690191D1*
X1012871Y1689157D1*
X1022744Y1687580D1*
X1032517Y1685465D1*
X1042159Y1682819D1*
X1051642Y1679650D1*
X1060938Y1675966D1*
X1070018Y1671780D1*
X1078855Y1667103D1*
X1087424Y1661949D1*
X1095697Y1656335D1*
X1103652Y1650277D1*
X1105622Y1648644D1*
X1104715Y1651881D1*
X1100942Y1675083D1*
X1100959Y1677500D1*
X1104744Y1700658D1*
X1105350Y1702997D1*
X1106315Y1705212D1*
X1117422Y1725965D1*
X1118884Y1727889D1*
X1136016Y1744352D1*
X1137839Y1745849D1*
X1139921Y1747075D1*
X1161410Y1757516D1*
X1163713Y1758247D1*
X1188665Y1762045D1*
X1191081Y1762061D1*
X1215037Y1758477D1*
X1217243Y1757977D1*
X1219491Y1757091D1*
X1241035Y1746537D1*
X1243021Y1745160D1*
X1260269Y1728716D1*
X1261871Y1726907D1*
X1263171Y1724870D1*
X1274228Y1703967D1*
X1274990Y1701674D1*
X1278874Y1678490D1*
X1279047Y1676079D1*
X1278840Y1673671D1*
X1275205Y1651709D1*
X1276603Y1652065D1*
X1284652Y1657997D1*
X1293013Y1663480D1*
X1301662Y1668498D1*
X1310572Y1673035D1*
X1319717Y1677078D1*
X1329069Y1680615D1*
X1338601Y1683635D1*
X1348284Y1686129D1*
X1358088Y1688089D1*
X1367986Y1689510D1*
X1377946Y1690388D1*
X1387939Y1690720D1*
X1397935Y1690504D1*
X1407905Y1689742D1*
X1417818Y1688436D1*
X1427645Y1686589D1*
X1437356Y1684208D1*
X1446922Y1681299D1*
X1456315Y1677871D1*
X1465506Y1673935D1*
X1474468Y1669502D1*
X1483175Y1664585D1*
X1491599Y1659199D1*
X1499716Y1653360D1*
X1507501Y1647086D1*
X1514932Y1640396D1*
X1521986Y1633309D1*
X1528641Y1625847D1*
X1534878Y1618033D1*
X1540679Y1609888D1*
X1546025Y1601439D1*
X1550901Y1592710D1*
X1555292Y1583727D1*
X1559186Y1574517D1*
X1562569Y1565108D1*
X1565433Y1555528D1*
X1567769Y1545806D1*
X1569569Y1535971D1*
X1570829Y1526052D1*
X1571544Y1516079D1*
X1571723Y1508000D1*
X1571449Y1498005D1*
X1570629Y1488040D1*
X1569266Y1478135D1*
X1567362Y1468319D1*
X1564924Y1458622D1*
X1561960Y1449072D1*
X1558478Y1439700D1*
X1554488Y1430531D1*
X1550003Y1421595D1*
X1545035Y1412918D1*
X1539601Y1404525D1*
X1533715Y1396442D1*
X1527396Y1388693D1*
X1520663Y1381301D1*
X1513535Y1374289D1*
X1506035Y1367677D1*
X1498184Y1361485D1*
X1490006Y1355732D1*
X1481525Y1350435D1*
X1472768Y1345610D1*
X1463760Y1341271D1*
X1454528Y1337431D1*
X1445099Y1334102D1*
X1435503Y1331294D1*
X1425768Y1329015D1*
X1415922Y1327271D1*
X1405996Y1326069D1*
X1396019Y1325412D1*
X1386020Y1325301D1*
X1376031Y1325738D1*
X1366081Y1326720D1*
X1356199Y1328245D1*
X1346416Y1330309D1*
X1336760Y1332904D1*
X1327260Y1336024D1*
X1317945Y1339659D1*
X1308843Y1343797D1*
X1299981Y1348428D1*
X1291386Y1353536D1*
X1283083Y1359107D1*
X1275097Y1365123D1*
X1267452Y1371568D1*
X1260171Y1378421D1*
X1253276Y1385662D1*
X1246787Y1393269D1*
X1240724Y1401220D1*
X1235105Y1409491D1*
X1229947Y1418056D1*
X1225266Y1426891D1*
X1221074Y1435969D1*
X1217385Y1445262D1*
X1214210Y1454744D1*
X1211559Y1464384D1*
X1209439Y1474156D1*
X1207856Y1484029D1*
X1206816Y1493973D1*
X1206322Y1503960D1*
X1206374Y1513958D1*
X1206974Y1523939D1*
X1208118Y1533872D1*
X1209804Y1543728D1*
X1212027Y1553476D1*
X1214779Y1563089D1*
X1218053Y1572536D1*
X1221840Y1581790D1*
X1226126Y1590824D1*
X1230900Y1599609D1*
X1231953Y1601369D1*
X1218540Y1594855D1*
X1216236Y1594124D1*
X1191285Y1590326D1*
X1188868Y1590310D1*
X1164912Y1593894D1*
X1162707Y1594394D1*
X1160458Y1595280D1*
X1145273Y1602686D1*
X1150901Y1592710D1*
X1155292Y1583727D1*
X1159186Y1574517D1*
X1162569Y1565108D1*
X1165433Y1555528D1*
X1167769Y1545806D1*
X1169569Y1535971D1*
X1170829Y1526052D1*
X1171544Y1516079D1*
X1171723Y1508000D1*
X1171654Y1503001D1*
Y1964001D2*
X1171107Y1954017D1*
X1170015Y1944078D1*
X1168381Y1934214D1*
X1166210Y1924454D1*
X1163508Y1914827D1*
X1160283Y1905362D1*
X1156546Y1896088D1*
X1152306Y1887033D1*
X1147578Y1878222D1*
X1142375Y1869684D1*
X1136713Y1861443D1*
X1130608Y1853524D1*
X1124080Y1845951D1*
X1117147Y1838746D1*
X1109830Y1831932D1*
X1102151Y1825527D1*
X1094134Y1819553D1*
X1085802Y1814026D1*
X1077180Y1808963D1*
X1068294Y1804379D1*
X1059170Y1800288D1*
X1049836Y1796702D1*
X1040320Y1793632D1*
X1030651Y1791088D1*
X1020857Y1789076D1*
X1010967Y1787602D1*
X1001012Y1786672D1*
X991020Y1786288D1*
X981023Y1786451D1*
X971049Y1787161D1*
X961130Y1788415D1*
X951293Y1790210D1*
X941570Y1792540D1*
X931988Y1795399D1*
X922578Y1798777D1*
X913366Y1802666D1*
X904381Y1807052D1*
X895649Y1811923D1*
X887196Y1817265D1*
X879049Y1823060D1*
X871230Y1829293D1*
X863765Y1835945D1*
X856674Y1842994D1*
X849980Y1850421D1*
X843701Y1858203D1*
X837858Y1866317D1*
X832468Y1874738D1*
X827546Y1883442D1*
X823108Y1892401D1*
X819166Y1901590D1*
X815733Y1910981D1*
X812819Y1920546D1*
X810432Y1930256D1*
X808580Y1940081D1*
X807268Y1949994D1*
X806501Y1959963D1*
X806280Y1969959D1*
X806606Y1979953D1*
X807478Y1989913D1*
X808894Y1999811D1*
X810849Y2009617D1*
X813337Y2019301D1*
X816352Y2028835D1*
X819883Y2038189D1*
X823921Y2047336D1*
X828453Y2056249D1*
X833466Y2064900D1*
X838945Y2073264D1*
X844873Y2081316D1*
X851232Y2089032D1*
X858004Y2096388D1*
X865169Y2103363D1*
X872704Y2109936D1*
X880587Y2116086D1*
X888795Y2121796D1*
X897303Y2127048D1*
X906086Y2131828D1*
X915117Y2136119D1*
X924369Y2139911D1*
X933814Y2143190D1*
X943425Y2145948D1*
X953173Y2148176D1*
X963027Y2149867D1*
X972960Y2151017D1*
X982940Y2151622D1*
X992939Y2151680D1*
X1002925Y2151191D1*
X1012871Y2150157D1*
X1022744Y2148580D1*
X1032517Y2146465D1*
X1042159Y2143819D1*
X1051642Y2140650D1*
X1060938Y2136966D1*
X1070018Y2132780D1*
X1078855Y2128103D1*
X1087424Y2122949D1*
X1095697Y2117335D1*
X1103652Y2111277D1*
X1106283Y2109211D1*
X1104624Y2112459D1*
X1103861Y2114752D1*
X1099978Y2137937D1*
X1099805Y2140348D1*
X1100011Y2142755D1*
X1103903Y2165895D1*
X1104691Y2168179D1*
X1115710Y2188979D1*
X1117017Y2191011D1*
X1118626Y2192814D1*
X1135778Y2209173D1*
X1137758Y2210559D1*
X1159350Y2221142D1*
X1161449Y2221983D1*
X1163802Y2222531D1*
X1187567Y2226101D1*
X1189983Y2226117D1*
X1213939Y2222533D1*
X1216145Y2222032D1*
X1218393Y2221147D1*
X1239937Y2210593D1*
X1241923Y2209216D1*
X1259171Y2192772D1*
X1260773Y2190963D1*
X1262072Y2188926D1*
X1273129Y2168023D1*
X1273892Y2165730D1*
X1277775Y2142545D1*
X1277948Y2140135D1*
X1277742Y2137727D1*
X1273850Y2114588D1*
X1273063Y2112303D1*
X1271188Y2108680D1*
X1280587Y2116086D1*
X1288795Y2121796D1*
X1297303Y2127048D1*
X1306086Y2131828D1*
X1315117Y2136119D1*
X1324369Y2139911D1*
X1333814Y2143190D1*
X1343425Y2145948D1*
X1353173Y2148176D1*
X1363027Y2149867D1*
X1372960Y2151017D1*
X1382940Y2151622D1*
X1392939Y2151680D1*
X1402925Y2151191D1*
X1412871Y2150157D1*
X1422744Y2148580D1*
X1432517Y2146465D1*
X1442159Y2143819D1*
X1451642Y2140650D1*
X1460938Y2136966D1*
X1470018Y2132780D1*
X1478855Y2128103D1*
X1487424Y2122949D1*
X1495697Y2117335D1*
X1503652Y2111277D1*
X1511263Y2104792D1*
X1518507Y2097901D1*
X1525364Y2090624D1*
X1531813Y2082983D1*
X1537834Y2075000D1*
X1543410Y2066700D1*
X1548523Y2058108D1*
X1553158Y2049248D1*
X1557302Y2040149D1*
X1560942Y2030836D1*
X1564067Y2021338D1*
X1566668Y2011683D1*
X1568736Y2001901D1*
X1570267Y1992020D1*
X1571255Y1982070D1*
X1571697Y1972081D1*
X1571654Y1964001D1*
X1571107Y1954017D1*
X1570015Y1944078D1*
X1568381Y1934214D1*
X1566210Y1924454D1*
X1563508Y1914827D1*
X1560283Y1905362D1*
X1556546Y1896088D1*
X1552306Y1887033D1*
X1547578Y1878222D1*
X1542375Y1869684D1*
X1536713Y1861443D1*
X1530608Y1853524D1*
X1524080Y1845951D1*
X1517147Y1838746D1*
X1509830Y1831932D1*
X1502151Y1825527D1*
X1494134Y1819553D1*
X1485802Y1814026D1*
X1477180Y1808963D1*
X1468294Y1804379D1*
X1459170Y1800288D1*
X1449836Y1796702D1*
X1440320Y1793632D1*
X1430651Y1791088D1*
X1420857Y1789076D1*
X1410967Y1787602D1*
X1401012Y1786672D1*
X1391020Y1786288D1*
X1381023Y1786451D1*
X1371049Y1787161D1*
X1361130Y1788415D1*
X1351293Y1790210D1*
X1341570Y1792540D1*
X1331988Y1795399D1*
X1322578Y1798777D1*
X1313366Y1802666D1*
X1304381Y1807052D1*
X1295649Y1811923D1*
X1287196Y1817265D1*
X1279049Y1823060D1*
X1271230Y1829293D1*
X1263765Y1835945D1*
X1256674Y1842994D1*
X1249980Y1850421D1*
X1243701Y1858203D1*
X1237858Y1866317D1*
X1232468Y1874738D1*
X1227546Y1883442D1*
X1223108Y1892401D1*
X1219166Y1901590D1*
X1215733Y1910981D1*
X1212819Y1920546D1*
X1210432Y1930256D1*
X1208580Y1940081D1*
X1207268Y1949994D1*
X1206501Y1959963D1*
X1206280Y1969959D1*
X1206606Y1979953D1*
X1207478Y1989913D1*
X1208894Y1999811D1*
X1210849Y2009617D1*
X1213337Y2019301D1*
X1216352Y2028835D1*
X1219883Y2038189D1*
X1223921Y2047336D1*
X1228453Y2056249D1*
X1233466Y2064900D1*
X1235111Y2067488D1*
X1217441Y2058911D1*
X1215138Y2058179D1*
X1190187Y2054382D1*
X1187770Y2054366D1*
X1163814Y2057949D1*
X1161609Y2058450D1*
X1159360Y2059336D1*
X1143017Y2067306D1*
X1148523Y2058108D1*
X1153158Y2049248D1*
X1157302Y2040149D1*
X1160942Y2030836D1*
X1164067Y2021338D1*
X1166668Y2011683D1*
X1168736Y2001901D1*
X1170267Y1992020D1*
X1171255Y1982070D1*
X1171697Y1972081D1*
X1171654Y1964001D1*
Y2439001D2*
X1171107Y2429017D1*
X1170015Y2419078D1*
X1168381Y2409214D1*
X1166210Y2399454D1*
X1163508Y2389827D1*
X1160283Y2380362D1*
X1156546Y2371088D1*
X1152306Y2362033D1*
X1147578Y2353222D1*
X1142375Y2344684D1*
X1136713Y2336443D1*
X1130608Y2328524D1*
X1124080Y2320951D1*
X1117147Y2313746D1*
X1109830Y2306932D1*
X1102151Y2300527D1*
X1094134Y2294553D1*
X1085802Y2289026D1*
X1077180Y2283963D1*
X1068294Y2279379D1*
X1059170Y2275288D1*
X1049836Y2271702D1*
X1040320Y2268632D1*
X1030651Y2266088D1*
X1020857Y2264076D1*
X1010967Y2262602D1*
X1001012Y2261672D1*
X991020Y2261288D1*
X981023Y2261451D1*
X971049Y2262161D1*
X961130Y2263415D1*
X951293Y2265210D1*
X941570Y2267540D1*
X931988Y2270399D1*
X922578Y2273777D1*
X913366Y2277666D1*
X904381Y2282052D1*
X895649Y2286923D1*
X887196Y2292265D1*
X879049Y2298060D1*
X871230Y2304293D1*
X863765Y2310945D1*
X856674Y2317994D1*
X849980Y2325421D1*
X843701Y2333203D1*
X837858Y2341317D1*
X832468Y2349738D1*
X827546Y2358442D1*
X823108Y2367401D1*
X819166Y2376590D1*
X815733Y2385981D1*
X812819Y2395546D1*
X810432Y2405256D1*
X808580Y2415081D1*
X807268Y2424994D1*
X806501Y2434963D1*
X806280Y2444959D1*
X806606Y2454953D1*
X807478Y2464913D1*
X808894Y2474811D1*
X810849Y2484617D1*
X813337Y2494301D1*
X816352Y2503835D1*
X819883Y2513189D1*
X823921Y2522336D1*
X828453Y2531249D1*
X833466Y2539900D1*
X838945Y2548264D1*
X844873Y2556316D1*
X851232Y2564032D1*
X858004Y2571388D1*
X865169Y2578363D1*
X872704Y2584936D1*
X880587Y2591086D1*
X888795Y2596796D1*
X897303Y2602048D1*
X906086Y2606828D1*
X915117Y2611119D1*
X924369Y2614911D1*
X933814Y2618190D1*
X943425Y2620948D1*
X953173Y2623176D1*
X963027Y2624867D1*
X972960Y2626017D1*
X982940Y2626622D1*
X992939Y2626680D1*
X1002925Y2626191D1*
X1012871Y2625157D1*
X1022744Y2623580D1*
X1032517Y2621465D1*
X1042159Y2618819D1*
X1051642Y2615650D1*
X1060938Y2611966D1*
X1070018Y2607780D1*
X1078855Y2603103D1*
X1087424Y2597949D1*
X1095697Y2592335D1*
X1103360Y2586506D1*
X1099918Y2607700D1*
X1099935Y2610117D1*
X1103720Y2633274D1*
X1104326Y2635614D1*
X1105290Y2637829D1*
X1116397Y2658582D1*
X1117860Y2660505D1*
X1134991Y2676968D1*
X1136815Y2678465D1*
X1138897Y2679692D1*
X1160386Y2690132D1*
X1162689Y2690864D1*
X1187640Y2694661D1*
X1190057Y2694677D1*
X1214013Y2691094D1*
X1216218Y2690593D1*
X1218467Y2689708D1*
X1240011Y2679154D1*
X1241997Y2677777D1*
X1259245Y2661333D1*
X1260847Y2659524D1*
X1262146Y2657487D1*
X1273204Y2636584D1*
X1273966Y2634291D1*
X1277849Y2611106D1*
X1278022Y2608696D1*
X1277816Y2606288D1*
X1274528Y2586420D1*
X1280587Y2591086D1*
X1288795Y2596796D1*
X1297303Y2602048D1*
X1306086Y2606828D1*
X1315117Y2611119D1*
X1324369Y2614911D1*
X1333814Y2618190D1*
X1343425Y2620948D1*
X1353173Y2623176D1*
X1363027Y2624867D1*
X1372960Y2626017D1*
X1382940Y2626622D1*
X1392939Y2626680D1*
X1402925Y2626191D1*
X1412871Y2625157D1*
X1422744Y2623580D1*
X1432517Y2621465D1*
X1442159Y2618819D1*
X1451642Y2615650D1*
X1460938Y2611966D1*
X1470018Y2607780D1*
X1478855Y2603103D1*
X1487424Y2597949D1*
X1495697Y2592335D1*
X1503652Y2586277D1*
X1511263Y2579792D1*
X1518507Y2572901D1*
X1525364Y2565624D1*
X1531813Y2557983D1*
X1537834Y2550000D1*
X1543410Y2541700D1*
X1548523Y2533108D1*
X1553158Y2524248D1*
X1557302Y2515149D1*
X1560942Y2505836D1*
X1564067Y2496338D1*
X1566668Y2486683D1*
X1568736Y2476901D1*
X1570267Y2467020D1*
X1571255Y2457070D1*
X1571697Y2447081D1*
X1571654Y2439001D1*
X1571107Y2429017D1*
X1570015Y2419078D1*
X1568381Y2409214D1*
X1566210Y2399454D1*
X1563508Y2389827D1*
X1560283Y2380362D1*
X1556546Y2371088D1*
X1552306Y2362033D1*
X1547578Y2353222D1*
X1542375Y2344684D1*
X1536713Y2336443D1*
X1530608Y2328524D1*
X1524080Y2320951D1*
X1517147Y2313746D1*
X1509830Y2306932D1*
X1502151Y2300527D1*
X1494134Y2294553D1*
X1485802Y2289026D1*
X1477180Y2283963D1*
X1468294Y2279379D1*
X1459170Y2275288D1*
X1449836Y2271702D1*
X1440320Y2268632D1*
X1430651Y2266088D1*
X1420857Y2264076D1*
X1410967Y2262602D1*
X1401012Y2261672D1*
X1391020Y2261288D1*
X1381023Y2261451D1*
X1371049Y2262161D1*
X1361130Y2263415D1*
X1351293Y2265210D1*
X1341570Y2267540D1*
X1331988Y2270399D1*
X1322578Y2273777D1*
X1313366Y2277666D1*
X1304381Y2282052D1*
X1295649Y2286923D1*
X1287196Y2292265D1*
X1279049Y2298060D1*
X1271230Y2304293D1*
X1263765Y2310945D1*
X1256674Y2317994D1*
X1249980Y2325421D1*
X1243701Y2333203D1*
X1237858Y2341317D1*
X1232468Y2349738D1*
X1227546Y2358442D1*
X1223108Y2367401D1*
X1219166Y2376590D1*
X1215733Y2385981D1*
X1212819Y2395546D1*
X1210432Y2405256D1*
X1208580Y2415081D1*
X1207268Y2424994D1*
X1206501Y2434963D1*
X1206280Y2444959D1*
X1206606Y2454953D1*
X1207478Y2464913D1*
X1208894Y2474811D1*
X1210849Y2484617D1*
X1213337Y2494301D1*
X1216352Y2503835D1*
X1219883Y2513189D1*
X1223921Y2522336D1*
X1228453Y2531249D1*
X1229629Y2533344D1*
X1217515Y2527472D1*
X1215212Y2526741D1*
X1190261Y2522944D1*
X1187844Y2522928D1*
X1163888Y2526511D1*
X1161683Y2527012D1*
X1159434Y2527897D1*
X1148523Y2533108D1*
X1153158Y2524248D1*
X1157302Y2515149D1*
X1160942Y2505836D1*
X1164067Y2496338D1*
X1166668Y2486683D1*
X1168736Y2476901D1*
X1170267Y2467020D1*
X1171255Y2457070D1*
X1171697Y2447081D1*
X1171654Y2439001D1*
X1247011Y2608813D2*
X1244237Y2625577D1*
X1236126Y2640821D1*
X1223347Y2653058D1*
X1207077Y2660995D1*
X1188945Y2663742D1*
X1170819Y2660992D1*
X1154569Y2653067D1*
X1141782Y2640833D1*
X1133664Y2625583D1*
X1130886Y2608790D1*
X1133664Y2592028D1*
X1141775Y2576784D1*
X1154554Y2564547D1*
X1170824Y2556610D1*
X1188956Y2553863D1*
X1207082Y2556613D1*
X1223332Y2564538D1*
X1236119Y2576772D1*
X1244237Y2592022D1*
X1247015Y2608815D1*
X1244237Y2625577D1*
X1272687Y2637683D2*
X1273630Y2635453D1*
X1274210Y2633107D1*
X1277812Y2611341D1*
X1246937Y2140251D2*
X1244163Y2157016D1*
X1236052Y2172260D1*
X1223273Y2184497D1*
X1207003Y2192434D1*
X1188871Y2195181D1*
X1170745Y2192432D1*
X1154495Y2184506D1*
X1141708Y2172272D1*
X1133590Y2157022D1*
X1130812Y2140229D1*
X1133590Y2123467D1*
X1141701Y2108223D1*
X1154480Y2095986D1*
X1170750Y2088049D1*
X1188883Y2085301D1*
X1207009Y2088051D1*
X1223258Y2095976D1*
X1236045Y2108210D1*
X1244163Y2123460D1*
X1246941Y2140254D1*
X1244163Y2157016D1*
X1272613Y2169122D2*
X1273556Y2166892D1*
X1274136Y2164546D1*
X1277738Y2142780D1*
X1248036Y1676196D2*
X1245262Y1692960D1*
X1237150Y1708204D1*
X1224371Y1720441D1*
X1208101Y1728378D1*
X1189969Y1731126D1*
X1171843Y1728376D1*
X1155593Y1720451D1*
X1142807Y1708217D1*
X1134688Y1692967D1*
X1131910Y1676173D1*
X1134688Y1659411D1*
X1142800Y1644167D1*
X1155578Y1631930D1*
X1171848Y1623993D1*
X1189981Y1621246D1*
X1208107Y1623995D1*
X1224357Y1631921D1*
X1237143Y1644154D1*
X1245261Y1659405D1*
X1248039Y1676198D1*
X1245262Y1692960D1*
X1273712Y1705066D2*
X1274654Y1702836D1*
X1275234Y1700490D1*
X1278836Y1678724D1*
X1246893Y1199391D2*
X1244119Y1216155D1*
X1236008Y1231399D1*
X1223229Y1243636D1*
X1206959Y1251573D1*
X1188826Y1254321D1*
X1170700Y1251571D1*
X1154451Y1243646D1*
X1141664Y1231412D1*
X1133546Y1216162D1*
X1130768Y1199368D1*
X1133546Y1182606D1*
X1141657Y1167362D1*
X1154436Y1155125D1*
X1170706Y1147188D1*
X1188838Y1144441D1*
X1206964Y1147190D1*
X1223214Y1155116D1*
X1236000Y1167349D1*
X1244119Y1182600D1*
X1246897Y1199393D1*
X1244119Y1216155D1*
X1272569Y1228261D2*
X1273512Y1226031D1*
X1274092Y1223685D1*
X1277694Y1201919D1*
X439020Y4828150D2*
X1940208Y4828103D1*
X1942595Y4827725D1*
X1944893Y4826978D1*
X1947046Y4825881D1*
X1949002Y4824460D1*
X1950710Y4822752D1*
X1952131Y4820796D1*
X1953228Y4818643D1*
X1953975Y4816345D1*
X1954353Y4813958D1*
X1954400Y4762750D1*
X1954353Y2717792D1*
X1953975Y2715405D1*
X1953228Y2713107D1*
X1952131Y2710954D1*
X1950710Y2708998D1*
X1949002Y2707290D1*
X1947046Y2705869D1*
X1944893Y2704772D1*
X1942595Y2704025D1*
X1940208Y2703647D1*
X1889000Y2703600D1*
X437792Y2703647D1*
X435405Y2704025D1*
X433107Y2704772D1*
X430954Y2705869D1*
X428998Y2707290D1*
X427290Y2708998D1*
X425869Y2710954D1*
X424772Y2713107D1*
X424025Y2715405D1*
X423647Y2717792D1*
X423600Y2769000D1*
X423647Y4813958D1*
X424025Y4816345D1*
X424772Y4818643D1*
X425869Y4820796D1*
X427290Y4822752D1*
X428998Y4824460D1*
X430954Y4825881D1*
X433107Y4826978D1*
X435405Y4827725D1*
X437792Y4828103D1*
X439005Y4828150D1*
X410636Y5417290D2*
X558733D1*
X819249D2*
X1558733D1*
X1819249D2*
X1961116D1*
X410636Y5407421D2*
X548323D1*
X829659D2*
X1548323D1*
X1829659D2*
X1961116D1*
X410636Y5397552D2*
X540257D1*
X837745D2*
X1540257D1*
X1837745D2*
X1961116D1*
X410636Y5387684D2*
X533929D1*
X844073D2*
X1533929D1*
X1844073D2*
X1961116D1*
X410636Y5377815D2*
X528987D1*
X849015D2*
X1528987D1*
X1849015D2*
X1961116D1*
X410636Y5367946D2*
X525237D1*
X852765D2*
X1525237D1*
X1852765D2*
X1961116D1*
X410636Y5358077D2*
X522542D1*
X855460D2*
X1522542D1*
X1855460D2*
X1961116D1*
X410636Y5348209D2*
X520823D1*
X857179D2*
X1520823D1*
X1857179D2*
X1961116D1*
X410636Y5338340D2*
X520042D1*
X857960D2*
X1520042D1*
X1857960D2*
X1961116D1*
X410636Y5328471D2*
X520179D1*
X857804D2*
X1520179D1*
X1857804D2*
X1961116D1*
X410636Y5318602D2*
X521233D1*
X856769D2*
X1521233D1*
X1856769D2*
X1961116D1*
X410636Y5308734D2*
X523245D1*
X854757D2*
X1523245D1*
X1854757D2*
X1961116D1*
X410636Y5298865D2*
X526233D1*
X851749D2*
X1526233D1*
X1851749D2*
X1961116D1*
X410636Y5288996D2*
X530335D1*
X847667D2*
X1530335D1*
X1847667D2*
X1961116D1*
X410636Y5279127D2*
X535687D1*
X842315D2*
X1535687D1*
X1842315D2*
X1961116D1*
X410636Y5269259D2*
X542483D1*
X835499D2*
X1542483D1*
X1835499D2*
X1961116D1*
X410636Y5259390D2*
X551175D1*
X826808D2*
X1551175D1*
X1826808D2*
X1961116D1*
X563365Y5249661D2*
X557490Y5254412D1*
X550286Y5261343D1*
X543761Y5268915D1*
X537970Y5277064D1*
X532965Y5285717D1*
X528790Y5294800D1*
X525481Y5304232D1*
X523067Y5313933D1*
X521569Y5323816D1*
X520999Y5333796D1*
X521364Y5343786D1*
X522660Y5353698D1*
X524875Y5363446D1*
X527990Y5372945D1*
X531978Y5382111D1*
X536804Y5390865D1*
X542427Y5399130D1*
X548796Y5406835D1*
X555856Y5413911D1*
X563547Y5420298D1*
X571799Y5425939D1*
X573873Y5427152D1*
X409646Y5427159D1*
X409626Y5249678D1*
X563317Y5249659D1*
X856889Y5329894D2*
X855956Y5319941D1*
X854099Y5310119D1*
X851332Y5300513D1*
X847681Y5291208D1*
X843177Y5282283D1*
X837860Y5273818D1*
X831776Y5265887D1*
X824979Y5258557D1*
X817526Y5251894D1*
X814640Y5249657D1*
X1563317Y5249659D1*
X1557490Y5254412D1*
X1550286Y5261343D1*
X1543761Y5268915D1*
X1537970Y5277064D1*
X1532965Y5285717D1*
X1528790Y5294800D1*
X1525481Y5304232D1*
X1523067Y5313933D1*
X1521569Y5323816D1*
X1520999Y5333796D1*
X1521364Y5343786D1*
X1522660Y5353698D1*
X1524875Y5363446D1*
X1527990Y5372945D1*
X1531978Y5382111D1*
X1536804Y5390865D1*
X1542427Y5399130D1*
X1548796Y5406835D1*
X1555856Y5413911D1*
X1563547Y5420298D1*
X1571799Y5425939D1*
X1573873Y5427152D1*
X804177Y5427159D1*
X811799Y5422237D1*
X819681Y5416090D1*
X826956Y5409234D1*
X833559Y5401729D1*
X839433Y5393640D1*
X844526Y5385039D1*
X848794Y5375999D1*
X852199Y5366601D1*
X854713Y5356926D1*
X856312Y5347058D1*
X856984Y5337084D1*
X856889Y5329894D1*
X1856889D2*
X1855956Y5319941D1*
X1854099Y5310119D1*
X1851332Y5300513D1*
X1847681Y5291208D1*
X1843177Y5282283D1*
X1837860Y5273818D1*
X1831776Y5265887D1*
X1824979Y5258557D1*
X1817526Y5251894D1*
X1814640Y5249657D1*
X1962106Y5249659D1*
X1962126Y5427139D1*
X1804177Y5427159D1*
X1811799Y5422237D1*
X1819681Y5416090D1*
X1826956Y5409234D1*
X1833559Y5401729D1*
X1839433Y5393640D1*
X1844526Y5385039D1*
X1848794Y5375999D1*
X1852199Y5366601D1*
X1854713Y5356926D1*
X1856312Y5347058D1*
X1856984Y5337084D1*
X1856889Y5329894D1*
X420010Y629131D2*
X1957990D1*
X420010Y619262D2*
X1957990D1*
X420010Y609394D2*
X590393D1*
X787607D2*
X1590393D1*
X1787607D2*
X1957990D1*
X420010Y599525D2*
X570744D1*
X807256D2*
X1570744D1*
X1807256D2*
X1957990D1*
X420010Y589656D2*
X557756D1*
X820244D2*
X1557756D1*
X1820244D2*
X1957990D1*
X420010Y579787D2*
X548068D1*
X829932D2*
X1548068D1*
X1829932D2*
X1957990D1*
X420010Y569919D2*
X540588D1*
X837412D2*
X1540588D1*
X1837412D2*
X1957990D1*
X420010Y560050D2*
X534729D1*
X843271D2*
X1534729D1*
X1843271D2*
X1957990D1*
X420010Y550181D2*
X530236D1*
X847764D2*
X1530236D1*
X1847764D2*
X1957990D1*
X420010Y540312D2*
X526896D1*
X851104D2*
X1526896D1*
X1851104D2*
X1957990D1*
X420010Y530444D2*
X524631D1*
X853369D2*
X1524631D1*
X1853369D2*
X1957990D1*
X420010Y520575D2*
X523342D1*
X854658D2*
X1523342D1*
X1854658D2*
X1957990D1*
X420010Y510706D2*
X523010D1*
X854990D2*
X1523010D1*
X1854990D2*
X1957990D1*
X420010Y500837D2*
X523596D1*
X854404D2*
X1523596D1*
X1854404D2*
X1957990D1*
X420010Y490969D2*
X525158D1*
X852842D2*
X1525158D1*
X1852842D2*
X1957990D1*
X420010Y481100D2*
X527717D1*
X850283D2*
X1527717D1*
X1850283D2*
X1957990D1*
X420010Y471231D2*
X531350D1*
X846650D2*
X1531350D1*
X1846650D2*
X1957990D1*
X420010Y461362D2*
X536193D1*
X841807D2*
X1536193D1*
X1841807D2*
X1957990D1*
X420010Y451493D2*
X542443D1*
X835557D2*
X1542443D1*
X1835557D2*
X1957990D1*
X420010Y441625D2*
X550490D1*
X827510D2*
X1550490D1*
X1827510D2*
X1957990D1*
X420010Y431756D2*
X560920D1*
X817080D2*
X1560920D1*
X1817080D2*
X1957990D1*
X420010Y421887D2*
X575197D1*
X802803D2*
X1575197D1*
X1802803D2*
X1957990D1*
X420010Y412018D2*
X598615D1*
X779385D2*
X1598615D1*
X1779385D2*
X1957990D1*
X1601509Y411502D2*
X1592067Y414472D1*
X1582863Y418371D1*
X1574075Y423136D1*
X1565786Y428723D1*
X1558071Y435079D1*
X1551003Y442148D1*
X1544645Y449862D1*
X1539058Y458151D1*
X1534293Y466938D1*
X1530393Y476142D1*
X1527396Y485678D1*
X1525327Y495458D1*
X1524208Y505391D1*
X1524047Y515386D1*
X1524847Y525350D1*
X1526600Y535191D1*
X1529289Y544819D1*
X1532891Y554143D1*
X1537372Y563079D1*
X1542690Y571544D1*
X1548796Y579458D1*
X1555633Y586750D1*
X1563140Y593351D1*
X1571245Y599201D1*
X1579875Y604246D1*
X1588949Y608439D1*
X1598384Y611741D1*
X1608093Y614122D1*
X1617985Y615559D1*
X1627989Y616040D1*
X1755015Y615921D1*
X1764965Y614961D1*
X1774777Y613051D1*
X1784360Y610208D1*
X1793626Y606457D1*
X1802489Y601834D1*
X1810867Y596382D1*
X1818683Y590150D1*
X1825864Y583196D1*
X1832344Y575585D1*
X1838064Y567387D1*
X1842970Y558677D1*
X1847017Y549537D1*
X1850168Y540051D1*
X1852393Y530305D1*
X1853672Y520391D1*
X1854006Y512058D1*
X1853526Y502073D1*
X1852089Y492181D1*
X1849709Y482472D1*
X1846407Y473037D1*
X1842215Y463962D1*
X1837171Y455332D1*
X1831321Y447226D1*
X1824720Y439720D1*
X1817429Y432881D1*
X1809515Y426775D1*
X1801051Y421456D1*
X1792116Y416975D1*
X1782791Y413373D1*
X1776401Y411504D1*
X1958980Y411500D1*
X1959000Y638980D1*
X419020Y639000D1*
X419000Y411520D1*
X601520Y411500D1*
X592067Y414472D1*
X582863Y418371D1*
X574075Y423136D1*
X565786Y428723D1*
X558071Y435079D1*
X551003Y442148D1*
X544645Y449862D1*
X539058Y458151D1*
X534293Y466938D1*
X530393Y476142D1*
X527396Y485678D1*
X525327Y495458D1*
X524208Y505391D1*
X524047Y515386D1*
X524847Y525350D1*
X526600Y535191D1*
X529289Y544819D1*
X532891Y554143D1*
X537372Y563079D1*
X542690Y571544D1*
X548796Y579458D1*
X555633Y586750D1*
X563140Y593351D1*
X571245Y599201D1*
X579875Y604246D1*
X588949Y608439D1*
X598384Y611741D1*
X608093Y614122D1*
X617985Y615559D1*
X627989Y616040D1*
X755015Y615921D1*
X764965Y614961D1*
X774777Y613051D1*
X784360Y610208D1*
X793626Y606457D1*
X802489Y601834D1*
X810867Y596382D1*
X818683Y590150D1*
X825864Y583196D1*
X832344Y575585D1*
X838064Y567387D1*
X842970Y558677D1*
X847017Y549537D1*
X850168Y540051D1*
X852393Y530305D1*
X853672Y520391D1*
X854006Y512058D1*
X853526Y502073D1*
X852089Y492181D1*
X849709Y482472D1*
X846407Y473037D1*
X842215Y463962D1*
X837171Y455332D1*
X831321Y447226D1*
X824720Y439720D1*
X817429Y432881D1*
X809515Y426775D1*
X801051Y421456D1*
X792116Y416975D1*
X782791Y413373D1*
X776401Y411504D1*
X1601520Y411500D1*
X445010Y4797881D2*
X1932990D1*
X445010Y4788012D2*
X1932990D1*
X445010Y4778144D2*
X563088D1*
X664912D2*
X944338D1*
X1046162D2*
X1331838D1*
X1433662D2*
X1713088D1*
X1814912D2*
X1932990D1*
X445010Y4768275D2*
X541994D1*
X686006D2*
X923244D1*
X1067256D2*
X1310744D1*
X1454756D2*
X1691994D1*
X1836006D2*
X1932990D1*
X445010Y4758406D2*
X526994D1*
X701006D2*
X908244D1*
X1082256D2*
X1295744D1*
X1469756D2*
X1676994D1*
X1851006D2*
X1932990D1*
X445010Y4748537D2*
X515236D1*
X712764D2*
X896486D1*
X1094014D2*
X1283986D1*
X1481514D2*
X1665236D1*
X1862764D2*
X1932990D1*
X445010Y4738669D2*
X505646D1*
X722354D2*
X886896D1*
X1103604D2*
X1274396D1*
X1491104D2*
X1655646D1*
X1872354D2*
X1932990D1*
X445010Y4728800D2*
X497697D1*
X730303D2*
X878947D1*
X1111553D2*
X1266447D1*
X1499053D2*
X1647697D1*
X1880303D2*
X1932990D1*
X445010Y4718931D2*
X491057D1*
X736943D2*
X872307D1*
X1118193D2*
X1259807D1*
X1505693D2*
X1641057D1*
X1886943D2*
X1932990D1*
X445010Y4709062D2*
X485510D1*
X742490D2*
X866760D1*
X1123740D2*
X1254260D1*
X1511240D2*
X1635510D1*
X1892490D2*
X1932990D1*
X445010Y4699194D2*
X480939D1*
X747061D2*
X862189D1*
X1128311D2*
X1249689D1*
X1515811D2*
X1630939D1*
X1897061D2*
X1932990D1*
X445010Y4689325D2*
X477229D1*
X750771D2*
X858479D1*
X1132021D2*
X1245979D1*
X1519521D2*
X1627229D1*
X1900771D2*
X1932990D1*
X445010Y4679456D2*
X474338D1*
X753662D2*
X855588D1*
X1134912D2*
X1243088D1*
X1522412D2*
X1624338D1*
X1903662D2*
X1932990D1*
X445010Y4669587D2*
X472170D1*
X755830D2*
X853420D1*
X1137080D2*
X1240920D1*
X1524580D2*
X1622170D1*
X1905830D2*
X1932990D1*
X445010Y4659719D2*
X470744D1*
X757256D2*
X851994D1*
X1138506D2*
X1239494D1*
X1526006D2*
X1620744D1*
X1907256D2*
X1932990D1*
X445010Y4649850D2*
X469982D1*
X758018D2*
X851232D1*
X1139268D2*
X1238732D1*
X1526768D2*
X1619982D1*
X1908018D2*
X1932990D1*
X445010Y4639981D2*
X469924D1*
X758076D2*
X851174D1*
X1139326D2*
X1238674D1*
X1526826D2*
X1619924D1*
X1908076D2*
X1932990D1*
X445010Y4630112D2*
X470549D1*
X757451D2*
X851799D1*
X1138701D2*
X1239299D1*
X1526201D2*
X1620549D1*
X1907451D2*
X1932990D1*
X445010Y4620243D2*
X471857D1*
X756143D2*
X853107D1*
X1137393D2*
X1240607D1*
X1524893D2*
X1621857D1*
X1906143D2*
X1932990D1*
X445010Y4610375D2*
X473869D1*
X754131D2*
X855119D1*
X1135381D2*
X1242619D1*
X1522881D2*
X1623869D1*
X1904131D2*
X1932990D1*
X445010Y4600506D2*
X476643D1*
X751357D2*
X857893D1*
X1132607D2*
X1245393D1*
X1520107D2*
X1626643D1*
X1901357D2*
X1932990D1*
X445010Y4590637D2*
X480197D1*
X747803D2*
X861447D1*
X1129053D2*
X1248947D1*
X1516553D2*
X1630197D1*
X1897803D2*
X1932990D1*
X445010Y4580768D2*
X484592D1*
X743408D2*
X865842D1*
X1124658D2*
X1253342D1*
X1512158D2*
X1634592D1*
X1893408D2*
X1932990D1*
X445010Y4570900D2*
X489943D1*
X738057D2*
X871193D1*
X1119307D2*
X1258693D1*
X1506807D2*
X1639943D1*
X1888057D2*
X1932990D1*
X445010Y4561031D2*
X496369D1*
X731631D2*
X877619D1*
X1112881D2*
X1265119D1*
X1500381D2*
X1646369D1*
X1881631D2*
X1932990D1*
X445010Y4551162D2*
X504064D1*
X723936D2*
X885314D1*
X1105186D2*
X1272814D1*
X1492686D2*
X1654064D1*
X1873936D2*
X1932990D1*
X445010Y4541293D2*
X513303D1*
X714697D2*
X894553D1*
X1095947D2*
X1282053D1*
X1483447D2*
X1663303D1*
X1864697D2*
X1932990D1*
X445010Y4531425D2*
X524611D1*
X703389D2*
X905861D1*
X1084639D2*
X1293361D1*
X1472139D2*
X1674611D1*
X1853389D2*
X1932990D1*
X445010Y4521556D2*
X538869D1*
X689131D2*
X920119D1*
X1070381D2*
X1307619D1*
X1457881D2*
X1688869D1*
X1839131D2*
X1932990D1*
X445010Y4511687D2*
X558420D1*
X669580D2*
X939670D1*
X1050830D2*
X1327170D1*
X1438330D2*
X1708420D1*
X1819580D2*
X1932990D1*
X445010Y4501818D2*
X596545D1*
X631455D2*
X977795D1*
X1012705D2*
X1365295D1*
X1400205D2*
X1746545D1*
X1781455D2*
X1932990D1*
X445010Y4491949D2*
X1932990D1*
X445010Y4482081D2*
X1932990D1*
X445010Y4472212D2*
X1932990D1*
X445010Y4462343D2*
X1932990D1*
X445010Y4452474D2*
X1932990D1*
X445010Y4442606D2*
X1932990D1*
X445010Y4432737D2*
X1932990D1*
X445010Y4422868D2*
X1932990D1*
X445010Y4412999D2*
X1932990D1*
X445010Y4403131D2*
X1932990D1*
X445010Y4393262D2*
X1932990D1*
X445010Y4383393D2*
X1932990D1*
X445010Y4373524D2*
X1932990D1*
X445010Y4363656D2*
X1932990D1*
X445010Y4353787D2*
X551975D1*
X676982D2*
X932443D1*
X1058232D2*
X1320158D1*
X1445947D2*
X1701350D1*
X1826924D2*
X1932990D1*
X445010Y4343918D2*
X544553D1*
X684385D2*
X925334D1*
X1065342D2*
X1313049D1*
X1453057D2*
X1694162D1*
X1834111D2*
X1932990D1*
X445010Y4334049D2*
X543479D1*
X685459D2*
X924357D1*
X1066338D2*
X1312053D1*
X1454053D2*
X1693146D1*
X1835127D2*
X1932990D1*
X445010Y4324180D2*
X543479D1*
X685459D2*
X924357D1*
X1066338D2*
X1312053D1*
X1454053D2*
X1693146D1*
X1835127D2*
X1932990D1*
X445010Y4314312D2*
X543479D1*
X685459D2*
X924357D1*
X1066338D2*
X1312053D1*
X1454053D2*
X1693146D1*
X1835127D2*
X1932990D1*
X445010Y4304443D2*
X543479D1*
X685459D2*
X924357D1*
X1066338D2*
X1312053D1*
X1454053D2*
X1693146D1*
X1835127D2*
X1932990D1*
X445010Y4294574D2*
X543479D1*
X685459D2*
X924357D1*
X1066338D2*
X1312053D1*
X1454053D2*
X1693146D1*
X1835127D2*
X1932990D1*
X445010Y4284705D2*
X543479D1*
X685459D2*
X924357D1*
X1066338D2*
X1312053D1*
X1454053D2*
X1693146D1*
X1835127D2*
X1932990D1*
X445010Y4274837D2*
X543479D1*
X685459D2*
X924357D1*
X1066338D2*
X1312053D1*
X1454053D2*
X1693146D1*
X1835127D2*
X1932990D1*
X445010Y4264968D2*
X543479D1*
X685459D2*
X924357D1*
X1066338D2*
X1312053D1*
X1454053D2*
X1693146D1*
X1835127D2*
X1932990D1*
X445010Y4255099D2*
X543479D1*
X685459D2*
X924357D1*
X1066338D2*
X1312053D1*
X1454053D2*
X1693146D1*
X1835127D2*
X1932990D1*
X445010Y4245230D2*
X543479D1*
X685459D2*
X924357D1*
X1066338D2*
X1312053D1*
X1454053D2*
X1693146D1*
X1835127D2*
X1932990D1*
X445010Y4235362D2*
X543479D1*
X685459D2*
X924357D1*
X1066338D2*
X1312053D1*
X1454053D2*
X1693146D1*
X1835127D2*
X1932990D1*
X445010Y4225493D2*
X543479D1*
X685459D2*
X924357D1*
X1066338D2*
X1312053D1*
X1454053D2*
X1693146D1*
X1835127D2*
X1932990D1*
X445010Y4215624D2*
X543479D1*
X685459D2*
X924357D1*
X1066338D2*
X1312053D1*
X1454053D2*
X1693146D1*
X1835127D2*
X1932990D1*
X445010Y4205755D2*
X543479D1*
X685459D2*
X924357D1*
X1066338D2*
X1312053D1*
X1454053D2*
X1693146D1*
X1835127D2*
X1932990D1*
X445010Y4195886D2*
X543479D1*
X685459D2*
X924357D1*
X1066338D2*
X1312053D1*
X1454053D2*
X1693146D1*
X1835127D2*
X1932990D1*
X445010Y4186018D2*
X543479D1*
X685459D2*
X924357D1*
X1066338D2*
X1312053D1*
X1454053D2*
X1693146D1*
X1835127D2*
X1932990D1*
X445010Y4176149D2*
X543479D1*
X685459D2*
X924357D1*
X1066338D2*
X1312053D1*
X1454053D2*
X1693146D1*
X1835127D2*
X1932990D1*
X445010Y4166280D2*
X543479D1*
X685459D2*
X924357D1*
X1066338D2*
X1312053D1*
X1454053D2*
X1693146D1*
X1835127D2*
X1932990D1*
X445010Y4156411D2*
X543479D1*
X685459D2*
X924357D1*
X1066338D2*
X1312053D1*
X1454053D2*
X1693146D1*
X1835127D2*
X1932990D1*
X445010Y4146543D2*
X543479D1*
X685459D2*
X924357D1*
X1066338D2*
X1312053D1*
X1454053D2*
X1693146D1*
X1835127D2*
X1932990D1*
X445010Y4136674D2*
X543479D1*
X685459D2*
X924357D1*
X1066338D2*
X1312053D1*
X1454053D2*
X1693146D1*
X1835127D2*
X1932990D1*
X445010Y4126805D2*
X543479D1*
X685459D2*
X924357D1*
X1066338D2*
X1312053D1*
X1454053D2*
X1693146D1*
X1835127D2*
X1932990D1*
X445010Y4116936D2*
X543479D1*
X685459D2*
X924357D1*
X1066338D2*
X1312053D1*
X1454053D2*
X1693146D1*
X1835127D2*
X1932990D1*
X445010Y4107068D2*
X543479D1*
X685459D2*
X924357D1*
X1066338D2*
X1312053D1*
X1454053D2*
X1693146D1*
X1835127D2*
X1932990D1*
X445010Y4097199D2*
X543479D1*
X685459D2*
X924357D1*
X1066338D2*
X1312053D1*
X1454053D2*
X1693146D1*
X1835127D2*
X1932990D1*
X445010Y4087330D2*
X543479D1*
X685459D2*
X924357D1*
X1066338D2*
X1312053D1*
X1454053D2*
X1693146D1*
X1835127D2*
X1932990D1*
X445010Y4077461D2*
X543479D1*
X685459D2*
X924357D1*
X1066338D2*
X1312053D1*
X1454053D2*
X1693146D1*
X1835127D2*
X1932990D1*
X445010Y4067593D2*
X543479D1*
X685459D2*
X924357D1*
X1066338D2*
X1312053D1*
X1454053D2*
X1693146D1*
X1835127D2*
X1932990D1*
X445010Y4057724D2*
X543479D1*
X685459D2*
X924357D1*
X1066338D2*
X1312053D1*
X1454053D2*
X1693146D1*
X1835127D2*
X1932990D1*
X445010Y4047855D2*
X543479D1*
X685459D2*
X924357D1*
X1066338D2*
X1312053D1*
X1454053D2*
X1693146D1*
X1835127D2*
X1932990D1*
X445010Y4037986D2*
X543479D1*
X685459D2*
X924357D1*
X1066338D2*
X1312053D1*
X1454053D2*
X1693146D1*
X1835127D2*
X1932990D1*
X445010Y4028117D2*
X543479D1*
X685459D2*
X924357D1*
X1066338D2*
X1312053D1*
X1454053D2*
X1693146D1*
X1835127D2*
X1932990D1*
X445010Y4018249D2*
X543479D1*
X685459D2*
X924357D1*
X1066338D2*
X1312053D1*
X1454053D2*
X1693146D1*
X1835127D2*
X1932990D1*
X445010Y4008380D2*
X543479D1*
X685459D2*
X924357D1*
X1066338D2*
X1312053D1*
X1454053D2*
X1693146D1*
X1835127D2*
X1932990D1*
X445010Y3998511D2*
X543479D1*
X685459D2*
X924357D1*
X1066338D2*
X1312053D1*
X1454053D2*
X1693146D1*
X1835127D2*
X1932990D1*
X445010Y3988642D2*
X543479D1*
X685459D2*
X924357D1*
X1066338D2*
X1312053D1*
X1454053D2*
X1693146D1*
X1835127D2*
X1932990D1*
X445010Y3978774D2*
X543479D1*
X685459D2*
X924357D1*
X1066338D2*
X1312053D1*
X1454053D2*
X1693146D1*
X1835127D2*
X1932990D1*
X445010Y3968905D2*
X543479D1*
X685459D2*
X924357D1*
X1066338D2*
X1312053D1*
X1454053D2*
X1693146D1*
X1835127D2*
X1932990D1*
X445010Y3959036D2*
X543479D1*
X685459D2*
X924357D1*
X1066338D2*
X1312053D1*
X1454053D2*
X1693146D1*
X1835127D2*
X1932990D1*
X445010Y3949167D2*
X543479D1*
X685459D2*
X924357D1*
X1066338D2*
X1312053D1*
X1454053D2*
X1693146D1*
X1835127D2*
X1932990D1*
X445010Y3939299D2*
X543479D1*
X685459D2*
X924357D1*
X1066338D2*
X1312053D1*
X1454053D2*
X1693146D1*
X1835127D2*
X1932990D1*
X445010Y3929430D2*
X543479D1*
X685459D2*
X924357D1*
X1066338D2*
X1312053D1*
X1454053D2*
X1693146D1*
X1835127D2*
X1932990D1*
X445010Y3919561D2*
X543479D1*
X685459D2*
X924357D1*
X1066338D2*
X1312053D1*
X1454053D2*
X1693146D1*
X1835127D2*
X1932990D1*
X445010Y3909692D2*
X543479D1*
X685459D2*
X924357D1*
X1066338D2*
X1312053D1*
X1454053D2*
X1693146D1*
X1835127D2*
X1932990D1*
X445010Y3899823D2*
X543479D1*
X685459D2*
X924357D1*
X1066338D2*
X1312053D1*
X1454053D2*
X1693146D1*
X1835127D2*
X1932990D1*
X445010Y3889955D2*
X543479D1*
X685459D2*
X924357D1*
X1066338D2*
X1312053D1*
X1454053D2*
X1693146D1*
X1835127D2*
X1932990D1*
X445010Y3880086D2*
X543479D1*
X685459D2*
X924357D1*
X1066338D2*
X1312053D1*
X1454053D2*
X1693146D1*
X1835127D2*
X1932990D1*
X445010Y3870217D2*
X543479D1*
X685459D2*
X924357D1*
X1066338D2*
X1312053D1*
X1454053D2*
X1693146D1*
X1835127D2*
X1932990D1*
X445010Y3860348D2*
X543479D1*
X685459D2*
X924357D1*
X1066338D2*
X1312053D1*
X1454053D2*
X1693146D1*
X1835127D2*
X1932990D1*
X445010Y3850480D2*
X543479D1*
X685459D2*
X924357D1*
X1066338D2*
X1312053D1*
X1454053D2*
X1693146D1*
X1835127D2*
X1932990D1*
X445010Y3840611D2*
X543479D1*
X685459D2*
X924357D1*
X1066338D2*
X1312053D1*
X1454053D2*
X1693146D1*
X1835127D2*
X1932990D1*
X445010Y3830742D2*
X543479D1*
X685459D2*
X924357D1*
X1066338D2*
X1312053D1*
X1454053D2*
X1693146D1*
X1835127D2*
X1932990D1*
X445010Y3820873D2*
X543479D1*
X685459D2*
X924357D1*
X1066338D2*
X1312053D1*
X1454053D2*
X1693146D1*
X1835127D2*
X1932990D1*
X445010Y3811005D2*
X543479D1*
X685459D2*
X924357D1*
X1066338D2*
X1312053D1*
X1454053D2*
X1693146D1*
X1835127D2*
X1932990D1*
X445010Y3801136D2*
X543479D1*
X685459D2*
X924357D1*
X1066338D2*
X1312053D1*
X1454053D2*
X1693146D1*
X1835127D2*
X1932990D1*
X445010Y3791267D2*
X543479D1*
X685459D2*
X924357D1*
X1066338D2*
X1312053D1*
X1454053D2*
X1693146D1*
X1835127D2*
X1932990D1*
X445010Y3781398D2*
X543479D1*
X685459D2*
X924357D1*
X1066338D2*
X1312053D1*
X1454053D2*
X1693146D1*
X1835127D2*
X1932990D1*
X445010Y3771530D2*
X543479D1*
X685459D2*
X924357D1*
X1066338D2*
X1312053D1*
X1454053D2*
X1693146D1*
X1835127D2*
X1932990D1*
X445010Y3761661D2*
X543479D1*
X685459D2*
X924357D1*
X1066338D2*
X1312053D1*
X1454053D2*
X1693146D1*
X1835127D2*
X1932990D1*
X445010Y3751792D2*
X543479D1*
X685459D2*
X924357D1*
X1066338D2*
X1312053D1*
X1454053D2*
X1693146D1*
X1835127D2*
X1932990D1*
X445010Y3741923D2*
X543479D1*
X685459D2*
X924357D1*
X1066338D2*
X1312053D1*
X1454053D2*
X1693146D1*
X1835127D2*
X1932990D1*
X445010Y3732054D2*
X543479D1*
X685459D2*
X924357D1*
X1066338D2*
X1312053D1*
X1454053D2*
X1693146D1*
X1835127D2*
X1932990D1*
X445010Y3722186D2*
X543479D1*
X685459D2*
X924357D1*
X1066338D2*
X1312053D1*
X1454053D2*
X1693146D1*
X1835127D2*
X1932990D1*
X445010Y3712317D2*
X543479D1*
X685459D2*
X924357D1*
X1066338D2*
X1312053D1*
X1454053D2*
X1693146D1*
X1835127D2*
X1932990D1*
X445010Y3702448D2*
X543479D1*
X685459D2*
X924357D1*
X1066338D2*
X1312053D1*
X1454053D2*
X1693146D1*
X1835127D2*
X1932990D1*
X445010Y3692579D2*
X543479D1*
X685459D2*
X924357D1*
X1066338D2*
X1312053D1*
X1454053D2*
X1693146D1*
X1835127D2*
X1932990D1*
X445010Y3682711D2*
X543479D1*
X685459D2*
X924357D1*
X1066338D2*
X1312053D1*
X1454053D2*
X1693146D1*
X1835127D2*
X1932990D1*
X445010Y3672842D2*
X543479D1*
X685459D2*
X924357D1*
X1066338D2*
X1312053D1*
X1454053D2*
X1693146D1*
X1835127D2*
X1932990D1*
X445010Y3662973D2*
X543479D1*
X685459D2*
X924357D1*
X1066338D2*
X1312053D1*
X1454053D2*
X1693146D1*
X1835127D2*
X1932990D1*
X445010Y3653104D2*
X543479D1*
X685459D2*
X924357D1*
X1066338D2*
X1312053D1*
X1454053D2*
X1693146D1*
X1835127D2*
X1932990D1*
X445010Y3643236D2*
X543479D1*
X685459D2*
X924357D1*
X1066338D2*
X1312053D1*
X1454053D2*
X1693146D1*
X1835127D2*
X1932990D1*
X445010Y3633367D2*
X543479D1*
X685459D2*
X924357D1*
X1066338D2*
X1312053D1*
X1454053D2*
X1693146D1*
X1835127D2*
X1932990D1*
X445010Y3623498D2*
X543479D1*
X685459D2*
X924357D1*
X1066338D2*
X1312053D1*
X1454053D2*
X1693146D1*
X1835127D2*
X1932990D1*
X445010Y3613629D2*
X543479D1*
X685459D2*
X924357D1*
X1066338D2*
X1312053D1*
X1454053D2*
X1693146D1*
X1835127D2*
X1932990D1*
X445010Y3603760D2*
X543479D1*
X685459D2*
X924357D1*
X1066338D2*
X1312053D1*
X1454053D2*
X1693146D1*
X1835127D2*
X1932990D1*
X445010Y3593892D2*
X543479D1*
X685459D2*
X924357D1*
X1066338D2*
X1312053D1*
X1454053D2*
X1693146D1*
X1835127D2*
X1932990D1*
X445010Y3584023D2*
X543479D1*
X685459D2*
X924357D1*
X1066338D2*
X1312053D1*
X1454053D2*
X1693146D1*
X1835127D2*
X1932990D1*
X445010Y3574154D2*
X543479D1*
X685459D2*
X924357D1*
X1066338D2*
X1312053D1*
X1454053D2*
X1693146D1*
X1835127D2*
X1932990D1*
X445010Y3564285D2*
X543479D1*
X685459D2*
X924357D1*
X1066338D2*
X1312053D1*
X1454053D2*
X1693146D1*
X1835127D2*
X1932990D1*
X445010Y3554417D2*
X543479D1*
X685459D2*
X924357D1*
X1066338D2*
X1312053D1*
X1454053D2*
X1693146D1*
X1835127D2*
X1932990D1*
X445010Y3544548D2*
X543479D1*
X685459D2*
X924357D1*
X1066338D2*
X1312053D1*
X1454053D2*
X1693146D1*
X1835127D2*
X1932990D1*
X445010Y3534679D2*
X543479D1*
X685459D2*
X924357D1*
X1066338D2*
X1312053D1*
X1454053D2*
X1693146D1*
X1835127D2*
X1932990D1*
X445010Y3524810D2*
X543479D1*
X685459D2*
X924357D1*
X1066338D2*
X1312053D1*
X1454053D2*
X1693146D1*
X1835127D2*
X1932990D1*
X445010Y3514942D2*
X543479D1*
X685459D2*
X924357D1*
X1066338D2*
X1312053D1*
X1454053D2*
X1693146D1*
X1835127D2*
X1932990D1*
X445010Y3505073D2*
X543479D1*
X685459D2*
X924357D1*
X1066338D2*
X1312053D1*
X1454053D2*
X1693146D1*
X1835127D2*
X1932990D1*
X445010Y3495204D2*
X543479D1*
X685459D2*
X924357D1*
X1066338D2*
X1312053D1*
X1454053D2*
X1693146D1*
X1835127D2*
X1932990D1*
X445010Y3485335D2*
X543479D1*
X685459D2*
X924357D1*
X1066338D2*
X1312053D1*
X1454053D2*
X1693146D1*
X1835127D2*
X1932990D1*
X445010Y3475467D2*
X543479D1*
X685459D2*
X924357D1*
X1066338D2*
X1312053D1*
X1454053D2*
X1693146D1*
X1835127D2*
X1932990D1*
X445010Y3465598D2*
X543479D1*
X685459D2*
X924357D1*
X1066338D2*
X1312053D1*
X1454053D2*
X1693146D1*
X1835127D2*
X1932990D1*
X445010Y3455729D2*
X543479D1*
X685459D2*
X924357D1*
X1066338D2*
X1312053D1*
X1454053D2*
X1693146D1*
X1835127D2*
X1932990D1*
X445010Y3445860D2*
X543479D1*
X685459D2*
X924357D1*
X1066338D2*
X1312053D1*
X1454053D2*
X1693146D1*
X1835127D2*
X1932990D1*
X445010Y3435991D2*
X543479D1*
X685459D2*
X924357D1*
X1066338D2*
X1312053D1*
X1454053D2*
X1693146D1*
X1835127D2*
X1932990D1*
X445010Y3426123D2*
X543479D1*
X685459D2*
X924357D1*
X1066338D2*
X1312053D1*
X1454053D2*
X1693146D1*
X1835127D2*
X1932990D1*
X445010Y3416254D2*
X543479D1*
X685459D2*
X924357D1*
X1066338D2*
X1312053D1*
X1454053D2*
X1693146D1*
X1835127D2*
X1932990D1*
X445010Y3406385D2*
X543479D1*
X685459D2*
X924357D1*
X1066338D2*
X1312053D1*
X1454053D2*
X1693146D1*
X1835127D2*
X1932990D1*
X445010Y3396516D2*
X543479D1*
X685459D2*
X924357D1*
X1066338D2*
X1312053D1*
X1454053D2*
X1693146D1*
X1835127D2*
X1932990D1*
X445010Y3386648D2*
X543479D1*
X685459D2*
X924357D1*
X1066338D2*
X1312053D1*
X1454053D2*
X1693146D1*
X1835127D2*
X1932990D1*
X445010Y3376779D2*
X543479D1*
X685459D2*
X924357D1*
X1066338D2*
X1312053D1*
X1454053D2*
X1693146D1*
X1835127D2*
X1932990D1*
X445010Y3366910D2*
X543479D1*
X685459D2*
X924357D1*
X1066338D2*
X1312053D1*
X1454053D2*
X1693146D1*
X1835127D2*
X1932990D1*
X445010Y3357041D2*
X543479D1*
X685459D2*
X924357D1*
X1066338D2*
X1312053D1*
X1454053D2*
X1693146D1*
X1835127D2*
X1932990D1*
X445010Y3347173D2*
X543479D1*
X685459D2*
X924357D1*
X1066338D2*
X1312053D1*
X1454053D2*
X1693146D1*
X1835127D2*
X1932990D1*
X445010Y3337304D2*
X543479D1*
X685459D2*
X924357D1*
X1066338D2*
X1312053D1*
X1454053D2*
X1693146D1*
X1835127D2*
X1932990D1*
X445010Y3327435D2*
X543479D1*
X685459D2*
X924357D1*
X1066338D2*
X1312053D1*
X1454053D2*
X1693146D1*
X1835127D2*
X1932990D1*
X445010Y3317566D2*
X543479D1*
X685459D2*
X924357D1*
X1066338D2*
X1312053D1*
X1454053D2*
X1693146D1*
X1835127D2*
X1932990D1*
X445010Y3307698D2*
X543479D1*
X685459D2*
X924357D1*
X1066338D2*
X1312053D1*
X1454053D2*
X1693146D1*
X1835127D2*
X1932990D1*
X445010Y3297829D2*
X543479D1*
X685459D2*
X924357D1*
X1066338D2*
X1312053D1*
X1454053D2*
X1693146D1*
X1835127D2*
X1932990D1*
X445010Y3287960D2*
X543479D1*
X685459D2*
X924357D1*
X1066338D2*
X1312053D1*
X1454053D2*
X1693146D1*
X1835127D2*
X1932990D1*
X445010Y3278091D2*
X543479D1*
X685459D2*
X924357D1*
X1066338D2*
X1312053D1*
X1454053D2*
X1693146D1*
X1835127D2*
X1932990D1*
X445010Y3268222D2*
X543479D1*
X685459D2*
X924357D1*
X1066338D2*
X1312053D1*
X1454053D2*
X1693146D1*
X1835127D2*
X1932990D1*
X445010Y3258354D2*
X543479D1*
X685459D2*
X924357D1*
X1066338D2*
X1312053D1*
X1454053D2*
X1693146D1*
X1835127D2*
X1932990D1*
X445010Y3248485D2*
X543479D1*
X685459D2*
X924357D1*
X1066338D2*
X1312053D1*
X1454053D2*
X1693146D1*
X1835127D2*
X1932990D1*
X445010Y3238616D2*
X543479D1*
X685459D2*
X924357D1*
X1066338D2*
X1312053D1*
X1454053D2*
X1693146D1*
X1835127D2*
X1932990D1*
X445010Y3228747D2*
X543479D1*
X685459D2*
X924357D1*
X1066338D2*
X1312053D1*
X1454053D2*
X1693146D1*
X1835127D2*
X1932990D1*
X445010Y3218879D2*
X543479D1*
X685459D2*
X924357D1*
X1066338D2*
X1312053D1*
X1454053D2*
X1693146D1*
X1835127D2*
X1932990D1*
X445010Y3209010D2*
X543479D1*
X685459D2*
X924357D1*
X1066338D2*
X1312053D1*
X1454053D2*
X1693146D1*
X1835127D2*
X1932990D1*
X445010Y3199141D2*
X543479D1*
X685459D2*
X924357D1*
X1066338D2*
X1312053D1*
X1454053D2*
X1693146D1*
X1835127D2*
X1932990D1*
X445010Y3189272D2*
X543479D1*
X685459D2*
X924357D1*
X1066338D2*
X1312053D1*
X1454053D2*
X1693146D1*
X1835127D2*
X1932990D1*
X445010Y3179404D2*
X543479D1*
X685459D2*
X924357D1*
X1066338D2*
X1312053D1*
X1454053D2*
X1693146D1*
X1835127D2*
X1932990D1*
X445010Y3169535D2*
X543479D1*
X685459D2*
X924357D1*
X1066338D2*
X1312053D1*
X1454053D2*
X1693146D1*
X1835127D2*
X1932990D1*
X445010Y3159666D2*
X543479D1*
X685459D2*
X924357D1*
X1066338D2*
X1312053D1*
X1454053D2*
X1693146D1*
X1835127D2*
X1932990D1*
X445010Y3149797D2*
X543479D1*
X685459D2*
X924357D1*
X1066338D2*
X1312053D1*
X1454053D2*
X1693146D1*
X1835127D2*
X1932990D1*
X445010Y3139928D2*
X543479D1*
X685459D2*
X924357D1*
X1066338D2*
X1312053D1*
X1454053D2*
X1693146D1*
X1835127D2*
X1932990D1*
X445010Y3130060D2*
X543479D1*
X685459D2*
X924357D1*
X1066338D2*
X1312053D1*
X1454053D2*
X1693146D1*
X1835127D2*
X1932990D1*
X445010Y3120191D2*
X543479D1*
X685459D2*
X924357D1*
X1066338D2*
X1312053D1*
X1454053D2*
X1693146D1*
X1835127D2*
X1932990D1*
X445010Y3110322D2*
X543479D1*
X685459D2*
X924357D1*
X1066338D2*
X1312053D1*
X1454053D2*
X1693146D1*
X1835127D2*
X1932990D1*
X445010Y3100453D2*
X543479D1*
X685459D2*
X924357D1*
X1066338D2*
X1312053D1*
X1454053D2*
X1693146D1*
X1835127D2*
X1932990D1*
X445010Y3090585D2*
X543479D1*
X685459D2*
X924357D1*
X1066338D2*
X1312053D1*
X1454053D2*
X1693146D1*
X1835127D2*
X1932990D1*
X445010Y3080716D2*
X543479D1*
X685459D2*
X924357D1*
X1066338D2*
X1312053D1*
X1454053D2*
X1693146D1*
X1835127D2*
X1932990D1*
X445010Y3070847D2*
X543479D1*
X685459D2*
X924357D1*
X1066338D2*
X1312053D1*
X1454053D2*
X1693146D1*
X1835127D2*
X1932990D1*
X445010Y3060978D2*
X543479D1*
X685459D2*
X924357D1*
X1066338D2*
X1312053D1*
X1454053D2*
X1693146D1*
X1835127D2*
X1932990D1*
X445010Y3051110D2*
X543479D1*
X685459D2*
X924357D1*
X1066338D2*
X1312053D1*
X1454053D2*
X1693146D1*
X1835127D2*
X1932990D1*
X445010Y3041241D2*
X543479D1*
X685459D2*
X924357D1*
X1066338D2*
X1312053D1*
X1454053D2*
X1693146D1*
X1835127D2*
X1932990D1*
X445010Y3031372D2*
X543479D1*
X685459D2*
X924357D1*
X1066338D2*
X1312053D1*
X1454053D2*
X1693146D1*
X1835127D2*
X1932990D1*
X445010Y3021503D2*
X543479D1*
X685459D2*
X924357D1*
X1066338D2*
X1312053D1*
X1454053D2*
X1693146D1*
X1835127D2*
X1932990D1*
X445010Y3011635D2*
X543479D1*
X685459D2*
X924357D1*
X1066338D2*
X1312053D1*
X1454053D2*
X1693146D1*
X1835127D2*
X1932990D1*
X445010Y3001766D2*
X543479D1*
X685459D2*
X924357D1*
X1066338D2*
X1312053D1*
X1454053D2*
X1693146D1*
X1835127D2*
X1932990D1*
X445010Y2991897D2*
X543479D1*
X685459D2*
X924357D1*
X1066338D2*
X1312053D1*
X1454053D2*
X1693146D1*
X1835127D2*
X1932990D1*
X445010Y2982028D2*
X543479D1*
X685459D2*
X924357D1*
X1066338D2*
X1312053D1*
X1454053D2*
X1693146D1*
X1835127D2*
X1932990D1*
X445010Y2972159D2*
X543479D1*
X685459D2*
X924357D1*
X1066338D2*
X1312053D1*
X1454053D2*
X1693146D1*
X1835127D2*
X1932990D1*
X445010Y2962291D2*
X543479D1*
X685459D2*
X924357D1*
X1066338D2*
X1312053D1*
X1454053D2*
X1693146D1*
X1835127D2*
X1932990D1*
X445010Y2952422D2*
X543479D1*
X685459D2*
X924357D1*
X1066338D2*
X1312053D1*
X1454053D2*
X1693146D1*
X1835127D2*
X1932990D1*
X445010Y2942553D2*
X543479D1*
X685459D2*
X924357D1*
X1066338D2*
X1312053D1*
X1454053D2*
X1693146D1*
X1835127D2*
X1932990D1*
X445010Y2932684D2*
X543479D1*
X685459D2*
X924357D1*
X1066338D2*
X1312053D1*
X1454053D2*
X1693146D1*
X1835127D2*
X1932990D1*
X445010Y2922816D2*
X543479D1*
X685459D2*
X924357D1*
X1066338D2*
X1312053D1*
X1454053D2*
X1693146D1*
X1835127D2*
X1932990D1*
X445010Y2912947D2*
X543479D1*
X685459D2*
X924357D1*
X1066338D2*
X1312053D1*
X1454053D2*
X1693146D1*
X1835127D2*
X1932990D1*
X445010Y2903078D2*
X543479D1*
X685459D2*
X924357D1*
X1066338D2*
X1312053D1*
X1454053D2*
X1693146D1*
X1835127D2*
X1932990D1*
X445010Y2893209D2*
X543479D1*
X685459D2*
X924357D1*
X1066338D2*
X1312053D1*
X1454053D2*
X1693146D1*
X1835127D2*
X1932990D1*
X445010Y2883341D2*
X543479D1*
X685459D2*
X924357D1*
X1066338D2*
X1312053D1*
X1454053D2*
X1693146D1*
X1835127D2*
X1932990D1*
X445010Y2873472D2*
X543479D1*
X685459D2*
X924357D1*
X1066338D2*
X1312053D1*
X1454053D2*
X1693146D1*
X1835127D2*
X1932990D1*
X445010Y2863603D2*
X543479D1*
X685459D2*
X924357D1*
X1066338D2*
X1312053D1*
X1454053D2*
X1693146D1*
X1835127D2*
X1932990D1*
X445010Y2853734D2*
X543479D1*
X685459D2*
X924357D1*
X1066338D2*
X1312053D1*
X1454053D2*
X1693146D1*
X1835127D2*
X1932990D1*
X445010Y2843865D2*
X543479D1*
X685459D2*
X924357D1*
X1066338D2*
X1312053D1*
X1454053D2*
X1693146D1*
X1835127D2*
X1932990D1*
X445010Y2833997D2*
X543811D1*
X685146D2*
X924729D1*
X1065967D2*
X1312443D1*
X1453662D2*
X1693498D1*
X1834775D2*
X1932990D1*
X445010Y2824128D2*
X548674D1*
X680264D2*
X929826D1*
X1060869D2*
X1317521D1*
X1448584D2*
X1698537D1*
X1829736D2*
X1932990D1*
X445010Y2814259D2*
X1932990D1*
X445010Y2804390D2*
X1932990D1*
X445010Y2794522D2*
X1932990D1*
X445010Y2784653D2*
X1932990D1*
X445010Y2774784D2*
X1932990D1*
X445010Y2764915D2*
X1932990D1*
X445010Y2755047D2*
X1932990D1*
X445010Y2745178D2*
X1932990D1*
X445010Y2735309D2*
X1932990D1*
X445010Y2725440D2*
X1932990D1*
X1907044Y4639001D2*
X1906346Y4629027D1*
X1904953Y4619127D1*
X1902873Y4609348D1*
X1900115Y4599738D1*
X1896693Y4590344D1*
X1892624Y4581211D1*
X1887927Y4572385D1*
X1882625Y4563909D1*
X1876745Y4555823D1*
X1870314Y4548168D1*
X1863365Y4540980D1*
X1855931Y4534294D1*
X1848048Y4528144D1*
X1839755Y4522560D1*
X1831093Y4517568D1*
X1822103Y4513192D1*
X1812830Y4509455D1*
X1803318Y4506375D1*
X1793615Y4503966D1*
X1783767Y4502240D1*
X1773822Y4501206D1*
X1763830Y4500869D1*
X1753839Y4501230D1*
X1743897Y4502288D1*
X1734053Y4504037D1*
X1724355Y4506469D1*
X1714851Y4509572D1*
X1705587Y4513331D1*
X1696607Y4517727D1*
X1687957Y4522740D1*
X1679677Y4528344D1*
X1671809Y4534513D1*
X1664391Y4541216D1*
X1657459Y4548420D1*
X1651046Y4556091D1*
X1645185Y4564191D1*
X1639903Y4572680D1*
X1635227Y4581517D1*
X1631180Y4590659D1*
X1627780Y4600061D1*
X1625045Y4609678D1*
X1622988Y4619462D1*
X1621619Y4629366D1*
X1620945Y4639341D1*
X1620968Y4649339D1*
X1621690Y4659311D1*
X1623106Y4669208D1*
X1625209Y4678982D1*
X1627990Y4688585D1*
X1631434Y4697971D1*
X1635526Y4707094D1*
X1640244Y4715909D1*
X1645565Y4724373D1*
X1651465Y4732444D1*
X1657914Y4740085D1*
X1664880Y4747256D1*
X1672330Y4753924D1*
X1680228Y4760055D1*
X1688534Y4765620D1*
X1697208Y4770591D1*
X1706208Y4774945D1*
X1715490Y4778660D1*
X1725009Y4781718D1*
X1734718Y4784104D1*
X1744570Y4785806D1*
X1754517Y4786817D1*
X1764510Y4787130D1*
X1774501Y4786746D1*
X1784440Y4785664D1*
X1794279Y4783892D1*
X1803971Y4781437D1*
X1813468Y4778311D1*
X1822724Y4774530D1*
X1831692Y4770112D1*
X1840331Y4765079D1*
X1848597Y4759455D1*
X1856451Y4753268D1*
X1863853Y4746547D1*
X1870768Y4739326D1*
X1877162Y4731640D1*
X1883004Y4723527D1*
X1888266Y4715025D1*
X1892921Y4706177D1*
X1896947Y4697025D1*
X1900324Y4687615D1*
X1903036Y4677992D1*
X1905070Y4668203D1*
X1906415Y4658296D1*
X1907066Y4648319D1*
X1907044Y4639001D1*
X1525794D2*
X1525096Y4629027D1*
X1523703Y4619127D1*
X1521623Y4609348D1*
X1518865Y4599738D1*
X1515443Y4590344D1*
X1511374Y4581211D1*
X1506677Y4572385D1*
X1501375Y4563909D1*
X1495495Y4555823D1*
X1489064Y4548168D1*
X1482115Y4540980D1*
X1474681Y4534294D1*
X1466798Y4528144D1*
X1458505Y4522560D1*
X1449843Y4517568D1*
X1440853Y4513192D1*
X1431580Y4509455D1*
X1422068Y4506375D1*
X1412365Y4503966D1*
X1402517Y4502240D1*
X1392572Y4501206D1*
X1382580Y4500869D1*
X1372589Y4501230D1*
X1362647Y4502288D1*
X1352803Y4504037D1*
X1343105Y4506469D1*
X1333601Y4509572D1*
X1324337Y4513331D1*
X1315357Y4517727D1*
X1306707Y4522740D1*
X1298427Y4528344D1*
X1290559Y4534513D1*
X1283141Y4541216D1*
X1276209Y4548420D1*
X1269796Y4556091D1*
X1263935Y4564191D1*
X1258653Y4572680D1*
X1253977Y4581517D1*
X1249930Y4590659D1*
X1246530Y4600061D1*
X1243795Y4609678D1*
X1241738Y4619462D1*
X1240369Y4629366D1*
X1239695Y4639341D1*
X1239718Y4649339D1*
X1240440Y4659311D1*
X1241856Y4669208D1*
X1243959Y4678982D1*
X1246740Y4688585D1*
X1250184Y4697971D1*
X1254276Y4707094D1*
X1258994Y4715909D1*
X1264315Y4724373D1*
X1270215Y4732444D1*
X1276664Y4740085D1*
X1283630Y4747256D1*
X1291080Y4753924D1*
X1298978Y4760055D1*
X1307284Y4765620D1*
X1315958Y4770591D1*
X1324958Y4774945D1*
X1334240Y4778660D1*
X1343759Y4781718D1*
X1353468Y4784104D1*
X1363320Y4785806D1*
X1373267Y4786817D1*
X1383260Y4787130D1*
X1393251Y4786746D1*
X1403190Y4785664D1*
X1413029Y4783892D1*
X1422721Y4781437D1*
X1432218Y4778311D1*
X1441474Y4774530D1*
X1450442Y4770112D1*
X1459081Y4765079D1*
X1467347Y4759455D1*
X1475201Y4753268D1*
X1482603Y4746547D1*
X1489518Y4739326D1*
X1495912Y4731640D1*
X1501754Y4723527D1*
X1507016Y4715025D1*
X1511671Y4706177D1*
X1515697Y4697025D1*
X1519074Y4687615D1*
X1521786Y4677992D1*
X1523820Y4668203D1*
X1525165Y4658296D1*
X1525816Y4648319D1*
X1525794Y4639001D1*
X757044D2*
X756346Y4629027D1*
X754953Y4619127D1*
X752873Y4609348D1*
X750115Y4599738D1*
X746693Y4590344D1*
X742624Y4581211D1*
X737927Y4572385D1*
X732625Y4563909D1*
X726745Y4555823D1*
X720314Y4548168D1*
X713365Y4540980D1*
X705931Y4534294D1*
X698048Y4528144D1*
X689755Y4522560D1*
X681093Y4517568D1*
X672103Y4513192D1*
X662830Y4509455D1*
X653318Y4506375D1*
X643615Y4503966D1*
X633767Y4502240D1*
X623822Y4501206D1*
X613830Y4500869D1*
X603839Y4501230D1*
X593897Y4502288D1*
X584053Y4504037D1*
X574355Y4506469D1*
X564851Y4509572D1*
X555587Y4513331D1*
X546607Y4517727D1*
X537957Y4522740D1*
X529677Y4528344D1*
X521809Y4534513D1*
X514391Y4541216D1*
X507459Y4548420D1*
X501046Y4556091D1*
X495185Y4564191D1*
X489903Y4572680D1*
X485227Y4581517D1*
X481180Y4590659D1*
X477780Y4600061D1*
X475045Y4609678D1*
X472988Y4619462D1*
X471619Y4629366D1*
X470945Y4639341D1*
X470968Y4649339D1*
X471690Y4659311D1*
X473106Y4669208D1*
X475209Y4678982D1*
X477990Y4688585D1*
X481434Y4697971D1*
X485526Y4707094D1*
X490244Y4715909D1*
X495565Y4724373D1*
X501465Y4732444D1*
X507914Y4740085D1*
X514880Y4747256D1*
X522330Y4753924D1*
X530228Y4760055D1*
X538534Y4765620D1*
X547208Y4770591D1*
X556208Y4774945D1*
X565490Y4778660D1*
X575009Y4781718D1*
X584718Y4784104D1*
X594570Y4785806D1*
X604517Y4786817D1*
X614510Y4787130D1*
X624501Y4786746D1*
X634440Y4785664D1*
X644279Y4783892D1*
X653971Y4781437D1*
X663468Y4778311D1*
X672724Y4774530D1*
X681692Y4770112D1*
X690331Y4765079D1*
X698597Y4759455D1*
X706451Y4753268D1*
X713853Y4746547D1*
X720768Y4739326D1*
X727162Y4731640D1*
X733004Y4723527D1*
X738266Y4715025D1*
X742921Y4706177D1*
X746947Y4697025D1*
X750324Y4687615D1*
X753036Y4677992D1*
X755070Y4668203D1*
X756415Y4658296D1*
X757066Y4648319D1*
X757044Y4639001D1*
X1138294D2*
X1137596Y4629027D1*
X1136203Y4619127D1*
X1134123Y4609348D1*
X1131365Y4599738D1*
X1127943Y4590344D1*
X1123874Y4581211D1*
X1119177Y4572385D1*
X1113875Y4563909D1*
X1107995Y4555823D1*
X1101564Y4548168D1*
X1094615Y4540980D1*
X1087181Y4534294D1*
X1079298Y4528144D1*
X1071005Y4522560D1*
X1062343Y4517568D1*
X1053353Y4513192D1*
X1044080Y4509455D1*
X1034568Y4506375D1*
X1024865Y4503966D1*
X1015017Y4502240D1*
X1005072Y4501206D1*
X995080Y4500869D1*
X985089Y4501230D1*
X975147Y4502288D1*
X965303Y4504037D1*
X955605Y4506469D1*
X946101Y4509572D1*
X936837Y4513331D1*
X927857Y4517727D1*
X919207Y4522740D1*
X910927Y4528344D1*
X903059Y4534513D1*
X895641Y4541216D1*
X888709Y4548420D1*
X882296Y4556091D1*
X876435Y4564191D1*
X871153Y4572680D1*
X866477Y4581517D1*
X862430Y4590659D1*
X859030Y4600061D1*
X856295Y4609678D1*
X854238Y4619462D1*
X852869Y4629366D1*
X852195Y4639341D1*
X852218Y4649339D1*
X852940Y4659311D1*
X854356Y4669208D1*
X856459Y4678982D1*
X859240Y4688585D1*
X862684Y4697971D1*
X866776Y4707094D1*
X871494Y4715909D1*
X876815Y4724373D1*
X882715Y4732444D1*
X889164Y4740085D1*
X896130Y4747256D1*
X903580Y4753924D1*
X911478Y4760055D1*
X919784Y4765620D1*
X928458Y4770591D1*
X937458Y4774945D1*
X946740Y4778660D1*
X956259Y4781718D1*
X965968Y4784104D1*
X975820Y4785806D1*
X985767Y4786817D1*
X995760Y4787130D1*
X1005751Y4786746D1*
X1015690Y4785664D1*
X1025529Y4783892D1*
X1035221Y4781437D1*
X1044718Y4778311D1*
X1053974Y4774530D1*
X1062942Y4770112D1*
X1071581Y4765079D1*
X1079847Y4759455D1*
X1087701Y4753268D1*
X1095103Y4746547D1*
X1102018Y4739326D1*
X1108412Y4731640D1*
X1114254Y4723527D1*
X1119516Y4715025D1*
X1124171Y4706177D1*
X1128197Y4697025D1*
X1131574Y4687615D1*
X1134286Y4677992D1*
X1136320Y4668203D1*
X1137665Y4658296D1*
X1138316Y4648319D1*
X1138294Y4639001D1*
X1714161Y4357634D2*
X1815700Y4357572D1*
X1818800Y4357081D1*
X1821785Y4356111D1*
X1824581Y4354687D1*
X1827120Y4352842D1*
X1829339Y4350623D1*
X1831184Y4348084D1*
X1832609Y4345288D1*
X1833579Y4342303D1*
X1834070Y4339203D1*
X1834131Y4312634D1*
X1834070Y2836222D1*
X1833579Y2833122D1*
X1832609Y2830138D1*
X1831184Y2827341D1*
X1829339Y2824802D1*
X1827120Y2822583D1*
X1824581Y2820739D1*
X1821785Y2819314D1*
X1818800Y2818344D1*
X1815700Y2817853D1*
X1789131Y2817791D1*
X1712573Y2817853D1*
X1709473Y2818344D1*
X1706488Y2819314D1*
X1703692Y2820739D1*
X1701153Y2822583D1*
X1698934Y2824802D1*
X1697089Y2827341D1*
X1695664Y2830138D1*
X1694694Y2833122D1*
X1694203Y2836222D1*
X1694142Y2862791D1*
X1694203Y4339203D1*
X1694694Y4342303D1*
X1695664Y4345288D1*
X1697089Y4348084D1*
X1698934Y4350623D1*
X1701153Y4352842D1*
X1703692Y4354687D1*
X1706488Y4356111D1*
X1709473Y4357081D1*
X1712573Y4357572D1*
X1714148Y4357634D1*
X1333079Y4357709D2*
X1434618Y4357647D1*
X1437717Y4357156D1*
X1440702Y4356186D1*
X1443499Y4354762D1*
X1446038Y4352917D1*
X1448257Y4350698D1*
X1450101Y4348159D1*
X1451526Y4345362D1*
X1452496Y4342378D1*
X1452987Y4339278D1*
X1453049Y4312709D1*
X1452987Y2836297D1*
X1452496Y2833197D1*
X1451526Y2830212D1*
X1450101Y2827416D1*
X1448257Y2824877D1*
X1446038Y2822658D1*
X1443499Y2820813D1*
X1440702Y2819389D1*
X1437717Y2818419D1*
X1434618Y2817928D1*
X1408049Y2817866D1*
X1331490Y2817928D1*
X1328390Y2818419D1*
X1325405Y2819388D1*
X1322609Y2820813D1*
X1320070Y2822658D1*
X1317851Y2824877D1*
X1316006Y2827416D1*
X1314581Y2830212D1*
X1313612Y2833197D1*
X1313121Y2836297D1*
X1313059Y2862866D1*
X1313121Y4339278D1*
X1313612Y4342378D1*
X1314581Y4345362D1*
X1316006Y4348159D1*
X1317851Y4350698D1*
X1320070Y4352917D1*
X1322609Y4354762D1*
X1325405Y4356186D1*
X1328390Y4357156D1*
X1331490Y4357647D1*
X1333065Y4357708D1*
X945367Y4357714D2*
X1046906Y4357652D1*
X1050006Y4357161D1*
X1052991Y4356192D1*
X1055787Y4354767D1*
X1058326Y4352922D1*
X1060545Y4350703D1*
X1062390Y4348164D1*
X1063815Y4345368D1*
X1064785Y4342383D1*
X1065276Y4339283D1*
X1065337Y4312714D1*
X1065276Y2836302D1*
X1064785Y2833202D1*
X1063815Y2830218D1*
X1062390Y2827421D1*
X1060545Y2824882D1*
X1058326Y2822663D1*
X1055787Y2820819D1*
X1052991Y2819394D1*
X1050006Y2818424D1*
X1046906Y2817933D1*
X1020337Y2817871D1*
X943779Y2817933D1*
X940679Y2818424D1*
X937694Y2819394D1*
X934898Y2820819D1*
X932359Y2822663D1*
X930140Y2824882D1*
X928295Y2827421D1*
X926870Y2830218D1*
X925900Y2833202D1*
X925409Y2836302D1*
X925348Y2862871D1*
X925409Y4339283D1*
X925900Y4342383D1*
X926870Y4345368D1*
X928295Y4348164D1*
X930140Y4350703D1*
X932359Y4352922D1*
X934898Y4354767D1*
X937694Y4356192D1*
X940679Y4357161D1*
X943779Y4357652D1*
X945354Y4357714D1*
X564497Y4357428D2*
X666036Y4357366D1*
X669136Y4356875D1*
X672121Y4355906D1*
X674917Y4354481D1*
X677456Y4352636D1*
X679675Y4350417D1*
X681520Y4347878D1*
X682945Y4345082D1*
X683915Y4342097D1*
X684406Y4338997D1*
X684467Y4312428D1*
X684406Y2836016D1*
X683915Y2832916D1*
X682945Y2829932D1*
X681520Y2827135D1*
X679675Y2824596D1*
X677456Y2822377D1*
X674917Y2820532D1*
X672121Y2819108D1*
X669136Y2818138D1*
X666036Y2817647D1*
X639467Y2817585D1*
X562908Y2817647D1*
X559809Y2818138D1*
X556824Y2819108D1*
X554028Y2820532D1*
X551489Y2822377D1*
X549269Y2824596D1*
X547425Y2827135D1*
X546000Y2829932D1*
X545030Y2832916D1*
X544539Y2836016D1*
X544478Y2862585D1*
X544539Y4338997D1*
X545030Y4342097D1*
X546000Y4345082D1*
X547425Y4347878D1*
X549269Y4350417D1*
X551489Y4352636D1*
X554028Y4354481D1*
X556824Y4355906D1*
X559809Y4356875D1*
X562908Y4357366D1*
X564484Y4357428D1*
X1933980Y4807750D2*
X444020D1*
X444000Y2724020D1*
X1933980Y2724000D1*
X1934000Y4807730D1*
D19*
X1389000Y1508000D3*
X989000Y1031000D3*
X595000D3*
Y1508000D3*
X989000D3*
X1389000Y1031000D3*
X1783000Y1508000D3*
X989000Y1969000D3*
X595000D3*
D20*
X1689000Y512058D3*
X689000D3*
D19*
X1783000Y1031000D3*
D20*
X689000Y5334892D3*
X1689000D3*
D19*
X595000Y2444000D3*
X989000D3*
X1783000D3*
Y1969000D3*
X1389000Y2444000D3*
Y1969000D3*
D17*
X1188951Y2608803D3*
X1188877Y2140241D3*
X1189975Y1676186D3*
X1188832Y1199381D3*
M02*
