M48
INCH
T01C0.015
T02C0.04
T03C0.043
T04C0.052
T05C0.128
%
T01
X+016392Y+035590
X+016689Y+035375
X+017858Y+034875
X+018483Y+034313
X+017733Y+036312
X+018671Y+039062
X+017046Y+039812
X+014984Y+039750
X+014359Y+037812
X+014844Y+035744
X+014822Y+035283
X+014829Y+034872
X+013484Y+035438
X+013422Y+032739
X+011995Y+032136
X+011995Y+031345
X+013248Y+030054
X+013636Y+030397
X+014573Y+030116
X+015172Y+030017
X+014585Y+030729
X+015210Y+031803
X+015210Y+032815
X+016921Y+032125
X+016609Y+030188
X+017422Y+030188
X+017422Y+029563
X+016609Y+029001
X+016921Y+028688
X+017484Y+027702
X+017125Y+027408
X+016671Y+027126
X+016796Y+026626
X+016046Y+025314
X+017484Y+024626
X+016903Y+021733
X+017983Y+021502
X+018921Y+020752
X+018431Y+019912
X+016723Y+019212
X+015546Y+017752
X+014984Y+017627
X+014484Y+019502
X+012654Y+019100
X+011275Y+017929
X+010672Y+018064
X+010609Y+016815
X+011172Y+016752
X+012234Y+016752
X+012327Y+017211
X+012797Y+016752
X+012234Y+015752
X+013234Y+015127
X+012234Y+014002
X+011172Y+014002
X+011172Y+015002
X+010172Y+015315
X+008359Y+016624
X+007797Y+018377
X+008451Y+019029
X+007298Y+020265
X+008234Y+021411
X+009859Y+021502
X+010555Y+021603
X+013484Y+021502
X+014702Y+021503
X+015734Y+021064
X+013109Y+023251
X+013296Y+024751
X+012728Y+025531
X+012484Y+026001
X+012305Y+026654
X+011987Y+027438
X+011995Y+027984
X+011601Y+028307
X+011109Y+027827
X+011409Y+027167
X+010578Y+026526
X+009961Y+027462
X+009453Y+027979
X+008272Y+027979
X+008032Y+027049
X+008914Y+026923
X+008528Y+025725
X+007297Y+025751
X+007360Y+025064
X+009734Y+025126
X+011109Y+025126
X+012014Y+025212
X+014031Y+026865
X+013941Y+027278
X+014550Y+026927
X+015098Y+027082
X+015176Y+027586
X+014923Y+028253
X+014451Y+028559
X+012668Y+029494
X+012268Y+028670
X+011109Y+028876
X+010547Y+029251
X+010109Y+029688
X+010519Y+030287
X+010109Y+030938
X+009950Y+031756
X+009937Y+032730
X+010734Y+032938
X+011047Y+034250
X+010184Y+034742
X+009605Y+035006
X+008782Y+035375
X+010029Y+035934
X+010092Y+036406
X+010684Y+037076
X+010998Y+040825
X+013144Y+042061
X+005339Y+042077
X+005672Y+038625
X+005297Y+033313
X+006297Y+032875
X+007422Y+033313
X+008744Y+033033
X+007797Y+032000
X+007980Y+030317
X+008744Y+030378
X+006037Y+029769
X+005446Y+030255
X+004535Y+028998
X+004919Y+028668
X+005523Y+027817
X+005469Y+026984
X+004610Y+027501
X+004485Y+025876
X+004297Y+022001
X+004633Y+020197
X+006235Y+021377
X+006512Y+017036
X+006137Y+016162
X+005406Y+016315
X+004297Y+016690
X+004359Y+015690
X+005422Y+015127
X+004359Y+014128
X+007013Y+012594
X+008409Y+012190
X+010376Y+011728
X+012399Y+010400
X+014609Y+010503
X+016109Y+010128
X+016796Y+011378
X+016711Y+012531
X+018983Y+013940
X+018983Y+015065
X+017990Y+015252
X+018284Y+016138
X+017862Y+016355
X+018983Y+016877
X+015359Y+015502
X+016609Y+006503
X+015815Y+006375
X+012359Y+006066
X+008765Y+007636
X+007727Y+006496
X+004738Y+006834
T02
X+009609Y+044503
X+009609Y+045503
X+010609Y+045503
X+010609Y+044503
X+011609Y+044503
X+011609Y+045503
X+012609Y+045503
X+012609Y+044503
X+013609Y+044503
X+013609Y+045503
X+014889Y+043331
X+016142Y+043331
X+016142Y+041551
X+014889Y+041551
X+012329Y+041551
X+011014Y+041551
X+011014Y+043331
X+012329Y+043331
X+008454Y+043331
X+007202Y+043331
X+007202Y+041551
X+008454Y+041551
X+004642Y+041551
X+004642Y+043331
X+018702Y+043331
X+018702Y+041551
X+017609Y+018071
X+017609Y+018061
X+013672Y+018061
X+013672Y+018071
X+009672Y+018071
X+009672Y+018061
X+005734Y+018061
X+005734Y+018071
X+005734Y+008686
X+005734Y+008677
X+009672Y+008677
X+009672Y+008686
X+013672Y+008686
X+013672Y+008711
X+017608Y+008695
X+017608Y+008686
T03
X+017921Y+024001
X+018921Y+024001
X+016921Y+024001
X+015921Y+024001
X+015109Y+024001
X+014109Y+024001
X+013109Y+024001
X+012109Y+024001
X+011234Y+024001
X+010234Y+024001
X+009234Y+024001
X+008234Y+024001
X+007422Y+024001
X+006422Y+024001
X+005422Y+024001
X+004422Y+024001
X+004422Y+039749
X+006422Y+039749
X+008234Y+039749
X+010234Y+039749
X+012109Y+039749
X+014109Y+039749
X+015921Y+039749
X+017921Y+039749
T04
X+017609Y+017061
X+017609Y+019071
X+017609Y+022321
X+013672Y+022321
X+013672Y+019071
X+013672Y+017061
X+013672Y+013811
X+013672Y+012961
X+013672Y+009711
X+013672Y+007686
X+013672Y+004436
X+017608Y+004436
X+017608Y+007686
X+017608Y+009695
X+017608Y+012945
X+017609Y+013811
X+009672Y+013811
X+009672Y+012927
X+009672Y+009677
X+009672Y+007686
X+009672Y+004436
X+005734Y+004436
X+005734Y+007686
X+005734Y+009677
X+005734Y+012927
X+005734Y+013811
X+005734Y+017061
X+005734Y+019071
X+005734Y+022321
X+009672Y+022321
X+009672Y+019071
X+009672Y+017061
T05
X+005422Y+045441
X+017922Y+045441
T00
M30
