G04 DipTrace 3.2.0.1*
G04 twigs02.GTP*
%MOIN*%
G04 #@! TF.FileFunction,Paste,Top*
G04 #@! TF.Part,Single*
%AMOUTLINE0*
4,1,4,
0.027559,-0.051181,
0.027559,0.051181,
-0.027559,0.051181,
-0.027559,-0.051181,
0.027559,-0.051181,
0*%
%AMOUTLINE1*
4,1,4,
0.01378,0.019685,
-0.01378,0.019685,
-0.01378,-0.019685,
0.01378,-0.019685,
0.01378,0.019685,
0*%
%AMOUTLINE2*
4,1,4,
0.0295,0.0395,
-0.0295,0.0395,
-0.0295,-0.0395,
0.0295,-0.0395,
0.0295,0.0395,
0*%
%AMOUTLINE3*
4,1,4,
0.075,0.0395,
-0.075,0.0395,
-0.075,-0.0395,
0.075,-0.0395,
0.075,0.0395,
0*%
%AMOUTLINE5*
4,1,4,
0.043307,-0.011811,
0.043307,0.011811,
-0.043307,0.011811,
-0.043307,-0.011811,
0.043307,-0.011811,
0*%
%AMOUTLINE6*
4,1,4,
-0.011,0.025,
-0.011,-0.025,
0.011,-0.025,
0.011,0.025,
-0.011,0.025,
0*%
%AMOUTLINE7*
4,1,4,
-0.025,0.011,
-0.025,-0.011,
0.025,-0.011,
0.025,0.011,
-0.025,0.011,
0*%
%AMOUTLINE8*
4,1,4,
0.016732,0.01378,
-0.016732,0.01378,
-0.016732,-0.01378,
0.016732,-0.01378,
0.016732,0.01378,
0*%
%AMOUTLINE9*
4,1,4,
0.019685,0.027559,
-0.019685,0.027559,
-0.019685,-0.027559,
0.019685,-0.027559,
0.019685,0.027559,
0*%
%ADD26R,0.043307X0.03937*%
%ADD37R,0.03937X0.043307*%
%ADD57R,0.042X0.158929*%
%ADD65R,0.03137X0.078614*%
%ADD71OUTLINE0*%
%ADD72OUTLINE1*%
%ADD73OUTLINE2*%
%ADD74OUTLINE3*%
%ADD76OUTLINE5*%
%ADD77OUTLINE6*%
%ADD78OUTLINE7*%
%ADD79OUTLINE8*%
%ADD80OUTLINE9*%
%FSLAX26Y26*%
G04*
G70*
G90*
G75*
G01*
G04 TopPaste*
%LPD*%
D71*
X831569Y3663384D3*
Y3824801D3*
D26*
X1160913Y3487514D3*
X1093984D3*
D71*
X1495691Y3694631D3*
Y3856048D3*
D65*
X1729603Y3606251D3*
X1829603D3*
Y3831054D3*
X1729603D3*
D72*
X1523375Y3500012D3*
X1598178D3*
X1560777Y3586627D3*
D73*
X1075728Y3622530D3*
X1165728D3*
X1255728D3*
D74*
X1164728Y3870530D3*
D26*
X1735853Y3487514D3*
X1668923D3*
X1817094D3*
X1884023D3*
X1648412Y1719089D3*
X1581483D3*
X1898412Y1644089D3*
X1831483D3*
X1225233Y1631590D3*
X1292162D3*
X1473380Y2531364D3*
X1406451D3*
X1463084Y3099489D3*
X1396154D3*
X1461619Y3187683D3*
X1394690D3*
D76*
X1454662Y1612839D3*
Y1562839D3*
Y1512839D3*
Y1462839D3*
X1659387D3*
Y1512839D3*
Y1562839D3*
Y1612839D3*
D77*
X1329662Y2619089D3*
X1361158D3*
X1392654D3*
X1424151D3*
X1455647D3*
X1487143D3*
X1518639D3*
X1550135D3*
D78*
X1608899Y2677852D3*
Y2709348D3*
Y2740845D3*
Y2772341D3*
Y2803837D3*
Y2835333D3*
Y2866829D3*
Y2898325D3*
D77*
X1550135Y2957089D3*
X1518639D3*
X1487143D3*
X1455647D3*
X1424151D3*
X1392654D3*
X1361158D3*
X1329662D3*
D78*
X1270899Y2898325D3*
Y2866829D3*
Y2835333D3*
Y2803837D3*
Y2772341D3*
Y2740845D3*
Y2709348D3*
Y2677852D3*
D57*
X1642162Y3108079D3*
X1742162D3*
X1842162D3*
Y3305324D3*
X1742162D3*
X1642162D3*
D79*
X1391729Y3273938D3*
X1454721D3*
D80*
X1491282Y2035623D3*
X1528683Y2122237D3*
X1566085Y2035623D3*
X1654889Y2038183D3*
X1692291Y2124797D3*
X1729693Y2038183D3*
D26*
X1885912Y2037839D3*
X1818983D3*
X1898412Y1544089D3*
X1831483D3*
X1829662Y1437839D3*
X1896591D3*
X1485912Y1812839D3*
X1552841D3*
X1284091Y1437839D3*
X1217162D3*
X1218984Y1537839D3*
X1285913D3*
X1566821Y1913023D3*
X1633750D3*
D37*
X1495057Y4004043D3*
Y4070972D3*
D26*
X1258698Y652553D3*
X1325627D3*
X1239948Y1052553D3*
X1306878D3*
X1228336Y3271137D3*
X1295265D3*
X1652841Y706589D3*
X1585912D3*
X1609091Y1056589D3*
X1542162D3*
X1623233Y2196927D3*
X1556304D3*
X1206038Y2478064D3*
X1272967D3*
X835912Y1737839D3*
X768983D3*
X1125627Y1635625D3*
X1058698D3*
X433696Y1633801D3*
X500626D3*
X906876Y2504373D3*
X839947D3*
X955918Y3084561D3*
X888989D3*
X953410Y3179293D3*
X886481D3*
D76*
X673412Y1612839D3*
Y1562839D3*
Y1512839D3*
Y1462839D3*
X878136D3*
Y1512839D3*
Y1562839D3*
Y1612839D3*
D77*
X767162Y2619090D3*
X798658D3*
X830154D3*
X861651D3*
X893147D3*
X924643D3*
X956139D3*
X987635D3*
D78*
X1046399Y2677854D3*
Y2709350D3*
Y2740846D3*
Y2772342D3*
Y2803838D3*
Y2835334D3*
Y2866830D3*
Y2898326D3*
D77*
X987635Y2957090D3*
X956139D3*
X924643D3*
X893147D3*
X861651D3*
X830154D3*
X798658D3*
X767162D3*
D78*
X708399Y2898326D3*
Y2866830D3*
Y2835334D3*
Y2803838D3*
Y2772342D3*
Y2740846D3*
Y2709350D3*
Y2677854D3*
D57*
X492233Y3250039D3*
X592233D3*
X692233D3*
Y3447283D3*
X592233D3*
X492233D3*
D79*
X881175Y3273666D3*
X944168D3*
D80*
X817162Y2044089D3*
X854564Y2130703D3*
X891965Y2044089D3*
X1050900D3*
X1088301Y2130703D3*
X1125703Y2044089D3*
D26*
X1129662Y1831589D3*
X1062733D3*
X1123412Y1537839D3*
X1056483D3*
X1050233Y1437839D3*
X1117162D3*
X565173Y2019734D3*
X498244D3*
X502841Y1444089D3*
X435912D3*
Y1537837D3*
X502841D3*
X802127Y1947834D3*
X735198D3*
X600779Y3862842D3*
X667708D3*
X485912Y637839D3*
X552841D3*
X704711Y1262747D3*
X771640D3*
X552971Y3057577D3*
X619900D3*
X852841Y719089D3*
X785912D3*
X984660Y1172783D3*
X917731D3*
X800593Y2201285D3*
X733664D3*
X448488Y2506367D3*
X515417D3*
M02*
