G04 DipTrace 3.2.0.1*
G04 twigs02.GBO*
%MOIN*%
G04 #@! TF.FileFunction,Legend,Bot*
G04 #@! TF.Part,Single*
%ADD10C,0.009843*%
%ADD15C,0.008*%
%ADD19C,0.006*%
%ADD24C,0.000013*%
%ADD29C,0.005984*%
%ADD40O,0.039405X0.039508*%
%ADD68C,0.004632*%
%FSLAX26Y26*%
G04*
G70*
G90*
G75*
G01*
G04 BotSilk*
%LPD*%
X1795947Y1569210D2*
D19*
X1725912D1*
X1760912Y1534263D2*
Y1604206D1*
X1710897Y1744093D2*
X1585912D1*
X1810927D2*
X1935912D1*
X1810927Y1344084D2*
X1935912D1*
X1710897D2*
X1585912D1*
Y1744093D1*
X1935912D2*
Y1344084D1*
X1810927Y1744093D2*
D29*
Y1756567D1*
X1710897D1*
Y1744093D1*
X1402197Y1569210D2*
D19*
X1332162D1*
X1367162Y1534263D2*
Y1604206D1*
X1317147Y1744093D2*
X1192162D1*
X1417177D2*
X1542162D1*
X1417177Y1344084D2*
X1542162D1*
X1317147D2*
X1192162D1*
Y1744093D1*
X1542162D2*
Y1344084D1*
X1417177Y1744093D2*
D29*
Y1756567D1*
X1317147D1*
Y1744093D1*
X1725877Y2043968D2*
D19*
X1795912D1*
X1760912Y2078915D2*
Y2008971D1*
X1810927Y1869084D2*
X1935912D1*
X1710897D2*
X1585912D1*
X1710897Y2269094D2*
X1585912D1*
X1810927D2*
X1935912D1*
Y1869084D1*
X1585912D2*
Y2269094D1*
X1710897Y1869084D2*
D29*
Y1856610D1*
X1810927D1*
Y1869084D1*
X1332127Y2043968D2*
D19*
X1402162D1*
X1367162Y2078915D2*
Y2008971D1*
X1417177Y1869084D2*
X1542162D1*
X1317147D2*
X1192162D1*
X1317147Y2269094D2*
X1192162D1*
X1417177D2*
X1542162D1*
Y1869084D1*
X1192162D2*
Y2269094D1*
X1317147Y1869084D2*
D29*
Y1856610D1*
X1417177D1*
Y1869084D1*
X1725815Y1106393D2*
D19*
X1795850D1*
X1760850Y1141340D2*
Y1071396D1*
X1810865Y931509D2*
X1935850D1*
X1710835D2*
X1585850D1*
X1710835Y1331519D2*
X1585850D1*
X1810865D2*
X1935850D1*
Y931509D1*
X1585850D2*
Y1331519D1*
X1710835Y931509D2*
D29*
Y919035D1*
X1810865D1*
Y931509D1*
X1795885Y631708D2*
D19*
X1725850D1*
X1760850Y596746D2*
Y666669D1*
X1710835Y806565D2*
X1585850D1*
X1810865D2*
X1935850D1*
X1810865Y406559D2*
X1935850D1*
X1710835D2*
X1585850D1*
Y806565D1*
X1935850D2*
Y406559D1*
X1810865Y806565D2*
D29*
Y819026D1*
X1710835D1*
Y806565D1*
X1332127Y1107975D2*
D19*
X1402162D1*
X1367162Y1142922D2*
Y1072979D1*
X1417177Y933092D2*
X1542162D1*
X1317147D2*
X1192162D1*
X1317147Y1333101D2*
X1192162D1*
X1417177D2*
X1542162D1*
Y933092D1*
X1192162D2*
Y1333101D1*
X1317147Y933092D2*
D29*
Y920618D1*
X1417177D1*
Y933092D1*
X1402197Y631734D2*
D19*
X1332162D1*
X1367162Y596772D2*
Y666695D1*
X1317147Y806591D2*
X1192162D1*
X1417177D2*
X1542162D1*
X1417177Y406586D2*
X1542162D1*
X1317147D2*
X1192162D1*
Y806591D1*
X1542162D2*
Y406586D1*
X1417177Y806591D2*
D29*
Y819052D1*
X1317147D1*
Y806591D1*
X1672171Y4244089D2*
D24*
G02X1672171Y4244089I69993J0D01*
G01*
X1657156Y4364091D2*
D15*
X1827172D1*
Y4124086D2*
X1657156D1*
X1622176Y4283375D2*
Y4204096D1*
X1862152Y4284560D2*
Y4204096D1*
X1290919Y4244089D2*
D24*
G02X1290919Y4244089I69993J0D01*
G01*
X1275904Y4364091D2*
D15*
X1445920D1*
Y4124086D2*
X1275904D1*
X1240924Y4283375D2*
Y4204096D1*
X1480900Y4284560D2*
Y4204096D1*
X1919282Y2297736D2*
D10*
X1564921D1*
X1919282D2*
Y4077354D1*
X1564921Y2297736D2*
Y4077354D1*
X1919282D2*
X1564921D1*
X1792121Y3937476D2*
X1692082D1*
X1792121D2*
Y2437614D1*
X1692082D2*
X1792121D1*
X1692082D2*
Y3937476D1*
D40*
X1821799Y2419818D3*
X1538072Y2297736D2*
D10*
X1183711D1*
X1538072D2*
Y4077354D1*
X1183711Y2297736D2*
Y4077354D1*
X1538072D2*
X1183711D1*
X1410911Y3937476D2*
X1310872D1*
X1410911D2*
Y2437614D1*
X1310872D2*
X1410911D1*
X1310872D2*
Y3937476D1*
D40*
X1440589Y2419818D3*
X1002197Y1569210D2*
D19*
X932162D1*
X967162Y1534263D2*
Y1604206D1*
X917147Y1744093D2*
X792162D1*
X1017177D2*
X1142162D1*
X1017177Y1344084D2*
X1142162D1*
X917147D2*
X792162D1*
Y1744093D1*
X1142162D2*
Y1344084D1*
X1017177Y1744093D2*
D29*
Y1756567D1*
X917147D1*
Y1744093D1*
X608447Y1569210D2*
D19*
X538412D1*
X573412Y1534263D2*
Y1604206D1*
X523397Y1744093D2*
X398412D1*
X623427D2*
X748412D1*
X623427Y1344084D2*
X748412D1*
X523397D2*
X398412D1*
Y1744093D1*
X748412D2*
Y1344084D1*
X623427Y1744093D2*
D29*
Y1756567D1*
X523397D1*
Y1744093D1*
X932127Y2043968D2*
D19*
X1002162D1*
X967162Y2078915D2*
Y2008971D1*
X1017177Y1869084D2*
X1142162D1*
X917147D2*
X792162D1*
X917147Y2269094D2*
X792162D1*
X1017177D2*
X1142162D1*
Y1869084D1*
X792162D2*
Y2269094D1*
X917147Y1869084D2*
D29*
Y1856610D1*
X1017177D1*
Y1869084D1*
X538377Y2043968D2*
D19*
X608412D1*
X573412Y2078915D2*
Y2008971D1*
X623427Y1869084D2*
X748412D1*
X523397D2*
X398412D1*
X523397Y2269094D2*
X398412D1*
X623427D2*
X748412D1*
Y1869084D1*
X398412D2*
Y2269094D1*
X523397Y1869084D2*
D29*
Y1856610D1*
X623427D1*
Y1869084D1*
X932127Y1104598D2*
D19*
X1002162D1*
X967162Y1139545D2*
Y1069601D1*
X1017177Y929714D2*
X1142162D1*
X917147D2*
X792162D1*
X917147Y1329724D2*
X792162D1*
X1017177D2*
X1142162D1*
Y929714D1*
X792162D2*
Y1329724D1*
X917147Y929714D2*
D29*
Y917240D1*
X1017177D1*
Y929714D1*
X1002197Y631734D2*
D19*
X932162D1*
X967162Y596772D2*
Y666695D1*
X917147Y806591D2*
X792162D1*
X1017177D2*
X1142162D1*
X1017177Y406586D2*
X1142162D1*
X917147D2*
X792162D1*
Y806591D1*
X1142162D2*
Y406586D1*
X1017177Y806591D2*
D29*
Y819052D1*
X917147D1*
Y806591D1*
X538377Y1104598D2*
D19*
X608412D1*
X573412Y1139545D2*
Y1069601D1*
X623427Y929714D2*
X748412D1*
X523397D2*
X398412D1*
X523397Y1329724D2*
X398412D1*
X623427D2*
X748412D1*
Y929714D1*
X398412D2*
Y1329724D1*
X523397Y929714D2*
D29*
Y917240D1*
X623427D1*
Y929714D1*
X608447Y631734D2*
D19*
X538412D1*
X573412Y596772D2*
Y666695D1*
X523397Y806591D2*
X398412D1*
X623427D2*
X748412D1*
X623427Y406586D2*
X748412D1*
X523397D2*
X398412D1*
Y806591D1*
X748412D2*
Y406586D1*
X623427Y806591D2*
D29*
Y819052D1*
X523397D1*
Y806591D1*
X903419Y4244089D2*
D24*
G02X903419Y4244089I69993J0D01*
G01*
X888404Y4364091D2*
D15*
X1058420D1*
Y4124086D2*
X888404D1*
X853424Y4283375D2*
Y4204096D1*
X1093400Y4284560D2*
Y4204096D1*
X522168Y4244089D2*
D24*
G02X522168Y4244089I69993J0D01*
G01*
X507153Y4364091D2*
D15*
X677169D1*
Y4124086D2*
X507153D1*
X472173Y4283375D2*
Y4204096D1*
X712149Y4284560D2*
Y4204096D1*
X1150613Y2297736D2*
D10*
X796252D1*
X1150613D2*
Y4077354D1*
X796252Y2297736D2*
Y4077354D1*
X1150613D2*
X796252D1*
X1023452Y3937476D2*
X923413D1*
X1023452D2*
Y2437614D1*
X923413D2*
X1023452D1*
X923413D2*
Y3937476D1*
D40*
X1053130Y2419818D3*
X769403Y2297736D2*
D10*
X415042D1*
X769403D2*
Y4077354D1*
X415042Y2297736D2*
Y4077354D1*
X769403D2*
X415042D1*
X642242Y3937476D2*
X542203D1*
X642242D2*
Y2437614D1*
X542203D2*
X642242D1*
X542203D2*
Y3937476D1*
D40*
X671920Y2419818D3*
X1794702Y1495063D2*
D68*
Y1472115D1*
X1796128Y1467804D1*
X1797587Y1466378D1*
X1800439Y1464919D1*
X1803324D1*
X1806176Y1466378D1*
X1807602Y1467804D1*
X1809061Y1472115D1*
Y1474967D1*
X1785439Y1489293D2*
X1782554Y1490752D1*
X1778243Y1495030D1*
Y1464919D1*
X1768979Y1459945D2*
X1741720D1*
X1732457Y1489293D2*
X1729572Y1490752D1*
X1725261Y1495030D1*
Y1464919D1*
X1780736Y1626219D2*
X1782162Y1629071D1*
X1785047Y1631956D1*
X1787899Y1633382D1*
X1793635D1*
X1796521Y1631956D1*
X1799372Y1629071D1*
X1800832Y1626219D1*
X1802258Y1621908D1*
Y1614712D1*
X1800832Y1610434D1*
X1799372Y1607549D1*
X1796521Y1604697D1*
X1793635Y1603238D1*
X1787899D1*
X1785047Y1604697D1*
X1782162Y1607549D1*
X1780736Y1610434D1*
X1771472Y1633382D2*
X1759998Y1603238D1*
X1748524Y1633382D1*
X1739261Y1627612D2*
X1736376Y1629071D1*
X1732064Y1633349D1*
Y1603238D1*
X1388655Y1488814D2*
Y1465866D1*
X1390081Y1461555D1*
X1391540Y1460129D1*
X1394392Y1458670D1*
X1397277D1*
X1400129Y1460129D1*
X1401555Y1461555D1*
X1403014Y1465866D1*
Y1468718D1*
X1377932Y1481618D2*
Y1483044D1*
X1376506Y1485929D1*
X1375080Y1487355D1*
X1372195Y1488781D1*
X1366458D1*
X1363606Y1487355D1*
X1362180Y1485929D1*
X1360721Y1483044D1*
Y1480192D1*
X1362180Y1477307D1*
X1365032Y1473029D1*
X1379391Y1458670D1*
X1359295D1*
X1350032Y1453696D2*
X1322773D1*
X1313509Y1483044D2*
X1310624Y1484503D1*
X1306313Y1488781D1*
Y1458670D1*
X1387187Y1638718D2*
X1388613Y1641570D1*
X1391498Y1644455D1*
X1394350Y1645881D1*
X1400087D1*
X1402972Y1644455D1*
X1405824Y1641570D1*
X1407283Y1638718D1*
X1408709Y1634407D1*
Y1627211D1*
X1407283Y1622933D1*
X1405824Y1620048D1*
X1402972Y1617196D1*
X1400087Y1615737D1*
X1394350D1*
X1391498Y1617196D1*
X1388613Y1620048D1*
X1387187Y1622933D1*
X1377923Y1645881D2*
X1366449Y1615737D1*
X1354975Y1645881D1*
X1344253Y1638684D2*
Y1640110D1*
X1342827Y1642996D1*
X1341401Y1644421D1*
X1338516Y1645847D1*
X1332779D1*
X1329927Y1644421D1*
X1328501Y1642996D1*
X1327042Y1640110D1*
Y1637259D1*
X1328501Y1634373D1*
X1331353Y1630096D1*
X1345712Y1615737D1*
X1325616D1*
X1788654Y1994806D2*
Y1971858D1*
X1790080Y1967547D1*
X1791539Y1966121D1*
X1794391Y1964662D1*
X1797276D1*
X1800128Y1966121D1*
X1801554Y1967547D1*
X1803013Y1971858D1*
Y1974710D1*
X1776505Y1994773D2*
X1760753D1*
X1769342Y1983299D1*
X1765031D1*
X1762179Y1981873D1*
X1760753Y1980447D1*
X1759294Y1976136D1*
Y1973284D1*
X1760753Y1968973D1*
X1763605Y1966088D1*
X1767916Y1964662D1*
X1772227D1*
X1776505Y1966088D1*
X1777931Y1967547D1*
X1779390Y1970399D1*
X1750031Y1959688D2*
X1722772D1*
X1713508Y1989036D2*
X1710623Y1990495D1*
X1706312Y1994773D1*
Y1964662D1*
X1783821Y2151873D2*
Y2121729D1*
X1754462Y2151873D2*
Y2121729D1*
X1774558Y2151873D1*
Y2121729D1*
X1745198Y2146103D2*
X1742313Y2147562D1*
X1738002Y2151840D1*
Y2121729D1*
X1401867Y1994806D2*
Y1971858D1*
X1403293Y1967547D1*
X1404752Y1966121D1*
X1407604Y1964662D1*
X1410489D1*
X1413341Y1966121D1*
X1414767Y1967547D1*
X1416226Y1971858D1*
Y1974710D1*
X1378244Y1964662D2*
Y1994773D1*
X1392603Y1974710D1*
X1371081D1*
X1361818Y1959688D2*
X1334559D1*
X1325295Y1989036D2*
X1322410Y1990495D1*
X1318099Y1994773D1*
Y1964662D1*
X1415270Y2145623D2*
Y2115479D1*
X1385910Y2145623D2*
Y2115479D1*
X1406006Y2145623D1*
Y2115479D1*
X1375188Y2138427D2*
Y2139853D1*
X1373762Y2142738D1*
X1372336Y2144164D1*
X1369451Y2145590D1*
X1363714D1*
X1360862Y2144164D1*
X1359436Y2142738D1*
X1357977Y2139853D1*
Y2137001D1*
X1359436Y2134116D1*
X1362288Y2129838D1*
X1376647Y2115479D1*
X1356551D1*
X1782343Y1057231D2*
Y1034283D1*
X1783769Y1029972D1*
X1785228Y1028546D1*
X1788080Y1027087D1*
X1790965D1*
X1793817Y1028546D1*
X1795243Y1029972D1*
X1796702Y1034283D1*
Y1037135D1*
X1755868Y1057198D2*
X1770194D1*
X1771620Y1044298D1*
X1770194Y1045724D1*
X1765883Y1047183D1*
X1761605D1*
X1757294Y1045724D1*
X1754409Y1042872D1*
X1752983Y1038561D1*
Y1035709D1*
X1754409Y1031398D1*
X1757294Y1028513D1*
X1761605Y1027087D1*
X1765883D1*
X1770194Y1028513D1*
X1771620Y1029972D1*
X1773079Y1032824D1*
X1743720Y1022113D2*
X1716461D1*
X1707197Y1051461D2*
X1704312Y1052920D1*
X1700001Y1057198D1*
Y1027087D1*
X1817414Y1220547D2*
X1820299Y1219121D1*
X1823151Y1216236D1*
X1824610Y1213384D1*
X1826036Y1209073D1*
Y1201877D1*
X1824610Y1197599D1*
X1823151Y1194714D1*
X1820299Y1191862D1*
X1817414Y1190403D1*
X1811677D1*
X1808825Y1191862D1*
X1805940Y1194714D1*
X1804514Y1197599D1*
X1803088Y1201877D1*
Y1209073D1*
X1804514Y1213384D1*
X1805940Y1216236D1*
X1808825Y1219121D1*
X1811677Y1220547D1*
X1817414D1*
X1793824D2*
Y1199025D1*
X1792398Y1194714D1*
X1789513Y1191862D1*
X1785202Y1190403D1*
X1782350D1*
X1778039Y1191862D1*
X1775154Y1194714D1*
X1773728Y1199025D1*
Y1220547D1*
X1754417D2*
Y1190403D1*
X1764465Y1220547D2*
X1744369D1*
X1735105Y1214777D2*
X1732220Y1216236D1*
X1727909Y1220514D1*
Y1190403D1*
X1695664D2*
X1707171Y1220547D1*
X1718645Y1190403D1*
X1714334Y1200451D2*
X1699975D1*
X1788361Y570300D2*
Y547352D1*
X1789787Y543041D1*
X1791246Y541615D1*
X1794098Y540156D1*
X1796983D1*
X1799835Y541615D1*
X1801261Y543041D1*
X1802720Y547352D1*
Y550204D1*
X1761887Y565989D2*
X1763313Y568841D1*
X1767624Y570267D1*
X1770476D1*
X1774787Y568841D1*
X1777672Y564530D1*
X1779098Y557367D1*
Y550204D1*
X1777672Y544467D1*
X1774787Y541582D1*
X1770476Y540156D1*
X1769050D1*
X1764772Y541582D1*
X1761887Y544467D1*
X1760461Y548778D1*
Y550204D1*
X1761887Y554515D1*
X1764772Y557367D1*
X1769050Y558793D1*
X1770476D1*
X1774787Y557367D1*
X1777672Y554515D1*
X1779098Y550204D1*
X1751197Y535181D2*
X1723938D1*
X1714675Y564530D2*
X1711790Y565989D1*
X1707479Y570267D1*
Y540156D1*
X1803472Y715101D2*
X1806357Y713675D1*
X1809209Y710790D1*
X1810668Y707938D1*
X1812094Y703627D1*
Y696431D1*
X1810668Y692153D1*
X1809209Y689268D1*
X1806357Y686416D1*
X1803472Y684957D1*
X1797735D1*
X1794883Y686416D1*
X1791998Y689268D1*
X1790572Y692153D1*
X1789146Y696431D1*
Y703627D1*
X1790572Y707938D1*
X1791998Y710790D1*
X1794883Y713675D1*
X1797735Y715101D1*
X1803472D1*
X1779883D2*
Y693579D1*
X1778457Y689268D1*
X1775572Y686416D1*
X1771261Y684957D1*
X1768409D1*
X1764098Y686416D1*
X1761213Y689268D1*
X1759787Y693579D1*
Y715101D1*
X1740475D2*
Y684957D1*
X1750523Y715101D2*
X1730427D1*
X1721164Y709331D2*
X1718279Y710790D1*
X1713968Y715068D1*
Y684957D1*
X1704704Y715101D2*
Y684957D1*
X1691771D1*
X1687460Y686416D1*
X1686034Y687842D1*
X1684608Y690694D1*
Y695005D1*
X1686034Y697890D1*
X1687460Y699316D1*
X1691771Y700742D1*
X1687460Y702201D1*
X1686034Y703627D1*
X1684608Y706479D1*
Y709364D1*
X1686034Y712216D1*
X1687460Y713675D1*
X1691771Y715101D1*
X1704704D1*
Y700742D2*
X1691771D1*
X1388655Y1058814D2*
Y1035866D1*
X1390081Y1031555D1*
X1391540Y1030129D1*
X1394392Y1028670D1*
X1397277D1*
X1400129Y1030129D1*
X1401555Y1031555D1*
X1403014Y1035866D1*
Y1038718D1*
X1373654Y1028670D2*
X1359295Y1058781D1*
X1379391D1*
X1350032Y1023696D2*
X1322773D1*
X1313509Y1053044D2*
X1310624Y1054503D1*
X1306313Y1058781D1*
Y1028670D1*
X1436425Y1222130D2*
X1439310Y1220704D1*
X1442162Y1217819D1*
X1443621Y1214967D1*
X1445047Y1210656D1*
Y1203460D1*
X1443621Y1199182D1*
X1442162Y1196297D1*
X1439310Y1193445D1*
X1436425Y1191986D1*
X1430688D1*
X1427836Y1193445D1*
X1424951Y1196297D1*
X1423525Y1199182D1*
X1422099Y1203460D1*
Y1210656D1*
X1423525Y1214967D1*
X1424951Y1217819D1*
X1427836Y1220704D1*
X1430688Y1222130D1*
X1436425D1*
X1412836D2*
Y1200608D1*
X1411410Y1196297D1*
X1408525Y1193445D1*
X1404214Y1191986D1*
X1401362D1*
X1397051Y1193445D1*
X1394166Y1196297D1*
X1392740Y1200608D1*
Y1222130D1*
X1373428D2*
Y1191986D1*
X1383476Y1222130D2*
X1363380D1*
X1352658Y1214934D2*
Y1216360D1*
X1351232Y1219245D1*
X1349806Y1220671D1*
X1346921Y1222097D1*
X1341184D1*
X1338332Y1220671D1*
X1336906Y1219245D1*
X1335447Y1216360D1*
Y1213508D1*
X1336906Y1210623D1*
X1339758Y1206345D1*
X1354117Y1191986D1*
X1334021D1*
X1301776D2*
X1313283Y1222130D1*
X1324757Y1191986D1*
X1320446Y1202034D2*
X1306087D1*
X1389137Y570326D2*
Y547378D1*
X1390563Y543067D1*
X1392022Y541641D1*
X1394874Y540182D1*
X1397759D1*
X1400611Y541641D1*
X1402037Y543067D1*
X1403496Y547378D1*
Y550230D1*
X1372711Y570293D2*
X1376988Y568867D1*
X1378448Y566015D1*
Y563130D1*
X1376988Y560278D1*
X1374137Y558819D1*
X1368400Y557393D1*
X1364089Y555967D1*
X1361237Y553082D1*
X1359811Y550230D1*
Y545919D1*
X1361237Y543067D1*
X1362663Y541608D1*
X1366974Y540182D1*
X1372711D1*
X1376988Y541608D1*
X1378448Y543067D1*
X1379874Y545919D1*
Y550230D1*
X1378448Y553082D1*
X1375562Y555967D1*
X1371285Y557393D1*
X1365548Y558819D1*
X1362663Y560278D1*
X1361237Y563130D1*
Y566015D1*
X1362663Y568867D1*
X1366974Y570293D1*
X1372711D1*
X1350547Y535208D2*
X1323288D1*
X1314025Y564556D2*
X1311140Y566015D1*
X1306829Y570293D1*
Y540182D1*
X1416235Y708878D2*
X1419120Y707452D1*
X1421972Y704567D1*
X1423431Y701715D1*
X1424857Y697404D1*
Y690208D1*
X1423431Y685930D1*
X1421972Y683045D1*
X1419120Y680193D1*
X1416235Y678734D1*
X1410498D1*
X1407646Y680193D1*
X1404761Y683045D1*
X1403335Y685930D1*
X1401909Y690208D1*
Y697404D1*
X1403335Y701715D1*
X1404761Y704567D1*
X1407646Y707452D1*
X1410498Y708878D1*
X1416235D1*
X1392645D2*
Y687356D1*
X1391219Y683045D1*
X1388334Y680193D1*
X1384023Y678734D1*
X1381171D1*
X1376860Y680193D1*
X1373975Y683045D1*
X1372549Y687356D1*
Y708878D1*
X1353238D2*
Y678734D1*
X1363286Y708878D2*
X1343190D1*
X1332467Y701682D2*
Y703107D1*
X1331041Y705993D1*
X1329615Y707419D1*
X1326730Y708844D1*
X1320993D1*
X1318141Y707419D1*
X1316715Y705993D1*
X1315256Y703107D1*
Y700256D1*
X1316715Y697371D1*
X1319567Y693093D1*
X1333926Y678734D1*
X1313830D1*
X1304567Y708878D2*
Y678734D1*
X1291634D1*
X1287322Y680193D1*
X1285897Y681619D1*
X1284471Y684471D1*
Y688782D1*
X1285897Y691667D1*
X1287322Y693093D1*
X1291634Y694519D1*
X1287322Y695978D1*
X1285897Y697404D1*
X1284471Y700256D1*
Y703141D1*
X1285897Y705993D1*
X1287322Y707452D1*
X1291634Y708878D1*
X1304567D1*
Y694519D2*
X1291634D1*
X1785827Y4409711D2*
X1788679Y4412596D1*
X1792990Y4414022D1*
X1798727D1*
X1803038Y4412596D1*
X1805923Y4409711D1*
Y4406860D1*
X1804464Y4403974D1*
X1803038Y4402548D1*
X1800186Y4401123D1*
X1791564Y4398237D1*
X1788679Y4396812D1*
X1787253Y4395352D1*
X1785827Y4392500D1*
Y4388189D1*
X1788679Y4385338D1*
X1792990Y4383878D1*
X1798727D1*
X1803038Y4385338D1*
X1805923Y4388189D1*
X1776564Y4414022D2*
X1769368Y4383878D1*
X1762205Y4414022D1*
X1755042Y4383878D1*
X1747846Y4414022D1*
X1738582Y4408252D2*
X1735697Y4409711D1*
X1731386Y4413989D1*
Y4383878D1*
X1722123Y4378904D2*
X1694864D1*
X1685600Y4408252D2*
X1682715Y4409711D1*
X1678404Y4413989D1*
Y4383878D1*
X1411025Y4409711D2*
X1413877Y4412596D1*
X1418188Y4414022D1*
X1423925D1*
X1428236Y4412596D1*
X1431121Y4409711D1*
Y4406860D1*
X1429662Y4403974D1*
X1428236Y4402548D1*
X1425384Y4401123D1*
X1416762Y4398237D1*
X1413877Y4396812D1*
X1412451Y4395352D1*
X1411025Y4392500D1*
Y4388189D1*
X1413877Y4385338D1*
X1418188Y4383878D1*
X1423925D1*
X1428236Y4385338D1*
X1431121Y4388189D1*
X1401762Y4414022D2*
X1394566Y4383878D1*
X1387403Y4414022D1*
X1380240Y4383878D1*
X1373044Y4414022D1*
X1362321Y4406826D2*
Y4408252D1*
X1360895Y4411137D1*
X1359469Y4412563D1*
X1356584Y4413989D1*
X1350847D1*
X1347995Y4412563D1*
X1346569Y4411137D1*
X1345110Y4408252D1*
Y4405400D1*
X1346569Y4402515D1*
X1349421Y4398237D1*
X1363780Y4383878D1*
X1343684D1*
X1334421Y4378904D2*
X1307162D1*
X1297898Y4408252D2*
X1295013Y4409711D1*
X1290702Y4413989D1*
Y4383878D1*
X1802977Y4121288D2*
X1791503Y4091144D1*
X1780029Y4121288D1*
X1770765Y4106929D2*
X1757865D1*
X1753554Y4108388D1*
X1752095Y4109814D1*
X1750669Y4112666D1*
Y4115551D1*
X1752095Y4118403D1*
X1753554Y4119862D1*
X1757865Y4121288D1*
X1770765D1*
Y4091144D1*
X1760717Y4106929D2*
X1750669Y4091144D1*
X1741406Y4115518D2*
X1738520Y4116977D1*
X1734209Y4121255D1*
Y4091144D1*
X1724946Y4086170D2*
X1697687D1*
X1688423Y4115518D2*
X1685538Y4116977D1*
X1681227Y4121255D1*
Y4091144D1*
X1428217Y4121288D2*
X1416743Y4091144D1*
X1405269Y4121288D1*
X1396005Y4106929D2*
X1383105D1*
X1378794Y4108388D1*
X1377335Y4109814D1*
X1375909Y4112666D1*
Y4115551D1*
X1377335Y4118403D1*
X1378794Y4119862D1*
X1383105Y4121288D1*
X1396005D1*
Y4091144D1*
X1385957Y4106929D2*
X1375909Y4091144D1*
X1365186Y4114092D2*
Y4115518D1*
X1363760Y4118403D1*
X1362335Y4119829D1*
X1359449Y4121255D1*
X1353712D1*
X1350861Y4119829D1*
X1349435Y4118403D1*
X1347975Y4115518D1*
Y4112666D1*
X1349435Y4109781D1*
X1352287Y4105503D1*
X1366646Y4091144D1*
X1346550D1*
X1337286Y4086170D2*
X1310027D1*
X1300764Y4115518D2*
X1297878Y4116977D1*
X1293567Y4121255D1*
Y4091144D1*
X988655Y1495063D2*
Y1472115D1*
X990081Y1467804D1*
X991540Y1466378D1*
X994392Y1464919D1*
X997277D1*
X1000129Y1466378D1*
X1001555Y1467804D1*
X1003014Y1472115D1*
Y1474967D1*
X979391Y1489293D2*
X976506Y1490752D1*
X972195Y1495030D1*
Y1464919D1*
X962932Y1459945D2*
X935673D1*
X924950Y1487867D2*
Y1489293D1*
X923524Y1492178D1*
X922098Y1493604D1*
X919213Y1495030D1*
X913476D1*
X910624Y1493604D1*
X909198Y1492178D1*
X907739Y1489293D1*
Y1486441D1*
X909198Y1483556D1*
X912050Y1479278D1*
X926409Y1464919D1*
X906313D1*
X974488Y1632468D2*
X975914Y1635320D1*
X978799Y1638205D1*
X981650Y1639631D1*
X987387D1*
X990273Y1638205D1*
X993124Y1635320D1*
X994584Y1632468D1*
X996010Y1628157D1*
Y1620961D1*
X994584Y1616683D1*
X993124Y1613798D1*
X990273Y1610946D1*
X987387Y1609487D1*
X981650D1*
X978799Y1610946D1*
X975914Y1613798D1*
X974488Y1616683D1*
X965224Y1639631D2*
X953750Y1609487D1*
X942276Y1639631D1*
X933013Y1633861D2*
X930127Y1635320D1*
X925816Y1639598D1*
Y1609487D1*
X607604Y1495063D2*
Y1472115D1*
X609030Y1467804D1*
X610489Y1466378D1*
X613341Y1464919D1*
X616226D1*
X619078Y1466378D1*
X620504Y1467804D1*
X621963Y1472115D1*
Y1474967D1*
X596881Y1487867D2*
Y1489293D1*
X595455Y1492178D1*
X594029Y1493604D1*
X591144Y1495030D1*
X585407D1*
X582555Y1493604D1*
X581129Y1492178D1*
X579670Y1489293D1*
Y1486441D1*
X581129Y1483556D1*
X583981Y1479278D1*
X598340Y1464919D1*
X578244D1*
X568981Y1459945D2*
X541722D1*
X530999Y1487867D2*
Y1489293D1*
X529573Y1492178D1*
X528147Y1493604D1*
X525262Y1495030D1*
X519525D1*
X516673Y1493604D1*
X515247Y1492178D1*
X513788Y1489293D1*
Y1486441D1*
X515247Y1483556D1*
X518099Y1479278D1*
X532458Y1464919D1*
X512362D1*
X587187Y1644967D2*
X588613Y1647819D1*
X591498Y1650704D1*
X594350Y1652130D1*
X600087D1*
X602972Y1650704D1*
X605824Y1647819D1*
X607283Y1644967D1*
X608709Y1640656D1*
Y1633460D1*
X607283Y1629182D1*
X605824Y1626297D1*
X602972Y1623445D1*
X600087Y1621986D1*
X594350D1*
X591498Y1623445D1*
X588613Y1626297D1*
X587187Y1629182D1*
X577923Y1652130D2*
X566449Y1621986D1*
X554975Y1652130D1*
X544253Y1644934D2*
Y1646360D1*
X542827Y1649245D1*
X541401Y1650671D1*
X538516Y1652097D1*
X532779D1*
X529927Y1650671D1*
X528501Y1649245D1*
X527042Y1646360D1*
Y1643508D1*
X528501Y1640623D1*
X531353Y1636345D1*
X545712Y1621986D1*
X525616D1*
X1013853Y1988557D2*
Y1965609D1*
X1015279Y1961298D1*
X1016738Y1959872D1*
X1019590Y1958413D1*
X1022475D1*
X1025327Y1959872D1*
X1026753Y1961298D1*
X1028212Y1965609D1*
Y1968461D1*
X1001704Y1988523D2*
X985953D1*
X994541Y1977049D1*
X990230D1*
X987378Y1975623D1*
X985953Y1974198D1*
X984493Y1969887D1*
Y1967035D1*
X985953Y1962724D1*
X988804Y1959839D1*
X993115Y1958413D1*
X997426D1*
X1001704Y1959839D1*
X1003130Y1961298D1*
X1004589Y1964150D1*
X975230Y1953438D2*
X947971D1*
X937248Y1981360D2*
Y1982786D1*
X935822Y1985672D1*
X934396Y1987097D1*
X931511Y1988523D1*
X925774D1*
X922922Y1987097D1*
X921496Y1985672D1*
X920037Y1982786D1*
Y1979935D1*
X921496Y1977049D1*
X924348Y1972772D1*
X938707Y1958413D1*
X918611D1*
X990072Y2151873D2*
Y2121729D1*
X960712Y2151873D2*
Y2121729D1*
X980808Y2151873D1*
Y2121729D1*
X951449Y2146103D2*
X948564Y2147562D1*
X944253Y2151840D1*
Y2121729D1*
X614566Y1988557D2*
Y1965609D1*
X615992Y1961298D1*
X617451Y1959872D1*
X620303Y1958413D1*
X623188D1*
X626040Y1959872D1*
X627466Y1961298D1*
X628925Y1965609D1*
Y1968461D1*
X590943Y1958413D2*
Y1988523D1*
X605302Y1968461D1*
X583780D1*
X574517Y1953438D2*
X547258D1*
X536535Y1981360D2*
Y1982786D1*
X535109Y1985672D1*
X533683Y1987097D1*
X530798Y1988523D1*
X525061D1*
X522209Y1987097D1*
X520783Y1985672D1*
X519324Y1982786D1*
Y1979935D1*
X520783Y1977049D1*
X523635Y1972772D1*
X537994Y1958413D1*
X517898D1*
X596522Y2164371D2*
Y2134227D1*
X567162Y2164371D2*
Y2134227D1*
X587258Y2164371D1*
Y2134227D1*
X556440Y2157175D2*
Y2158601D1*
X555014Y2161486D1*
X553588Y2162912D1*
X550703Y2164338D1*
X544966D1*
X542114Y2162912D1*
X540688Y2161486D1*
X539229Y2158601D1*
Y2155749D1*
X540688Y2152864D1*
X543540Y2148586D1*
X557899Y2134227D1*
X537803D1*
X1001354Y1055436D2*
Y1032488D1*
X1002780Y1028177D1*
X1004239Y1026751D1*
X1007091Y1025292D1*
X1009976D1*
X1012828Y1026751D1*
X1014254Y1028177D1*
X1015713Y1032488D1*
Y1035340D1*
X974880Y1055403D2*
X989206D1*
X990632Y1042503D1*
X989206Y1043929D1*
X984895Y1045388D1*
X980617D1*
X976306Y1043929D1*
X973421Y1041077D1*
X971995Y1036766D1*
Y1033914D1*
X973421Y1029603D1*
X976306Y1026718D1*
X980617Y1025292D1*
X984895D1*
X989206Y1026718D1*
X990632Y1028177D1*
X992091Y1031029D1*
X962731Y1020318D2*
X935472D1*
X924750Y1048240D2*
Y1049666D1*
X923324Y1052551D1*
X921898Y1053977D1*
X919013Y1055403D1*
X913276D1*
X910424Y1053977D1*
X908998Y1052551D1*
X907539Y1049666D1*
Y1046814D1*
X908998Y1043929D1*
X911850Y1039651D1*
X926209Y1025292D1*
X906113D1*
X1023726Y1212503D2*
X1026611Y1211077D1*
X1029463Y1208192D1*
X1030922Y1205340D1*
X1032348Y1201029D1*
Y1193833D1*
X1030922Y1189555D1*
X1029463Y1186670D1*
X1026611Y1183818D1*
X1023726Y1182359D1*
X1017989D1*
X1015137Y1183818D1*
X1012252Y1186670D1*
X1010826Y1189555D1*
X1009400Y1193833D1*
Y1201029D1*
X1010826Y1205340D1*
X1012252Y1208192D1*
X1015137Y1211077D1*
X1017989Y1212503D1*
X1023726D1*
X1000137D2*
Y1190981D1*
X998711Y1186670D1*
X995825Y1183818D1*
X991514Y1182359D1*
X988663D1*
X984352Y1183818D1*
X981466Y1186670D1*
X980041Y1190981D1*
Y1212503D1*
X960729D2*
Y1182359D1*
X970777Y1212503D2*
X950681D1*
X941417Y1206732D2*
X938532Y1208192D1*
X934221Y1212469D1*
Y1182359D1*
X901977D2*
X913484Y1212503D1*
X924958Y1182359D1*
X920647Y1192407D2*
X906288D1*
X994874Y564077D2*
Y541129D1*
X996300Y536818D1*
X997759Y535392D1*
X1000611Y533933D1*
X1003496D1*
X1006348Y535392D1*
X1007774Y536818D1*
X1009233Y541129D1*
Y543981D1*
X968400Y559766D2*
X969826Y562617D1*
X974137Y564043D1*
X976988D1*
X981299Y562617D1*
X984185Y558306D1*
X985611Y551144D1*
Y543981D1*
X984185Y538244D1*
X981299Y535359D1*
X976988Y533933D1*
X975562D1*
X971285Y535359D1*
X968400Y538244D1*
X966974Y542555D1*
Y543981D1*
X968400Y548292D1*
X971285Y551144D1*
X975562Y552569D1*
X976988D1*
X981299Y551144D1*
X984185Y548292D1*
X985611Y543981D1*
X957710Y528958D2*
X930451D1*
X919728Y556880D2*
Y558306D1*
X918303Y561192D1*
X916877Y562617D1*
X913991Y564043D1*
X908255D1*
X905403Y562617D1*
X903977Y561192D1*
X902518Y558306D1*
Y555455D1*
X903977Y552569D1*
X906829Y548292D1*
X921188Y533933D1*
X901092D1*
X1022283Y715127D2*
X1025168Y713701D1*
X1028020Y710816D1*
X1029479Y707964D1*
X1030905Y703653D1*
Y696457D1*
X1029479Y692179D1*
X1028020Y689294D1*
X1025168Y686442D1*
X1022283Y684983D1*
X1016546D1*
X1013694Y686442D1*
X1010809Y689294D1*
X1009383Y692179D1*
X1007958Y696457D1*
Y703653D1*
X1009383Y707964D1*
X1010809Y710816D1*
X1013694Y713701D1*
X1016546Y715127D1*
X1022283D1*
X998694D2*
Y693605D1*
X997268Y689294D1*
X994383Y686442D1*
X990072Y684983D1*
X987220D1*
X982909Y686442D1*
X980024Y689294D1*
X978598Y693605D1*
Y715127D1*
X959286D2*
Y684983D1*
X969334Y715127D2*
X949238D1*
X939975Y709357D2*
X937090Y710816D1*
X932779Y715094D1*
Y684983D1*
X923515Y715127D2*
Y684983D1*
X910582D1*
X906271Y686442D1*
X904845Y687868D1*
X903419Y690720D1*
Y695031D1*
X904845Y697916D1*
X906271Y699342D1*
X910582Y700768D1*
X906271Y702227D1*
X904845Y703653D1*
X903419Y706505D1*
Y709390D1*
X904845Y712242D1*
X906271Y713701D1*
X910582Y715127D1*
X923515D1*
Y700768D2*
X910582D1*
X601354Y1055436D2*
Y1032488D1*
X602780Y1028177D1*
X604239Y1026751D1*
X607091Y1025292D1*
X609976D1*
X612828Y1026751D1*
X614254Y1028177D1*
X615713Y1032488D1*
Y1035340D1*
X586354Y1025292D2*
X571995Y1055403D1*
X592091D1*
X562731Y1020318D2*
X535472D1*
X524750Y1048240D2*
Y1049666D1*
X523324Y1052551D1*
X521898Y1053977D1*
X519013Y1055403D1*
X513276D1*
X510424Y1053977D1*
X508998Y1052551D1*
X507539Y1049666D1*
Y1046814D1*
X508998Y1043929D1*
X511850Y1039651D1*
X526209Y1025292D1*
X506113D1*
X623927Y1231251D2*
X626812Y1229825D1*
X629664Y1226940D1*
X631123Y1224088D1*
X632549Y1219777D1*
Y1212581D1*
X631123Y1208303D1*
X629664Y1205418D1*
X626812Y1202566D1*
X623927Y1201107D1*
X618190D1*
X615338Y1202566D1*
X612453Y1205418D1*
X611027Y1208303D1*
X609601Y1212581D1*
Y1219777D1*
X611027Y1224088D1*
X612453Y1226940D1*
X615338Y1229825D1*
X618190Y1231251D1*
X623927D1*
X600337D2*
Y1209729D1*
X598911Y1205418D1*
X596026Y1202566D1*
X591715Y1201107D1*
X588863D1*
X584552Y1202566D1*
X581667Y1205418D1*
X580241Y1209729D1*
Y1231251D1*
X560930D2*
Y1201107D1*
X570978Y1231251D2*
X550882D1*
X540159Y1224055D2*
Y1225481D1*
X538733Y1228366D1*
X537307Y1229792D1*
X534422Y1231217D1*
X528685D1*
X525833Y1229792D1*
X524407Y1228366D1*
X522948Y1225481D1*
Y1222629D1*
X524407Y1219744D1*
X527259Y1215466D1*
X541618Y1201107D1*
X521522D1*
X489277D2*
X500785Y1231251D1*
X512258Y1201107D1*
X507947Y1211155D2*
X493588D1*
X608086Y570326D2*
Y547378D1*
X609512Y543067D1*
X610971Y541641D1*
X613823Y540182D1*
X616708D1*
X619560Y541641D1*
X620986Y543067D1*
X622445Y547378D1*
Y550230D1*
X591659Y570293D2*
X595937Y568867D1*
X597396Y566015D1*
Y563130D1*
X595937Y560278D1*
X593085Y558819D1*
X587348Y557393D1*
X583037Y555967D1*
X580185Y553082D1*
X578759Y550230D1*
Y545919D1*
X580185Y543067D1*
X581611Y541608D1*
X585922Y540182D1*
X591659D1*
X595937Y541608D1*
X597396Y543067D1*
X598822Y545919D1*
Y550230D1*
X597396Y553082D1*
X594511Y555967D1*
X590233Y557393D1*
X584496Y558819D1*
X581611Y560278D1*
X580185Y563130D1*
Y566015D1*
X581611Y568867D1*
X585922Y570293D1*
X591659D1*
X569496Y535208D2*
X542237D1*
X531514Y563130D2*
Y564556D1*
X530088Y567441D1*
X528662Y568867D1*
X525777Y570293D1*
X520040D1*
X517188Y568867D1*
X515762Y567441D1*
X514303Y564556D1*
Y561704D1*
X515762Y558819D1*
X518614Y554541D1*
X532973Y540182D1*
X512877D1*
X641232Y708878D2*
X644117Y707452D1*
X646969Y704567D1*
X648428Y701715D1*
X649854Y697404D1*
Y690208D1*
X648428Y685930D1*
X646969Y683045D1*
X644117Y680193D1*
X641232Y678734D1*
X635495D1*
X632643Y680193D1*
X629758Y683045D1*
X628332Y685930D1*
X626906Y690208D1*
Y697404D1*
X628332Y701715D1*
X629758Y704567D1*
X632643Y707452D1*
X635495Y708878D1*
X641232D1*
X617643D2*
Y687356D1*
X616217Y683045D1*
X613332Y680193D1*
X609021Y678734D1*
X606169D1*
X601858Y680193D1*
X598973Y683045D1*
X597547Y687356D1*
Y708878D1*
X578235D2*
Y678734D1*
X588283Y708878D2*
X568187D1*
X557464Y701682D2*
Y703107D1*
X556038Y705993D1*
X554612Y707419D1*
X551727Y708844D1*
X545990D1*
X543139Y707419D1*
X541713Y705993D1*
X540253Y703107D1*
Y700256D1*
X541713Y697371D1*
X544564Y693093D1*
X558924Y678734D1*
X538828D1*
X529564Y708878D2*
Y678734D1*
X516631D1*
X512320Y680193D1*
X510894Y681619D1*
X509468Y684471D1*
Y688782D1*
X510894Y691667D1*
X512320Y693093D1*
X516631Y694519D1*
X512320Y695978D1*
X510894Y697404D1*
X509468Y700256D1*
Y703141D1*
X510894Y705993D1*
X512320Y707452D1*
X516631Y708878D1*
X529564D1*
Y694519D2*
X516631D1*
X1023525Y4409711D2*
X1026377Y4412596D1*
X1030688Y4414022D1*
X1036425D1*
X1040736Y4412596D1*
X1043621Y4409711D1*
Y4406860D1*
X1042162Y4403974D1*
X1040736Y4402548D1*
X1037884Y4401123D1*
X1029262Y4398237D1*
X1026377Y4396812D1*
X1024951Y4395352D1*
X1023525Y4392500D1*
Y4388189D1*
X1026377Y4385338D1*
X1030688Y4383878D1*
X1036425D1*
X1040736Y4385338D1*
X1043621Y4388189D1*
X1014262Y4414022D2*
X1007066Y4383878D1*
X999903Y4414022D1*
X992740Y4383878D1*
X985544Y4414022D1*
X976280Y4408252D2*
X973395Y4409711D1*
X969084Y4413989D1*
Y4383878D1*
X959821Y4378904D2*
X932562D1*
X921839Y4406826D2*
Y4408252D1*
X920413Y4411137D1*
X918987Y4412563D1*
X916102Y4413989D1*
X910365D1*
X907513Y4412563D1*
X906087Y4411137D1*
X904628Y4408252D1*
Y4405400D1*
X906087Y4402515D1*
X908939Y4398237D1*
X923298Y4383878D1*
X903202D1*
X648725Y4409711D2*
X651577Y4412596D1*
X655888Y4414022D1*
X661625D1*
X665936Y4412596D1*
X668821Y4409711D1*
Y4406860D1*
X667361Y4403974D1*
X665936Y4402548D1*
X663084Y4401123D1*
X654462Y4398237D1*
X651577Y4396812D1*
X650151Y4395352D1*
X648725Y4392500D1*
Y4388189D1*
X651577Y4385338D1*
X655888Y4383878D1*
X661625D1*
X665936Y4385338D1*
X668821Y4388189D1*
X639461Y4414022D2*
X632265Y4383878D1*
X625102Y4414022D1*
X617939Y4383878D1*
X610743Y4414022D1*
X600020Y4406826D2*
Y4408252D1*
X598594Y4411137D1*
X597168Y4412563D1*
X594283Y4413989D1*
X588546D1*
X585694Y4412563D1*
X584269Y4411137D1*
X582809Y4408252D1*
Y4405400D1*
X584269Y4402515D1*
X587120Y4398237D1*
X601479Y4383878D1*
X581383D1*
X572120Y4378904D2*
X544861D1*
X534138Y4406826D2*
Y4408252D1*
X532712Y4411137D1*
X531286Y4412563D1*
X528401Y4413989D1*
X522664D1*
X519812Y4412563D1*
X518386Y4411137D1*
X516927Y4408252D1*
Y4405400D1*
X518386Y4402515D1*
X521238Y4398237D1*
X535597Y4383878D1*
X515501D1*
X1040757Y4121288D2*
X1029283Y4091144D1*
X1017809Y4121288D1*
X1008546Y4106929D2*
X995646D1*
X991335Y4108388D1*
X989876Y4109814D1*
X988450Y4112666D1*
Y4115551D1*
X989876Y4118403D1*
X991335Y4119862D1*
X995646Y4121288D1*
X1008546D1*
Y4091144D1*
X998498Y4106929D2*
X988450Y4091144D1*
X979186Y4115518D2*
X976301Y4116977D1*
X971990Y4121255D1*
Y4091144D1*
X962727Y4086170D2*
X935468D1*
X924745Y4114092D2*
Y4115518D1*
X923319Y4118403D1*
X921893Y4119829D1*
X919008Y4121255D1*
X913271D1*
X910419Y4119829D1*
X908993Y4118403D1*
X907534Y4115518D1*
Y4112666D1*
X908993Y4109781D1*
X911845Y4105503D1*
X926204Y4091144D1*
X906108D1*
X665997Y4121288D2*
X654523Y4091144D1*
X643049Y4121288D1*
X633786Y4106929D2*
X620886D1*
X616575Y4108388D1*
X615116Y4109814D1*
X613690Y4112666D1*
Y4115551D1*
X615116Y4118403D1*
X616575Y4119862D1*
X620886Y4121288D1*
X633786D1*
Y4091144D1*
X623738Y4106929D2*
X613690Y4091144D1*
X602967Y4114092D2*
Y4115518D1*
X601541Y4118403D1*
X600115Y4119829D1*
X597230Y4121255D1*
X591493D1*
X588641Y4119829D1*
X587215Y4118403D1*
X585756Y4115518D1*
Y4112666D1*
X587215Y4109781D1*
X590067Y4105503D1*
X604426Y4091144D1*
X584330D1*
X575067Y4086170D2*
X547808D1*
X537085Y4114092D2*
Y4115518D1*
X535659Y4118403D1*
X534233Y4119829D1*
X531348Y4121255D1*
X525611D1*
X522759Y4119829D1*
X521333Y4118403D1*
X519874Y4115518D1*
Y4112666D1*
X521333Y4109781D1*
X524185Y4105503D1*
X538544Y4091144D1*
X518448D1*
M02*
