G04 DipTrace 3.2.0.1*
G04 twigs02.GBS*
%MOIN*%
G04 #@! TF.FileFunction,Soldermask,Bot*
G04 #@! TF.Part,Single*
%AMOUTLINE4*
4,1,8,
0.034184,-0.014159,
0.014159,-0.034184,
-0.014159,-0.034184,
-0.034184,-0.014159,
-0.034184,0.014159,
-0.014159,0.034184,
0.014159,0.034184,
0.034184,0.014159,
0.034184,-0.014159,
0*%
%ADD38C,0.074*%
%ADD44C,0.128*%
%ADD50O,0.063X0.098*%
%ADD58O,0.093X0.073*%
%ADD60C,0.073*%
%ADD62O,0.093X0.083*%
%ADD75OUTLINE4*%
%FSLAX26Y26*%
G04*
G70*
G90*
G75*
G01*
G04 BotMask*
%LPD*%
D75*
X960912Y4450338D3*
Y4550338D3*
X1060912Y4450338D3*
Y4550338D3*
X1160912Y4450338D3*
Y4550338D3*
X1260912Y4450338D3*
Y4550338D3*
X1360912Y4450338D3*
Y4550338D3*
D62*
X1760912Y1706089D3*
Y1381089D3*
D60*
Y1806089D3*
D62*
X1367162Y1706089D3*
Y1381089D3*
D60*
Y1806089D3*
D62*
X1760912Y1907089D3*
Y2232089D3*
D60*
Y1807089D3*
D62*
X1367162Y1907089D3*
Y2232089D3*
D60*
Y1807089D3*
D62*
X1760850Y969514D3*
Y1294514D3*
D60*
Y869514D3*
D58*
Y768564D3*
Y443564D3*
D60*
Y868564D3*
D62*
X1367162Y971096D3*
Y1296096D3*
D60*
Y871096D3*
D58*
Y768590D3*
Y443590D3*
D60*
Y868590D3*
D38*
X1870164Y4333089D3*
X1614164D3*
X1870164Y4155089D3*
X1614164D3*
X1488912Y4333089D3*
X1232912D3*
X1488912Y4155089D3*
X1232912D3*
D50*
X1792102Y2400144D3*
X1892102D3*
X1792102Y3974947D3*
X1692102Y2400144D3*
X1592102Y3974947D3*
Y2400144D3*
X1410892D3*
X1510892D3*
X1410892Y3974947D3*
X1310892Y2400144D3*
X1210892Y3974947D3*
Y2400144D3*
D62*
X967162Y1706089D3*
Y1381089D3*
D60*
Y1806089D3*
D62*
X573412Y1706089D3*
Y1381089D3*
D60*
Y1806089D3*
D62*
X967162Y1907089D3*
Y2232089D3*
D60*
Y1807089D3*
D62*
X573412Y1907089D3*
Y2232089D3*
D60*
Y1807089D3*
D62*
X967162Y967719D3*
Y1292719D3*
D60*
Y867719D3*
D58*
Y768590D3*
Y443590D3*
D60*
Y868590D3*
D62*
X573412Y967719D3*
Y1292719D3*
D60*
Y867719D3*
D58*
Y768590D3*
Y443590D3*
D60*
Y868590D3*
D38*
X1101412Y4333089D3*
X845412D3*
X1101412Y4155089D3*
X845412D3*
X720161Y4333089D3*
X464161D3*
X720161Y4155089D3*
X464161D3*
D50*
X1023433Y2400144D3*
X1123433D3*
X1023433Y3974947D3*
X923433Y2400144D3*
X823433Y3974947D3*
Y2400144D3*
X642223D3*
X742223D3*
X642223Y3974947D3*
X542223Y2400144D3*
X442223Y3974947D3*
Y2400144D3*
D44*
X542162Y4544089D3*
X1792162D3*
M02*
